<svg width="324" height="198" fill="none" xmlns="http://www.w3.org/2000/svg"><g clip-path="url(#clip0)"><path d="M49.452 71.268a21.875 21.875 0 0 0 3.612 3.756c1.367 1.122 2.88 2.05 4.394 2.83l2.44-4.05c1.465.635 2.93 1.123 4.492 1.367l-.195 4.731c3.466.488 7.03.098 10.3-1.024l-1.172-4.585a17.843 17.843 0 0 0 4.15-2.196l3.222 3.513A21.875 21.875 0 0 0 84.454 72c1.123-1.366 2.05-2.878 2.831-4.39l-4.052-2.44c.635-1.463 1.123-2.926 1.367-4.487l4.736.195c.488-3.463.097-7.024-1.026-10.293l-4.588 1.171a17.822 17.822 0 0 0-2.197-4.146l3.515-3.22a21.875 21.875 0 0 0-3.613-3.756c-1.367-1.122-2.88-2.049-4.394-2.83l-2.44 4.05c-1.465-.635-2.93-1.122-4.492-1.366l.196-4.732c-3.466-.488-7.03-.098-10.3 1.025l1.17 4.585a17.844 17.844 0 0 0-4.148 2.195l-3.222-3.512a21.871 21.871 0 0 0-3.76 3.61c-1.122 1.365-2.05 2.878-2.83 4.39l4.051 2.439c-.635 1.463-1.123 2.927-1.367 4.488l-4.735-.195c-.488 3.463-.098 7.024 1.025 10.292l4.589-1.17a17.817 17.817 0 0 0 2.197 4.146l-3.515 3.22zm9.422-20.292c3.758-4.586 10.544-5.269 15.133-1.513C78.596 53.22 79.279 60 75.52 64.585c-3.759 4.586-10.544 5.269-15.133 1.513-4.589-3.757-5.272-10.537-1.514-15.122zm2.83 2.341a7.065 7.065 0 0 1 9.96-.976 7.052 7.052 0 0 1 .976 9.952 7.065 7.065 0 0 1-9.959.975c-2.978-2.487-3.417-6.927-.976-9.951zM166.174 32.049a29.952 29.952 0 0 0 1.757 6.341c.879 2.098 1.953 4 3.222 5.756l5.126-3.073c1.22 1.61 2.636 2.976 4.149 4.195l-3.075 5.122c3.564 2.586 7.713 4.293 12.058 5.025l1.464-5.805c1.953.244 3.906.292 5.907 0l1.465 5.805a29.99 29.99 0 0 0 6.346-1.757 28.687 28.687 0 0 0 5.76-3.219l-3.075-5.122c1.611-1.22 2.978-2.634 4.198-4.146l5.126 3.073c2.587-3.561 4.296-7.707 5.028-12.049l-5.809-1.463c.244-1.951.293-3.903 0-5.903l5.809-1.463a29.952 29.952 0 0 0-1.757-6.342c-.879-2.097-1.953-4-3.222-5.756l-5.126 3.073c-1.22-1.61-2.636-2.975-4.149-4.195l3.075-5.122C206.887 2.44 202.738.732 198.393 0l-1.464 5.805c-1.953-.244-3.906-.293-5.907 0L189.557 0a29.996 29.996 0 0 0-6.346 1.756 28.69 28.69 0 0 0-5.76 3.22l3.075 5.122c-1.611 1.22-2.978 2.634-4.198 4.146l-5.126-3.073c-2.587 3.56-4.296 7.707-5.028 12.049l5.809 1.463c-.244 1.951-.293 3.902 0 5.902l-5.809 1.464zm22.602-16.83a13.547 13.547 0 0 1 17.672 7.366 13.53 13.53 0 0 1-7.371 17.659 13.547 13.547 0 0 1-17.672-7.366c-2.832-6.927.439-14.83 7.371-17.659zm1.758 4.244c4.54-1.853 9.763.293 11.618 4.83 1.855 4.536-.293 9.756-4.833 11.61-4.54 1.853-9.763-.293-11.618-4.83-1.904-4.536.293-9.707 4.833-11.61zM245.014 54.098a20.316 20.316 0 0 0 2.832 2.975 17.279 17.279 0 0 0 3.466 2.195l1.904-3.22c1.123.537 2.343.879 3.515 1.074l-.196 3.756c2.734.39 5.517.098 8.104-.83l-.928-3.609a15.157 15.157 0 0 0 3.271-1.756l2.539 2.78a20.326 20.326 0 0 0 2.978-2.829 17.31 17.31 0 0 0 2.196-3.463l-3.222-1.903c.537-1.122.879-2.341 1.074-3.512l3.759.195a16.892 16.892 0 0 0-.83-8.097l-3.612.927a15.1 15.1 0 0 0-1.758-3.269l2.783-2.536A20.304 20.304 0 0 0 270.058 30a17.307 17.307 0 0 0-3.466-2.195l-1.904 3.22c-1.123-.537-2.343-.879-3.515-1.074l.195-3.756a16.938 16.938 0 0 0-8.103.83l.927 3.61a15.152 15.152 0 0 0-3.271 1.755l-2.538-2.78a20.326 20.326 0 0 0-2.978 2.829 17.272 17.272 0 0 0-2.197 3.463l3.222 1.903c-.537 1.122-.879 2.341-1.074 3.512l-3.759-.195a16.916 16.916 0 0 0 .83 8.097l3.613-.926a15.14 15.14 0 0 0 1.757 3.268l-2.783 2.537zm7.421-15.952c2.977-3.61 8.299-4.146 11.911-1.17 3.613 2.975 4.15 8.292 1.172 11.902-2.978 3.61-8.299 4.146-11.912 1.17-3.612-2.975-4.149-8.292-1.171-11.902zM254.68 40c1.953-2.39 5.468-2.732 7.811-.78 2.392 1.95 2.734 5.463.781 7.804-1.953 2.39-5.467 2.732-7.811.78A5.516 5.516 0 0 1 254.68 40zM92.9 27.854c.39-.83.683-1.659.83-2.586.194-.927.243-1.805.243-2.683l-2.49-.146a8.017 8.017 0 0 0-.487-2.39l2.245-1.025c-.635-1.707-1.66-3.268-2.978-4.487l-1.855 1.658c-.586-.536-1.27-.975-2.001-1.366l.83-2.341c-.83-.39-1.66-.683-2.588-.83-.927-.194-1.806-.243-2.685-.243l-.146 2.488c-.83.048-1.611.195-2.392.487l-1.074-2.244c-1.709.634-3.27 1.659-4.491 2.976l1.66 1.854c-.538.585-.977 1.268-1.368 2l-2.343-.83c-.39.83-.683 1.659-.83 2.586-.195.927-.244 1.805-.244 2.683l2.49.146c.049.83.195 1.61.488 2.39l-2.245 1.073c.634 1.708 1.66 3.269 2.977 4.488l1.856-1.658c.585.536 1.269.975 2.001 1.366l-.83 2.341c.83.39 1.66.683 2.587.83.928.194 1.807.243 2.685.243l.147-2.488a8.033 8.033 0 0 0 2.392-.487l1.074 2.244c1.708-.635 3.27-1.66 4.491-2.976l-1.66-1.854c.537-.585.977-1.268 1.367-2l2.343.78zm-11.62.634c-3.026-.634-4.978-3.561-4.393-6.585a5.639 5.639 0 0 1 6.59-4.39c3.027.633 4.98 3.56 4.394 6.585-.634 3.024-3.612 4.975-6.59 4.39zM288.12 72.683c.537-.634.976-1.268 1.367-2.049a8.13 8.13 0 0 0 .83-2.293l-2.099-.731c.146-.732.195-1.464.195-2.195l2.197-.39c-.147-1.66-.635-3.22-1.514-4.635l-2.001.976c-.391-.634-.879-1.17-1.416-1.659l1.269-1.804a9.988 9.988 0 0 0-2.05-1.366 8.106 8.106 0 0 0-2.294-.83l-.733 2.098a11.145 11.145 0 0 0-2.196-.195l-.391-2.195c-1.66.146-3.222.634-4.638 1.512l.977 2c-.635.39-1.172.878-1.66 1.415l-1.806-1.269a9.974 9.974 0 0 0-1.367 2.049 8.07 8.07 0 0 0-.83 2.293l2.099.731a11.159 11.159 0 0 0-.195 2.195l-2.197.39c.146 1.66.635 3.22 1.513 4.635l2.002-.976c.39.634.879 1.171 1.416 1.659l-1.27 1.805c.635.536 1.27.975 2.051 1.365.732.39 1.513.684 2.294.83l.732-2.098c.733.147 1.465.195 2.197.195l.391 2.195c1.659-.146 3.221-.634 4.637-1.512l-.976-2c.634-.39 1.171-.878 1.66-1.414l1.806 1.268zm-10.252-2.293a5.026 5.026 0 0 1-2.196-6.78 5.033 5.033 0 0 1 6.785-2.195 5.026 5.026 0 0 1 2.197 6.78c-1.269 2.44-4.296 3.415-6.786 2.195zM4.003 112.732h-1.66a.542.542 0 0 1-.536-.537v-1.658c0-.293.244-.537.537-.537h1.66c.292 0 .536.244.536.537v1.658a.542.542 0 0 1-.537.537zM323.463 89.512h-1.659a.541.541 0 0 1-.537-.536v-1.659c0-.293.244-.536.537-.536h1.659c.293 0 .537.243.537.536v1.659c0 .292-.195.536-.537.536zM160.755 6.83h-1.659a.541.541 0 0 1-.537-.537V4.634c0-.293.244-.536.537-.536h1.659c.293 0 .537.243.537.536v1.659a.541.541 0 0 1-.537.536zM266.347 75.17h-1.66a.541.541 0 0 1-.537-.536v-1.658c0-.293.244-.537.537-.537h1.66c.293 0 .537.244.537.537v1.658c0 .341-.244.537-.537.537zM109.742 29.366h-1.66a.541.541 0 0 1-.537-.537v-1.658c0-.293.244-.537.537-.537h1.66c.293 0 .537.244.537.537v1.658c0 .293-.196.537-.537.537z" fill="#EDEEF7"/><path d="M79.963 84.39a2.245 2.245 0 1 0 .002-4.49 2.245 2.245 0 0 0-.002 4.49zM49.94 32.195a2.245 2.245 0 1 0 .003-4.49 2.245 2.245 0 0 0-.002 4.49zM303.449 57.122a2.244 2.244 0 1 0-2.246-2.244 2.245 2.245 0 0 0 2.246 2.244zM65.757 28.732a1.171 1.171 0 1 0 .002-2.343 1.171 1.171 0 0 0-.002 2.343zM8.934 85.22a1.171 1.171 0 1 0 .001-2.343 1.171 1.171 0 0 0 0 2.343zM116.478 24.488a1.172 1.172 0 1 0 .001-2.343 1.172 1.172 0 0 0-.001 2.343zM283.385 40.976a1.17 1.17 0 1 0 0-2.342 1.17 1.17 0 0 0 0 2.342zM259.512 116.049a1.172 1.172 0 1 0 .001-2.343 1.172 1.172 0 0 0-.001 2.343zM30.023 49.317h6.054M21.577 46.39H33.05M132.002 10.439h8.445M139.91 13.415h6.005M305.45 75.951h7.616M315.36 75.951h3.759M129.317 34.341h6.005" stroke="#C5C8EF" stroke-miterlimit="10" stroke-linejoin="round"/><path d="M32.562 65.854v2.439M33.782 67.073H31.34M233.201 27.56v2.391M234.421 28.732h-2.392M151.236 25.512v2.39M152.456 26.683h-2.392M319.119 129.805v2.439M320.29 131.024h-2.392" stroke="#C5C8EF" stroke-miterlimit="10" stroke-linecap="round" stroke-linejoin="round"/><path d="M237.936 34.244H87.335v100.341h150.601V34.244z" fill="#fff" stroke="#7C8BD8" stroke-miterlimit="10" stroke-linejoin="round"/><path d="M233.055 39.122H92.217v90.585h140.838V39.122z" stroke="#7C8BD8" stroke-miterlimit="10" stroke-linejoin="round"/><path d="M141.912 84.44c0-11.464 9.275-20.733 20.747-20.733s20.748 9.269 20.748 20.732c0 4.586-1.465 8.78-3.954 12.195-2.978 4.439-10.643 9.512-10.643 12.488v3.463a1.26 1.26 0 0 1-1.269 1.269h-9.763a1.26 1.26 0 0 1-1.27-1.269v-3.463c0-3.024-7.713-8.049-10.642-12.488-2.489-3.414-3.954-7.61-3.954-12.195z" fill="#fff" stroke="#7C8BD8" stroke-miterlimit="10" stroke-linejoin="round"/><path d="M165.003 113.512c0-.536-.391-8.829.293-16.146-.83.097-1.709.146-2.636.146-.928 0-1.807-.049-2.637-.146.684 7.268.293 15.61.293 16.146h-.341c0-.146.39-8.731-.293-16.146-6.151-.878-8.885-4.342-9.422-7.61-.293-1.902.391-3.853 1.562-4.536.732-.44 1.611-.537 2.539-.244 1.464.439 2.88 1.658 3.71 3.365 1.025 1.952 1.611 5.22 1.952 8.732.83.098 1.709.147 2.685.147.928 0 1.855-.05 2.685-.147.342-3.512.928-6.78 1.953-8.731.879-1.708 2.246-2.976 3.71-3.366.928-.244 1.806-.195 2.539.244 1.171.731 1.855 2.634 1.562 4.536-.488 3.268-3.271 6.78-9.422 7.61-.683 7.415-.293 16.049-.293 16.146h-.439zm6.981-28.39c-.293 0-.586.049-.928.146-1.367.39-2.685 1.561-3.515 3.171-.976 1.903-1.562 5.024-1.855 8.488 5.907-.83 8.543-4.147 8.983-7.317.244-1.756-.342-3.561-1.367-4.195a2.91 2.91 0 0 0-1.318-.293zm-18.697 0c-.488 0-.928.098-1.318.341-1.074.635-1.66 2.44-1.367 4.196.488 3.121 3.124 6.439 8.982 7.317-.342-3.464-.927-6.635-1.855-8.488-.83-1.61-2.148-2.78-3.515-3.17a2.115 2.115 0 0 0-.927-.196z" fill="#7C8BD8"/><path d="M179.941 85.659a1.187 1.187 0 0 1-1.172-1.171 16.074 16.074 0 0 0-12.155-15.61c-.635-.146-1.026-.83-.879-1.463.146-.635.83-1.025 1.464-.878 8.202 2.097 13.913 9.414 13.913 17.902 0 .683-.537 1.22-1.171 1.22zM163.441 68.341a1.172 1.172 0 1 0 0-2.343 1.172 1.172 0 0 0 0 2.343z" fill="#EDEEF7"/><path d="M169.25 110.634h-13.181v6.293c0 1.024.293 2.049.83 2.878 1.025 1.658 2.832 2.634 4.784 2.634h1.953c1.953 0 3.759-.976 4.784-2.634.537-.878.83-1.854.83-2.878v-6.293z" fill="#fff" stroke="#7C8BD8" stroke-miterlimit="10" stroke-linejoin="round"/><path d="M168.713 120.585h-.098l-12.497-1.073c-.439-.049-.781-.439-.683-.878.049-.439.488-.78.927-.732l12.498 1.074c.439.048.781.439.683.878-.049.39-.439.731-.83.731zM169.25 114.976h-.098l-13.18-1.122c-.44-.049-.781-.439-.684-.878.049-.439.488-.781.928-.732l13.18 1.122c.44.049.782.439.684.878-.098.39-.439.732-.83.732zM169.25 117.854h-.098l-13.18-1.122c-.44-.049-.781-.439-.684-.878.049-.439.488-.781.928-.732l13.18 1.122c.44.049.782.439.684.878-.098.39-.439.732-.83.732z" fill="#fff" stroke="#7C8BD8" stroke-miterlimit="10" stroke-linejoin="round"/><path d="M162.659 53.415v7.122M184.774 62.585l-5.077 5.025M140.594 62.537l5.028 5.024M150.699 55.756l2.783 6.586M174.619 55.805l-2.733 6.585M191.51 72.683l-6.59 2.732M133.809 72.634l6.59 2.732" stroke="#7C8BD8" stroke-miterlimit="10" stroke-linejoin="round"/><path opacity=".35" d="M109.254 61.415h-9.178v7.366h9.178v-7.366z" fill="#ABB3ED"/><path opacity=".35" d="M113.452 61.415h6.346M113.452 68.78h12.79M113.452 66.39h12.79M113.452 64.097h12.79" stroke="#ABB3ED" stroke-miterlimit="10"/><path opacity=".35" d="M109.254 76.098h-9.178v7.365h9.178v-7.365z" fill="#ABB3ED"/><path opacity=".35" d="M113.452 76.098h6.346M113.452 83.463h12.79M113.452 81.122h12.79M113.452 78.78h12.79" stroke="#ABB3ED" stroke-miterlimit="10"/><path opacity=".35" d="M109.254 90.78h-9.178v7.366h9.178v-7.365z" fill="#ABB3ED"/><path opacity=".35" d="M113.452 90.78h6.346M113.452 98.195h12.79M113.452 95.805h12.79M113.452 93.512h12.79" stroke="#ABB3ED" stroke-miterlimit="10"/><path opacity=".35" d="M109.254 105.512h-9.178v7.366h9.178v-7.366z" fill="#ABB3ED"/><path opacity=".35" d="M113.452 105.512h6.346M113.452 112.878h12.79M113.452 110.488h12.79M113.452 108.195h12.79" stroke="#ABB3ED" stroke-miterlimit="10"/><path opacity=".35" d="M208.206 61.415h-9.178v7.366h9.178v-7.366z" fill="#ABB3ED"/><path opacity=".35" d="M212.404 61.415h6.347M212.404 68.78h12.839M212.404 66.39h12.839M212.404 64.098h12.839" stroke="#ABB3ED" stroke-miterlimit="10"/><path opacity=".35" d="M208.206 76.098h-9.178v7.365h9.178v-7.365z" fill="#ABB3ED"/><path opacity=".35" d="M212.404 76.098h6.347M212.404 83.463h12.839M212.404 81.122h12.839M212.404 78.78h12.839" stroke="#ABB3ED" stroke-miterlimit="10"/><path opacity=".35" d="M208.206 90.78h-9.178v7.366h9.178v-7.365z" fill="#ABB3ED"/><path opacity=".35" d="M212.404 90.78h6.347M212.404 98.195h12.839M212.404 95.805h12.839M212.404 93.512h12.839" stroke="#ABB3ED" stroke-miterlimit="10"/><path opacity=".35" d="M208.206 105.512h-9.178v7.366h9.178v-7.366z" fill="#ABB3ED"/><path opacity=".35" d="M212.404 105.512h6.347M212.404 112.878h12.839M212.404 110.488h12.839M212.404 108.195h12.839" stroke="#ABB3ED" stroke-miterlimit="10"/><path d="M224.608 34.244V16.878M224.609 16.878a1.366 1.366 0 1 0 .001-2.733 1.366 1.366 0 0 0-.001 2.733zM100.662 34.244V16.878M100.662 16.878a1.366 1.366 0 1 0 .001-2.733 1.366 1.366 0 0 0-.001 2.733z" stroke="#7C8BD8" stroke-miterlimit="10" stroke-linejoin="round"/><path opacity=".35" d="M142.254 43.805h40.811M130.489 48.244h64.293" stroke="#ABB3ED" stroke-width="2" stroke-miterlimit="10" stroke-linecap="round" stroke-linejoin="round"/><path d="M267.274 163.219c-2.831-7.902-9.861-24.975-3.466-49.658 11.18 13.805 11.863 33.707 10.74 51.707" fill="#fff"/><path d="M267.274 163.219c-2.831-7.902-9.861-24.975-3.466-49.658 11.18 13.805 11.863 33.707 10.74 51.707M263.809 113.561s2.392 31.415 6.785 51.268M263.808 113.561s-2.587 22.439 4.784 50.878M271.912 164.585s-3.271-39.414-8.103-51.024M273.133 164.634s.439-37.073-9.324-51.073" stroke="#C5C8EF" stroke-miterlimit="10" stroke-linejoin="round"/><path d="M261.514 167.025c-4.247-5.61-14.303-17.658-12.448-37.414 13.522 8.926 17.867 24.048 20.015 37.951" fill="#fff"/><path d="M261.514 167.025c-4.247-5.61-14.303-17.658-12.448-37.414 13.522 8.926 17.867 24.048 20.015 37.951M249.018 129.61s4.637 23.61 14.157 37.366M265.03 167.512s-12.058-32.585-16.012-37.951M267.275 167.512s-7.176-29.366-18.257-37.951" stroke="#C5C8EF" stroke-miterlimit="10" stroke-linejoin="round"/><path d="M281.139 162.829c3.612-8.146 12.497-25.756 6.688-51.902-13.278 14-15.231 34.829-14.938 53.707" fill="#fff"/><path d="M281.139 162.829c3.612-8.146 12.497-25.756 6.688-51.902-13.278 14-15.231 34.829-14.938 53.707M287.827 110.927s-4.491 32.829-10.545 53.463M287.827 110.927s1.611 23.61-8.25 53.122M275.818 164.049s5.907-41.171 11.961-53.122M274.451 164.049s1.611-38.878 13.327-53.122" stroke="#C5C8EF" stroke-miterlimit="10" stroke-linejoin="round"/><path d="M283.384 172.683c4.443-6.536 14.841-20.39 15.329-44.585-13.181 9.805-18.746 27.853-22.212 44.634" fill="#fff"/><path d="M283.384 172.683c4.443-6.536 14.841-20.39 15.329-44.585-13.181 9.805-18.746 27.853-22.212 44.634M298.712 128.098s-6.785 28.39-16.891 44.439M280.162 173.024s14.45-38.78 18.599-44.975M278.112 172.878s9.715-35.219 20.601-44.78" stroke="#C5C8EF" stroke-miterlimit="10" stroke-linejoin="round"/><path d="M290.903 162.781v7.463c0 16.537-6.737 27.171-6.737 27.171h-20.845s-6.737-10.634-6.737-27.171v-7.463h34.319z" fill="#E5EAF9"/><path d="M18.258 162.635c-2.49-11.122-8.836-35.073-1.22-70.341 10.642 19.122 10.446 47.365 8.494 72.926" fill="#fff"/><path d="M18.258 162.635c-2.49-11.122-8.836-35.073-1.22-70.341 10.642 19.122 10.446 47.365 8.494 72.926M17.037 92.293s1.025 44.487 4.54 72.487M17.037 92.293s-3.612 31.951 2.49 72M22.895 164.341s-1.513-55.804-5.858-72.097M24.116 164.39s2.148-52.634-7.079-72.097" stroke="#C5C8EF" stroke-miterlimit="10" stroke-linejoin="round"/><path d="M12.937 166.878C8.69 159.902-1.366 145.024.489 120.537c13.522 11.073 17.867 29.805 20.015 46.975" fill="#fff"/><path d="M12.937 166.878C8.69 159.902-1.366 145.024.489 120.537c13.522 11.073 17.867 29.805 20.015 46.975M.49 120.537s4.637 29.219 14.156 46.292M16.453 167.512S4.395 127.122.44 120.537M18.698 167.512S11.522 131.171.44 120.537" stroke="#C5C8EF" stroke-miterlimit="10" stroke-linejoin="round"/><path d="M33.245 162.489c3.417-9.756 11.765-30.829 6.102-62.195-12.644 16.683-14.352 41.658-14.01 64.341" fill="#fff"/><path d="M33.245 162.489c3.417-9.756 11.765-30.829 6.102-62.195-12.644 16.683-14.352 41.658-14.01 64.341M39.347 100.244s-4.1 39.366-9.763 64.049M39.347 100.244s1.66 28.341-7.567 63.658M28.168 163.902s5.419-49.365 11.18-63.658M26.898 163.902s1.319-46.634 12.449-63.658" stroke="#C5C8EF" stroke-miterlimit="10" stroke-linejoin="round"/><path d="M35.784 172.684c4.442-6.537 14.84-20.39 15.328-44.586-13.18 9.805-18.746 27.854-22.212 44.635" fill="#fff"/><path d="M35.784 172.684c4.442-6.537 14.84-20.39 15.328-44.586-13.18 9.805-18.746 27.854-22.212 44.635M51.161 128.098s-6.785 28.39-16.89 44.439M32.562 173.024s14.45-38.78 18.599-44.975M30.512 172.878s9.714-35.219 20.6-44.78" stroke="#C5C8EF" stroke-miterlimit="10" stroke-linejoin="round"/><path d="M43.3 162.781v7.463c0 16.537-6.736 27.171-6.736 27.171H15.72s-6.737-10.634-6.737-27.171v-7.463h34.319z" fill="#E5EAF9"/><path d="M210.159 172.878c-1.708-5.756-6.102-18.293 1.123-34.341 8.201 11.707 7.079 24.487 4.687 36.634" fill="#fff"/><path d="M210.159 172.878c-1.708-5.756-6.102-18.293 1.123-34.341 8.201 11.707 7.079 24.487 4.687 36.634M211.233 138.537s-2.782 15.17.977 35.512M212.747 174.244s1.513-27.122-1.514-35.659M213.723 174.39s4.394-25.073-2.49-35.853" stroke="#C5C8EF" stroke-miterlimit="10" stroke-linejoin="round"/><path d="M204.447 176.683c-3.417-3.073-11.374-9.415-12.399-23.268 9.91 3.609 14.45 13.122 17.428 22.244" fill="#fff"/><path d="M204.447 176.683c-3.417-3.073-11.374-9.415-12.399-23.268 9.91 3.609 14.45 13.122 17.428 22.244M192.048 153.415s3.466 11.707 13.962 23.512M207.669 176.049s-11.569-16.732-15.621-22.634M208.45 175.756s-8.006-16.829-16.402-22.341" stroke="#C5C8EF" stroke-miterlimit="10" stroke-linejoin="round"/><path d="M207.718 173.268c-2.734-4-10.642-16-8.201-28.78 9.178 6.878 12.839 20.439 13.571 29.707" fill="#fff"/><path d="M207.718 173.268c-2.734-4-10.642-16-8.201-28.78 9.178 6.878 12.839 20.439 13.571 29.707M199.468 144.488s3.417 19.171 9.422 28.878M210.208 173.902s-8.202-25.609-10.74-29.365M211.819 174.049s-4.931-23.122-12.302-29.561" stroke="#C5C8EF" stroke-miterlimit="10" stroke-linejoin="round"/><path d="M220.801 173.074c2.343-5.171 8.006-16.341 4.149-32.927-8.543 8.83-9.714 22.098-9.47 34.098" fill="#fff"/><path d="M220.801 173.074c2.343-5.171 8.006-16.341 4.149-32.927-8.543 8.83-9.714 22.098-9.47 34.098M224.902 140.098s-4.052 19.219-7.079 33.561M224.901 140.098s.928 15.024-5.37 33.707M216.456 173.805s1.757-22.537 8.445-33.707" stroke="#C5C8EF" stroke-miterlimit="10" stroke-linejoin="round"/><path d="M221.045 178.488c3.027-3.463 10.74-12.049 11.374-23.61-8.933 5.171-12.692 14.781-15.035 23.61" fill="#fff"/><path d="M221.045 178.488c3.027-3.463 10.74-12.049 11.374-23.61-8.933 5.171-12.692 14.781-15.035 23.61M232.419 154.829s-5.565 14.634-12.399 23.122M218.36 177.951s8.348-17.561 14.06-23.122" stroke="#C5C8EF" stroke-miterlimit="10" stroke-linejoin="round"/><path d="M227.782 172.098v5.463c0 12.098-5.858 19.902-5.858 19.902h-18.209s-5.858-7.804-5.858-19.902v-5.463h29.925z" fill="#E5EAF9"/><path d="M2.637 197.756h320.046" stroke="#7C8BD8" stroke-miterlimit="10" stroke-linejoin="round"/><path d="M298.273 76.732l.683 5.805s-2.197 2.341-5.467 2.341c-3.271 0-3.271-2.195-3.271-2.195l.634-5.025 5.077-5.317 2.344 4.39z" fill="#FFCBC2"/><path d="M289.193 72.878c0-.195-.293-.341-.488-.293-.293.05-.537.244-.684.537a1.917 1.917 0 0 0-.195.878c0 .293 0 .585.147.83.244.438.83.633 1.269.438" fill="#F9BBAF"/><path d="M289.438 68.927s-1.758 6.634-.781 8c1.415 2.049 4.833 2.195 6.297 1.268 1.22-.78 2.197-5.024 2.197-6.097 0-2.976-6.151-4.732-7.713-3.171z" fill="#FFCBC2"/><path d="M299.347 73.951c.049-.195.098-.439.195-.634.196-.536.489-.975.684-1.512.39-1.025.049-2.293-.781-2.976-.147-.097-.342-.244-.44-.39-.293-.293-.39-.78-.585-1.17-.147-.342-.342-.635-.684-.83-.732-.39-1.708.146-2.441-.244l-.439-.293c-1.025-.78-2.246-.585-3.368-.195-.537.195-.684.39-1.172.732-.488.39-1.172.342-1.66.732-.488.39-.635 1.073-.635 1.756 0 .244 0 .488.098.683.147.292.391.439.635.585.634.293 1.367.195 2.099.147.683-.05 1.464-.537 2.099-.293.635.244.83 1.024 1.611 1.073.293 0 .683-.049.879.195.195.293.097.732.244 1.073.146.293.439.586.634.878.391.586.977.976.781 1.708-.146.536-.732 1.365-.488 1.902.147.341.928.341 1.562-.097.635-.488.782-1.366.977-2.098.049-.244.097-.488.195-.732z" fill="#212237"/><path d="M290.706 78.537s2.294.439 3.857-.39c1.22-.684 1.708-2.196 1.708-2.196" stroke="#F7A794" stroke-width=".75" stroke-miterlimit="10"/><path d="M295.49 73.805c.147-.244.635-.586.879-.537.244.049.488.195.683.39.879.976-.097 2.83-1.415 2.635-.488-.098-.342-.732-.342-.732" fill="#FFCBC2"/><path d="M290.56 72.39s-1.025 1.561-.927 2c.097.44 1.122.488 1.122.488" stroke="#F7A794" stroke-width=".5" stroke-miterlimit="10"/><path d="M289.632 75.415l2.831.39s-.537 1.463-2.05 1.122c-1.123-.195-.781-1.512-.781-1.512z" fill="#fff"/><path d="M289.437 71.903c-.048.097-.097.243-.146.34-.049.245.293.342.39.099.049-.147.049-.244.098-.39 0-.147-.293-.245-.342-.05z" fill="#212237"/><path d="M290.316 71.268s-.439-.585-1.074-.146" stroke="#212237" stroke-width=".5" stroke-miterlimit="10" stroke-linecap="round" stroke-linejoin="round"/><path d="M292.659 72.683a.918.918 0 0 0-.097.341c-.049.244.342.342.39.098.049-.146.049-.293.049-.44 0-.145-.293-.194-.342 0z" fill="#212237"/><path d="M292.513 71.56s.683-.243 1.415.586" stroke="#212237" stroke-width=".5" stroke-miterlimit="10" stroke-linecap="round" stroke-linejoin="round"/><path d="M288.12 178.293l-1.318 13.463.097 4.244-16.597-.098a.75.75 0 0 1-.733-.731c0-.293.196-.586.489-.683l7.176-3.268.683-14.001" fill="#FFCBC2"/><path d="M268.837 195.707c.147-.536.488-1.122.781-1.268l7.616-3.268c4.198 1.707 9.617.39 9.617.39l.976 5.707a.334.334 0 0 1-.342.342h-18.501c-.391.049-.196-1.854-.147-1.903z" fill="#011E3B"/><path d="M275.574 191.512c.44.537.781 1.171 1.074 1.805M274.598 192.098c.439.634.634.975.878 1.512M273.816 192.488c.293.39.586.975.83 1.414M287.68 196.39l-18.941-.097M287.143 193.61s-4.442.097-4.832 2.78M271.181 193.805s1.22 1.756 1.464 2.537" stroke="#2C79E8" stroke-width=".75" stroke-miterlimit="10"/><path d="M280.358 120.488c-2.831 20.488-5.419 68.927-5.419 68.927h14.304s2.929-30.244 5.467-52.147c6.298-10.39 5.81-21.658 6.493-23.17" fill="#1F2677"/><path d="M287.29 189.415s3.515-33.415 6.053-55.317" stroke="#3A53CE" stroke-width=".75" stroke-miterlimit="10"/><path d="M311.064 178.293l.634 13.463.098 4.244-16.598-.098a.75.75 0 0 1-.732-.731c0-.293.195-.586.488-.683l7.176-3.268-1.269-14.001" fill="#FFCBC2"/><path d="M293.734 195.707c.146-.536.488-1.122.781-1.268l7.615-3.268c4.198 1.707 9.617.39 9.617.39l.976 5.707a.334.334 0 0 1-.341.342H293.88c-.391.049-.146-1.854-.146-1.903z" fill="#011E3B"/><path d="M300.471 191.512c.439.537.781 1.171 1.074 1.805M299.543 192.098c.439.634.635.975.879 1.512M298.713 192.488c.293.39.586.975.83 1.414M312.577 196.39l-18.941-.097M312.089 193.61s-4.443.097-4.833 2.78M296.077 193.805s1.221 1.756 1.465 2.537" stroke="#2C79E8" stroke-width=".75" stroke-miterlimit="10"/><path d="M310.625 118.585c.39 4.634.341 10.391-.342 16 1.22 24.683 2.929 54.781 2.929 54.781h-14.303s-6.884-54.634-7.225-71.22" fill="#1F2677"/><path d="M308.184 118.585c.39 4.634.341 10.391-.342 16 1.22 24.683 2.929 54.781 2.929 54.781M293.783 145.024s-2.002-17.122-2.148-23.414M313.016 186.585h-14.45M289.487 186.537h-14.352M308.378 128.537s-4.1.341-6.395-5.513" stroke="#3A53CE" stroke-width=".75" stroke-miterlimit="10"/><path d="M292.269 128.537s-1.416-.391-1.562-.878c-.147-.439-.537-5.757-.537-5.757M284.947 123.024s-.342 4.781-5.565 5.513" stroke="#3A53CE" stroke-width=".75" stroke-miterlimit="10"/><path d="M265.566 91.317s-6.786-7.17-7.225-7.122c-.439.049.488 1.415.146 1.366-.341 0-2.489-2.976-2.88-2.78-.537.243 1.465 2.829 1.465 2.829s-.537-.488-.928-.147c-.293.244.098 1.074.098 1.074s-.537-.244-.83 0c-.293.243.098.975.098.975s-.537-.536-.83-.049c-.293.488 1.708 4.586 4.979 8.976" fill="#FFCBC2"/><path d="M290.365 81.463c-3.418.293-7.079 1.952-9.324 4.878-3.808 4.879-8.592 11.074-8.592 11.074l-7.86-8.098-7.42 6.146s10.252 14.439 15.329 14.488c4.588.049 12.301-6.536 14.547-10.049 4.491-7.073 3.32-18.439 3.32-18.439z" fill="#B2D1FF"/><path d="M298.713 80.732s-.927 1.414-4.784 1.805c-2.88.292-3.612-1.074-3.612-1.074s-6.981 3.708-9.08 19.122c-2.051 15.415-2.295 23.464-2.295 23.464h32.806s.097-11.708-.83-21.805c-.928-10.342-3.076-19.122-12.205-21.512z" fill="#F7633A"/><path d="M258.976 86.244s.341 1.512.927 2.732" stroke="#F7958B" stroke-width=".5" stroke-miterlimit="10"/><path d="M254.875 88.488c.293.341.586.634.879.927.146.146.293.292.488.439.098.048.195.146.244.146a.487.487 0 0 0 .195.049c.049-.049 0-.147 0-.244-.049-.098-.049-.195-.097-.293l-.293-.585c-.196-.39-.44-.732-.684-1.073l.196-.098c.292.39.585.78.927 1.122.147.195.342.341.488.488.098.097.196.146.293.195h.049v-.049c-.049-.439-.293-.878-.488-1.317-.195-.439-.44-.878-.684-1.268l.196-.098c.293.44.537.83.878 1.22.147.195.293.39.489.585.097.098.195.147.292.244a.152.152 0 0 0 .098.049s.049-.049.049-.098c0-.195-.098-.488-.147-.683a9.568 9.568 0 0 0-.292-.683c-.196-.439-.44-.926-.635-1.365l.732 1.317c.195.439.488.878.537 1.414 0 .049-.049.195-.146.195-.098.05-.196 0-.244-.048a.5.5 0 0 1-.293-.244c-.196-.195-.342-.39-.537-.586-.342-.39-.586-.829-.879-1.22l.195-.097c.244.44.488.878.684 1.317.097.244.195.44.293.683.097.244.195.44.195.732 0 .049 0 .195-.098.244-.097.049-.244.049-.293 0-.146-.049-.244-.147-.341-.244-.196-.146-.342-.342-.537-.537-.342-.39-.635-.78-.928-1.17l.195-.098c.244.39.44.732.684 1.122l.293.585a.702.702 0 0 1 .097.342c0 .097.049.244 0 .39-.146.146-.293.049-.39 0-.098-.049-.195-.146-.293-.195-.147-.146-.342-.293-.488-.439a20.7 20.7 0 0 0-.879-1.073z" fill="#F7958B"/><path d="M290.365 81.463c-6.737 12.927-7.177 44.781-7.177 44.781h-5.126s.245-20.634 4.15-34.098c1.611-5.756 5.858-10.292 8.153-10.683z" fill="#B2D1FF"/><path d="M279.332 107.219s1.123-12.487 3.368-16.78M285.483 98.878l-1.025-9.902 1.709-.927-1.709-1.073s1.513-2.879 2.831-4.879" stroke="#4152A5" stroke-width=".75" stroke-miterlimit="10" stroke-linejoin="round"/><path d="M298.616 80.732c-4.052 8.683-.44 45.463-.44 45.463h15.622s-.733-13.463-1.367-18.683c-.635-5.219-4.882-22-4.882-22l-8.933-4.78z" fill="#B2D1FF"/><path d="M308.379 115.561l-15.084.195v.927l15.914-.244c.049-.488-.341-.878-.83-.878z" fill="#DCDDEF"/><path d="M274.939 116.927l21.187-.293-4.247-14.146a1.613 1.613 0 0 0-1.562-1.22l-19.136.293c-.44 0-.733.439-.586.878l4.344 14.488z" fill="#DCDDEF"/><path d="M274.012 116.977l21.186-.293-4.247-14.146a1.613 1.613 0 0 0-1.562-1.22l-19.136.293c-.44 0-.732.439-.586.878l4.345 14.488z" fill="#F2F5F9"/><path d="M280.163 109.366c.146.683.878 1.171 1.66 1.171.781 0 1.318-.537 1.171-1.22-.146-.683-.879-1.171-1.66-1.171-.781.049-1.318.586-1.171 1.22z" fill="#DCDDEF"/><path d="M304.279 99.317s4.149 7.268 3.905 8.927c-.195 1.268-11.472 4.146-11.472 4.146l.488 7.122s18.892-1.61 21.089-5.414c3.027-5.171-5.321-18.586-5.321-18.586" fill="#FFCBC2"/><path d="M298.908 111.951c-1.562.293-9.714 1.903-9.617 2.342.098.39 2.49.341 2.441.536-.097.342-1.855.732-2.88.878-.927.147-2.343.488-2.343.878 0 .781 4.979-.048 4.979-.048s-5.516-.147-5.565.487c-.098.927 5.761.878 5.956 1.074 0 0-5.077-1.366-5.126-.683-.049.683 4.442 2 5.809 1.902-1.171-.146-4.686-1.854-4.686-1.219-.049.634 3.026 1.512 3.515 1.56 4.003.293 7.615-.585 7.615-.585" fill="#FFCBC2"/><path d="M287.046 116.927c.635-.098 1.318-.195 1.953-.195.634-.049 1.318-.049 1.952-.049a6.995 6.995 0 0 1-.976.195c-.342.049-.635.049-.976.098-.635 0-1.318.048-1.953-.049zM287.632 117.805c1.416 0 2.831.146 4.247.195-.342.098-.684.098-1.074.146h-1.074c-.683-.097-1.416-.195-2.099-.341zM288.56 118.585c.634 0 1.269.098 1.903.147.635.097 1.221.195 1.856.292-.293.049-.635.049-.928.049-.342 0-.635-.049-.928-.097a7.756 7.756 0 0 1-1.903-.391z" fill="#F7958B"/><path d="M298.615 80.732c4.393.731 9.91 2.097 12.155 4.975 3.418 4.44 12.546 23.122 9.178 27.708-2.88 3.902-18.843 6.829-18.843 6.829l-4.296-8.781 10.935-4.048-6.786-14.78" fill="#B2D1FF"/><path d="M296.76 111.512l10.935-4.097-5.468-11.903M301.104 120.293l12.107-2.976M298.176 110.976l4.54 8.926" stroke="#4152A5" stroke-width=".75" stroke-miterlimit="10"/><path d="M296.711 99.268c.683-4.585 3.661-8.341 3.661-8.341l-1.806-2 2.538-.927s1.172-4.878 2.002-6.39" stroke="#4152A5" stroke-width=".75" stroke-miterlimit="10" stroke-linejoin="round"/><path d="M250.726 93.024s2.538 5.757 3.173 10.049c.634 4.293-5.321 16.488-5.321 16.488l-5.126-3.024s1.562-9.074 1.562-12.293c0-3.22-2.929-7.707-2.929-7.707" fill="#FFCBC2"/><path d="M243.696 115.902c-.683 2-3.515 7.464-3.222 7.805.293.293 1.318-1.609 1.514-1.268.195.293-1.221 3.366-.83 3.61.488.341 1.757-2.878 1.757-2.878s-1.22 3.561-.683 3.707c.39.098 1.415-2.585 1.952-3.561-.439 1.122-.927 3.024-.537 3.171.391.097 1.123-1.707 1.758-3.073-.342.878-.83 2.536-.488 2.634.341.097 2.489-4.147 4.344-8.293M240.28 141.61c-.635 14.439 3.32 50.585 3.32 50.585l-4.443 2.829s13.718.635 14.157.244c.391-.39-.488-3.17-.488-3.17s.391-42.683.781-49.025c.391-6.341-12.741-15.902-13.327-1.463z" fill="#FFCBC2"/><path d="M249.897 195.268l3.27-1.804-.244-.927-4.296 2.731h-1.367l-4.784-2.341-5.174 3.219c-.586.391-.342 1.318.39 1.318l6.932-.049 2.197-1.561h.635v1.512h6.004v-2.146l-3.563.048z" fill="#011E3B"/><path d="M221.924 144.098c-.977 20.292-.635 48.097-.635 48.097l-4.442 2.878s13.717.586 14.157.195c.39-.39-.537-3.17-.537-3.17s3.807-35.22 5.174-48.439c1.416-13.171-12.741-19.903-13.717.439z" fill="#FFCBC2"/><path d="M227.587 195.219l3.271-1.804-.244-.927-4.247 2.731H225l-4.784-2.341-5.175 3.268c-.586.391-.342 1.317.39 1.269l6.933-.049 2.196-1.561h.635v1.512l6.004-.049v-2.146l-3.612.097z" fill="#011E3B"/><path d="M246.82 110.927c1.172.829 3.808 4.585 4.931 8.244 2.587 8.683 2.636 27.853 2.636 27.853H221.24s.196-18.439 1.465-26.439c.683-4.292 2.587-8 3.71-9.609" fill="#0F43AA"/><path d="M228.271 110.683c-.977.829-2.685 3.951-3.125 7.463-1.611 11.903-1.269 28.878-1.269 28.878" stroke="#0F1D49" stroke-width=".75" stroke-miterlimit="10"/><path d="M238.717 80.927c9.91.634 13.18 13.024 13.18 13.024l-6.98 4.83" fill="#2C79E8"/><path d="M247.895 94.634l3.514-2.293" stroke="#0F1D49" stroke-width=".75" stroke-miterlimit="10"/><path d="M220.655 86.83s-7.421 5.707-8.592 5.707c-1.221.048-10.789-8.878-10.789-8.878l-5.028 5.853s10.056 13.708 15.475 13.708c7.176 0 14.792-7.854 14.792-7.854" fill="#FFCBC2"/><path d="M231.443 80.927s1.122.878 3.368.634c2.197-.244 4.003-.732 4.003-.732 0 .049 8.933 4.147 9.226 9.317.342 5.756.293 9.171-1.22 20.878h-20.406s-3.173-14.292-3.173-19.756c0-5.56 8.202-10.341 8.202-10.341z" fill="#2C79E8"/><path d="M231.443 80.927s-3.026-.147-5.614 1.317c-4.491 2.537-8.25 6.537-8.25 6.537l5.956 10.487 6.248-4.39" fill="#2C79E8"/><path d="M248.187 96.488c.147-4.83-.585-8.098-.585-8.098M219.043 87.317l6.102 11.073M224.12 99.122l5.224-3.707" stroke="#0F1D49" stroke-width=".75" stroke-miterlimit="10"/><path d="M204.984 87.024s-8.445-7.805-8.982-7.61c-.537.196.976 1.66.537 1.757-.44.048-3.808-3.464-4.296-3.171-.635.439 2.245 3.366 2.245 3.366s-.781-.537-1.22 0c-.293.39.586 1.56.586 1.56s-.879-.585-1.221-.194c-.341.39.488 1.61.488 1.61s-.634-.44-.829-.05c-.342.684 3.856 5.562 7.713 9.854M238.277 75.659l.781 5.658s-3.71 3.805-7.616-.39l-.244-3.17 7.079-2.098z" fill="#FFCBC2"/><path d="M232.077 68.244s-5.321 6.049-3.368 8.537c1.025 1.316 5.419 2.877 6.981 1.902 1.171-.732 3.368-5.854 2.88-6.83-1.953-3.804-6.493-3.61-6.493-3.61z" fill="#FFCBC2"/><path d="M232.322 69.366c-.342 3.512.683 5.317.683 5.317s-2.343 7.366-1.806 8.049c.488.683 8.006 1.805 11.667.244 0 0 .586-11.122-2.782-13.903-3.173-2.683-7.323-2.439-9.568-1.024 0 0 .195.683 1.025 1.024.39.195.83.39.83.39" fill="#011E3B"/><path d="M232.321 73.756c.635-.83 1.172-.683 1.465-.244.39.586-.391 1.854-.733 2.098-.732.439-1.318.39-1.366-.195" fill="#FFCBC2"/><path d="M231.247 78.293c.781 0 1.025-.634 1.025-.634" stroke="#E88872" stroke-width=".5" stroke-miterlimit="10" stroke-linejoin="round"/><path d="M230.711 71.659c-.245.195-.44.536-.293.78.048.049.097.098.195.098.439-.05.537-1.269.098-.878z" fill="#28364C"/><path d="M230.76 70.732c.293.097.83.39 1.025.78" stroke="#28364C" stroke-width=".75" stroke-miterlimit="10"/><path d="M230.075 74.39l-1.122-.585s-.733 1.366-.196 1.658c.586.293 1.318-1.073 1.318-1.073z" fill="#fff"/><path d="M238.277 67.951c-.488-.097-.781-.634-.781-1.073 0-.488.342-.927.781-1.17.44-.245.928-.245 1.416-.098.195.049.342.097.488.244.586.439.586 1.414.146 2.048-.195.244-.439.488-.732.537-.293.049-.634-.049-.781-.341" fill="#011E3B"/><path d="M162.074 181.366c-9.08-2.732-15.085-5.854-20.015-10.781-5.272-5.219-7.128-10.341-8.543-17.463-2.002-9.951-4.15-25.756-14.889-29.561-10.008-3.512-18.893 4.439-24.019 12.585-6.541 10.488-8.543 20.976-8.543 33.317 0 9.952 2.539 28.244 34.075 28.244h37.491c20.699.049 17.477-12.39 4.443-16.341z" fill="#fff" stroke="#ABB3ED" stroke-miterlimit="10" stroke-linejoin="round"/><path d="M159.292 180.732c-1.856-3.805-9.715-2.683-18.258-11.561-4.931-5.171-6.981-9.61-8.348-16.342-1.172-5.658-5.614-24.634-13.473-25.366-3.174-.292-6.396.098-9.178 1.61-3.857 2.146-6.883 5.61-8.982 9.463-2.148 3.854-3.418 8.098-4.492 12.391-1.464 5.951-2.49 10.146-1.757 16.195 1.27 10.293 7.762 19.414 17.818 21.805 10.154 2.439 19.332 1.609 31.341 1.463 4.589-.049 19.185-1.805 15.329-9.658z" fill="#EDEEF7"/><path d="M106.861 131.024c-4.198 3.61-7.176 8.537-9.226 13.659-2.294 5.707-3.564 11.902-3.564 18.049 0 5.707 1.172 11.609 4.247 16.536 3.466 5.561 8.983 8.634 15.183 10.244 9.861 2.586 20.405 1.903 30.461 1.025.196 0 .196-.342 0-.293-8.787.244-17.623 1.024-26.361-.488-6.785-1.171-13.571-3.61-17.818-9.317-6.981-9.366-6.151-22.927-2.539-33.463 2.002-5.854 5.126-11.61 9.813-15.756.146-.098-.049-.293-.196-.196z" fill="#ABB3ED"/><path d="M163.147 182.683l12.791 9.512 2.392 3.707 13.717-9.365c.342-.244.44-.683.196-1.025-.196-.244-.489-.39-.782-.292l-7.761 1.268-12.644-10.439" fill="#995037"/><path d="M193.17 185.61c-.439-.342-1.025-.683-1.367-.586l-8.104 1.513c-2.587 3.707-7.761 5.658-7.761 5.658l2.392 5.268c.097.147.341.196.488.098l15.328-10.342c.293-.195-.976-1.609-.976-1.609z" fill="#FFE1CC"/><path d="M185.213 185.854a10.1 10.1 0 0 0 .097 2.097M186.336 185.805c0 .732.049 1.122.146 1.756M187.215 185.707c0 .488.049 1.122.097 1.61M177.891 196.683l15.67-10.634M176.768 194.098s3.758-2.391 5.565-.391M190.095 185.317s-.049 2.146.195 2.927" stroke="#A5634C" stroke-width=".75" stroke-miterlimit="10"/><path d="M144.646 178.293l5.468 13.317-.049 4.39 16.598-.098a.75.75 0 0 0 .732-.731.733.733 0 0 0-.488-.683l-7.176-3.269-4.833-14" fill="#995037"/><path d="M168.128 195.707c-.147-.536-.489-1.122-.781-1.268l-7.616-3.268c-4.198 1.707-9.617.39-9.617.39l-.976 5.707c0 .195.146.342.341.342h18.502c.391.049.147-1.854.147-1.903z" fill="#FFE1CC"/><path d="M161.39 191.512c-.439.537-.781 1.171-1.074 1.805M162.318 192.098c-.439.634-.634.975-.879 1.512M163.148 192.488c-.293.39-.586.975-.83 1.414M149.235 196.39l18.941-.097M149.772 193.61s4.443.097 4.833 2.78M165.784 193.805s-1.221 1.756-1.465 2.536" stroke="#A5634C" stroke-width=".75" stroke-miterlimit="10"/><path d="M120.97 122.537s3.612 5.707 2.05 8.146c-.781 1.268-3.808 2.146-5.37 1.415-1.122-.537-3.612-5.025-3.27-5.952 1.415-3.707 6.59-3.609 6.59-3.609z" fill="#995037"/><path d="M114.135 130.537l-.342 4.439s2.831 7.024 7.908.683l-.244-4.878-7.322-.244z" fill="#995037"/><path d="M112.573 129.22c-.537-1.269-.976-1.952-1.172-3.464-.244-1.61 1.074-2.097 1.074-2.097s-.244.195.488-1.22c.684-1.317 2.929-1.268 4.296-1.463 1.807-.293 4.443-1.854 5.468-1.171.439.293.439 3.073-.977 3.854-.829.439-2.196.195-3.173.341-1.806.293-2.196.683-2.44 1.805-.098.634-1.319.536-.635 1.805.098.195.146.39.146.536l-.732.488c-.927.634 1.074 2.195.928 2.976-.098.39-.879.585-1.611.244-.586-.342-1.074-1.269-1.66-2.634z" fill="#2D1006"/><path d="M115.453 128.732c-.83-.83-1.367-.634-1.611-.098-.342.683.634 2 1.074 2.195.83.391 1.464.293 1.464-.39" fill="#995037"/><path d="M121.556 132.049c-2.734.585-4.15-.195-4.15-.195" stroke="#6D221D" stroke-width=".75" stroke-miterlimit="10" stroke-linejoin="round"/><path d="M120.628 125.951s1.318 1.415 1.269 1.854c0 .439-1.074.683-1.074.683" stroke="#6D221D" stroke-width=".75" stroke-miterlimit="10"/><path d="M122.434 128.683l-2.783.878s.781 1.366 2.295.78c1.074-.39.488-1.658.488-1.658z" fill="#fff"/><path d="M121.408 125.366c.049.146.098.293.147.39.097.244.439.049.341-.195-.048-.098-.097-.244-.195-.341-.097-.147-.39-.049-.293.146z" fill="#212237"/><path d="M120.677 124.732s.341-.683 1.074-.293" stroke="#212237" stroke-width=".5" stroke-miterlimit="10" stroke-linecap="round" stroke-linejoin="round"/><path d="M118.236 126.683c.049.146.098.244.146.39.098.244.489.147.391-.097-.049-.147-.098-.293-.195-.391-.098-.195-.391-.048-.342.098z" fill="#212237"/><path d="M118.529 125.463s-.732-.097-1.318.83" stroke="#212237" stroke-width=".5" stroke-miterlimit="10" stroke-linecap="round" stroke-linejoin="round"/><path d="M134.785 144.585s4.345 8.342 5.614 8.537c1.513.195 13.522-8.683 13.522-8.683l4.833 5.854s-11.228 13.609-18.794 13.609c-7.567 0-14.597-13.609-14.597-13.609" fill="#995037"/><path d="M113.794 134.976s1.122 2 4.344 1.853c2.49-.097 3.564-1.122 3.564-1.122s7.371 1.903 8.836 11.61c1.318 9.024 3.027 24.488 3.027 24.488l-28.022 1.902s-.683-10.146.342-21.951c.781-8.878 7.909-16.78 7.909-16.78z" fill="#FFE1CC"/><path d="M113.159 165.512l15.085.195v.927l-15.915-.244c-.048-.488.342-.927.83-.878z" fill="#DCDDEF"/><path d="M146.599 166.878l-21.187-.293 4.247-14.146c.195-.732.83-1.22 1.562-1.22l19.137.293c.439 0 .732.439.586.878l-4.345 14.488z" fill="#DCDDEF"/><path d="M147.527 166.878l-21.187-.293 4.247-14.146c.195-.732.83-1.22 1.562-1.22l19.136.293c.44 0 .733.439.586.878l-4.344 14.488z" fill="#F2F5F9"/><path d="M141.376 158.439c-.146.683-.879 1.171-1.66 1.171-.781 0-1.318-.537-1.171-1.22.146-.683.878-1.171 1.659-1.171s1.318.537 1.172 1.22z" fill="#DCDDEF"/><path d="M121.702 135.658c2.783-.195 6.395.488 8.348 1.805 5.223 3.415 7.42 10.683 7.42 10.683L130.245 150" fill="#FFE1CC"/><path d="M111.304 151.512s-2.099 7.415-1.611 9.073c.391 1.22 11.082 2.781 11.082 2.781l.536 7.122s-18.941 1.219-21.674-2.195c-3.76-4.683.537-18.878.537-18.878" fill="#995037"/><path d="M118.529 163.219c1.562.049 9.91.439 9.861.879-.048.39-2.392.682-2.294.878.146.292 1.953.439 2.978.439.927 0 2.392.146 2.441.536.097.781-4.931.732-4.931.732s5.419-.976 5.565-.342c.196.878-5.565 1.708-5.711 1.952 0 0 4.784-2.098 4.979-1.415.146.683-4.101 2.634-5.467 2.732 1.122-.293 4.344-2.537 4.442-1.903.098.634-2.783 1.951-3.222 2.049-3.905.878-7.616.585-7.616.585" fill="#995037"/><path d="M130.978 166.341a23.18 23.18 0 0 1-1.953.342c-.342.049-.635.049-.976.049-.342 0-.635 0-.977-.049.635-.147 1.27-.195 1.953-.244a26.054 26.054 0 0 1 1.953-.098zM130.538 167.268c-.634.293-1.318.488-2.05.634-.342.049-.684.147-1.074.195-.342.049-.732.049-1.074.049 1.416-.292 2.782-.634 4.198-.878zM129.757 168.244c-.586.292-1.172.488-1.757.683-.293.097-.635.146-.928.195a5.964 5.964 0 0 1-.927.097 25.04 25.04 0 0 1 1.806-.536 10.8 10.8 0 0 1 1.806-.439z" fill="#6D221D"/><path d="M113.794 134.976s-5.663.39-7.811 2c-5.761 4.341-7.079 12.829-7.079 12.829l12.693 3.317 2.294-6.976" fill="#FFE1CC"/><path d="M111.011 153.122a38.506 38.506 0 0 1 1.757-5.854M130.928 149.756c-.927-4.829-2.099-7.805-2.099-7.805M99.295 147.854l12.155 3.561M136.884 146.39l-6.297 1.707M112.573 135.073s1.514 2.976 5.956 2.683c4.442-.293 4.638-2.098 4.638-2.098" stroke="#A5634C" stroke-width=".75" stroke-miterlimit="10"/><path d="M150.699 146.878s8.348-6.488 8.787-6.341c.44.146-.732 1.365-.39 1.414.341.049 3.026-2.683 3.417-2.439.537.342-2.197 2.927-2.197 2.927s3.173-2.683 3.515-2.244c.244.293-2.831 3.268-2.831 3.268s3.124-2.292 3.417-2c.244.293-2.539 2.927-2.539 2.927s2.197-1.902 2.539-1.609c.342.341-4.296 6.243-8.299 10.243" fill="#995037"/><path d="M158.559 142.293s-.586 1.512-1.367 2.683M158.169 145.707c.879-.927 2.099-1.073 3.173-1.024" stroke="#6D221D" stroke-width=".75" stroke-miterlimit="10" stroke-linejoin="round"/><path d="M117.748 184.439s-.781 4.537 3.856 4.244c11.228-.732 29.095-14.098 29.095-14.098l21.724 16.781 8.934-9.512s-14.694-12.244-19.039-15.561c-1.806-1.366-5.516-4.488-9.715-4.244-4.198.292-27.825 9.463-27.825 9.463" fill="#050C26"/><path d="M121.457 186.244c9.666-.634 24.262-11.171 28.119-13.512a1.705 1.705 0 0 1 1.855.097l22.163 17.269" stroke="#102059" stroke-width=".75" stroke-miterlimit="10"/><path d="M106.52 173.61s-1.904 16.585 11.911 15.658c9.715-.634 21.968-14.488 21.968-14.488l7.518 16.976 12.79-3.805s-6.298-15.805-8.446-21.122c-1.855-4.536-5.126-8.146-8.445-8.585-3.32-.439-6.786 1.073-10.935 3.463-3.32 1.952-13.669 11.025-13.669 11.025" fill="#131C5E"/><path d="M110.181 173.366s-.83 13.707 9.08 13.024c5.907-.39 17.574-12.146 20.845-14.975a.865.865 0 0 1 1.367.292l8.543 19.415M110.278 176.78s3.906-.487 4.247-3.707M146.892 189.366l12.839-3.854" stroke="#30409E" stroke-width=".75" stroke-miterlimit="10"/><path d="M170.324 189.756l8.983-9.61" stroke="#102059" stroke-width=".75" stroke-miterlimit="10"/><path d="M63.218 72.878c0-.195.293-.341.488-.293.293.05.537.244.683.537.147.293.196.585.196.878 0 .293 0 .585-.147.83-.244.438-.83.633-1.27.438" fill="#F9BBAF"/><path d="M62.974 68.927s1.757 6.634.78 8c-1.415 2.049-4.832 2.195-6.296 1.268-1.22-.78-2.197-5.024-2.197-6.097 0-2.976 6.15-4.732 7.713-3.171z" fill="#FFCBC2"/><path d="M54.139 76.732l-.684 5.805s2.197 2.341 5.468 2.341c3.27 0 3.27-2.195 3.27-2.195l-.634-5.024-5.077-5.317-2.343 4.39z" fill="#FFCBC2"/><path d="M57.214 71.903c0-.39 0-.781-.05-1.123 0-.097-.048-.877-.097-.926 1.611.341 3.32.439 4.93.341.538-.049 1.075-.097 1.514-.39.39-.244.342-4.049-4.491-4.244-.928-.049-1.904 0-2.685.439-.83.44-2.05 1.268-2.1 2.195-1.17.39-2.44 2.732-1.757 5.22.39 1.414.635 2.829 1.66 3.365 1.318-.536 2.197-2 2.441-2.292.488-.732.635-1.805.635-2.585z" fill="#4A1A1A"/><path d="M61.705 78.537s-2.295.439-3.857-.39c-1.22-.684-1.708-2.196-1.708-2.196" stroke="#F7A794" stroke-width=".75" stroke-miterlimit="10"/><path d="M56.92 73.805c-.146-.244-.634-.585-.878-.537a1.392 1.392 0 0 0-.684.39c-.878.976.098 2.83 1.416 2.635.488-.098.342-.732.342-.732" fill="#FFCBC2"/><path d="M61.852 72.39s1.025 1.561.927 2c-.098.44-1.123.488-1.123.488" stroke="#F7A794" stroke-width=".5" stroke-miterlimit="10"/><path d="M62.779 75.415l-2.832.39s.537 1.463 2.05 1.122c1.123-.195.782-1.512.782-1.512z" fill="#fff"/><path d="M62.681 72c0 .146.05.244.098.39.049.244.44.147.39-.097-.048-.147-.097-.244-.146-.342-.098-.244-.39-.146-.342.05z" fill="#212237"/><path d="M62.096 71.268s.44-.585 1.074-.146" stroke="#212237" stroke-width=".5" stroke-miterlimit="10" stroke-linecap="round" stroke-linejoin="round"/><path d="M59.46 72.732c0 .146.048.293.048.439.05.244.44.146.39-.098-.048-.146-.048-.244-.097-.341-.097-.244-.39-.195-.342 0z" fill="#212237"/><path d="M59.898 71.561s-.683-.244-1.416.585" stroke="#212237" stroke-width=".5" stroke-miterlimit="10" stroke-linecap="round" stroke-linejoin="round"/><path d="M64.292 178.293l1.318 13.463-.098 4.244 16.598-.097a.75.75 0 0 0 .733-.732.733.733 0 0 0-.489-.683l-7.176-3.268-.683-14" fill="#FFCBC2"/><path d="M83.575 195.707c-.147-.536-.488-1.122-.781-1.268l-7.616-3.268c-4.198 1.707-9.617.39-9.617.39l-.976 5.707c0 .195.146.342.342.342h18.55c.342.049.147-1.854.098-1.903z" fill="#011E3B"/><path d="M76.838 191.512c-.44.537-.781 1.171-1.074 1.805M77.814 192.098c-.44.634-.634.975-.878 1.512M78.596 192.488c-.293.39-.586.976-.83 1.415M64.731 196.39l18.942-.097M65.269 193.61s4.442.097 4.832 2.78M81.232 193.805s-1.22 1.756-1.464 2.537" stroke="#2C79E8" stroke-width=".75" stroke-miterlimit="10"/><path d="M72.054 120.488c2.831 20.488 5.419 68.927 5.419 68.927H63.169s-2.929-30.244-5.467-52.147c-6.298-10.39-5.81-21.658-6.493-23.17" fill="#2C79E8"/><path d="M65.122 189.415S61.607 156 59.068 134.098" stroke="#0F1D49" stroke-width=".75" stroke-miterlimit="10"/><path d="M41.349 178.293l-.635 13.463-.098 4.244 16.598-.097a.75.75 0 0 0 .732-.732.733.733 0 0 0-.488-.683l-7.176-3.268 1.27-14" fill="#FFCBC2"/><path d="M58.678 195.707c-.146-.536-.488-1.122-.78-1.268l-7.616-3.268c-4.198 1.707-9.617.39-9.617.39l-.977 5.707c0 .195.147.342.342.342h18.502c.39.049.146-1.854.146-1.903z" fill="#011E3B"/><path d="M51.941 191.512c-.44.537-.78 1.171-1.074 1.805M52.869 192.098c-.44.634-.635.975-.879 1.512M53.699 192.488c-.293.39-.586.976-.83 1.415M39.835 196.39l18.941-.097M40.323 193.61s4.443.097 4.833 2.78M56.336 193.805s-1.22 1.756-1.465 2.537" stroke="#2C79E8" stroke-width=".75" stroke-miterlimit="10"/><path d="M41.788 118.585c-.391 4.635-.342 10.391.341 16-1.22 24.683-2.929 54.781-2.929 54.781h14.304s6.883-54.634 7.225-71.22" fill="#2C79E8"/><path d="M44.228 118.585c-.39 4.635-.342 10.391.342 16-1.22 24.683-2.93 54.781-2.93 54.781M58.63 145.025s2.001-17.122 2.148-23.415M39.395 186.585h14.5M62.926 186.537h14.4M44.082 128.537s4.1.341 6.395-5.513" stroke="#0F1D49" stroke-width=".75" stroke-miterlimit="10"/><path d="M60.143 128.537s1.415-.39 1.562-.878c.146-.439.537-5.756.537-5.756M67.466 123.024s.342 4.781 5.565 5.513" stroke="#0F1D49" stroke-width=".75" stroke-miterlimit="10"/><path d="M75.52 93.025s3.32 4.634 4.394 4.877c1.074.196 10.3-10.097 10.3-10.097l5.614 4.341s-8.396 16.927-16.256 17.366c-6.785.391-13.376-10.195-13.376-10.195" fill="#FFCBC2"/><path d="M53.7 80.732s.927 1.414 4.783 1.805c2.88.292 3.613-1.074 3.613-1.074s6.98 3.708 9.08 19.122c2.05 15.415 2.294 23.464 2.294 23.464H40.567s-.097-11.707.83-21.805C42.423 91.903 44.57 83.122 53.7 80.732z" fill="#F7633A"/><path d="M64.341 127.073l-15.084-2.878-.488-.488 5.37-22.39 16.11 3.903.487.487-6.395 21.366z" fill="#EDEEF7"/><path d="M64.341 127.073l-15.084-2.878-.488-.488 5.37-22.39.488.488 9.714 25.268z" fill="#CCD2ED"/><path d="M70.73 105.677l-16.086-3.881-5.408 22.382 16.087 3.881 5.408-22.382z" fill="#B8C4E8"/><path d="M65.464 128.537l-16.11-3.903s3.467-14.585 4.052-16.829c0 0 1.026-2.585 2.93-3.512 1.073-.537 2.489-.829 3.758-.732l10.74 2.585-5.37 22.391z" fill="#fff"/><path d="M63.902 126.146l-12.01-2.78M64.243 124.829l-12.009-2.78M64.536 123.512l-12.009-2.78M64.878 122.195l-12.009-2.78M65.22 120.878l-12.01-2.732M65.513 119.61l-12.01-2.781M65.855 118.293l-12.01-2.781M66.196 116.976l-12.01-2.781M66.489 115.659l-12.01-2.781M66.83 114.342l-12.009-2.781M67.172 113.025l-12.009-2.732M67.514 111.756l-12.058-2.78M67.807 110.439l-12.01-2.78M68.149 109.122l-12.01-2.78M66.245 106.634l-6.542-1.512" stroke="#EDEEF7" stroke-miterlimit="10"/><path d="M56.384 104.293c-1.904.975-2.929 3.512-2.929 3.512s2.392-2.439 4.784-2.293c.049-1.268 1.904-2 1.904-2-1.22-.048-2.685.244-3.759.781z" fill="#EDEEF7"/><path d="M62.047 81.463c3.417.293 7.176 1.61 9.129 4.05 3.856 4.828 6.785 10.243 6.785 10.243l-9.226 6.488-6.688-20.78z" fill="#F7633A"/><path d="M71.175 100.488c-.537-4.341-1.708-9.854-1.708-9.854M70.883 98.341l6.2-4.292" stroke="#AA260C" stroke-width=".75" stroke-miterlimit="10"/><path d="M46.23 101.415s-3.222 7.024-2.978 8.731c.195 1.269 10.545 4.391 10.545 4.391l-.488 7.122s-18.893-1.61-21.09-5.415c-3.026-5.171 3.32-18.585 3.32-18.585" fill="#FFCBC2"/><path d="M51.6 114.098c1.562.292 9.714 1.902 9.617 2.341-.098.39-2.49.342-2.441.537.097.341 1.855.731 2.88.878.928.146 2.343.488 2.343.878 0 .78-4.98-.049-4.98-.049s5.517-.146 5.566.488c.098.927-5.76.878-5.956 1.073 0 0 5.077-1.366 5.126-.683.049.683-4.442 2-5.81 1.903 1.172-.147 4.687-1.854 4.687-1.22.05.634-3.026 1.512-3.515 1.561-4.003.293-7.615-.585-7.615-.585" fill="#FFCBC2"/><path d="M63.462 119.073c-.635.049-1.318.049-1.953.049-.341 0-.634-.049-.976-.098a6.751 6.751 0 0 1-.976-.195c.634-.048 1.318 0 1.952.049.684 0 1.318.049 1.953.195zM62.877 119.902c-.684.196-1.416.293-2.1.342-.34 0-.731.049-1.073 0-.342 0-.732-.049-1.074-.146 1.416-.049 2.831-.196 4.247-.196zM61.998 120.732c-.586.195-1.22.292-1.855.39-.293.049-.635.049-.927.097-.293 0-.635 0-.928-.048.635-.098 1.22-.195 1.855-.293.586-.098 1.22-.146 1.855-.146z" fill="#F7958B"/><path d="M53.797 80.732c-3.857-.049-7.665.683-10.057 2.439-4.54 3.366-8.836 14.439-8.836 14.439l12.546 4.829 5.468-10.634" fill="#F7633A"/><path d="M46.571 102.244l4.247-7.317M47.792 100.195l-11.765-4.878M52.137 80.732s2.099 2.78 6.395 2.78c4.296 0 4.735-1.95 4.735-1.95" stroke="#AA260C" stroke-width=".75" stroke-miterlimit="10"/><path d="M87.822 90.488s6.151-7.707 6.59-7.707c.44.048-.39 1.414-.048 1.414.341-.049 2.245-3.17 2.636-3.024.537.195-1.22 2.975-1.22 2.975s.488-.536.927-.195c.293.195 0 1.073 0 1.073s.488-.292.83-.048c.293.243 0 .975 0 .975s.488-.585.83-.097c.341.439-1.318 4.683-4.199 9.317" fill="#FFCBC2"/><path d="M93.974 84.878s-.245 1.561-.684 2.83" stroke="#F7958B" stroke-width=".5" stroke-miterlimit="10"/><path d="M98.22 86.78c-.243.342-.487.732-.731 1.074a4.397 4.397 0 0 1-.44.487c-.097.098-.146.147-.244.196-.097.048-.244.146-.39.048-.098-.146-.05-.243-.05-.39 0-.097.05-.244.099-.341.048-.195.146-.44.244-.635.195-.39.341-.78.585-1.17l.196.097c-.245.44-.537.83-.83 1.22-.147.195-.293.39-.488.585-.098.098-.196.195-.293.244-.05.049-.147.098-.293 0-.098-.097-.147-.195-.147-.244 0-.292.05-.536.147-.78.097-.244.146-.488.244-.683.195-.44.39-.927.586-1.366l.195.097c-.244.44-.488.879-.781 1.318l-.44.585a1.294 1.294 0 0 1-.292.244c-.05.049-.147.097-.244.049-.098 0-.147-.147-.147-.196 0-.536.244-1.024.39-1.463.196-.488.391-.927.635-1.366-.195.44-.39.927-.537 1.415a4.062 4.062 0 0 0-.195.732c-.049.243-.146.487-.098.731 0 .05.05.098.05.098s.048 0 .097-.049a.589.589 0 0 0 .244-.244l.44-.585c.243-.44.536-.83.731-1.269l.196.098c-.196.44-.39.878-.586 1.366-.146.439-.342.927-.39 1.366v.049h.048c.098-.05.196-.147.244-.195.147-.147.293-.342.44-.537.293-.39.537-.78.83-1.22l.195.098-.586 1.17c-.098.196-.195.39-.244.586-.049.098-.049.195-.098.293 0 .097-.049.195 0 .244.05.048.147 0 .196-.05.097-.048.146-.097.244-.194l.439-.44c.342-.39.586-.731.83-1.072z" fill="#F7958B"/></g><defs><clipPath id="clip0"><path fill="#fff" d="M0 0h324v198H0z"/></clipPath></defs></svg>