<svg width="326" height="199" fill="none" xmlns="http://www.w3.org/2000/svg"><g clip-path="url(#clip0)"><path d="M217.03 69.549c-6.083 0-11.016-4.968-11.016-11.093 0-6.126 4.933-11.094 11.016-11.094h24.381c6.083 0 11.304-4.774 11.496-10.9.239-6.463-4.886-11.768-11.256-11.768H97.571c-6.419 0-11.592 5.209-11.592 11.672 0 6.415 5.173 11.672 11.592 11.672h21.123c5.987 0 11.065 4.678 11.304 10.707.24 6.318-4.79 11.527-11.017 11.527H35.302c-9.963 0-18.01 8.103-18.01 18.135 0 10.032 8.047 18.135 18.01 18.135h136.464l74.579-.193h51.395c10.059 0 18.25-8.2 18.25-18.376 0-10.129-8.143-18.376-18.25-18.376h-80.71v-.048z" stroke="#B6C8EF" stroke-linecap="round" stroke-linejoin="round" stroke-dasharray="3 3"/><path d="M107.869 27.106c-2.156-2.074-3.497-5.016-3.497-8.296 0-6.318 5.077-11.43 11.352-11.43s11.352 5.112 11.352 11.43-5.077 11.43-11.352 11.43c-2.06 0-3.928-.53-5.604-1.494l-3.401 1.929 1.15-3.57z" fill="#fff" stroke="#B6C8EF" stroke-miterlimit="10"/><path d="M121.233 23.488l-10.921-.096-1.198-7.91h13.172l-1.053 8.006zM122.286 15.482h-13.172l6.562-5.45 6.61 5.45z" fill="#9FBDFD"/><path d="M120.124 14.702l-9.005.016.014 7.669 9.005-.016-.014-7.669z" fill="#fff"/><path d="M109.114 15.482v8.633l6.61-4.003-6.61-4.63zM122.287 15.482l.048 8.633-6.61-4.003 6.562-4.63z" fill="#E3F1FC"/><path d="M122.334 24.115h-13.22l6.61-5.45 6.61 5.45z" fill="#E3F1FC"/><path d="M109.114 24.115l6.61-5.45 6.61 5.45M116.683 19.437l5.604-3.955M114.766 19.437l-5.652-3.955" stroke="#9FBDFD" stroke-width=".5" stroke-miterlimit="10" stroke-linejoin="round"/><path d="M115.725.241v4.003M97.379 18.713h3.976M130.046 18.713h3.975M105.569 8.489l-2.826-2.846M125.831 8.489l2.826-2.846" stroke="#B6C8EF" stroke-miterlimit="10" stroke-linecap="round" stroke-linejoin="round"/><path d="M206.252 40.465c3.162-3.038 5.126-7.33 5.126-12.105 0-9.212-7.425-16.736-16.621-16.736-9.149 0-16.621 7.475-16.621 16.736 0 9.212 7.424 16.736 16.621 16.736 2.969 0 5.748-.772 8.19-2.17l4.982 2.797-1.677-5.258z" fill="#fff" stroke="#B6C8EF" stroke-miterlimit="10"/><path d="M194.805 1.254v5.884M221.532 28.215h-5.796M173.825 28.215h-5.796M209.605 13.312l4.12-4.148M179.956 13.312l-4.119-4.148" stroke="#B6C8EF" stroke-miterlimit="10" stroke-linecap="round" stroke-linejoin="round"/><path d="M186.614 25.273c0-4.534 3.688-8.248 8.191-8.248 4.502 0 8.191 3.714 8.191 8.248a8.218 8.218 0 0 1-1.581 4.871c-1.15 1.785-4.215 3.762-4.215 4.968v1.35c0 .29-.24.483-.479.483h-3.784a.482.482 0 0 1-.479-.483v-1.35c0-1.206-3.018-3.183-4.215-4.968-1.054-1.35-1.629-3.038-1.629-4.871z" fill="#FFCD5C"/><path d="M195.715 36.848c0-.193-.144-3.52.096-6.415-.335.049-.671.049-1.054.049s-.718 0-1.054-.049c.24 2.894.096 6.222.096 6.415h-.144c0-.048.144-3.472-.095-6.415-2.443-.337-3.497-1.736-3.689-3.038-.095-.772.144-1.543.623-1.785.287-.192.623-.192 1.006-.096.575.145 1.15.675 1.485 1.35.383.772.623 2.074.766 3.473.336.048.671.048 1.054.048s.718 0 1.054-.048c.143-1.399.383-2.7.766-3.473.335-.675.91-1.157 1.485-1.35a1.41 1.41 0 0 1 1.006.096c.479.29.718 1.062.623 1.785-.192 1.302-1.294 2.7-3.689 3.038-.287 2.943-.095 6.367-.095 6.415h-.24zm2.778-11.286c-.096 0-.239 0-.383.048-.527.145-1.054.627-1.389 1.254-.383.772-.623 2.026-.719 3.377 2.348-.338 3.353-1.64 3.545-2.894.096-.675-.144-1.399-.527-1.64-.192-.097-.335-.145-.527-.145zm-7.424 0a.961.961 0 0 0-.527.145c-.431.241-.671.965-.527 1.64.192 1.254 1.245 2.556 3.545 2.893-.144-1.398-.384-2.652-.719-3.376-.335-.627-.862-1.109-1.389-1.254-.144-.048-.239-.048-.383-.048z" fill="#fff"/><path d="M201.606 25.755a.482.482 0 0 1-.479-.482c0-2.942-1.963-5.498-4.789-6.222-.24-.048-.384-.338-.336-.579.048-.24.336-.386.575-.337 3.257.82 5.508 3.762 5.508 7.138 0 .29-.239.482-.479.482zM195.092 18.858a.48.48 0 0 0 .479-.482.48.48 0 0 0-.479-.482.481.481 0 0 0-.479.482c0 .266.215.482.479.482z" fill="#FE9"/><path opacity=".55" d="M202.948 25.755c-.431 3.376-3.162 6.897-8.191 6.897-5.029 0-7.616-3.665-8.191-6.897.096 1.64.671 3.135 1.533 4.39 1.15 1.784 4.215 3.761 4.215 4.967v1.35c0 .29.24.483.479.483h3.784a.481.481 0 0 0 .479-.483v-1.35c0-1.206 3.018-3.183 4.215-4.968a7.634 7.634 0 0 0 1.677-4.389z" fill="#FFCD5C"/><path d="M197.391 35.69h-5.221V38.2c0 .386.096.82.335 1.157.431.675 1.102 1.061 1.868 1.061h.767c.766 0 1.485-.386 1.868-1.06.239-.338.335-.724.335-1.158V35.69h.048z" fill="#28364C"/><path d="M197.391 37.379s-.048 0 0 0l-5.269-.724c-.191-.048-.287-.193-.287-.386.048-.193.192-.289.383-.289l5.221.723c.192.049.288.193.288.386-.048.193-.192.29-.336.29zM197.391 38.536s-.048 0 0 0l-5.269-.723c-.191-.048-.287-.193-.287-.386.048-.193.192-.29.383-.29l5.221.724c.192.048.288.193.288.386-.048.145-.192.29-.336.29zM197.2 39.646c-.048 0-.048 0 0 0l-4.982-.676c-.192-.048-.287-.192-.287-.386.048-.192.191-.289.383-.289l4.933.675c.192.049.288.193.288.386-.048.193-.192.29-.335.29z" fill="#475577"/><path d="M256.739 60.047c.873 0 1.581-.712 1.581-1.591 0-.88-.708-1.592-1.581-1.592s-1.581.713-1.581 1.592c0 .878.708 1.591 1.581 1.591zM149.349 8.681c.873 0 1.581-.712 1.581-1.591 0-.88-.708-1.592-1.581-1.592s-1.58.713-1.58 1.592c0 .879.707 1.591 1.58 1.591zM166.688 44.083c.873 0 1.581-.713 1.581-1.592 0-.879-.708-1.591-1.581-1.591s-1.581.712-1.581 1.591c0 .88.708 1.592 1.581 1.592zM303.249 33.617c.873 0 1.58-.713 1.58-1.592 0-.879-.707-1.591-1.58-1.591-.873 0-1.581.712-1.581 1.591 0 .88.708 1.592 1.581 1.592zM39.133 60.674c.873 0 1.581-.712 1.581-1.591 0-.88-.708-1.592-1.58-1.592-.874 0-1.581.712-1.581 1.592 0 .879.707 1.591 1.58 1.591zM15.04 66.365l-3.88 1.062c-.335.096-.383.578-.095.868l2.826 2.749c.24.24.575.145.67-.193l1.102-3.762c0-.434-.287-.82-.623-.724zM307.607 82.812l-3.257-2.363c-.287-.193-.718.048-.766.434l-.336 3.907c-.047.337.24.53.527.385l3.593-1.543c.383-.097.479-.627.239-.82zM26.584 91.542h13.89M184.65 56.478h12.215M272.784 75.867h8.574M283.418 75.867h4.311M127.891 42.491h8.286M134.5 46.35h6.514M65.19 30.482h6.706M70.508 28.022h4.31M35.781 94.87h6.706M8.048 92.989v2.749M9.436 94.34H6.658M9.436 94.34H6.658M54.08 35.594v2.75M55.468 36.993h-2.779M55.468 36.993h-2.779M178.855 67.378v2.75M180.244 68.729h-2.778M180.244 68.729h-2.778M241.554 5.98v2.75M242.943 7.38h-2.778M242.943 7.38h-2.778M294.195 62.603v2.75M295.537 63.954h-2.73M295.537 63.954h-2.73M324.419 112.426v2.749M325.76 113.824h-2.73M325.76 113.824h-2.73" stroke="#B6C8EF" stroke-miterlimit="10" stroke-linecap="round" stroke-linejoin="round"/><path d="M84.59 17.315H54.653c-4.694 0-6.13-.145-10.825 0-.048-2.894.767-5.643 2.156-7.138 1.15-1.206 3.113-1.881 4.694-1.447 2.012.53 3.4 1.88 4.694 2.893.479-4.003 2.107-7.668 3.88-8.44 3.065-1.35 6.226.82 7.663 2.942 1.198 1.737 1.82 3.81 2.06 5.884 1.916-2.122 6.18-3.762 7.712-.386.623 1.303.575 2.846.479 4.293 2.49-.675 5.317-.145 7.424 1.399zM253.912 51.655c.671-2.75 6.993-6.752 10.394-4.34.144-3.28 1.677-6.801 5.413-8.827 4.598-2.508 9.005 2.46 9.963 5.595.91-2.894 5.556-6.8 9.244-3.521 3.449 3.039 3.784 8.151 3.449 11.045h-38.463v.048z" fill="#E3F1FC"/><path d="M238.058 144.403l8.574-56.575a2.795 2.795 0 0 1 2.778-2.412h37.792l-9.628 62.459c-.67 4.245-4.167 7.235-8.478 7.235H212.24c-1.581 0-2.826-1.302-2.826-2.846a2.84 2.84 0 0 1 2.826-2.845h19.926c3.018-.049 5.413-2.074 5.892-5.016z" fill="#C7D2EF"/><path d="M276.089 144.403l8.574-56.768c.191-1.302 1.245-2.17 2.538-2.17h.096c1.82 0 3.353 1.736 3.066 3.52l-9.101 58.939c-.671 4.244-4.167 7.234-8.478 7.234h-41.193c-1.581 0-2.826-1.302-2.826-2.845a2.84 2.84 0 0 1 2.826-2.846h38.606c3.018-.097 5.461-2.122 5.892-5.064z" fill="#E3EDFF"/><path d="M248.883 155.11v34.581M266.797 192.537c0-1.592-1.245-2.846-2.826-2.846h-30.176c-1.581 0-2.826 1.254-2.826 2.846M251.948 192.537c0-1.592-1.245-2.846-2.826-2.846" stroke="#114093" stroke-miterlimit="10"/><path d="M266.797 198.325a2.884 2.884 0 0 0 2.874-2.894 2.884 2.884 0 0 0-2.874-2.894 2.884 2.884 0 0 0-2.874 2.894 2.884 2.884 0 0 0 2.874 2.894z" fill="#E3EDFF"/><path opacity=".45" d="M266.797 196.492c.582 0 1.054-.475 1.054-1.061s-.472-1.061-1.054-1.061c-.582 0-1.054.475-1.054 1.061s.472 1.061 1.054 1.061z" fill="#B7C2CE"/><path d="M251.948 198.325a2.884 2.884 0 0 0 2.874-2.894 2.884 2.884 0 0 0-2.874-2.894 2.884 2.884 0 0 0-2.874 2.894 2.884 2.884 0 0 0 2.874 2.894z" fill="#E3EDFF"/><path opacity=".45" d="M251.948 196.492c.582 0 1.054-.475 1.054-1.061s-.472-1.061-1.054-1.061c-.582 0-1.053.475-1.053 1.061s.471 1.061 1.053 1.061z" fill="#B7C2CE"/><path d="M230.969 198.325a2.884 2.884 0 0 0 2.874-2.894 2.884 2.884 0 0 0-2.874-2.894 2.883 2.883 0 0 0-2.874 2.894 2.884 2.884 0 0 0 2.874 2.894z" fill="#E3EDFF"/><path opacity=".45" d="M230.969 196.492c.582 0 1.054-.475 1.054-1.061s-.472-1.061-1.054-1.061c-.582 0-1.054.475-1.054 1.061s.472 1.061 1.054 1.061z" fill="#B7C2CE"/><path d="M156.295 144.403l-8.574-56.575a2.795 2.795 0 0 0-2.778-2.412H107.15l9.628 62.459c.671 4.245 4.167 7.235 8.478 7.235h56.808c1.581 0 2.826-1.302 2.826-2.846a2.84 2.84 0 0 0-2.826-2.845h-19.926c-2.969-.049-5.412-2.074-5.843-5.016z" fill="#C7D2EF"/><path d="M118.215 144.404l-8.574-56.768c-.192-1.302-1.245-2.17-2.539-2.17h-.095c-1.821 0-3.353 1.736-3.066 3.52l9.101 58.938c.67 4.245 4.167 7.235 8.478 7.235h41.193c1.581 0 2.826-1.302 2.826-2.846a2.84 2.84 0 0 0-2.826-2.845h-38.606c-3.018-.097-5.413-2.122-5.892-5.064z" fill="#E3EDFF"/><path d="M145.422 155.11v34.581M127.508 192.537c0-1.592 1.245-2.846 2.826-2.846h30.176c1.581 0 2.826 1.254 2.826 2.846M142.356 192.537c0-1.592 1.246-2.846 2.826-2.846" stroke="#114093" stroke-miterlimit="10"/><path d="M127.508 198.325a2.884 2.884 0 0 0 2.874-2.894 2.884 2.884 0 0 0-2.874-2.894 2.883 2.883 0 0 0-2.874 2.894 2.884 2.884 0 0 0 2.874 2.894z" fill="#E3EDFF"/><path opacity=".45" d="M127.508 196.492c.582 0 1.054-.475 1.054-1.061s-.472-1.061-1.054-1.061c-.582 0-1.054.475-1.054 1.061s.472 1.061 1.054 1.061z" fill="#B7C2CE"/><path d="M142.356 198.325a2.884 2.884 0 0 0 2.874-2.894 2.883 2.883 0 0 0-2.874-2.894 2.884 2.884 0 0 0-2.874 2.894 2.884 2.884 0 0 0 2.874 2.894z" fill="#E3EDFF"/><path opacity=".45" d="M142.357 196.492c.581 0 1.053-.475 1.053-1.061s-.472-1.061-1.053-1.061c-.582 0-1.054.475-1.054 1.061s.472 1.061 1.054 1.061z" fill="#B7C2CE"/><path d="M163.384 198.325a2.884 2.884 0 0 0 2.874-2.894 2.884 2.884 0 0 0-2.874-2.894 2.883 2.883 0 0 0-2.874 2.894 2.884 2.884 0 0 0 2.874 2.894z" fill="#E3EDFF"/><path opacity=".45" d="M163.384 196.492c.582 0 1.054-.475 1.054-1.061s-.472-1.061-1.054-1.061c-.582 0-1.054.475-1.054 1.061s.472 1.061 1.054 1.061z" fill="#B7C2CE"/><path d="M175.022 175.319l1.294 15.964-.144 5.257 20.405-.096c.479 0 .91-.434.91-.917a.953.953 0 0 0-.575-.868l-8.813-4.051-.527-16.64" fill="#F9A895"/><path d="M198.397 196.203c-.192-.676-.575-1.399-.958-1.544l-9.34-4.051c-5.125 2.122-11.783.482-11.783.482l-1.198 7.09c0 .241.192.434.431.434h22.704c.479-.048.192-2.363.144-2.411z" fill="#FF8D27"/><path d="M190.111 190.994a10.342 10.342 0 0 0-1.294 2.218M191.308 191.717a13.553 13.553 0 0 0-1.102 1.881M192.314 192.248c-.383.482-.718 1.205-1.005 1.736M175.214 197.071l23.279-.145M175.885 193.598s5.46.097 5.939 3.425M195.523 193.839s-1.485 2.171-1.82 3.135" stroke="#DD5E17" stroke-width=".75" stroke-miterlimit="10"/><path d="M165.396 175.319l.287 15.964-.144 5.257 20.405-.096c.479 0 .91-.434.91-.917a.953.953 0 0 0-.575-.868l-8.813-4.051.527-16.64" fill="#FFCBBB"/><path d="M187.716 196.203c-.191-.676-.574-1.399-.958-1.544l-9.34-4.051c-5.125 2.122-11.783.482-11.783.482l-1.197 7.09a.43.43 0 0 0 .431.434h22.704c.431-.048.143-2.363.143-2.411z" fill="#FFB548"/><path d="M179.43 190.994a10.296 10.296 0 0 0-1.293 2.218M180.579 191.717a13.538 13.538 0 0 0-1.101 1.881M181.585 192.248c-.383.482-.718 1.205-1.006 1.736M164.533 197.071l23.279-.145M165.156 193.598s5.461.097 5.94 3.425M184.843 193.839s-1.485 2.171-1.821 3.135" stroke="#ED841B" stroke-width=".75" stroke-miterlimit="10"/><path d="M133.639 125.11s-3.641 14.132 1.389 21.126c2.203 3.086 5.987 3.183 9.627 3.183h21.555c1.82 0 3.305 1.398 3.496 3.231l2.922 34.244h17.483s-1.772-29.469-2.203-35.353c-.383-4.727-1.245-11.141-3.065-15.289-2.491-5.547-7.089-8.392-11.784-8.392h-8.094a.76.76 0 0 1-.767-.772v-1.785" fill="#1A53E2"/><path d="M172.819 183.229h17.052" stroke="#2A36C6" stroke-width=".75" stroke-miterlimit="10"/><path d="M123.292 125.11s-3.64 14.132 1.389 21.126c2.203 3.086 5.987 3.183 9.628 3.183h21.554c1.82 0 3.305 1.398 3.497 3.231l2.922 34.244h17.483s-1.868-29.469-2.204-35.353c-.335-5.884-.814-11.383-3.065-15.289-3.545-6.126-9.724-8.296-16.525-8.296h-12.885v-3.424" fill="#4868EF"/><path d="M126.501 126.22s-2.252 12.781 1.293 16.977c1.916 2.267 5.413 2.363 8.095 2.363h23.375c1.724 0 3.161 1.351 3.305 3.087l3.017 38.247M161.946 183.229h17.531M134.74 126.991c-1.724 4.004-8.813 3.666-8.813 3.666" stroke="#1D2EA8" stroke-width=".75" stroke-miterlimit="10"/><path d="M140.105 68.295c0-.242-.287-.338-.527-.338-.335.048-.575.29-.766.579-.144.29-.192.627-.192.964 0 .29 0 .627.144.917.239.482.91.723 1.389.482" fill="#F9BBAF"/><path d="M140.488 64.34s-1.916 7.282-.862 8.778c1.581 2.218 5.269 2.411 6.85 1.398 1.293-.868 2.394-5.498 2.394-6.704 0-3.328-6.657-5.209-8.382-3.472z" fill="#FFCBBB"/><path d="M140.441 66.993l-.143.434c-.048.24.287.337.383.096.048-.145.096-.29.096-.434 0-.241-.24-.338-.336-.096z" fill="#00276F"/><path d="M141.207 66.22s-.479-.674-1.197-.144" stroke="#00276F" stroke-width=".5" stroke-miterlimit="10" stroke-linecap="round" stroke-linejoin="round"/><path d="M144.272 67.86l-.143.435c-.048.24.287.337.383.096.048-.145.048-.338.096-.482.048-.193-.24-.193-.336-.048z" fill="#00276F"/><path d="M144.129 66.607s.814-.242 1.628.675" stroke="#00276F" stroke-width=".5" stroke-miterlimit="10" stroke-linecap="round" stroke-linejoin="round"/><path d="M141.637 73.938l-.622 5.498s.287 2.411 3.879 2.411c3.593 0 6.179-2.604 6.179-2.604l-1.245-9.453" fill="#FFCBBB"/><path d="M141.877 74.854s2.491.482 4.215-.434c1.341-.724 1.82-2.412 1.82-2.412" stroke="#F7A794" stroke-miterlimit="10"/><path d="M142.499 67.378s-1.197 1.688-1.053 2.074c.143.53 1.053.386 1.053.386" stroke="#F7A794" stroke-width=".5" stroke-miterlimit="10" stroke-linejoin="round"/><path d="M146.332 69.452c-.336.579-1.15.965-2.012 1.061-1.629.193-3.401-.53-5.03-.337-.335.048-.383 1.688-.383 2.218 0 .627.144 1.302.479 1.833.336.53.91.868 1.485 1.061 1.198.434 2.539.434 3.784.241.623-.096 1.15-.193 1.677-.482.526-.338 1.053-.675 1.436-1.206.479-.53.815-1.206 1.437-1.64.719-.482 1.485-.434 1.869-1.35.239-.53.287-1.158.287-1.785a29.52 29.52 0 0 0-.048-3.569c-.192-2.894-2.539-4.244-4.886-4.533-1.053-.145-2.634-.193-3.688-.193-.862-.049-2.06-.386-2.874.048-1.389.772-.91 3.183.479 3.665 1.533.483 3.928-.048 5.509.145 1.101.145 1.101 1.736 1.149 1.978.24 1.06-.191 1.977-.67 2.845z" fill="#011E3B"/><path d="M142.883 71.767l-2.395-.29s-.383 1.737 1.054 1.882c1.293.096 1.341-1.592 1.341-1.592z" fill="#fff"/><path d="M148.967 68.68c.287.097.479.338.622.627.671 1.303-.862 2.99-2.203 2.412-.479-.193-.335-1.543.671-2.846.191-.289.622-.337.91-.193zM169.514 95.593s2.012 10.563 3.497 14.132c1.484 3.569 9.579 3.231 9.579 3.231l-2.586 7.138s-13.46 1.303-16.334-3.472c-4.071-6.801-3.88-18.907-3.88-18.907" fill="#FFCBBB"/><path d="M177.034 113.101s10.059-.386 10.251.048c.239.434-1.725.482-1.437.82.239.338 4.694.145 4.838.675.143.676-3.88.772-3.88.772s4.406.145 4.358.772c-.047.434-3.4.482-4.694.675 1.437 0 3.737.241 3.689.675-.048.482-2.347.531-4.12.724 1.102 0 3.114.144 3.114.578 0 .434-7.999 1.061-13.268 1.399" fill="#FFCBBB"/><path d="M150.93 77.844c15.902 2.798 19.734 19.486 19.734 19.486l-11.304 3.713-6.323-16.254" fill="#FFB548"/><path d="M151.696 77.844s9.005 3.184 11.256 13.65c2.251 10.466 2.347 23.584 1.198 35.063-18.489 2.267-41.577.627-41.577.627s-1.341-28.986 4.934-37.91c6.323-8.922 12.837-10.996 12.837-10.996l5.939 2.267 5.413-2.7z" fill="#FFB548"/><path d="M139.626 119.371h20.693v1.158h-21.89c.048-.627.574-1.158 1.197-1.158z" fill="#91A9D8"/><path d="M185.609 120.528h-29.123l5.557-17.99a2.215 2.215 0 0 1 2.107-1.543h26.297c.574 0 1.006.579.814 1.109l-5.652 18.424z" fill="#91A9D8"/><path d="M186.903 120.528H157.78l5.557-17.99a2.215 2.215 0 0 1 2.107-1.543h26.297c.574 0 1.005.579.814 1.109l-5.652 18.424z" fill="#C7D2EF"/><path d="M178.328 111.075c-.191.82-1.197 1.544-2.251 1.544-1.054 0-1.82-.676-1.629-1.544.192-.82 1.198-1.543 2.252-1.543 1.053 0 1.772.675 1.628 1.543z" fill="#91A9D8"/><path d="M134.213 99.307s-3.784 8.826-3.161 10.37c.622 1.543 16.86 2.652 16.86 2.652l-.527 8.055s-18.153.144-26.009.144c-9.963 0-.718-24.26-.718-24.26" fill="#FFCBBB"/><path d="M142.835 111.943s12.071.676 12.262 1.206c.24.579-2.107.386-1.82.82.288.434 5.604.675 5.7 1.351.096.868-4.742.482-4.742.482s5.269.675 5.125 1.447c-.095.53-4.119.241-5.7.289 1.725.145 4.455.675 4.311 1.254-.096.531-2.874.386-4.981.386 1.341.145 3.736.482 3.64 1.013-.096.53-9.676.386-15.998.193" fill="#FFCBBB"/><path d="M140.632 78.568c-17.292-1.061-21.555 19.389-21.555 19.389l15.711 3.086 2.586-10.659" fill="#FFB548"/><path d="M141.302 76.976c1.964 1.978 4.982 3.57 4.982 3.57 0 .047-1.006 1.928-2.012 3.713 0 0-3.976-3.135-5.365-5.74-.048 0 1.82-1.302 2.395-1.543zM146.284 80.497l2.395 3.424s2.156-1.254 3.784-5.836c0 0-.862-1.205-1.772-1.688-1.102 1.447-4.407 4.1-4.407 4.1z" fill="#fff"/><path d="M134.309 100.947l3.065-8.055M164.39 99.355c-.862-5.836-3.161-10.996-3.161-10.996" stroke="#E2690E" stroke-miterlimit="10"/><path d="M223.305 124.098v74.661M103.893 124.098v74.661" stroke="#114093" stroke-miterlimit="10"/><path opacity=".55" d="M193.895 112.908s.288-.048.384-.193c.239-.337-.144-.675-.431-.868-.336-.193-.815-.289-.958-.723-.192-.483.143-.965.526-1.254a4.918 4.918 0 0 1 1.054-.435c.383-.144.814-.385 1.054-.771.287-.483.239-1.061.287-1.592.144-2.074 2.252-3.135 4.072-3.183.91 0 2.251.289 2.826 1.013.191.241.335.53.431.82.096.482-.096.916-.383 1.254-.288.337-.719.578-1.054.868-.335.337-.096.675-.192 1.061-.095.434-.383.627-.766.82-.814.434-1.724.579-2.587.82-.287.096-.526.144-.766.337-.287.242-.431.579-.671.869-.383.53-.958.916-1.628 1.061" fill="url(#paint0_linear)"/><path d="M198.877 118.165H197.2v-.82h1.677c.527 0 1.006-.434 1.006-1.013v-1.398c0-.531-.432-1.013-1.006-1.013H197.2v-.82h1.677c1.006 0 1.82.82 1.82 1.833v1.398a1.826 1.826 0 0 1-1.82 1.833z" fill="#E8EAEF"/><path d="M195.523 120.287h-.958c-1.628 0-2.921-1.302-2.921-2.942v-5.353h6.849v5.353c-.048 1.64-1.341 2.942-2.97 2.942z" fill="#E8EAEF"/><path d="M190.494 119.13s.048 1.64 2.587 1.64h3.927c2.491 0 2.587-1.64 2.587-1.64h-9.101z" fill="#CFDAE5"/><path d="M227.376 120.529H98.624v4.292h128.752v-4.292z" fill="#F0F6FF"/><path d="M203.81 120.529h-1.389l-6.227-18.762c-.143-.338.096-.724.479-.772.384 0 .719.241.863.579l6.274 18.955z" fill="#7D97D3"/><path d="M226.227 119.371h-23.135v1.158h24.285a1.17 1.17 0 0 0-1.15-1.158z" fill="#7D97D3"/><path d="M80.135 54.742l.527 5.546s-.431 1.592-3.497 1.93c-3.688.434-5.269-2.412-5.269-2.412l.767-5.16" fill="#F49C84"/><path d="M82.194 47.893s2.156 6.945-.91 8.778c-2.778 1.64-7.472-.916-7.76-1.785-.287-.868-1.532-8.343.288-8.922 3.161-1.013 7.472-1.061 8.382 1.93z" fill="#F49C84"/><path d="M80.326 57.395s-2.921.771-5.125-1.158" stroke="#C45F47" stroke-width=".75" stroke-miterlimit="10"/><path d="M84.207 43.938c-.384-.627-1.006-1.11-1.677-1.254-.67-.145-1.437 0-2.012-.386-.143-.096-.287-.24-.43-.337-.48-.338-1.102-.338-1.677-.193-.575.144-1.054.482-1.533.868-.335.241-.67.579-1.054.675-.718.241-1.58-.048-2.347.048-.91.097-1.724.724-2.012 1.592-.287.868-.095 1.881-.574 2.7-.24.435-.623.724-.767 1.207-.24.578 0 1.254.336 1.832.287.531.622 1.013.766 1.592.144.434.192.868.335 1.254.288.82.767 1.543 1.677 1.64.335.048.67.048.958-.145.24-.193.335-.53.383-.868.048-.53.048-1.061-.096-1.592.335.193.623.483.958.386.096 0 .192-.096.287-.193.767-.771-.095-2.025-.191-2.797-.096-.868.718-1.736 1.58-1.688.384.048.767.193 1.15.145.767-.049 1.246-.869 1.964-1.013.67-.193 1.389 0 2.06.048 1.15 0 2.25-1.061 2.25-2.219 0-.482-.095-.916-.334-1.302z" fill="#173789"/><path d="M74.866 52.427c-.24-.675-.719-1.447-1.437-1.013-.24.145-.383.482-.48.82-.334 1.06.432 2.749 1.486 2.604.527-.096.814-.675 1.005-1.206" fill="#F49C84"/><path d="M80.135 50.69s.958 1.785.814 2.123c-.24.482-1.101.24-1.101.24" stroke="#C45F47" stroke-width=".75" stroke-miterlimit="10"/><path d="M79.37 54.308l2.346-.29s.192 1.64-.862 1.93c-1.293.289-1.485-1.64-1.485-1.64z" fill="#fff"/><path d="M81.572 50.305c.048.144.048.289.096.434.048.24.431.144.383-.097l-.143-.434c-.096-.193-.336-.145-.336.097z" fill="#00276F"/><path d="M81.142 49.485s.479-.676 1.197-.145" stroke="#00276F" stroke-width=".5" stroke-miterlimit="10" stroke-linecap="round" stroke-linejoin="round"/><path d="M77.74 51.124c0 .145.048.338.096.483.048.241.431.145.383-.097l-.143-.434c-.048-.144-.336-.144-.336.048z" fill="#00276F"/><path d="M78.22 49.822s-.815-.24-1.63.675" stroke="#00276F" stroke-width=".5" stroke-miterlimit="10" stroke-linecap="round" stroke-linejoin="round"/><path d="M83.393 175.319l1.963 15.964-.143 5.257 20.405-.096c.479 0 .91-.434.91-.917a.955.955 0 0 0-.575-.868l-8.813-4.051-1.15-16.64" fill="#F49C84"/><path d="M107.342 196.203c-.191-.676-.574-1.399-.958-1.544l-9.34-4.051c-5.125 2.122-11.783.482-11.783.482l-1.197 7.09a.43.43 0 0 0 .43.434H107.2c.479-.048.143-2.363.143-2.411z" fill="#2B88F7"/><path d="M99.055 190.994a10.314 10.314 0 0 0-1.293 2.218M100.253 191.717a13.587 13.587 0 0 0-1.102 1.881M101.259 192.248c-.383.482-.719 1.205-1.006 1.736M84.16 197.071l23.278-.145M84.83 193.598s5.46.097 5.939 3.425M104.468 193.839s-1.485 2.171-1.821 3.135" stroke="#1340BF" stroke-width=".75" stroke-miterlimit="10"/><path d="M92.972 106.542c3.4 24.453 5.94 82.185 5.94 82.185H80.327s-2.922-42.492-5.94-68.97c-5.03-9.887-7.04-16.736-6.13-20.884" fill="#223082"/><path d="M82.77 188.727s-2.922-42.491-5.94-68.97" stroke="#0D1735" stroke-width=".75" stroke-miterlimit="10"/><path d="M58.15 175.319L57 191.283l-.144 5.257 20.405-.096c.48 0 .91-.434.91-.917a.954.954 0 0 0-.574-.868l-8.814-4.051 1.964-16.64" fill="#F49C84"/><path d="M78.986 196.203c-.192-.676-.575-1.399-.958-1.544l-9.34-4.051c-5.126 2.122-11.784.482-11.784.482l-1.197 7.09a.43.43 0 0 0 .431.434h22.704c.431-.048.144-2.363.144-2.411z" fill="#2B88F7"/><path d="M70.7 190.994a10.314 10.314 0 0 0-1.294 2.218M71.849 191.717a13.597 13.597 0 0 0-1.102 1.881M72.855 192.248c-.384.482-.719 1.205-1.006 1.736M55.803 197.071l23.279-.145M56.474 193.598s5.46.097 5.94 3.425M76.112 193.839s-1.485 2.171-1.82 3.135" stroke="#1340BF" stroke-width=".75" stroke-miterlimit="10"/><path d="M57.096 104.275c-1.533 4.196-1.868 11.575-.24 18.713.096.483.144.965.144 1.447-1.437 29.373-2.922 64.292-2.922 64.292h18.345s6.898-72.925 8.287-84.983" fill="#223082"/><path d="M59.97 104.275c-1.533 4.196-1.868 11.575-.24 18.713.096.483.144.965.144 1.447-1.437 29.373-2.922 64.292-2.922 64.292M76.782 143.293s2.778-28.6 3.64-35.401M58.82 117.297s5.173-1.061 7.856-6.366" stroke="#0D1735" stroke-width=".75" stroke-miterlimit="10"/><path d="M79.513 116.139s1.772-.289 1.964-.964c.191-.675 1.15-6.608 1.15-6.608M88.47 109.677s1.197 5.836 5.556 6.028M54.222 185.254h18.537M80.087 185.254h18.68" stroke="#0D1735" stroke-width=".75" stroke-miterlimit="10"/><path d="M97.475 73.745s4.119 6.366 5.652 6.51c2.443.29 14.178-8.68 14.178-8.68l5.987 6.896s-11.256 13.36-20.596 13.987c-7.329.482-16.094-11.238-16.094-11.238" fill="#F49C84"/><path d="M113.568 74.323s10.107-7.91 10.634-7.765c.527.145-.91 1.64-.431 1.688.431.049 3.64-3.28 4.119-2.942.623.386-2.682 3.57-2.682 3.57s3.832-3.232 4.263-2.75c.335.338-3.449 4.003-3.449 4.003s3.784-2.797 4.119-2.411c.336.386-3.017 3.569-3.017 3.569s2.634-2.315 3.065-1.93c.431.386-5.173 7.621-10.058 12.492" fill="#F49C84"/><path d="M123.005 68.728s-.719 1.833-1.677 3.28M122.621 72.876c1.102-1.109 2.491-1.302 3.88-1.254" stroke="#C45F47" stroke-width=".75" stroke-miterlimit="10"/><path d="M72.04 59.083s1.485 1.88 4.216 2.122c2.73.24 4.454-1.254 4.454-1.254s8.718 4.437 11.16 22.813c2.444 18.376 2.683 28.022 2.683 28.022H55.707c-.048 0-4.886-46.06 16.334-51.703z" fill="#2B88F7"/><path d="M80.71 59.95c2.443 0 6.035.965 8.382 2.653 5.03 3.57 6.562 7.765 11.209 14.132l-11.257 8.006-8.334-24.79z" fill="#2B88F7"/><path d="M73.573 121.59l-16.86-8.248 11.017-22.91 16.86 8.296-11.017 22.862z" fill="#FFEFAB"/><path d="M80.854 97.62l-9.484-4.63.623-1.302c.096-.193.335-.29.527-.193l8.765 4.292c.192.097.288.338.192.53l-.623 1.303z" fill="#173789"/><path d="M77.933 91.542c-.767-.386-1.725-.097-2.06.627-.335.723 0 1.64.766 2.026.767.385 1.725.096 2.06-.627.383-.772 0-1.64-.766-2.026zm-.958 1.93c-.384-.194-.527-.628-.384-.966.192-.337.623-.482.958-.289.384.193.527.627.384.965-.144.337-.575.482-.958.29z" fill="#173789"/><path d="M63.37 82.957s-3.304 7.379-3.496 9.453c-.24 2.074 13.077 8.296 13.077 8.296l-3.497 8.247s-21.267-5.257-23.23-11.72c-1.965-6.463 4.885-19.775 4.885-19.775" fill="#F49C84"/><path d="M66.15 97.233s12.5 5.691 12.549 6.366c.048.676-2.3-.289-2.156.242.144.53 5.604 2.604 5.509 3.279-.192.917-4.647-1.061-4.647-1.061s4.838 2.46 4.455 3.183c-.287.531-4.359-1.157-6.035-1.591 1.724.723 4.406 2.17 4.12 2.749-.288.531-3.114-.531-5.318-1.254 1.342.579 3.689 1.736 3.45 2.267-.24.53-10.203-2.798-16.718-5.113" fill="#F49C84"/><path d="M72.04 59.083c-5.556-.097-11.016 1.591-14.13 4.581-4.646 4.438-8.909 15.579-8.909 15.579l14.849 5.788 6.466-12.685" fill="#2B88F7"/><path d="M62.796 84.79l4.981-8.73M64.185 82.33l-14.274-5.836M91.919 82.667c-.623-5.16-2.06-11.768-2.06-11.768M91.535 80.111L98.912 75" stroke="#273B7A" stroke-width=".75" stroke-miterlimit="10"/><path d="M282.986 141.316c-1.389-.434-2.969-.579-4.263-.048-.718.289-1.341.82-1.963 1.254-1.15.82-2.683 1.495-4.072.964-1.245-.482-1.868-1.832-1.533-2.99.336-1.158 1.437-2.074 2.683-2.508 1.245-.434 2.682-.434 3.975-.241" fill="#86ADA8"/><path d="M290.076 153.47c-6.994.097-7.185-9.405-10.059-13.119-1.341-1.688-3.066-2.749-5.317-2.604 1.006-.675 9.197-1.351 10.969-.434 1.964 1.061 3.018 2.315 3.928 4.148 1.101 2.122 4.933 9.887.479 12.009z" fill="#BCDDCB"/><path d="M276.759 137.458c13.699-.435 13.268 19.292 15.184 28.552.048.145.24.097.24-.048-.527-3.569-1.006-7.09-1.581-10.659-.575-3.328-1.245-6.704-2.538-9.839-2.012-4.823-5.844-8.489-11.305-8.151-.095 0-.095.145 0 .145z" fill="#8EBCA1"/><path d="M293.236 146.091c-2.586-1.013-4.023-3.81-4.502-6.56-.862-4.967-1.533-9.983-2.874-14.855-1.437-5.209-3.928-9.646-6.658-14.276-1.197-2.026-2.443-4.823-.814-6.559.622-.676 1.58-.965 2.538-1.061 3.257-.29 6.323 1.832 8.143 4.582 1.82 2.749 2.587 5.98 3.353 9.212.527 2.17 1.006 4.34 1.533 6.511 1.772 7.476 3.736 18.327-.719 23.006z" fill="#D6E8DD"/><path d="M309.091 130.223c1.676-1.061 3.784-1.302 5.748-1.061 1.964.241 3.832 1.013 5.652 1.833.766.337 1.58.723 2.395.82.862.096 1.772-.145 2.299-.869.575-.819.431-1.977-.144-2.797-.575-.82-1.485-1.302-2.443-1.64-2.347-.916-4.885-1.061-7.376-1.109" fill="#86ADA8"/><path d="M316.037 126.895c3.066-.338 5.7 1.399 6.802 4.244.048.097.191.049.191-.048-.91-3.087-3.88-4.775-6.993-4.341-.144 0-.096.145 0 .145z" fill="#8EBCA1"/><path d="M278.963 103.31c4.167 2.556 7.568 9.212 9.675 14.903a72.39 72.39 0 0 1 3.593 14.18c1.533 10.37 2.251 25.466 1.868 35.98" stroke="#8EBCA1" stroke-width=".75" stroke-miterlimit="10"/><path d="M301.332 143.679c3.88-1.543 4.071-7.331 7.376-11.623 2.73-3.569 6.419-5.643 12.933-6.029-2.826-.965-5.796-1.737-8.766-1.785-2.969-.048-6.035.675-8.526 2.412-3.544 2.46-9.1 13.89-3.017 17.025z" fill="#D6E8DD"/><path d="M318.049 124.966c-4.407-.338-8.814 1.543-11.975 4.63-4.838 4.775-4.79 12.154-5.221 18.521a1390.382 1390.382 0 0 0-1.533 24.694" stroke="#8EBCA1" stroke-width=".75" stroke-miterlimit="10"/><path d="M299.511 134.708c-3.448-1.688-3.113-6.511-2.969-9.501.431-7.283 2.011-15.964 6.322-22.138 3.305-4.775 8.239-7.476 14.035-5.595 1.916.627 5.029 2.942 3.784 5.354-.815 1.591-4.311 2.653-5.748 3.907-1.82 1.639-3.305 3.665-4.503 5.835-2.443 4.389-3.784 9.309-5.077 14.18-.958 3.618-1.868 7.38-5.844 7.958z" fill="#BCDDCB"/><path d="M316.516 143.149c1.293-.338 3.545-.531 4.838-.241.575.337 1.676 1.012 2.443 2.218.862 1.447 1.006 5.498-1.725 4.775-1.149-.289-1.628-1.543-2.299-2.508a5.827 5.827 0 0 0-3.592-2.315c-1.437-.289-2.97 0-4.167.82" fill="#86ADA8"/><path d="M322.647 148.165c-.096-2.267-1.533-3.81-3.209-5.161-.862-.675-1.581-1.157-2.635-1.302-1.197-.145-2.538 0-3.688.289-.048 0-.048.097 0 .097 2.203.096 3.976-.531 5.892.916 1.772 1.351 3.305 2.846 3.496 5.161-.048.096.144.096.144 0z" fill="#8EBCA1"/><path d="M322.264 143.438c-3.162-.579-7.281 1.013-9.532 3.376-1.054 1.11-2.06 2.557-3.593 2.701-1.58.145-3.544.29-3.592-2.99-.048-2.508 1.437-3.135 2.778-4.003 1.293-.868 2.922-1.206 4.455-1.302 1.868-.193 6.706-.82 9.484 2.218z" fill="#BCDDCB"/><path d="M317.809 141.461c-5.078.048-9.341 3.376-11.544 7.861-1.868 3.762-2.491 8.103-2.922 12.251-.479 4.341-.814 8.826-.718 13.215 0 .145.191.145.239 0 .431-6.366.431-12.781 1.725-19.099.718-3.376 1.772-6.704 4.023-9.405 2.347-2.846 5.556-4.582 9.245-4.63.048 0 .048-.193-.048-.193zM312.78 100.175c-3.353 1.833-5.652 5.354-7.425 8.682-1.916 3.665-3.209 7.62-4.119 11.623-2.107 9.116-2.922 18.714-3.305 28.022-.239 5.547-.287 11.142.096 16.688 0 .097.144.097.144 0-.192-9.405-.144-18.713.766-28.07.862-8.682 1.868-17.749 5.413-25.852 1.82-4.148 4.358-8.826 8.43-11.093.048-.048.095.048 0 0z" fill="#8EBCA1"/><path d="M312.875 164.033v7.379c0 16.35-6.035 26.865-6.035 26.865h-18.776s-6.036-10.515-6.036-26.865v-7.379h30.847z" fill="#F2F5F9"/><path d="M11.736 152.361c-.863.772-1.677 1.543-2.204 2.508-.527 1.013-.67 2.267-.048 3.231.192.338.527.627.815.868 1.006.772 2.299 1.206 3.544 1.013 1.245-.193 2.443-.964 2.922-2.122.287-.675.335-1.447.575-2.17.575-2.122 2.634-3.907 4.837-3.859" fill="#86ADA8"/><path d="M29.984 159.692c-1.82 1.543-4.981 1.447-6.897.241-2.682-1.688-4.12-4.775-7.09-6.173-1.1-.531-2.394-.772-3.544-.435-1.197.338-2.155 1.254-3.257 1.833 2.252-5.16 8.287-7.283 10.682-7.234 4.454 0 8.717 2.99 10.49 7.282.574 1.496.766 3.473-.384 4.486z" fill="#BCDDCB"/><path d="M50.917 141.847c1.629-.579 3.544-.82 5.125-.049.862.434 1.629 1.11 2.395 1.688 1.39 1.11 3.257 1.978 4.886 1.303 1.485-.627 2.251-2.508 1.82-4.1-.383-1.592-1.724-2.797-3.257-3.376-1.533-.579-3.21-.579-4.79-.338" fill="#86ADA8"/><path d="M38.271 146.621c-3.449-1.688-3.113-6.511-2.97-9.501.288-4.775.431-9.646 1.581-14.325 1.485-6.318 5.604-12.443 12.598-13.601 2.06-.337 4.215-.482 6.178.145 1.964.627 3.784 2.219 4.024 4.148.048.434.048.916-.24 1.302-.287.434-.862.675-1.389.916-5.077 2.316-8.957 6.753-10.394 11.865-1.006 3.617-.862 7.476-1.82 11.141-.958 3.666-3.544 7.332-7.568 7.91z" fill="#BCDDCB"/><path d="M42.39 158.341c5.748.097 5.7-5.16 7.09-6.945 2.442-3.135 2.73-7.524 4.98-10.804 1.582-2.315 3.69-3.713 6.42-3.52-1.198-.917-11.065-1.833-13.173-.579-2.395 1.399-3.592 3.135-4.742 5.595-1.293 2.845-5.891 13.408-.575 16.253z" fill="#D6E8DD"/><path d="M58.388 136.445c-13.22-.917-15.567 17.17-16.908 26.719-.575 4.052-1.054 8.103-1.58 12.106 0 .145.191.145.239.049 1.533-8.537 1.82-17.267 4.31-25.611 1.965-6.656 6.18-13.456 13.94-13.119.095.049.095-.096 0-.144z" fill="#BCDDCB"/><path d="M30.608 144.74c-2.204-.193-3.928-2.025-4.838-4.051-2.107-4.678-1.676-10.032-4.646-14.373-1.533-2.267-3.64-4.051-5.269-6.222-2.347-3.086-3.497-7.427-1.676-10.996 2.682-5.402 8.43-2.942 11.879.193 4.79 4.341 8.765 10.707 9.867 16.929.766 4.051 1.868 14.228-5.317 18.52z" fill="#D6E8DD"/><path d="M17.867 110.882c3.16.145 5.652 3.955 7.04 6.415 1.917 3.473 2.827 7.621 3.641 11.479 1.772 8.778 2.203 17.845 2.635 26.72.239 5.16.383 10.321.479 15.482 0 .193.287.193.287 0 .048-9.839-.48-19.678-1.341-29.469-.384-4.437-.91-8.875-1.82-13.264-.815-3.906-1.82-8.102-3.832-11.527-1.437-2.411-3.928-5.98-7.041-6.029-.144 0-.144.193-.048.193z" fill="#BCDDCB"/><path d="M11.256 133.213c-2.107-.144-5.747.338-7.711 1.11-.815.627-2.347 1.977-3.114 4.003-.766 2.025-.383 4.63 1.198 6.077 1.245 1.109 2.97 1.447 4.646 1.35.814-.048 1.628-.193 2.3-.627 1.771-1.061 2.155-3.472 3.16-5.305 1.342-2.508 4.12-4.196 6.898-4.148" fill="#86ADA8"/><path d="M4.838 141.654c.095-2.267.383-4.534 1.868-6.319 1.868-2.218 4.406-2.797 7.184-2.99.096 0 .096-.145 0-.145-2.634-.578-5.604.82-7.328 2.798-1.629 1.881-1.916 4.292-1.964 6.704-.048.145.24.145.24-.048z" fill="#3F6D54"/><path d="M3.497 134.371c3.88-.724 8.047.868 10.777 3.81 1.294 1.35 2.539 3.135 4.407 3.328 1.916.193 4.31.337 4.407-3.714.048-3.087-1.773-3.858-3.401-4.919-1.629-1.061-3.593-1.447-5.509-1.592-2.203-.241-7.663-.048-10.68 3.087z" fill="#BCDDCB"/><path d="M8.047 131.766c6.371.145 11.592 4.486 14.13 10.177 2.156 4.775 2.875 10.225 3.401 15.434.527 5.016.575 10.08.91 15.096 0 .145.24.145.24 0 .096-4.823-.24-9.694-.719-14.469-.335-3.232-.718-6.511-1.436-9.695-.958-4.292-2.491-8.44-5.509-11.72-2.874-3.135-6.706-5.016-11.017-5.064-.095.097-.095.241 0 .241z" fill="#8EBCA1"/><path d="M16.62 149.949c2.587-.289 5.222-.048 7.425 1.544 2.012 1.447 3.401 3.713 4.215 6.029 1.581 4.678 1.964 9.694 1.341 14.565 0 .097.144.097.192 0 1.054-5.016.335-11.093-1.676-15.819-.91-2.074-2.3-4.004-4.216-5.258-2.155-1.447-4.741-1.591-7.28-1.254-.048.097-.048.193 0 .193zM51.587 112.088c-3.353 1.833-5.652 5.354-7.424 8.682-1.916 3.665-3.21 7.62-4.12 11.623-2.107 9.116-2.921 18.714-3.304 28.022-.24 5.547-.288 11.142.096 16.688 0 .097.143.097.143 0-.191-9.405-.144-18.713.767-28.07.862-8.682 1.868-17.749 5.412-25.852 1.82-4.148 4.359-8.826 8.43-11.093.048-.048.048.048 0 0z" fill="#8EBCA1"/><path d="M20.214 169.965v4.63c0 18.424 6.418 23.681 6.418 23.681h14.13s6.419-5.257 6.419-23.681v-4.63H20.214z" fill="#F2F5F9"/><path d="M13.938 198.759h302.913" stroke="#91AFE5" stroke-miterlimit="10" stroke-linecap="round" stroke-linejoin="round"/><path d="M225.412 59.42l.671 4.196s.095 2.556 2.969 2.267c3.018-.29 5.509-3.328 5.509-3.328l-2.683-7.572" fill="#AF5743"/><path d="M224.407 49.195c-1.82 2.026-4.359 10.177-.91 11.576 3.161 1.254 7.568.048 8.765-4.727 1.246-5.064-3.113-12.154-7.855-6.849z" fill="#AF5743"/><path d="M225.796 61.35s2.682.24 4.742-1.833" stroke="#752D21" stroke-width=".75" stroke-miterlimit="10"/><path d="M231.831 55.465s0 .05 0 0c-.049.05 0 .098 0 .05.049 0 .049 0 0-.05.098 0 .049 0 0 0z" fill="#FF855A"/><path d="M224.694 54.115s-1.149 1.591-1.006 1.977c.144.483 1.006.386 1.006.386" stroke="#752D21" stroke-width=".75" stroke-miterlimit="10"/><path d="M226.952 54.357c-.129-.03-.267.095-.307.277-.04.182.032.353.161.382.129.029.267-.095.307-.277.04-.182-.032-.353-.161-.382zM223.287 53.129c-.129-.029-.267.095-.307.277-.04.182.032.353.161.382.129.029.267-.095.307-.277.04-.182-.032-.353-.161-.382z" fill="#4A1A1A"/><path d="M225.077 57.78l-2.203-.627s-.287 1.592.718 1.881c1.246.386 1.485-1.254 1.485-1.254z" fill="#fff"/><path d="M230.729 56.864c-2.538-2.556-1.628-4.823-1.628-4.823s-5.796-.193-7.904-2.267c0 0 1.533-4.678 5.604-2.942 2.3-1.206 5.988-.048 7.473 2.411 2.347 3.81-.048 8.055-1.437 8.875" fill="#011E3B"/><path d="M232.214 48.761c-.383-.675-.048-1.736.335-2.219.671-.916 1.964-1.205 2.97-.723 1.006.482 1.533 1.736 1.293 2.797-.239 1.062-1.293 1.93-2.395 1.978-.431 0-.91-.096-1.149-.482" fill="#011E3B"/><path d="M229.579 55.513c0-.144.192-.627.671-.82.862-.337 1.389.82 1.293 1.737a2.33 2.33 0 0 1-.623 1.447c-.479.578-1.101.723-1.437 0" fill="#AF5743"/><path d="M226.658 53.102c1.389-.096 1.629 1.302 1.629 1.302M222.97 52.282c.766-.338 1.533.241 1.533.241" stroke="#4A1A1A" stroke-width=".5" stroke-miterlimit="10" stroke-linecap="round"/><path d="M233.124 126.364l-6.083 64.919-4.694 5.305s16.094-.675 16.621-1.205c.526-.531-.192-4.245-.192-4.245l10.777-65.401-16.429.627z" fill="#AF5743"/><path d="M236.333 195.334l2.922-2.411-.335-1.254-4.215 3.714h-1.821l-7.328-3.135-7.855 4.389c-.815.482-.432 1.736.526 1.736l11.209-.048 2.97-2.074h.862v2.074l6.035-.049v-2.893l-2.97-.049z" fill="#011E3B"/><path d="M251.805 126.364l2.873 64.919-4.694 5.305s16.094-.675 16.621-1.205c.527-.531-.191-4.245-.191-4.245l1.868-65.401-16.477.627z" fill="#AF5743"/><path d="M264.019 195.334l2.922-2.411-.336-1.254-4.215 3.714h-1.82l-7.328-3.135-7.856 4.389c-.814.482-.431 1.736.527 1.736l11.208-.048 2.97-2.074h.862v2.074l6.036-.049v-2.893l-2.97-.049z" fill="#011E3B"/><path d="M258.319 93.809c2.155 1.543 4.359 3.52 6.418 6.848 6.754 10.804 4.934 36.993 4.934 36.993h-41.624s4.071-33.423 6.658-40.9" fill="#223082"/><path d="M249.984 89.902s7.856 5.836 12.55 13.215c5.508 8.585 5.077 34.582 5.077 34.582M248.979 98.198c5.364 4.775 9.819 0 9.819 0" stroke="#121E3A" stroke-width=".75" stroke-miterlimit="10"/><path d="M221.197 82.716s-9.724 12.154-15.184 10.707c-5.461-1.447-13.747-19.727-13.747-19.727l6.418-2.797s7.233 9.55 8.287 9.598c1.053.048 7.951-7.62 7.951-7.62" fill="#AF5743"/><path d="M200.409 73.07s-5.461-8.055-5.892-8.055c-.431 0 .287 1.447-.048 1.399-.335-.049-1.964-3.28-2.347-3.184-.575.145 1.006 2.99 1.006 2.99s-.431-.53-.91-.289c-.335.193-.048 1.061-.048 1.061s-.479-.337-.814-.144c-.336.193-.048.964-.048.964s-.431-.627-.814-.144c-.336.434 1.101 4.726 3.592 9.501" fill="#AF5743"/><path d="M194.805 67.089s.095 1.543.479 2.797" stroke="#752D21" stroke-width=".75" stroke-miterlimit="10"/><path d="M190.493 68.68c.24.338.479.724.719 1.062.143.144.287.337.431.482.048.096.143.145.239.193.096.048.144.048.144.048s.048-.145 0-.241c0-.097-.048-.193-.048-.29-.048-.192-.144-.385-.192-.578-.143-.386-.335-.772-.479-1.158l.288-.144c.239.434.431.868.718 1.254.144.192.24.385.431.578.048.097.144.145.24.193.048.048.048 0 0 0-.048.048 0 0 0 0 0-.193-.048-.434-.096-.627-.048-.241-.096-.482-.191-.675-.144-.434-.288-.916-.479-1.35l.287-.145c.192.434.431.868.623 1.302.095.193.239.434.383.627a.583.583 0 0 0 .239.241.148.148 0 0 0 .096.048v-.048c.048-.193 0-.434-.048-.675l-.143-.724a16.11 16.11 0 0 0-.384-1.446c.192.434.384.916.527 1.398.096.241.144.483.192.724.048.24.144.482.096.771a.291.291 0 0 1-.192.242c-.144 0-.192-.049-.239-.097l-.288-.29c-.144-.192-.287-.433-.431-.626-.239-.434-.479-.868-.671-1.35l.288-.145c.191.434.335.916.479 1.398.096.241.144.483.191.724.048.24.096.482.096.771a.423.423 0 0 1-.191.29c-.144.048-.288 0-.336-.048-.143-.097-.239-.193-.287-.29a7.062 7.062 0 0 1-.431-.627l-.719-1.302.288-.145c.191.386.335.82.479 1.206.048.193.143.434.191.627 0 .097.048.241.048.338 0 .096.048.24-.096.385-.095.097-.191.049-.239.049-.048 0-.144-.049-.144-.097a.578.578 0 0 1-.239-.24 2.113 2.113 0 0 1-.383-.531c-.384-.338-.575-.676-.767-1.062z" fill="#752D21"/><path d="M226.131 62.941c-6.563 0-14.61 12.347-14.61 12.347l9.963 9.405 13.939-14.855" fill="#B9B5B2"/><path d="M235.423 61.639s5.748-.29 9.484 2.315c6.897 4.823 13.411 29.855 13.411 29.855-6.897 7.234-24.141 10.032-24.141 10.032s-5.364-9.791-9.388-13.794c-4.023-4.003-5.173-7.958-3.497-16.254l14.131-12.154z" fill="#B9B5B2"/><path d="M233.555 59.806l-4.502 5.257 2.778 3.039s1.964-3.425 3.592-6.463l-1.868-1.833zM229.004 65.112l-2.634 2.99s-1.437-2.46-1.724-4.968l1.197-.772 3.161 2.75z" fill="#fff"/><path d="M220.91 83.873c-.862-3.617.622-9.887.622-9.887" stroke="#846A6A" stroke-width=".75" stroke-miterlimit="10"/><path d="M245.577 83.535c-5.748 21.849-13.843 35.595-13.843 35.595l-6.993-3.087c7.089-22.476 9.005-35.45 9.005-35.45" fill="#AF5743"/><path d="M234.465 70.899l-2.347 11.19 14.13 2.556s1.437-5.064 2.06-9.646" fill="#B9B5B2"/><path d="M246.009 84.645l1.868-7.428M232.07 82.089l1.533-7.62" stroke="#846A6A" stroke-width=".75" stroke-miterlimit="10"/><path d="M235.471 111.847s-3.449 8.585-4.934 8.585c-1.437 0-14.226.097-17.914.097.048-.676 3.113-1.978 5.7-2.798 1.533-.482 6.418-1.688 6.418-1.688l2.731-8.971" fill="#AF5743"/></g><defs><linearGradient id="paint0_linear" x1="198.03" y1="112.916" x2="198.03" y2="103.888" gradientUnits="userSpaceOnUse"><stop stop-color="#fff" stop-opacity=".1"/><stop offset="1" stop-color="#fff" stop-opacity=".4"/></linearGradient><clipPath id="clip0"><path fill="#fff" d="M0 0h326v199H0z"/></clipPath></defs></svg>