<svg width="307" height="202" fill="none" xmlns="http://www.w3.org/2000/svg"><g clip-path="url(#clip0)"><path d="M249.753 130.169h-27.541v1.317h27.541v-1.317z" fill="#EBEBEB"/><path d="M217.928 131.533l-5.179-19.368h21.515l4.708 19.368h-21.044z" fill="#EBEBEB"/><path d="M237.653 130.075h-19.208l-4.472-17.017h19.302l4.378 17.017z" fill="#E0E0E0"/><path fill-rule="evenodd" clip-rule="evenodd" d="M237.795 3.479c.33-.423.706-.8 1.083-1.129l-.283-1.41 2.213-.94.848 1.175a4.31 4.31 0 0 1 1.553 0L244.057 0l2.259.893-.188 1.41c.424.33.8.706 1.13 1.082l1.412-.282.942 2.21-1.177.845a4.302 4.302 0 0 1 0 1.552l1.177.846-.895 2.256-1.459-.235c-.33.423-.706.8-1.083 1.128l.283 1.41-2.213.94-.847-1.174a4.317 4.317 0 0 1-1.554 0l-.848 1.175-2.259-.893.235-1.458c-.424-.329-.8-.705-1.13-1.08l-1.412.281-.942-2.21 1.177-.845a4.302 4.302 0 0 1 0-1.552l-1.177-.846.895-2.256 1.412.282zm2.401 2.491a2.614 2.614 0 0 0 1.46 3.385 2.62 2.62 0 0 0 3.389-1.457 2.614 2.614 0 0 0-1.459-3.385c-1.318-.517-2.825.14-3.39 1.457z" fill="#1B50A1"/><path fill-rule="evenodd" clip-rule="evenodd" d="M253.378 18.616c1.13-1.505 2.401-2.82 3.861-3.95l-.942-5.03 7.768-3.337 3.013 4.137c1.789-.282 3.672-.282 5.508-.047l2.919-4.184 7.909 3.15-.8 5.03c1.507 1.128 2.825 2.397 3.955 3.855l5.037-.94 3.343 7.756-4.143 3.009c.282 1.786.282 3.666.047 5.5l4.19 2.914-3.154 7.898-5.038-.8c-1.13 1.505-2.401 2.821-3.86 3.95l.941 5.03-7.768 3.337-3.013-4.137c-1.789.282-3.672.282-5.508.047l-2.919 4.184-7.862-3.15.8-5.03c-1.506-1.128-2.824-2.397-3.954-3.854l-5.038.94-3.389-7.85 4.143-3.01c-.283-1.785-.283-3.666-.047-5.5l-4.19-2.914 3.154-7.85 5.037.846zm8.427 8.744c-1.883 4.653.377 9.919 5.038 11.799 4.66 1.88 9.933-.376 11.816-5.03 1.884-4.654-.376-9.92-5.037-11.8-4.661-1.88-9.934.377-11.817 5.03z" fill="#1B50A1" fill-opacity=".6"/><path d="M221.082 33.755a10.46 10.46 0 0 1 1.883-1.927l-.471-2.492 3.814-1.645 1.459 2.021c.895-.14 1.789-.14 2.731-.046l1.412-2.069 3.861 1.551-.377 2.492a10.463 10.463 0 0 1 1.93 1.88l2.495-.47 1.648 3.808-2.024 1.457c.141.893.141 1.787.047 2.727l2.071 1.41-1.553 3.855-2.496-.376a10.435 10.435 0 0 1-1.883 1.927l.471 2.492-3.813 1.645-1.46-2.021c-.894.14-1.789.14-2.73.047l-1.413 2.068-3.86-1.551.377-2.492a10.438 10.438 0 0 1-1.931-1.88l-2.495.47-1.648-3.808 2.025-1.457c-.141-.893-.141-1.787-.047-2.727l-2.072-1.41 1.554-3.855 2.495.376zm4.143 4.325c-.942 2.304.188 4.89 2.495 5.83 2.307.94 4.896-.189 5.838-2.492.941-2.304-.188-4.89-2.495-5.83-2.307-.892-4.944.189-5.838 2.492z" fill="#1B50A1"/><path d="M225.225 38.078s.094-.376.518-.988c.376-.564 1.177-1.363 2.448-1.739.612-.188 1.365-.235 2.118-.094.753.141 1.507.47 2.166 1.081.329.282.612.611.847.988.236.376.424.799.518 1.269a4.642 4.642 0 0 1-.188 2.867 4.396 4.396 0 0 1-1.836 2.163 4.273 4.273 0 0 1-1.271.517 6.293 6.293 0 0 1-1.319.141c-.847 0-1.647-.33-2.306-.705-.66-.423-1.13-.987-1.46-1.505-.659-1.128-.659-2.256-.565-2.961.094-.705.33-1.034.33-1.034.047 0-.142.376-.236 1.081a4.28 4.28 0 0 0 .612 2.82c.33.518.801 1.035 1.413 1.41.612.377 1.365.659 2.212.659.424 0 .848-.047 1.224-.141.424-.094.801-.282 1.177-.517a4.443 4.443 0 0 0 1.742-2.069c.33-.893.424-1.833.189-2.68a3.992 3.992 0 0 0-.518-1.221c-.236-.377-.471-.706-.801-.94a4.127 4.127 0 0 0-2.071-1.035 4.857 4.857 0 0 0-2.024.047c-1.224.33-1.978 1.081-2.401 1.599-.377.61-.518.987-.518.987z" fill="#1B50A1"/><path d="M221.083 33.753h-.141c-.095 0-.283-.047-.471-.047a38.87 38.87 0 0 1-1.883-.282l.047-.047a112.27 112.27 0 0 1-1.554 3.855v-.094c.612.423 1.318.893 2.072 1.41l.047.047v.047a10.21 10.21 0 0 0 .047 2.68v.046l-.047.047c-.612.47-1.319.94-2.025 1.458l.047-.094c.518 1.222 1.083 2.491 1.648 3.807l-.094-.047c.753-.14 1.601-.282 2.495-.47h.047l.047.047a10.5 10.5 0 0 0 1.93 1.88l.048.048v.047c-.142.752-.236 1.598-.377 2.491l-.047-.14c1.224.47 2.542.986 3.86 1.55l-.141.048c.424-.659.942-1.364 1.412-2.069l.047-.047h.095a10.32 10.32 0 0 0 2.683-.047h.094l.047.047c.471.658.989 1.316 1.46 2.022l-.141-.047c1.224-.518 2.495-1.082 3.813-1.646l-.094.141c-.141-.799-.283-1.645-.471-2.491v-.094l.047-.047a10.488 10.488 0 0 0 1.883-1.928l.047-.047h.094c.848.141 1.648.282 2.496.376l-.142.094c.518-1.316 1.036-2.585 1.554-3.854l.047.14c-.706-.47-1.365-.94-2.071-1.41l-.047-.047v-.094a10.19 10.19 0 0 0-.048-2.68v-.093l.048-.047c.706-.517 1.365-.987 2.024-1.457l-.047.14c-.565-1.316-1.083-2.585-1.648-3.807l.141.047c-.847.14-1.647.282-2.495.47h-.047l-.047-.047a10.428 10.428 0 0 0-1.93-1.88l-.047-.048v-.047c.141-.846.282-1.692.423-2.491l.048.094a168.199 168.199 0 0 0-3.861-1.551l.094-.047c-.518.705-.988 1.41-1.459 2.068l-.047.047h-.047c-.942-.141-1.836-.094-2.684 0h-.047l-.047-.047c-.518-.752-1.036-1.41-1.459-2.021l.094.047c-1.507.61-2.778 1.175-3.861 1.598l.047-.047c.189.987.33 1.786.424 2.491v.047c-.706.565-1.177 1.082-1.507 1.41-.141.189-.235.283-.329.377l-.094.235s.047-.047.094-.141c.047-.094.188-.235.329-.376.283-.33.754-.846 1.46-1.41v.046c-.141-.658-.283-1.504-.471-2.491v-.047h.047c1.083-.47 2.354-1.034 3.814-1.645l.047-.047.047.047c.471.61.941 1.316 1.506 2.021l-.094-.047c.848-.141 1.789-.141 2.731-.047l-.094.047a81.25 81.25 0 0 0 1.412-2.068l.047-.047.094.047c1.224.47 2.495.987 3.861 1.55l.094.048v.094c-.142.8-.283 1.645-.377 2.492l-.047-.095c.706.518 1.365 1.176 1.977 1.928l-.094-.047c.801-.141 1.648-.282 2.495-.47h.095l.047.094a225.876 225.876 0 0 0 1.647 3.807l.047.094-.094.048c-.659.47-1.365.987-2.024 1.457l.047-.141c.141.893.141 1.833.047 2.726l-.047-.14c.706.47 1.365.94 2.071 1.41l.095.047-.047.094a327.63 327.63 0 0 0-1.554 3.854l-.047.094h-.094a39.645 39.645 0 0 0-2.496-.376l.142-.047a10.984 10.984 0 0 1-1.93 1.975l.047-.141c.141.846.329 1.692.47 2.491v.094l-.094.047c-1.318.564-2.636 1.129-3.813 1.646l-.094.047-.047-.094a97.782 97.782 0 0 1-1.46-2.022l.141.047c-.941.141-1.883.141-2.73.047l.094-.047c-.518.705-.989 1.41-1.412 2.069l-.047.094-.095-.047c-1.365-.518-2.636-1.082-3.86-1.552l-.094-.047v-.094c.141-.846.282-1.692.423-2.491l.048.094a10.993 10.993 0 0 1-1.978-1.928l.094.047c-.847.142-1.694.33-2.495.47h-.094l-.047-.093c-.565-1.364-1.13-2.633-1.648-3.855l-.047-.047.047-.047a96.853 96.853 0 0 1 2.025-1.458l-.047.094a8.773 8.773 0 0 1 0-2.726l.047.094c-.754-.517-1.46-.987-2.072-1.457l-.047-.047v-.047a112.27 112.27 0 0 0 1.554-3.855v-.047h.047c.8.14 1.412.235 1.836.329.188.047.376.047.471.094h.094z" fill="#1B50A1"/><path fill-rule="evenodd" clip-rule="evenodd" d="M129.986 71.642c.329-.423.706-.799 1.082-1.128l-.282-1.41 2.213-.94.847 1.175a4.313 4.313 0 0 1 1.554 0l.847-1.175 2.26.893-.189 1.41c.424.33.801.705 1.13 1.082l1.413-.283.941 2.21-1.177.846a4.258 4.258 0 0 1 0 1.551l1.177.847-.894 2.256-1.46-.235c-.329.423-.706.8-1.082 1.128l.282 1.41-2.213.94-.847-1.175a4.313 4.313 0 0 1-1.554 0l-.847 1.176-2.26-.894.236-1.457a8.199 8.199 0 0 1-1.13-1.081l-1.413.282-.941-2.21 1.177-.846a4.302 4.302 0 0 1 0-1.55l-1.177-.847.894-2.257 1.413.282zm2.401 2.492a2.614 2.614 0 0 0 1.459 3.385 2.62 2.62 0 0 0 3.39-1.458 2.614 2.614 0 0 0-1.46-3.384c-1.318-.517-2.824.14-3.389 1.457z" fill="#1B50A1"/><path fill-rule="evenodd" clip-rule="evenodd" d="M145.569 86.78c1.13-1.505 2.401-2.82 3.86-3.95l-.941-5.03 7.768-3.337 3.013 4.137c1.789-.282 3.672-.282 5.508-.047l2.919-4.184 7.909 3.15-.8 5.03c1.506 1.128 2.824 2.397 3.954 3.855l5.038-.94 3.342 7.756-4.143 3.009c.283 1.786.283 3.666.047 5.5l4.19 2.914-3.154 7.898-5.037-.799c-1.13 1.504-2.401 2.82-3.861 3.949l.942 5.03-7.768 3.337-3.013-4.137c-1.789.282-3.672.282-5.509.047l-2.918 4.184-7.863-3.149.801-5.03c-1.507-1.129-2.825-2.398-3.955-3.855l-5.037.94-3.39-7.851 4.143-3.008c-.282-1.787-.282-3.667-.047-5.5l-4.19-2.915 3.154-7.85 5.038.846zm8.427 8.743c-1.883 4.654.376 9.919 5.037 11.8 4.661 1.88 9.934-.376 11.817-5.03 1.883-4.654-.377-9.92-5.038-11.8-4.66-1.88-9.933.377-11.816 5.03z" fill="#1B50A1" fill-opacity=".6"/><path d="M113.272 101.919a10.45 10.45 0 0 1 1.884-1.927l-.471-2.492 3.813-1.645 1.46 2.021c.894-.14 1.789-.14 2.73-.047l1.412-2.068 3.861 1.551-.377 2.492a10.454 10.454 0 0 1 1.931 1.88l2.495-.47 1.647 3.808-2.024 1.457c.141.893.141 1.786.047 2.726l2.072 1.411-1.554 3.855-2.495-.377a10.436 10.436 0 0 1-1.883 1.928l.47 2.491-3.813 1.646-1.459-2.022c-.895.141-1.789.141-2.731.047l-1.412 2.069-3.861-1.552.377-2.491a10.464 10.464 0 0 1-1.93-1.88l-2.495.47-1.648-3.808 2.024-1.457c-.141-.894-.141-1.787-.047-2.727l-2.071-1.41 1.553-3.855 2.495.376zm4.143 4.325c-.941 2.303.189 4.889 2.495 5.829 2.307.94 4.897-.188 5.838-2.491.942-2.304-.188-4.889-2.495-5.83-2.307-.893-4.943.188-5.838 2.492z" fill="#1B50A1"/><path d="M117.415 106.241s.094-.376.518-.987c.377-.564 1.177-1.363 2.448-1.739.612-.188 1.365-.235 2.119-.094.753.141 1.506.47 2.165 1.081.33.282.612.611.848.987.235.376.423.799.518 1.27a4.64 4.64 0 0 1-.189 2.867 4.397 4.397 0 0 1-1.836 2.163 4.248 4.248 0 0 1-1.271.517 6.283 6.283 0 0 1-1.318.141c-.848 0-1.648-.329-2.307-.705-.659-.424-1.13-.988-1.459-1.505-.66-1.128-.66-2.256-.565-2.961.094-.705.329-1.035.329-1.035.047 0-.141.377-.235 1.082a4.279 4.279 0 0 0 .612 2.82c.329.517.8 1.034 1.412 1.411.612.376 1.365.658 2.213.658a5.14 5.14 0 0 0 1.224-.141c.424-.094.8-.282 1.177-.517a4.462 4.462 0 0 0 1.742-2.069c.329-.893.423-1.833.188-2.679a3.962 3.962 0 0 0-.518-1.223c-.235-.376-.471-.705-.8-.94a4.126 4.126 0 0 0-2.072-1.034 4.857 4.857 0 0 0-2.024.047c-1.224.329-1.977 1.081-2.401 1.598-.377.611-.518.987-.518.987z" fill="#1B50A1"/><path d="M113.273 101.917h-.141c-.094 0-.283-.047-.471-.047a38.714 38.714 0 0 1-1.883-.282l.047-.047c-.377.987-.894 2.303-1.554 3.854v-.094c.613.423 1.319.894 2.072 1.411l.047.047v.047c-.094.846-.094 1.739.047 2.679v.047l-.047.047c-.612.47-1.318.94-2.024 1.458l.047-.094c.518 1.222 1.083 2.491 1.647 3.807l-.094-.047c.754-.141 1.601-.282 2.495-.47h.048l.047.047a10.532 10.532 0 0 0 1.93 1.881l.047.047v.047c-.141.752-.235 1.598-.377 2.491l-.047-.141c1.224.47 2.542.987 3.861 1.551l-.142.047c.424-.658.942-1.363 1.413-2.068l.047-.047h.094c.847.094 1.742.094 2.684-.047h.094l.047.047c.471.658.988 1.316 1.459 2.021l-.141-.047c1.224-.517 2.495-1.081 3.813-1.645l-.094.141c-.141-.799-.282-1.645-.471-2.491v-.094l.047-.047a10.499 10.499 0 0 0 1.884-1.928l.047-.047h.094c.847.141 1.648.282 2.495.376l-.141.094c.518-1.316 1.036-2.585 1.553-3.855l.048.141c-.707-.47-1.366-.94-2.072-1.41l-.047-.047v-.094c.094-.893.094-1.786-.047-2.679v-.094l.047-.047c.706-.518 1.365-.988 2.024-1.458l-.047.141c-.565-1.316-1.083-2.585-1.647-3.807l.141.047c-.848.141-1.648.282-2.495.47h-.048l-.047-.047a10.389 10.389 0 0 0-1.93-1.88l-.047-.048v-.047c.141-.846.283-1.692.424-2.491l.047.094a166.391 166.391 0 0 0-3.861-1.552l.095-.047c-.518.706-.989 1.41-1.46 2.069l-.047.047h-.047c-.942-.141-1.836-.094-2.683 0h-.048l-.047-.047c-.518-.752-1.035-1.41-1.459-2.022l.094.047c-1.506.612-2.778 1.176-3.86 1.599l.047-.047c.188.987.329 1.786.423 2.491v.047c-.706.564-1.177 1.081-1.506 1.411-.141.188-.236.282-.33.376l-.094.235s.047-.047.094-.141c.047-.094.189-.235.33-.376.282-.329.753-.847 1.459-1.41v.046c-.141-.658-.282-1.504-.47-2.491v-.047h.047c1.082-.47 2.354-1.034 3.813-1.645l.047-.048.047.047c.471.612.942 1.317 1.507 2.022l-.094-.047c.847-.141 1.788-.141 2.73-.047l-.094.047c.471-.658.941-1.363 1.412-2.069l.047-.047.095.047c1.224.47 2.495.988 3.86 1.552l.094.047v.094c-.141.799-.282 1.645-.377 2.491l-.047-.094c.707.517 1.366 1.175 1.978 1.928l-.094-.047c.8-.141 1.647-.282 2.495-.47h.094l.047.094a234.489 234.489 0 0 0 1.648 3.807l.047.094-.094.047c-.659.47-1.366.988-2.025 1.458l.047-.141a10.5 10.5 0 0 1 .047 2.726l-.047-.141c.707.47 1.366.94 2.072 1.41l.094.047-.047.094c-.518 1.27-1.036 2.539-1.554 3.855l-.047.094h-.094c-.8-.141-1.648-.282-2.495-.376l.141-.047a11.02 11.02 0 0 1-1.93 1.975l.047-.141c.141.846.33 1.692.471 2.491v.094l-.094.047a439.333 439.333 0 0 0-3.814 1.645l-.094.047-.047-.094c-.518-.705-1.036-1.41-1.459-2.021l.141.047c-.942.141-1.883.141-2.731.047l.094-.047a41.53 41.53 0 0 0-1.412 2.068l-.047.094-.094-.047c-1.366-.517-2.637-1.081-3.861-1.551l-.094-.047v-.094c.141-.846.283-1.692.424-2.491l.047.094a11.055 11.055 0 0 1-1.977-1.928l.094.047c-.848.141-1.695.329-2.495.47h-.095l-.047-.094c-.565-1.363-1.13-2.632-1.647-3.854l-.047-.047.047-.047a93.538 93.538 0 0 1 2.024-1.458l-.047.094a8.83 8.83 0 0 1 0-2.726l.047.094c-.753-.517-1.459-.988-2.071-1.458l-.048-.047v-.047c.66-1.551 1.177-2.867 1.554-3.854v-.047h.047c.8.141 1.413.235 1.836.329.189.047.377.047.471.094h.094z" fill="#1B50A1"/><path d="M292.736 201.859c0 .047-65.11.141-145.426.141-80.316-.047-145.426-.094-145.426-.141 0-.047 65.11-.141 145.426-.141 80.316 0 145.426.047 145.426.141z" fill="#263238"/><path d="M149.145 133.178h-3.766v68.681h3.766v-68.681z" fill="#263238"/><path d="M120.051 201.859l26.223-25.15 1.836 1.645-24.387 23.505h-3.672z" fill="#263238"/><path d="M174.285 201.812l-26.128-25.103-1.884 1.645 24.387 23.505 3.625-.047z" fill="#263238"/><path d="M232.287 21.813H63.227v123.024h169.06V21.813z" fill="#fff"/><path d="M232.24 144.836c0-.846-.047-48.42-.095-123.024l.095.094H63.227l.141-.14v123.023l-.094-.094c99.995.094 168.024.141 168.966.141-.989 0-69.018.047-169.06.094h-.094v-.094V21.672h169.248v.093c-.047 74.651-.094 122.272-.094 123.071z" fill="#263238"/><path d="M84.836 34.648h-1.412v-.376h3.295v.376h-1.412v3.714h-.424v-3.714h-.047zM86.955 36.291c0-1.175.895-2.068 2.119-2.068 1.224 0 2.118.893 2.118 2.068 0 1.176-.894 2.069-2.118 2.069-1.224 0-2.119-.846-2.119-2.069zm3.814 0c0-.987-.707-1.692-1.695-1.692-.989 0-1.695.705-1.695 1.692 0 .988.753 1.693 1.695 1.693.988 0 1.695-.706 1.695-1.693zM93.734 34.27h1.648c1.318 0 2.166.846 2.166 2.021 0 1.176-.895 2.022-2.166 2.022h-1.648V34.27zm1.601 3.714c1.083 0 1.79-.706 1.79-1.646 0-.987-.707-1.645-1.79-1.645h-1.177v3.338h1.177v-.047zM98.16 36.291c0-1.175.894-2.068 2.118-2.068 1.224 0 2.118.893 2.118 2.068 0 1.176-.894 2.069-2.118 2.069-1.224 0-2.119-.846-2.119-2.069zm3.813 0c0-.987-.707-1.692-1.695-1.692-.989 0-1.695.705-1.695 1.692 0 .988.753 1.693 1.695 1.693.988 0 1.695-.706 1.695-1.693zM144.485 34.272l-1.365 4.043h-.471l-1.177-3.478-1.177 3.478h-.471l-1.365-4.043h.424l1.177 3.479 1.224-3.479h.423l1.177 3.526 1.177-3.526h.424zM144.862 36.291c0-1.175.895-2.068 2.119-2.068 1.224 0 2.118.893 2.118 2.068 0 1.176-.894 2.069-2.118 2.069-1.224 0-2.119-.846-2.119-2.069zm3.861 0c0-.987-.706-1.692-1.695-1.692-.989 0-1.695.705-1.695 1.692 0 .988.753 1.693 1.695 1.693.941 0 1.695-.706 1.695-1.693zM152.866 38.36l-.942-1.316H150.512v1.269h-.424V34.27h1.506c1.036 0 1.648.517 1.648 1.41 0 .658-.329 1.081-.941 1.27l.988 1.41h-.423zm0-2.68c0-.658-.424-1.034-1.224-1.034h-1.083v2.021h1.083c.8 0 1.224-.376 1.224-.987zM155.595 36.432l-.847.846v1.082h-.424v-4.09h.424v2.444l2.401-2.444h.471l-1.742 1.833 1.883 2.21h-.518l-1.648-1.88zM189.728 34.272h1.647c1.318 0 2.166.846 2.166 2.022 0 1.175-.895 2.021-2.166 2.021h-1.647v-4.043zm1.647 3.714c1.083 0 1.789-.705 1.789-1.645 0-.987-.706-1.646-1.789-1.646h-1.224v3.338h1.224v-.047zM194.2 36.291c0-1.175.895-2.068 2.119-2.068 1.224 0 2.118.893 2.118 2.068 0 1.176-.894 2.069-2.118 2.069-1.224 0-2.119-.846-2.119-2.069zm3.814 0c0-.987-.707-1.692-1.695-1.692-.989 0-1.695.705-1.695 1.692 0 .988.753 1.693 1.695 1.693.988 0 1.695-.706 1.695-1.693zM202.816 34.27v4.043h-.377l-2.636-3.29v3.29h-.424V34.27h.377l2.636 3.29v-3.29h.424zM207.006 37.984v.376h-2.872v-4.09h2.777v.376h-2.354v1.457h2.119v.376h-2.119v1.505h2.449zM225.931 49.69c0 .046-34.227.14-76.409.14-42.23 0-76.409-.047-76.409-.14 0-.095 34.226-.142 76.409-.142 42.182.047 76.409.094 76.409.141z" fill="#263238"/><path d="M120.475 144.836c-.047 0-.141-26.419-.141-58.997 0-32.577.047-58.997.141-58.997.047 0 .141 26.42.141 58.997 0 32.578-.047 58.997-.141 58.997zM176.546 144.836c-.048 0-.142-26.419-.142-58.997 0-32.577.047-58.997.142-58.997.094 0 .141 26.42.141 58.997 0 32.578-.047 58.997-.141 58.997z" fill="#263238"/><path d="M92.698 54.343s-1.177 10.765.33 16.641l14.406-.61s-3.107-10.625-1.177-15.326l-13.559-.705zM73.679 60.266s-1.177 10.765.33 16.642l14.405-.612s-3.107-10.624-1.177-15.325l-13.558-.705z" fill="#E0E0E0"/><path d="M92.698 54.343s.094 11.611.706 15.137L108 68.775s-1.271-11.424-.801-14.48h-14.5v.048z" fill="#455A64"/><path d="M99.854 55.988h.189c.141 0 .329 0 .612.047.282.047.565.094.941.282.33.141.706.423.989.8.282.376.565.846.706 1.41.141.564.047 1.175-.141 1.786a3.85 3.85 0 0 1-.424.893c-.141.282-.33.611-.471.893a9.61 9.61 0 0 0-.612 2.069v.047h-1.506c-.518 0-1.036 0-1.507.047h-.047v-.047c-.047-.752-.376-1.41-.706-1.974l-.565-.847c-.188-.282-.377-.564-.518-.846-.282-.564-.33-1.222-.235-1.786a3.633 3.633 0 0 1 .565-1.457 3.14 3.14 0 0 1 .941-.847c.33-.188.66-.282.895-.329.235-.047.47-.094.612-.094h.141l.141-.047h-.188c-.141 0-.33.047-.565.094-.235.047-.565.188-.894.376-.33.188-.66.47-.895.847-.282.376-.424.893-.518 1.41-.094.564-.047 1.175.236 1.74.14.281.33.516.517.845l.565.847c.33.61.707 1.269.707 2.02l-.048-.046c.471 0 .99 0 1.507-.047h1.459l-.047.047c.094-.752.33-1.457.612-2.115.142-.33.33-.612.471-.894.141-.282.283-.564.424-.893.188-.611.282-1.222.141-1.74a3.69 3.69 0 0 0-.659-1.362c-.283-.377-.659-.612-.989-.8-.329-.188-.659-.235-.894-.282-.283-.047-.471-.047-.612-.047H99.854z" fill="#fff"/><path d="M100.607 64.074c0-.094 0-.141-.047-.188 0-.141-.047-.282-.094-.517-.047-.47-.141-1.129-.235-1.928 0-.188-.047-.423-.047-.658v-.705c0-.235.047-.47.141-.752.094-.235.282-.47.565-.564.235-.094.565-.047.8.14.094.095.189.236.189.377a.76.76 0 0 1-.142.423.88.88 0 0 1-.329.282l-.424.141a5.799 5.799 0 0 1-.941.094c-.33 0-.613 0-.942-.047-.141-.047-.282-.047-.424-.14a.732.732 0 0 1-.376-.283c-.095-.094-.189-.235-.189-.376-.047-.141 0-.282.047-.423.047-.141.189-.235.283-.282a.654.654 0 0 1 .424 0c.14.047.235.14.33.282a.533.533 0 0 1 .14.376c.047.235.047.517.094.752.048.47.048.94.048 1.316.047.8.094 1.458.094 1.928 0 .235 0 .423.047.517V63.839c0-.141 0-.282-.047-.517-.047-.47-.047-1.129-.094-1.928 0-.423-.047-.846-.095-1.316 0-.235 0-.47-.094-.752a2.275 2.275 0 0 0-.141-.33 1.249 1.249 0 0 0-.282-.234c-.142-.047-.283-.047-.377 0a.425.425 0 0 0-.283.282c-.047.14-.094.282-.047.423.047.141.094.282.189.376.188.235.47.33.8.376.282.047.612.047.895.047.329 0 .612-.047.894-.094l.424-.14c.141-.048.235-.142.329-.283a.534.534 0 0 0 .141-.376.534.534 0 0 0-.141-.376c-.188-.188-.518-.235-.753-.141s-.424.329-.518.517c-.094.235-.141.47-.141.705v.705c0 .235 0 .423.047.658.047.8.141 1.458.235 1.928.047.235.047.423.095.517-.048.094-.048.14-.048.188z" fill="#fff"/><path d="M98.677 64.168s0 .188.047.47c0 .33.047.752.047 1.27v-.048c.282.33.612.705.989 1.129h-.047c.376 0 .753-.047 1.129-.047l-.047.047.565-.706c.094-.094.189-.235.283-.329v.047c0-.658-.047-1.316-.047-1.88l.047.047h-2.966.188c.188 0 .377 0 .612-.047.565 0 1.318-.047 2.166-.094h.047v.047c0 .564.047 1.222.047 1.88v.047c-.094.094-.188.235-.283.33l-.565.704h-.047c-.376 0-.8.047-1.13.047h-.047c-.33-.423-.659-.799-.941-1.128v-1.316c-.047-.33-.047-.47-.047-.47z" fill="#fff"/><path d="M101.643 65.813s-.047 0-.094-.047a.505.505 0 0 0-.283-.094 2.203 2.203 0 0 0-1.035-.14c-.424 0-.753.093-1.036.234-.141.047-.235.094-.282.141-.048.047-.095.047-.095.047s.047-.047.094-.047c.048-.047.142-.094.283-.14.235-.095.612-.236 1.036-.236.423 0 .8.094 1.035.188.142.047.236.094.283.141.047-.094.094-.047.094-.047zM101.643 65.343s-.047 0-.094-.047a.505.505 0 0 0-.283-.094 2.203 2.203 0 0 0-1.035-.14c-.424 0-.753.093-1.036.234-.141.047-.235.094-.282.141-.048.047-.095.047-.095.047s.047-.047.094-.047c.048-.047.142-.094.283-.14.235-.095.612-.236 1.036-.236.423 0 .8.094 1.035.188.142.047.236.094.283.141.047-.047.094-.047.094-.047zM101.596 64.92s-.047 0-.094-.047a.504.504 0 0 0-.282-.094 2.208 2.208 0 0 0-1.036-.141c-.424 0-.753.094-1.036.235-.141.047-.235.094-.282.141-.047.047-.094.047-.094.047s.047-.047.094-.047c.047-.047.14-.094.282-.141.236-.094.612-.235 1.036-.235.424 0 .8.094 1.036.188.141.047.235.094.282.141.047-.094.094-.047.094-.047z" fill="#fff"/><path d="M73.538 60.266s.094 11.612.706 15.137l14.595-.705s-1.272-11.423-.8-14.479h-14.5v.047z" fill="#A1C7FF"/><path d="M80.937 65.58c2.699-.163 4.883-.357 4.878-.435-.004-.078-2.196-.01-4.895.153-2.7.162-4.884.356-4.88.434.005.078 2.197.01 4.897-.153zM80.94 68.071c2.699-.162 4.883-.356 4.878-.434-.004-.078-2.196-.01-4.895.153-2.7.162-4.884.356-4.88.434.005.078 2.197.01 4.896-.153zM80.607 70.325c1.531-.092 2.769-.23 2.764-.307-.004-.078-1.25-.067-2.781.025-1.531.092-2.769.23-2.764.308.005.078 1.25.066 2.781-.026z" fill="#fff"/><path d="M100.702 72.818s-1.177 10.765.33 16.641l14.406-.611s-3.107-10.624-1.177-15.325l-13.559-.705z" fill="#EBEBEB"/><path d="M100.749 72.489s.094 11.611.706 15.137l14.595-.705s-1.272-11.424-.801-14.48h-14.5v.048z" fill="#A1C7FF"/><path d="M108.148 77.8c2.7-.161 4.884-.356 4.879-.434-.004-.077-2.196-.009-4.895.153-2.7.162-4.884.357-4.879.434.004.078 2.196.01 4.895-.152zM108.15 80.292c2.7-.162 4.884-.356 4.879-.434-.004-.078-2.196-.01-4.896.153-2.699.162-4.883.357-4.878.434.004.078 2.196.01 4.895-.153zM107.772 82.55c1.531-.093 2.769-.23 2.764-.308-.005-.078-1.25-.066-2.781.025-1.531.093-2.769.23-2.764.308.005.078 1.25.066 2.781-.026z" fill="#fff"/><path d="M97.689 117.947s-1.177 10.765.33 16.641l14.405-.611s-3.107-10.624-1.177-15.325l-13.558-.705z" fill="#EBEBEB"/><path d="M97.735 117.571s.094 11.611.707 15.137l14.594-.705s-1.271-11.423-.8-14.479h-14.5v.047z" fill="#1B50A1"/><path d="M105.182 122.882c2.699-.162 4.883-.356 4.879-.434-.005-.078-2.197-.01-4.896.153-2.7.162-4.884.356-4.879.434.005.078 2.196.009 4.896-.153zM105.184 125.374c2.699-.162 4.883-.357 4.879-.435-.005-.077-2.197-.009-4.896.153-2.7.162-4.884.357-4.879.435.004.077 2.196.009 4.896-.153zM104.805 127.63c1.532-.092 2.769-.229 2.764-.307-.004-.078-1.249-.066-2.781.026-1.531.092-2.769.229-2.764.307.005.078 1.25.066 2.781-.026z" fill="#fff"/><path d="M77.444 109.25s-1.177 10.765.33 16.642l14.406-.612s-3.107-10.624-1.177-15.325l-13.559-.705z" fill="#EBEBEB"/><path d="M77.538 108.874s.094 11.611.706 15.137l14.595-.705s-1.272-11.423-.8-14.479h-14.5v.047z" fill="#7295C7"/><path d="M84.938 114.186c2.699-.163 4.883-.357 4.878-.435-.004-.078-2.196-.009-4.895.153-2.7.162-4.884.357-4.88.434.005.078 2.197.01 4.897-.152zM84.94 116.677c2.699-.162 4.883-.357 4.878-.434-.004-.078-2.196-.01-4.895.152-2.7.163-4.884.357-4.88.435.005.077 2.197.009 4.896-.153zM84.561 118.934c1.531-.092 2.769-.23 2.764-.307-.005-.078-1.25-.067-2.78.025-1.532.092-2.77.23-2.765.308.005.077 1.25.066 2.781-.026z" fill="#fff"/><path d="M152.535 110.848s-1.177 10.766.33 16.642l14.406-.611s-3.107-10.625-1.177-15.325l-13.559-.706z" fill="#EBEBEB"/><path d="M152.582 110.472s.094 11.612.706 15.137l14.595-.705s-1.272-11.423-.801-14.479h-14.5v.047z" fill="#1B50A1"/><path d="M159.981 115.785c2.7-.162 4.884-.356 4.879-.434-.004-.078-2.196-.01-4.895.153-2.7.162-4.884.356-4.879.434.004.078 2.196.009 4.895-.153zM159.983 118.277c2.7-.162 4.884-.357 4.879-.435-.004-.077-2.196-.009-4.896.153-2.699.162-4.883.357-4.878.435.004.077 2.196.009 4.895-.153zM159.605 120.533c1.531-.091 2.769-.229 2.764-.307-.004-.078-1.25-.066-2.781.026-1.531.092-2.769.229-2.764.307.005.078 1.25.066 2.781-.026z" fill="#fff"/><path d="M97.971 84.194s-1.46 10.718-4.378 16.077l-13.794-4.09s5.555-9.542 4.849-14.572l13.323 2.585z" fill="#EBEBEB"/><path d="M98.019 83.865s-2.92 11.235-4.332 14.526l-13.982-4.184s4.002-10.765 4.284-13.868l14.03 3.526z" fill="#455A64"/><path d="M89.63 86.968c-2.58-.81-4.69-1.407-4.713-1.333-.023.075 2.049.792 4.628 1.602 2.58.81 4.69 1.406 4.713 1.332.024-.075-2.048-.791-4.628-1.601zM89.044 89.346c-2.58-.81-4.69-1.406-4.713-1.332-.023.074 2.049.791 4.628 1.601 2.58.81 4.69 1.407 4.713 1.332.024-.074-2.048-.79-4.628-1.601zM88.846 91.664c-1.463-.46-2.668-.772-2.692-.698-.023.075 1.144.507 2.608.967 1.463.46 2.668.772 2.692.697.023-.074-1.144-.507-2.608-.966z" fill="#fff"/><path d="M113.084 95.523s1.177 10.766-.329 16.642l-14.406-.611s3.107-10.624 1.177-15.325l13.558-.706z" fill="#EBEBEB"/><path d="M98.349 92.985s-.99 12.881-1.79 15.372l13.088 1.363 1.978-1.88s1.271-9.449 1.083-12.505l-14.36-2.35z" fill="#455A64"/><path d="M109.977 107.746l-.283 1.974 1.978-1.88-1.695-.094z" fill="#263238"/><path d="M110.165 99.848c0 .047-.565-.047-1.459-.188-.989-.14-2.166-.329-3.531-.517a86.008 86.008 0 0 0-3.531-.423c-.894-.094-1.459-.188-1.459-.235 0-.047.565 0 1.459.047.895.047 2.166.188 3.531.376 1.365.188 2.636.376 3.531.564.894.188 1.459.33 1.459.376zM109.6 102.528c0 .047-.565 0-1.413-.047-.894-.047-2.071-.188-3.389-.329a157.982 157.982 0 0 1-3.39-.517c-.847-.141-1.412-.283-1.365-.33 0-.047.565.047 1.412.141.942.142 2.119.283 3.39.424 1.271.141 2.448.282 3.389.423.801.141 1.366.188 1.366.235zM104.351 104.555c2.422.326 4.394.527 4.405.45.01-.077-1.945-.404-4.367-.73-2.422-.325-4.394-.527-4.405-.45-.01.078 1.945.404 4.367.73z" fill="#fff"/><path d="M219.387 109.156s1.177 10.765-.33 16.642l-14.406-.612s3.108-10.624 1.177-15.325l13.559-.705z" fill="#EBEBEB"/><path d="M204.651 106.618s-.988 12.88-1.789 15.372l13.088 1.363 1.978-1.88s1.271-9.449 1.082-12.505l-14.359-2.35z" fill="#455A64"/><path d="M216.28 121.379l-.283 1.974 1.977-1.833-1.694-.141z" fill="#263238"/><path d="M216.421 113.481c0 .047-.565-.047-1.459-.188-.989-.141-2.166-.329-3.531-.517a86.372 86.372 0 0 0-3.531-.423c-.895-.094-1.46-.188-1.46-.235 0-.047.565 0 1.46.047.894.047 2.165.188 3.531.376 1.365.188 2.636.376 3.531.564.941.235 1.506.376 1.459.376zM215.856 116.161c0 .047-.565 0-1.413-.047-.894-.047-2.071-.189-3.389-.33a157.01 157.01 0 0 1-3.39-.517c-.848-.141-1.412-.282-1.365-.329 0-.047.565.047 1.412.141.942.141 2.119.282 3.39.423 1.271.141 2.448.282 3.389.423.848.142 1.366.236 1.366.236zM210.649 118.241c2.422.325 4.394.527 4.405.45.01-.077-1.945-.404-4.367-.73-2.423-.326-4.395-.527-4.405-.45-.01.077 1.945.404 4.367.73z" fill="#fff"/><path d="M202.157 54.343s1.177 10.765-.33 16.641l-14.406-.61s3.107-10.625 1.177-15.326l13.559-.705z" fill="#EBEBEB"/><path d="M187.421 51.804s-.989 12.881-1.789 15.373l13.088 1.363 1.977-1.88s1.271-9.45 1.083-12.505l-14.359-2.35z" fill="#A1C7FF"/><path d="M199.096 66.565l-.329 1.975 1.977-1.88-1.648-.095z" fill="#263238"/><path d="M199.237 58.668c0 .047-.564-.047-1.459-.188-.989-.141-2.166-.33-3.531-.517a86.008 86.008 0 0 0-3.531-.423c-.894-.094-1.459-.188-1.459-.235 0-.047.565 0 1.459.047.895.047 2.166.188 3.531.376 1.365.188 2.637.376 3.531.564.895.188 1.459.329 1.459.376zM198.672 61.347c0 .047-.565 0-1.412-.047-.895-.047-2.072-.188-3.39-.329a158.879 158.879 0 0 1-3.39-.517c-.847-.14-1.412-.282-1.365-.329 0-.047.565.047 1.412.141.942.141 2.119.282 3.39.423 1.271.141 2.448.282 3.39.423.8.141 1.365.188 1.365.235zM193.426 63.378c2.423.326 4.395.527 4.405.45.01-.077-1.945-.404-4.367-.73-2.422-.325-4.394-.527-4.405-.45-.01.078 1.945.404 4.367.73z" fill="#fff"/><path d="M146.745 58.997s1.177 10.765-.329 16.641l-14.406-.61s3.107-10.625 1.177-15.326l13.558-.705z" fill="#EBEBEB"/><path d="M132.057 56.505s-.989 12.881-1.789 15.372l13.087 1.364 1.978-1.88s1.271-9.45 1.083-12.505l-14.359-2.35z" fill="#FEC230"/><path d="M143.685 71.266l-.33 1.975 1.978-1.88-1.648-.095z" fill="#263238"/><path d="M143.826 63.369c0 .047-.565-.047-1.459-.188-.989-.141-2.166-.33-3.531-.517a86.008 86.008 0 0 0-3.531-.423c-.894-.094-1.459-.188-1.459-.235 0-.047.565 0 1.459.047.895.047 2.166.188 3.531.376 1.365.188 2.636.376 3.531.564.894.188 1.459.329 1.459.376zM143.261 66.048c0 .047-.565 0-1.412-.047-.895-.047-2.072-.188-3.39-.329a158.238 158.238 0 0 1-3.39-.517c-.847-.141-1.412-.282-1.365-.329 0-.047.565.047 1.412.141.942.141 2.119.282 3.39.423 1.271.141 2.448.282 3.39.423.8.141 1.365.188 1.365.235zM138.013 68.077c2.423.325 4.395.527 4.405.45.01-.078-1.945-.404-4.367-.73-2.422-.326-4.394-.527-4.405-.45-.01.077 1.945.404 4.367.73z" fill="#fff"/><path d="M127.442 80.245l1.13 26.326 32.908.376-1.506-26.326-32.532-.376z" fill="#EBEBEB"/><path d="M159.739 80.058h-32.673v24.633h32.673V80.058z" fill="#fff"/><path d="M159.738 104.69v-.47-1.316c0-1.175 0-2.821-.047-4.983 0-4.278-.047-10.436-.047-17.864l.094.094h-32.672l.141-.14v24.632l-.094-.094c9.651 0 17.796.047 23.539.047 2.872 0 5.132 0 6.685.047h2.26c.094.047.141.047.141.047h-2.354c-1.553 0-3.813 0-6.685.047-5.743 0-13.935.047-23.633.047h-.094v-.094-24.773h32.908v.093c0 7.475-.047 13.633-.047 17.958 0 2.115 0 3.808-.047 4.983v1.316c-.048.282-.048.423-.048.423z" fill="#263238"/><path d="M144.251 85.276h-13.23v16.641h13.23V85.276z" fill="#fff"/><path d="M144.25 101.917v-.094-.235-.894c0-.799 0-1.974-.047-3.431 0-2.915-.047-7.052-.047-11.988l.094.094h-13.229c-.047.047.235-.235.141-.14v16.641l-.094-.094c3.955 0 7.25.047 9.604.047 1.13 0 2.071 0 2.684.047h.706a.468.468 0 0 0 .188.047h-.942c-.612 0-1.506 0-2.683.047-2.354 0-5.649.047-9.651.047h-.094v-.094-7.804-4.325-2.256V85.275l.141-.14H144.344v.093c0 4.936-.047 9.12-.047 12.082 0 1.457 0 2.585-.047 3.384v1.223z" fill="#263238"/><path d="M156.868 81.469h-25.376v2.397h25.376v-2.397z" fill="#fff"/><path d="M156.914 83.865v-.188-.47c0-.423 0-.987-.047-1.786l.047.047c-4.284.047-14.029.094-25.375.094l.141-.141V83.818l-.141-.141c7.109 0 13.417.047 17.984.047 2.26 0 4.096.047 5.414.047h1.836c.094.094.094.094.141.094h-1.977c-1.271 0-3.107 0-5.367.047-4.614 0-10.922.047-18.078.047h-.142v-.14-1.176-1.222l.142-.142c11.346 0 21.091.047 25.375.095h.047v.047c0 .752 0 1.363-.047 1.786v.47c.047.141.047.188.047.188z" fill="#263238"/><path d="M156.868 85.277h-11.016V95.29h11.016V85.277z" fill="#fff"/><path d="M156.914 95.335v-.188-.564c0-.517 0-1.175-.047-2.068 0-1.787-.047-4.278-.047-7.24l.094.094h-11.017c-.047.047.236-.235.142-.14v9.965l-.094-.094c3.248 0 5.979.047 7.956.047.941 0 1.695 0 2.26.047h.612c.047.141.094.141.141.141H156.161c-.518 0-1.272 0-2.213.047-1.977 0-4.708.047-8.003.047h-.095v-.094-4.748-2.585-1.316-1.317l.142-.14h11.11v.093c0 3.009-.047 5.547-.047 7.334 0 .846 0 1.551-.047 2.021v.517c-.094.094-.094.141-.094.141z" fill="#263238"/><path d="M156.867 96.888h-11.016v5.029h11.016v-5.03z" fill="#fff"/><path d="M156.914 101.917v-.376-1.035c0-.893-.047-2.115-.047-3.666l.094.094c-2.872 0-6.732 0-11.017.047l.142-.141v5.03l-.094-.094c3.154 0 5.884.047 7.862.047.941 0 1.742.047 2.307.047h.612c.047.047.094.047.141.047H156.113c-.565 0-1.318 0-2.259.047-1.978 0-4.755.047-7.957.047h-.094v-.094-2.445-1.27V96.888l.141-.141c4.285 0 8.145.047 11.017.047h.094v.094c0 1.551-.047 2.82-.047 3.713v.988c-.094.235-.094.376-.094.329z" fill="#263238"/><path d="M143.92 85.322c-4.096 5.641-8.804 10.953-12.899 16.594l12.899-16.594z" fill="#fff"/><path d="M131.021 101.917s.141-.235.47-.705c.283-.424.754-1.082 1.319-1.834 1.129-1.551 2.777-3.62 4.566-5.876a408.988 408.988 0 0 0 4.661-5.83 37.175 37.175 0 0 0 1.365-1.786c.33-.423.518-.658.518-.658s-.141.235-.471.705a44.171 44.171 0 0 1-1.318 1.834c-1.13 1.551-2.778 3.62-4.567 5.876a407.406 407.406 0 0 0-4.66 5.83 37.282 37.282 0 0 0-1.366 1.786c-.329.47-.517.705-.517.658z" fill="#263238"/><path d="M137.518 93.677c3.652 4.597 6.662 8.284 6.723 8.235.061-.048-2.85-3.814-6.502-8.41-3.652-4.597-6.663-8.283-6.724-8.235-.061.049 2.851 3.814 6.503 8.41z" fill="#263238"/><path d="M126.501 87.39a2.07 2.07 0 0 0 2.072-2.068 2.07 2.07 0 0 0-2.072-2.068 2.07 2.07 0 1 0 0 4.137z" fill="#E2845A"/><path d="M126.501 87.39c-1.13 0-2.071-.94-2.071-2.068 0-1.128.941-2.068 2.071-2.068 1.13 0 2.072.94 2.072 2.068 0 1.176-.895 2.069-2.072 2.069zm0-4.136c-1.13 0-2.071.94-2.071 2.068 0 1.129.941 2.069 2.071 2.069 1.13 0 2.072-.94 2.072-2.069a2.089 2.089 0 0 0-2.072-2.068z" fill="#263238"/><path d="M160.398 82.36a2.07 2.07 0 1 0 0-4.136 2.07 2.07 0 0 0-2.072 2.068 2.07 2.07 0 0 0 2.072 2.069z" fill="#E2845A"/><path d="M160.398 82.41c-1.13 0-2.072-.94-2.072-2.068 0-1.128.942-2.069 2.072-2.069 1.13 0 2.071.94 2.071 2.069a2.088 2.088 0 0 1-2.071 2.068zm0-4.137c-1.13 0-2.072.94-2.072 2.069 0 1.128.942 2.068 2.072 2.068 1.13 0 2.071-.94 2.071-2.068a2.058 2.058 0 0 0-2.071-2.069z" fill="#E2845A"/><path d="M171.932 70.655l-9.745 5.03-4.755-.705 2.542-4.466 10.31-3.62 1.648 3.761z" fill="#EBEBEB"/><path d="M157.055 74.087l2.401-3.855 10.545-3.808 2.119 4.137-10.216 4.09-4.849-.564z" fill="#455A64"/><path d="M168.824 68.869c0 .047-.377.188-1.036.47s-1.553.611-2.542.987c-.942.376-1.789.658-2.542.94-.659.235-1.083.376-1.036.376-.094-.093 1.507-.799 3.484-1.55 2.024-.753 3.625-1.27 3.672-1.223zM167.177 70.796c.047.047-.989.611-2.26 1.081-1.318.47-2.401.752-2.448.659 0-.047 1.035-.424 2.354-.894 1.271-.517 2.307-.94 2.354-.846z" fill="#fff"/><path d="M186.244 74.463l3.578 18.85 35.639-6.722-6.215-18.333-33.002 6.205z" fill="#EBEBEB"/><path d="M219.281 68.215l-33.766 6.383 3.161 16.674 33.766-6.383-3.161-16.674z" fill="#fff"/><path d="M222.4 84.9s-.047-.095-.047-.283c-.047-.188-.094-.517-.188-.893-.141-.752-.377-1.88-.659-3.338-.565-2.867-1.366-7.051-2.354-12.175l.094.094a9571.588 9571.588 0 0 1-33.756 6.393l.095-.14c1.129 5.875 2.165 11.516 3.154 16.688l-.141-.094c9.839-1.834 18.266-3.432 24.245-4.513 2.966-.565 5.367-.988 7.015-1.27.8-.14 1.459-.282 1.883-.329.188-.047.377-.047.471-.094.141 0 .188-.047.188-.047s-.047 0-.141.047c-.094 0-.283.047-.471.094-.424.094-1.036.188-1.836.376-1.648.33-4.002.752-6.968 1.364-5.979 1.128-14.453 2.773-24.292 4.653h-.094v-.094c-.989-5.17-2.072-10.812-3.155-16.688v-.14h.142c13.04-2.445 24.904-4.702 33.755-6.347h.094v.094c.942 5.17 1.742 9.308 2.26 12.222.282 1.41.471 2.539.612 3.338.047.376.094.658.141.846-.047.141-.047.235-.047.235z" fill="#263238"/><path d="M198.877 75.92l-9.344 1.766 1.769 9.33 9.344-1.767-1.769-9.33z" fill="#fff"/><path d="M200.65 85.228s0-.047-.047-.188c-.047-.14-.047-.282-.094-.517-.095-.47-.236-1.081-.377-1.88-.33-1.646-.8-3.95-1.318-6.723l.141.094c-2.731.517-5.932 1.129-9.322 1.787 0 .047.189-.282.095-.141V77.8l.047.14.047.33c.047.188.094.423.141.61.094.424.141.847.235 1.27.142.8.33 1.645.471 2.398.283 1.551.565 3.055.8 4.418l-.141-.093c2.778-.518 5.085-.94 6.733-1.223.8-.14 1.459-.235 1.93-.329.188-.047.376-.047.518-.094h.141s-.047 0-.141.047c-.142.047-.283.047-.471.094-.471.094-1.083.235-1.883.376-1.648.33-4.002.8-6.78 1.317h-.094v-.094c-.282-1.364-.565-2.821-.847-4.372-.141-.8-.283-1.599-.471-2.398-.094-.423-.141-.846-.235-1.222-.048-.188-.095-.423-.142-.611l-.047-.33-.047-.14V77.754c-.094.14.141-.188.094-.141 3.437-.659 6.638-1.223 9.322-1.74h.094v.094c.518 2.774.942 5.124 1.224 6.817.141.799.236 1.41.33 1.88.047.188.047.376.094.47v.094z" fill="#263238"/><path d="M200.65 85.228s-.047-.235-.189-.658c-.141-.423-.376-1.081-.988-1.551-.283-.282-.706-.517-1.177-.705-.471-.188-.989-.235-1.554-.188h-.235l.094-.188c.377-.612.424-1.505.094-2.21a2.324 2.324 0 0 0-.847-.94 1.967 1.967 0 0 0-1.271-.282c-.518.047-.989.188-1.366.517-.376.282-.612.705-.706 1.175-.188.893.141 1.834.753 2.304l.094.094-.141.094c-.659.376-1.083.893-1.412 1.41a3.408 3.408 0 0 0-.518 1.457c-.141.846 0 1.364-.047 1.364 0 0-.047-.141-.094-.376-.047-.236-.047-.612 0-1.035.047-.423.188-.987.518-1.551.282-.564.8-1.128 1.459-1.504v.188c-.706-.517-1.083-1.552-.847-2.539.094-.47.376-.987.8-1.316a2.81 2.81 0 0 1 1.507-.564c.47-.047.988.094 1.412.329.424.235.706.611.894 1.034.377.8.33 1.787-.141 2.445l-.094-.188a3.697 3.697 0 0 1 1.648.235c.471.188.894.47 1.177.752.659.564.847 1.222.988 1.692.047.235.094.376.094.517.095.141.095.188.095.188z" fill="#263238"/><path d="M202.438 75.592c2.684-.517 5.415-1.034 8.098-1.552l-8.098 1.552z" fill="#fff"/><path d="M206.5 74.93c2.222-.42 4.012-.823 3.997-.9-.014-.076-1.827.203-4.05.623-2.222.42-4.012.823-3.998.9.015.076 1.828-.203 4.051-.623z" fill="#263238"/><path d="M202.814 77.472a20.434 20.434 0 0 0 1.648-.329l-1.648.33z" fill="#fff"/><path d="M203.628 77.422c.46-.087.821-.22.807-.296-.015-.077-.399-.068-.859.019-.46.087-.821.219-.807.296.015.076.399.068.859-.02zM210.693 79.484c3.985-.753 7.204-1.426 7.19-1.502-.015-.077-3.257.472-7.242 1.225-3.986.754-7.204 1.426-7.19 1.503.015.076 3.257-.472 7.242-1.226zM211.026 81.134c4.011-.758 7.251-1.434 7.236-1.511-.014-.077-3.277.476-7.288 1.234s-7.25 1.435-7.236 1.511c.015.077 3.278-.475 7.288-1.234zM218.398 81.514l-.565.141c-.424.094-.942.189-1.507.33-1.271.282-3.06.61-5.037.987a464.3 464.3 0 0 1-5.085.94c-.612.094-1.129.188-1.553.235-.377.047-.565.094-.565.047l.565-.141c.424-.094.941-.188 1.506-.33 1.272-.281 3.061-.61 5.038-.986a466.74 466.74 0 0 1 5.084-.94c.612-.095 1.13-.189 1.554-.236.377-.047.565-.047.565-.047z" fill="#263238"/><path d="M203.663 73.758s.141-.094.376-.188c.236-.141.612-.282 1.083-.423.989-.33 2.448-.611 4.284-.423.895.094 1.884.329 2.872.846.471.235.942.564 1.318 1.034.377.47.565 1.128.424 1.74-.141.61-.612 1.128-1.13 1.504-.518.423-1.083.705-1.695.987-1.177.564-2.448 1.081-3.86 1.316-1.365.282-2.778.282-4.049-.047-.659-.14-1.271-.376-1.789-.752-.518-.329-1.036-.846-1.224-1.41-.235-.611-.094-1.27.188-1.787.283-.517.707-.893 1.13-1.222.895-.658 1.789-1.081 2.637-1.41a11.789 11.789 0 0 1 4.237-.752c.518 0 .894.047 1.177.094.282.047.424.047.424.094 0 0-.142 0-.424-.047-.283 0-.659-.047-1.177-.047a11.65 11.65 0 0 0-6.779 2.21c-.424.328-.801.704-1.083 1.174-.283.47-.377 1.082-.189 1.599.189.517.659.987 1.13 1.316.518.33 1.13.564 1.742.705 1.271.33 2.637.33 3.955.047 1.365-.235 2.636-.752 3.813-1.27.565-.281 1.13-.563 1.648-.94.471-.375.894-.846 1.036-1.41.141-.564 0-1.128-.377-1.55-.33-.424-.8-.753-1.271-.988-.942-.47-1.93-.705-2.825-.846a10.35 10.35 0 0 0-4.237.329c-.471.14-.847.282-1.083.376-.141.094-.235.14-.282.14zM215.719 71.389c-1.372 1.114-2.444 2.066-2.395 2.126.049.06 1.201-.793 2.573-1.907 1.372-1.114 2.444-2.066 2.395-2.126-.049-.06-1.201.793-2.573 1.907z" fill="#E8505B"/><path d="M216.375 73.1c0 .047-1.224.376-2.778.705-.094 0-.235.047-.33.047l-.188.047.047-.188c.33-1.41.989-2.35 1.036-2.35.047.046-.471.987-.8 2.397l-.142-.141c.094 0 .236-.047.33-.047 1.553-.33 2.825-.564 2.825-.47zM206.927 75.971c2.467-.378 4.457-.747 4.446-.824-.012-.077-2.022.167-4.489.545s-4.457.747-4.446.824c.012.077 2.022-.167 4.489-.545z" fill="#E8505B"/><path d="M199.191 73.994a2.07 2.07 0 1 0 0-4.137 2.07 2.07 0 0 0-2.072 2.069 2.07 2.07 0 0 0 2.072 2.068z" fill="#E2845A"/><path d="M199.192 73.993a2.065 2.065 0 0 1-2.025-1.692c-.235-1.129.518-2.21 1.648-2.445.565-.094 1.083 0 1.554.33.47.328.753.798.894 1.315.235 1.129-.518 2.21-1.648 2.445-.141.047-.282.047-.423.047zm0-4.137c-.142 0-.236 0-.377.047-1.13.188-1.836 1.27-1.648 2.398a2.073 2.073 0 0 0 2.401 1.645c1.13-.188 1.836-1.27 1.648-2.398-.094-.517-.424-.987-.847-1.316a2.065 2.065 0 0 0-1.177-.376z" fill="#E2845A"/><path d="M63.416 22.235l168.542 4.607.094-5.03-168.636.423z" fill="#E0E0E0"/><path d="M235.676 18.522H61.721v3.76h173.955v-3.76z" fill="#455A64"/><path d="M241.278 67.27c1.554-1.08 3.72-1.128 5.367-.14 1.601.987 2.59 2.961 2.354 4.795-.141.987-.518 1.974-.282 2.914.471 1.787 2.966 2.492 3.342 4.278.142.705-.141 1.457-.329 2.115-.189.706-.33 1.505.047 2.116.282.47.753.752 1.13 1.128 1.224 1.222 1.224 3.385.188 4.748-1.036 1.41-2.825 2.069-4.567 2.022-1.741-.047-3.389-.753-4.849-1.646" fill="#263238"/><path d="M242.502 68.446c-.518-1.645-2.024-2.915-3.719-3.338-1.695-.423-3.813-.94-5.32-.188-.988.517-1.883 1.222-2.26 2.21-.47 1.222.236 3.478.612 4.7.33 1.223.613 2.633-.094 3.761-.659 1.082-2.024 1.458-2.871 2.398-1.177 1.27-.989 3.526.329 4.654-1.506-.094-2.778 1.457-2.73 2.914.047 1.458 1.129 2.821 2.495 3.48 1.318.657 2.871.798 4.378.798 1.836 0 3.719-.188 5.555-.564 1.507-.329 3.06-.799 4.049-2.021.895-1.081 1.13-2.586 1.13-3.949 0-4.983-2.589-9.919-1.46-14.761" fill="#263238"/><path d="M234.97 121.52s-9.746 31.543-9.134 41.744c.612 10.201 8.051 35.539 8.051 35.539l1.083-77.283z" fill="#EB996E"/><path d="M248.716 116.161c.236-.047 4.473 6.205 4.614 11.611 0 .517 0 1.034-.047 1.598-.188 1.881-.659 3.714-1.365 5.5-3.625 9.12-7.345 19.885-7.392 22.377-.188 7.568-3.484 41.603-3.484 41.603l-7.203.188-2.165-41.603 3.578-41.603 13.464.329zM193.258 94.16c.753-.752 4.096 2.116 4.378 2.35.283.236.66-.187.377-.375-.424-.282-4.614-3.244-3.907-3.996.376-.423 1.082.376 1.082.376s3.72 3.055 4.049 2.68c.33-.377-1.789-2.257-2.589-2.821-.753-.564-.801-1.175-.236-1.27.377-.093 2.731 1.646 3.484 2.21.753.611 2.731 2.257 2.401.611-.329-1.598.047-2.961.377-3.29.376-.282.894.093.8.564-.094.423-.047 1.128 0 1.645.047.423.188.893.377 1.27.235.47.423.845.612 1.174 2.26 1.364 8.709 4.936 15.253 5.689 1.177.141 5.791-7.052 5.791-7.052l7.156 5.83s.047.469-5.085 6.816c-7.014 8.65-27.446-6.111-27.446-6.111-1.789-.8-3.767-1.74-4.755-2.351-2.072-1.27-1.978-1.457-1.789-1.692.518-.564 3.766 2.115 3.389 1.128-.235-.94-4.284-2.82-3.719-3.385z" fill="#FFBE9D"/><path d="M187.562 88.99s-1.177 10.764.329 16.641l14.406-.611s-3.107-10.625-1.177-15.326l-13.558-.705z" fill="#EBEBEB"/><path d="M187.608 88.613s.095 11.612.707 15.137l14.594-.705s-1.271-11.423-.8-14.479h-14.501v.047z" fill="#202263"/><path d="M195.055 93.924c2.699-.162 4.883-.356 4.879-.434-.005-.078-2.197-.01-4.896.153-2.699.162-4.884.356-4.879.434.005.078 2.196.01 4.896-.153zM195.057 96.416c2.699-.162 4.883-.357 4.879-.434-.005-.078-2.197-.01-4.896.152-2.7.163-4.884.357-4.879.435.005.078 2.196.01 4.896-.153zM194.678 98.673c1.532-.092 2.769-.23 2.764-.308-.004-.077-1.249-.066-2.781.026-1.531.092-2.769.23-2.764.307.005.078 1.25.067 2.781-.025z" fill="#fff"/><path d="M256.014 151.606s1.412-30.18-2.919-32.813c-4.331-2.632-24.434 1.598-24.434 1.598s-6.261 28.488-5.979 28.723c2.025 1.787 33.332 2.492 33.332 2.492z" fill="#455A64"/><path d="M252.524 148.928c1.999.102 3.623.122 3.627.044.004-.077-1.613-.223-3.613-.326-1.999-.102-3.623-.122-3.627-.044-.004.078 1.613.224 3.613.326zM253.858 150.347c-.037.674-.003 1.223.075 1.228.078.004.171-.539.207-1.213.036-.674.002-1.224-.076-1.228-.078-.005-.17.538-.206 1.213zM249.955 150.212c.06.776.173 1.401.25 1.395.078-.006.092-.641.032-1.417-.061-.777-.173-1.401-.251-1.395-.078.006-.092.64-.031 1.417z" fill="#263238"/><path d="M233.745 199.697v-.94l7.439-.142v2.915l-.471.047c-2.024.094-10.404.423-11.77.047-1.506-.517 4.802-1.927 4.802-1.927z" fill="#E8505B"/><path opacity=".6" d="M238.501 201.53c.094-.611.471-1.175.942-1.598.517-.376 1.082-.611 1.741-.517v2.068l-2.683.047z" fill="#fff"/><path opacity=".6" d="M230.686 200.496s-2.213.658-1.931.987c.283.376 8.71.329 12.476 0v-.188l-9.886.094c0 .047-.236-.893-.659-.893z" fill="#fff"/><path d="M241.231 201.295h-.518c-.376 0-.8.047-1.365.047-1.13.047-2.73.094-4.425.094-1.742 0-3.296-.047-4.426-.047-.517 0-.988-.047-1.365-.047h-.518.518c.377 0 .8 0 1.365.047 1.13 0 2.731.047 4.426.047 1.742 0 3.295-.047 4.425-.047.518 0 .989 0 1.365-.047h.377c.094-.047.141-.047.141-.047z" fill="#263238"/><path d="M231.345 201.577c-.047 0-.047-.329-.235-.658-.189-.329-.471-.47-.471-.517 0 0 .329.094.518.47.235.376.188.705.188.705zM233.434 200.019c.112.175.221.306.242.292.022-.014-.05-.167-.162-.342-.112-.176-.22-.306-.242-.292-.022.014.051.167.162.342zM233.979 199.829c.136.121.259.204.277.185.017-.02-.079-.134-.214-.255-.135-.122-.259-.204-.276-.185-.018.019.078.133.213.255zM234.26 199.316c.208-.003.376-.026.376-.052-.001-.026-.17-.045-.378-.042-.208.002-.376.026-.376.052.001.026.17.044.378.042zM234.781 198.803s-.188.094-.423.141c-.236 0-.471-.047-.424-.047 0-.047.188 0 .424-.047.188-.047.376-.094.423-.047z" fill="#263238"/><path d="M233.416 199.65s-.188.047-.471 0c-.141 0-.329-.047-.517-.094-.095-.047-.189-.047-.283-.141l-.141-.141c0-.094 0-.141.094-.188a.877.877 0 0 1 1.083.235c.094.141.141.235.141.329v.141s-.047-.188-.235-.423a1.648 1.648 0 0 0-.424-.282c-.188-.047-.424-.047-.565.047-.094.047-.047.141.047.188.094.047.188.094.283.094.188.047.329.094.47.141.33.094.518.094.518.094z" fill="#263238"/><path d="M233.275 199.65s-.094-.094-.047-.329c0-.094.047-.235.141-.329.094-.094.189-.235.377-.235.094 0 .141.141.141.235s-.047.141-.094.235a.481.481 0 0 1-.235.282c-.095.094-.236.188-.283.141.047 0 .141-.094.283-.235.047-.094.141-.188.188-.282.047-.094.094-.282 0-.282-.141 0-.236.094-.33.188-.094.094-.094.235-.141.329-.047.188 0 .282 0 .282zM241.279 199.415h-.565c-.33.047-.8.188-1.177.47-.424.329-.612.752-.753 1.034-.094.329-.141.517-.141.517v-.141c0-.094.047-.235.094-.376.094-.329.329-.752.753-1.081.424-.329.894-.47 1.224-.47h.424c.094 0 .141.047.141.047zM237.7 200.59s-.471.094-1.083.094-1.083-.047-1.083-.094.471 0 1.083 0 1.083-.047 1.083 0z" fill="#263238"/><path d="M239.16 200.59s-.047.094-.094.235l-.094.188c-.047 0-.047-.094 0-.235.094-.141.188-.235.188-.188zM239.594 200.058c.073-.074.117-.149.098-.167-.018-.018-.092.027-.165.101-.073.074-.117.149-.099.167.019.018.093-.027.166-.101zM240.525 199.603c0 .047-.094.047-.235.047l-.188.094s.047-.141.188-.141c.094-.094.235-.047.235 0zM240.957 199.508c.073-.029.125-.071.115-.096-.009-.024-.076-.021-.149.008-.073.028-.124.071-.115.095.01.024.076.021.149-.007z" fill="#263238"/><path d="M221.081 100.13l8.286 4.654.565-.564.612 1.129-.565 15.419 22.503-4.231-1.836-2.633c-1.789-2.444-1.365-5.876-.659-8.791l.236-.987 4.755.094s.47-2.679 0-8.602v-.282c-.518-5.5-5.367-9.59-10.875-9.214l-8.192.564s-6.544-1.317-10.97 6.299l-3.86 7.145z" fill="#1B50A1"/><path d="M231.062 97.639c.047 0-.094.47-.282 1.175-.236.8-.518 1.693-.848 2.727-.141.517-.235 1.034-.188 1.504.047.47.188.893.329 1.222.283.658.518 1.082.471 1.082 0 0-.282-.33-.659-1.035-.141-.329-.33-.752-.424-1.269-.047-.517 0-1.081.189-1.598.329-1.082.706-2.022.941-2.727.283-.658.424-1.081.471-1.081zM254.978 104.032h-.659c-.471-.047-1.036-.047-1.742-.094-1.459-.094-3.484-.282-5.744-.47-.376-.047-.706-.047-1.082-.094h-.142v-.141c.142-1.974.142-3.76.189-5.03.047-.611.094-1.128.141-1.504a5.67 5.67 0 0 1 .094-.517v.564c0 .376-.047.893-.047 1.504-.047 1.27 0 3.056-.141 5.03l-.094-.141c.329.047.706.047 1.082.094 2.26.188 4.285.376 5.744.517.706.094 1.271.141 1.742.188.424.047.659.047.659.094z" fill="#263238"/><path d="M254.883 95.194s-.094 0-.329-.047c-.236-.047-.518-.14-.895-.188-.8-.188-1.93-.423-3.342-.564-.706-.094-1.507-.094-2.354-.047-.848.047-1.695.282-2.59.564-1.789.564-3.672 1.552-5.837 2.069-.518.14-1.083.188-1.648.235-.565 0-1.083 0-1.601-.094a9.21 9.21 0 0 1-2.824-1.034c-1.695-.894-3.108-1.834-4.473-2.304-1.365-.47-2.542-.517-3.295-.376-.801.141-1.177.423-1.177.376 0 0 .376-.282 1.177-.47.8-.188 2.024-.188 3.389.282 1.413.423 2.872 1.363 4.52 2.257.847.423 1.742.799 2.777.987.989.188 2.072.094 3.155-.141 2.118-.517 4.001-1.505 5.837-2.022.895-.282 1.789-.47 2.684-.564.847-.047 1.648-.047 2.354.047a27.72 27.72 0 0 1 3.342.658c.377.094.66.188.895.235.094.094.235.141.235.141zM245.279 107.934s-.235 0-.612.047c-.376 0-.988.094-1.647.235-.707.141-1.507.423-2.401.705a35.75 35.75 0 0 1-2.919.94c-1.083.283-2.119.377-3.06.283-.942-.094-1.789-.471-2.401-.847-.612-.423-.989-.846-1.177-1.222-.095-.188-.189-.329-.189-.423-.047-.094-.047-.141-.047-.141s.094.188.33.517c.235.329.612.752 1.224 1.128.612.376 1.412.658 2.307.752.941.095 1.93 0 3.013-.282 1.035-.282 2.024-.611 2.919-.893a27.705 27.705 0 0 1 2.401-.658 8.76 8.76 0 0 1 1.694-.188c.33-.047.565 0 .565.047z" fill="#FAFAFA"/><path opacity=".3" d="M245.986 96.464c-1.036 2.491-1.13 5.265-1.459 7.944-.33 2.68-.989 5.453-2.825 7.428-1.883 2.021-4.708 2.914-7.391 3.666l11.722-1.034-.047-18.004z" fill="#000"/><path d="M245.328 162.888s4.19-17.863 7.956-28.723c3.766-11-1.648-17.957-1.648-17.957l-21.28 2.491-4.095 15.701s-3.249 16.783-1.931 29.146l20.998-.658z" fill="#1B50A1"/><path d="M251.448 138.255c-.047 0-.141-.329-.565-.893-.376-.517-1.13-1.222-2.213-1.692-1.082-.517-2.542-.753-4.095-.611-1.601.094-3.296.564-5.085.94-1.789.376-3.578.611-5.179.376-1.6-.235-2.918-.987-3.954-1.599-1.036-.611-1.883-1.081-2.495-1.363-.612-.282-.989-.376-.989-.376s.094 0 .283.047c.188.047.423.141.753.235.659.235 1.506.705 2.542 1.269 1.036.565 2.307 1.317 3.908 1.505 1.553.235 3.342 0 5.131-.376 1.789-.376 3.531-.8 5.132-.941 1.6-.094 3.107.141 4.19.706 1.13.517 1.836 1.222 2.212 1.786.095.141.189.282.236.376.047.094.094.235.141.282.047.235.094.329.047.329zM246.457 156.166s-.188-.282-.659-.705a5.255 5.255 0 0 0-2.354-1.035c-1.083-.188-2.401-.047-3.766.424-1.366.47-2.825 1.222-4.426 1.786a9.97 9.97 0 0 1-4.755.564c-1.459-.188-2.73-.705-3.719-1.222a9.551 9.551 0 0 1-2.071-1.599c-.236-.235-.377-.423-.471-.517-.094-.141-.141-.188-.141-.188s.235.235.706.658c.424.424 1.13.988 2.118 1.552.942.517 2.213.987 3.625 1.175 1.46.188 3.061 0 4.614-.564 1.601-.564 3.013-1.316 4.426-1.786 1.412-.471 2.777-.612 3.86-.424 1.13.188 1.93.706 2.354 1.129.235.235.377.423.471.564l.188.188z" fill="#FAFAFA"/><path opacity=".2" d="M227.814 143.802c-.189.847-.377 1.74-.142 2.586.189.846.942 1.645 1.789 1.598.471 0 .942-.235 1.366 0 .329.188.423.611.518.987.47 1.74 2.024 3.15 3.813 3.526 1.789.376 3.766-.329 4.896-1.786 1.177-1.457 1.413-3.432 1.177-5.265-.235-1.834-.941-3.573-1.553-5.312-1.272-3.573-2.119-7.334-2.731-11.095-.141-.752-.235-1.551.094-2.256.518-1.128 1.977-1.504 3.249-1.692 4.754-.847 9.462-1.928 14.076-3.338-2.636-.564-5.367-.188-8.003.329a116.81 116.81 0 0 0-8.757 1.927c-.706.188-1.506.376-2.024.941-.565.564-.754 1.316-.942 2.068-1.601 6.064-3.954 11.893-7.109 17.3" fill="#000"/><path d="M234.263 124.716l20.385-3.29s-.376-1.505-.941-2.868c-.424-1.034-1.554-1.833-2.072-2.35-1.224-1.223-18.219 6.252-18.219 6.252l.847 2.256z" fill="#455A64"/><path d="M234.263 124.716l-5.602-1.833.8-4.654 5.509 4.278-.707 2.209zM234.358 124.716s-1.553 5.595-1.506 9.308c.047 3.714.188 11.424.706 14.15.518 2.727 7.909-.376 6.497-2.914-1.413-2.539-3.955-11.612-4.049-13.774-.047-2.163.141-7.475.141-7.475l-1.789.705z" fill="#455A64"/><path d="M239.584 144.46s-.141.377-.565.894a6.816 6.816 0 0 1-1.93 1.598c-.894.47-1.789.705-2.401.752-.659.047-1.036 0-1.036-.047s.377-.047 1.036-.141a7.11 7.11 0 0 0 2.307-.799 7.645 7.645 0 0 0 1.93-1.504c.377-.423.612-.753.659-.753z" fill="#263238"/><path d="M235.163 148.487c.166.437.359.769.432.741.073-.027-.002-.404-.168-.841-.166-.437-.359-.769-.432-.741-.073.027.002.404.168.841zM237.425 147.686c.222.441.458.77.528.735.07-.035-.054-.421-.275-.862-.222-.441-.458-.77-.528-.735-.069.035.054.421.275.862zM239.314 146.226c.244.429.497.745.565.707.068-.039-.075-.418-.32-.847-.244-.428-.497-.745-.564-.706-.068.039.075.417.319.846z" fill="#263238"/><path d="M232.993 123.682c-1.978 3.573-1.13 8.274-3.39 11.612-.895 1.363-2.307 2.397-2.825 3.948-.424 1.223-.188 2.68.659 3.62.848.94 2.354 1.363 3.531.893.895-.376 1.554-1.175 1.93-2.068.377-.893.565-1.833.707-2.774.706-4.231 1.459-8.414 2.165-12.645.141-.846.283-1.74-.141-2.492-.424-.752-1.601-1.081-2.119-.376" fill="#455A64"/><path d="M232.993 143.567s-.047-.282-.095-.752a48.618 48.618 0 0 1-.141-2.068c-.094-1.74-.188-4.137-.094-6.817.047-2.679.235-5.077.424-6.816.094-.846.188-1.551.235-2.068.047-.47.094-.753.141-.753 0 0 0 .283-.047.753-.047.517-.094 1.222-.188 2.068a111.04 111.04 0 0 0-.33 6.816c-.047 2.68 0 5.077.048 6.817.047.846.047 1.551.094 2.068 0 .47 0 .752-.047.752zM231.674 143.191c0 .047-.376.047-.941-.094a5.897 5.897 0 0 1-2.025-.94c-.706-.517-1.271-1.128-1.553-1.645-.33-.47-.424-.846-.377-.846.047-.047.659 1.269 2.071 2.256 1.413 1.034 2.872 1.175 2.825 1.269z" fill="#263238"/><path d="M228.757 142.951c.37-.286.632-.567.584-.629-.047-.061-.386.12-.757.405-.37.286-.632.567-.585.629.048.061.387-.12.758-.405zM227.437 140.888c.047.047-.141.235-.33.423-.188.188-.329.376-.376.376-.047-.047 0-.282.188-.517.236-.235.518-.329.518-.282zM236.289 121.99s.094.094.141.282c.047.188.141.517.047.893a2.152 2.152 0 0 1-.612 1.222 2.181 2.181 0 0 1-1.507.611c-.612 0-1.176-.235-1.506-.611-.377-.376-.518-.846-.565-1.222-.047-.376 0-.705.094-.893l.141-.282c.047 0-.188.423-.047 1.175.047.329.236.752.565 1.081.33.329.848.517 1.366.564.517 0 1.035-.188 1.365-.517.329-.329.518-.752.565-1.081.141-.752-.094-1.175-.047-1.222z" fill="#263238"/><path d="M235.206 124.669c-.094 0-.094-.658-.471-1.41-.376-.705-.894-1.128-.847-1.175.047-.047.659.282 1.083 1.081.376.799.282 1.504.235 1.504z" fill="#263238"/><path d="M218.539 120.25c.236-1.034 4.614-.376 4.991-.329.376.047.424-.517.094-.517-.471 0-5.649-.282-5.414-1.316.094-.564 1.13-.282 1.13-.282s4.802.611 4.849.094c.094-.517-2.731-.94-3.672-1.034-.942-.094-1.271-.564-.895-.94.283-.282 3.202-.094 4.143.047.942.094 3.531.423 2.401-.753-1.13-1.175-1.553-2.538-1.412-3.008.141-.423.8-.423.989.094.141.376.564.987.894 1.41.282.329.612.658.989.893.423.282.847.517 1.177.658 2.636-.047 9.98-.423 15.959-3.29 1.083-.517 1.177-8.697 1.177-8.697l9.181.799s0 2.351-.707 8.462c-1.271 11.047-26.505 9.355-26.505 9.355v-.047c-1.93.282-4.096.564-5.273.564-2.448 0-2.448-.188-2.401-.47.142-.752 4.332-.188 3.484-.846-.989-.611-5.367-.047-5.179-.847z" fill="#FFBE9D"/><path opacity=".3" d="M226.872 103.562a21.207 21.207 0 0 0 4.143-5.83c-.659 1.787-1.365 3.621-1.318 5.501 0 .564.047 1.222-.33 1.598a8.331 8.331 0 0 0-2.495-1.269z" fill="#000"/><path d="M244.951 69.292v1.175l-.236 17.723c-.047 2.068-1.836 3.666-4.002 3.62-2.212-.047-4.048-1.787-4.048-3.855 0-2.163-.047-4.466-.047-4.466s-2.825-.47-3.39-4.137c-.283-1.833-.188-4.795-.047-7.24a3.873 3.873 0 0 1 4.284-3.62l7.486.8z" fill="#FFBE9D"/><path d="M233.935 74.369c0 .235.188.47.47.47.283 0 .471-.188.471-.423a.471.471 0 0 0-.471-.47c-.235-.047-.47.14-.47.423zM233.746 73.664c.047.047.424-.188.942-.188s.894.235.941.188c.047-.047-.047-.141-.188-.235a1.422 1.422 0 0 0-.753-.235c-.33 0-.565.14-.754.235-.141.094-.188.188-.188.235zM238.735 74.369c0 .235.189.47.471.47.283 0 .471-.188.471-.423a.471.471 0 0 0-.471-.47c-.235-.047-.471.141-.471.423zM238.736 73.758c.047.047.424-.188.941-.188.518 0 .895.235.942.188.047-.047-.047-.141-.188-.235a1.426 1.426 0 0 0-.754-.235c-.329 0-.565.14-.753.235-.141.094-.235.188-.188.235zM236.9 77.519c0-.047-.329-.094-.8-.141-.141 0-.235-.047-.283-.141-.047-.094.048-.235.095-.376.141-.33.235-.659.376-.988.518-1.41.895-2.538.848-2.585-.047 0-.518 1.081-1.083 2.491-.141.33-.236.659-.377.987-.047.142-.141.33-.047.518.047.094.141.188.236.188.094.047.141.047.235.047h.8z" fill="#263238"/><path d="M236.57 83.489s2.448.14 4.897-1.316c0 0-1.177 2.538-4.85 2.162l-.047-.846z" fill="#EB996E"/><path d="M237.088 78.74c.188-.234.518-.375.8-.328.236.047.424.14.565.329a.574.574 0 0 1 .047.611c-.141.188-.423.235-.659.188-.235-.047-.47-.235-.659-.376l-.141-.141c0-.141 0-.235.047-.282z" fill="#E8505B"/><path d="M238.407 77.848c-.095 0-.095.564-.565.94-.471.376-1.036.329-1.083.423 0 .047.141.094.376.094.236 0 .612-.047.895-.33.282-.234.424-.563.424-.798.047-.188-.047-.33-.047-.33zM245.562 86.074c-1.082-.376-2.354-.752-2.777-1.833-.424-1.081-.377-2.256-.094-3.385.141-.517.329-1.08.141-1.551-.141-.329-.518-.564-.801-.8-.659-.563-.988-1.456-1.035-2.303-.047-.846.141-1.739.471-2.538.188-.423.376-.94.235-1.363-.094-.33-.377-.564-.659-.752-.518-.47-.942-1.082-1.271-1.693-.236-.47-.377-.987-.189-1.457.283-.564.942-.705 1.554-.752 1.459-.094 3.06.188 4.002 1.316.847.987.941 2.397.988 3.714.189 4.09.377 8.273-.329 12.316" fill="#263238"/><path d="M231.721 68.869c.189.141.424.188.612.329.189.141.33.282.518.47l.283.282c.047.047.047.047.047.094l.094.094c.094.094.188.141.235.235.189.188.424.376.801.611.329.235.8.47 1.365.612 1.083.235 2.071 0 2.777-.33.754-.376 1.225-.799 1.507-1.222.612-.846.706-1.504.424-1.88-.283-.376-.989-.33-1.836-.094-.424.094-.848.188-1.224.235-.377.047-.754.047-.942-.047-.094 0-.235-.047-.424-.141l-.753-.376c-.141-.047-.282-.141-.471-.188-.094-.047-.188-.047-.235-.094-.094-.047-.188-.047-.283-.094-.376-.094-.753-.141-1.082-.094-.707.047-1.272.423-1.507.799-.188.376-.094.658.094.799zM238.595 71.783c.047.141.565.094 1.13.141.612.047 1.082.235 1.177.094.047-.046-.048-.188-.236-.329a1.515 1.515 0 0 0-.847-.282c-.377-.047-.706 0-.895.094-.235.094-.329.188-.329.282zM233.934 72.207c.094.094.423 0 .847 0s.753.094.847-.047c.047-.047 0-.188-.188-.282a1.406 1.406 0 0 0-.706-.189c-.283 0-.518.095-.706.236-.094.094-.142.234-.094.282z" fill="#263238"/><path d="M23.21 196.735l-1.035 4.278 7.297.846.282-4.278-6.544-.846z" fill="#455A64"/><path d="M26.553 196.923c.047 0-.047.893-.235 1.975-.189 1.081-.377 1.974-.471 1.927-.047 0 .047-.893.235-1.975.189-1.081.377-1.927.471-1.927z" fill="#263238"/><path d="M29.52 201.389c0 .047-.424-.047-1.083-.141-.707-.094-1.601-.235-2.543-.376-.988-.141-1.883-.282-2.542-.423-.659-.141-1.036-.235-1.036-.282 0-.047.424.047 1.083.141.706.094 1.6.235 2.543.376.988.141 1.883.282 2.542.423.659.141 1.035.235 1.035.282z" fill="#263238"/><path d="M56.73 199.603l-.094-2.68H48.68l.047 4.795h.47c2.213.094 11.158.235 12.618-.282 1.695-.47-5.085-1.833-5.085-1.833z" fill="#455A64"/><path d="M48.68 201.577h.518c.376 0 .894 0 1.459.047h4.755c1.883-.047 3.53-.094 4.755-.188.565-.047 1.036-.047 1.46-.094.14 0 .282 0 .376-.047h0-.377c-.376 0-.894.047-1.46.047-1.223.047-2.918.094-4.754.141-1.883.047-3.531.047-4.755.047H48.821c-.094.047-.141.047-.141.047z" fill="#263238"/><path d="M59.367 201.53c.047 0 .047-.329.235-.705.188-.376.518-.517.47-.564 0-.047-.329.141-.564.517-.189.423-.141.799-.141.752zM57.172 200.047c-.108.178-.177.333-.155.346.023.014.128-.119.235-.297.108-.178.177-.333.155-.346-.022-.014-.127.119-.235.297zM56.584 199.843c-.133.125-.226.241-.208.26.018.019.14-.067.272-.191.133-.125.226-.241.208-.26-.017-.019-.14.067-.272.191zM56.346 199.323c-.234.002-.424.025-.423.051 0 .026.19.045.424.043.234-.003.423-.026.423-.052s-.19-.045-.424-.042zM55.79 198.804c0 .047.187.094.47.141.282 0 .47-.047.47-.094s-.235 0-.47 0c-.283 0-.47-.047-.47-.047z" fill="#263238"/><path d="M57.248 199.697s.188.047.518 0c.141 0 .33-.047.565-.141.094-.047.188-.047.33-.141l.14-.141c0-.094 0-.141-.093-.188-.471-.235-.99.047-1.13.282-.095.141-.142.235-.142.329v.141s.047-.188.236-.423c.094-.094.235-.235.424-.282.188-.047.423-.094.612.047.094.047.047.141-.048.188l-.282.141a1.229 1.229 0 0 1-.518.141c-.424.047-.612.047-.612.047z" fill="#263238"/><path d="M57.39 199.744s.094-.141.047-.376a.75.75 0 0 0-.142-.376c-.094-.094-.235-.282-.423-.235-.142 0-.188.141-.142.235 0 .094.048.188.095.235.094.141.188.235.235.282.141.188.283.235.33.235-.047 0-.142-.094-.283-.235-.094-.094-.141-.188-.235-.282-.094-.094-.142-.282 0-.329.141 0 .282.094.33.188a.507.507 0 0 1 .14.329c.095.188.048.329.048.329zM48.773 199.368s.236-.047.565 0c.377.047.848.188 1.271.517.424.329.707.799.848 1.128.141.329.141.564.141.564v-.141c0-.094-.047-.235-.094-.423-.094-.329-.377-.799-.847-1.175-.471-.329-.99-.47-1.366-.47h-.518zM52.634 200.825c0 .047.518.094 1.177.094s1.177-.094 1.177-.141c0-.047-.518 0-1.177 0-.66.047-1.177 0-1.177.047z" fill="#263238"/><path d="M51.081 200.872s.047.094.094.235c.047.094.094.235.094.235.047 0 .047-.141-.047-.282 0-.141-.14-.235-.14-.188zM50.668 200.277c-.093-.09-.184-.148-.202-.13-.018.019.043.107.136.198.094.09.184.148.202.13.018-.019-.043-.107-.136-.198zM49.621 199.838c0 .047.094.047.235.047.142.047.189.094.236.094 0 0-.047-.141-.188-.188-.142-.047-.283 0-.283.047zM49.17 199.66c-.073-.027-.14-.029-.149-.004-.009.024.044.066.117.093.074.026.14.028.15.003.009-.024-.044-.066-.117-.092z" fill="#263238"/><path d="M85.825 96.229l-2.26 1.08-2.07-3.243 1.223-2.538c.094-.235.236-.518.377-.8.141-.329.235-.705.282-1.128.047-.47.047-1.081-.047-1.41-.094-.423.33-.752.612-.517.283.235.66 1.41.424 2.773-.236 1.364 1.412-.094 1.977-.61.612-.518 2.542-2.07 2.825-2.022.424.094.424.611-.188 1.081-.612.517-2.354 2.163-2.025 2.492.706.094 1.319.61 1.46 1.316.14.705.282 1.645-.095 1.927-.706.658-2.495 1.599-2.495 1.599zM41.995 65.813l-.047 19.603 8.427.423.236-4.748s3.013.612 3.766-2.162c.47-1.786.377-15.466.377-15.466l-12.759 2.35z" fill="#B78876"/><path d="M56.637 65.343c-.565 1.176-3.248 3.291-3.248 3.291l-1.224 3.244c-1.083-.846-2.495-.8-2.73 1.08-.19 1.364 1.459 1.6 1.459 1.6-.99 1.645-1.648 3.008-3.06 4.56-1.554 1.692-2.402 1.88-4.05 1.88H41.95s-3.767-3.15-3.014-11.377c.754-8.273 8.192-5.829 9.934-7.897 2.919-3.291 9.698-.282 7.768 3.62z" fill="#263238"/><path d="M39.36 76.579h.235c.141 0 .376 0 .659-.094.565-.094 1.365-.47 2.166-1.129.8-.705 1.459-1.739 2.165-2.914s1.507-2.539 2.825-3.479c.659-.47 1.412-.705 2.166-.893.753-.188 1.459-.33 2.118-.423 1.365-.235 2.59-.611 3.39-1.27a3.508 3.508 0 0 0 1.365-1.974c.141-.564.047-.893.094-.893 0 0 0 .094.047.235 0 .141 0 .376-.047.658-.141.564-.518 1.363-1.365 2.022-.848.658-2.072 1.034-3.437 1.316-1.365.282-2.919.47-4.237 1.363s-2.119 2.257-2.825 3.432c-.706 1.175-1.412 2.256-2.212 2.914-.8.706-1.601 1.035-2.213 1.129-.565.094-.895 0-.895 0z" fill="#455A64"/><path d="M38.935 69.903s.142-.047.377-.14c.236-.095.66-.236 1.177-.283.518-.047 1.177-.047 1.79.376.282.188.564.564.658.988.094.423 0 .893-.376 1.222a1.652 1.652 0 0 1-.66.282c-.235 0-.517-.047-.706-.188-.423-.235-.8-.705-.988-1.222-.377-1.035-.095-2.398.847-3.197.47-.423 1.036-.705 1.695-.752.659-.047 1.318.094 1.93.235.66.188 1.271.376 1.977.47a7.64 7.64 0 0 0 2.072 0c.706-.094 1.365-.235 1.977-.564.612-.282 1.13-.752 1.318-1.364.189-.61 0-1.316-.423-1.739-.424-.423-1.177-.517-1.695-.235-.283.141-.518.33-.612.564-.141.235-.188.564-.141.846.094.564.423 1.035.847 1.364.47.282.989.423 1.46.423.517 0 .988-.094 1.412-.188a5.01 5.01 0 0 0 2.071-1.27 5.674 5.674 0 0 0 1.083-1.504c.236-.47.33-.846.377-1.128.047-.282.094-.423.094-.423s0 .14-.047.423a3.89 3.89 0 0 1-.377 1.128c-.235.47-.565 1.034-1.083 1.552-.517.517-1.224 1.034-2.118 1.316a4.682 4.682 0 0 1-1.413.235 2.924 2.924 0 0 1-1.506-.423c-.47-.282-.8-.8-.895-1.41a1.5 1.5 0 0 1 .142-.894c.14-.282.376-.517.659-.61.565-.283 1.318-.189 1.789.281.47.47.659 1.175.47 1.834-.188.658-.753 1.175-1.365 1.457a7.167 7.167 0 0 1-2.024.564 7.64 7.64 0 0 1-2.072 0c-.706-.094-1.318-.282-1.977-.47-.612-.188-1.271-.33-1.883-.235a2.68 2.68 0 0 0-1.648.752c-.941.8-1.177 2.115-.8 3.103.141.517.518.94.941 1.175.236.14.471.188.707.188.235 0 .47-.094.612-.235.33-.282.423-.8.376-1.175-.047-.423-.33-.706-.612-.94a2.366 2.366 0 0 0-1.789-.377c-.518.047-.894.188-1.13.235-.376-.094-.518-.047-.518-.047z" fill="#455A64"/><path d="M33.38 123.212l-11.205 73.523 9.274 1.175 13.135-61.676 3.343 62.099 10.075-.188-1.742-76.813-22.88 1.88z" fill="#263238"/><path d="M47.692 198.568v-.235l-3.202-60.266-12.852 60.078-9.745-1.222 11.251-73.899h.189l23.162-1.927v.235l1.742 77.048-10.545.188zm-2.966-64.121l3.39 63.604 9.603-.188-1.694-76.296-22.457 1.88L22.41 196.5l8.851 1.128 13.465-63.181z" fill="#263238"/><path d="M54.989 198.004c-.047 0-.141-14.714-.141-32.906 0-18.146.047-32.907.14-32.907.048 0 .142 14.714.142 32.907 0 18.192-.047 32.906-.141 32.906zM29.426 197.769v-.141c0-.141.047-.282.094-.47.094-.423.188-1.034.33-1.786.329-1.552.753-3.808 1.318-6.582a1819.66 1819.66 0 0 1 4.566-21.624c1.836-8.415 3.578-16.03 4.85-21.53.658-2.727 1.176-4.936 1.553-6.535.188-.752.33-1.363.424-1.786.047-.188.094-.329.141-.47.047-.094.047-.141.047-.141s0 .047-.047.141c-.047.094-.047.282-.094.47-.094.423-.236 1.034-.377 1.786-.33 1.552-.847 3.761-1.46 6.535-1.223 5.5-2.965 13.115-4.801 21.577-1.836 8.415-3.484 16.077-4.614 21.577-.565 2.774-1.036 4.983-1.365 6.535-.189.752-.283 1.363-.377 1.786-.047.188-.094.329-.094.47-.094.141-.094.188-.094.188z" fill="#455A64"/><path d="M47.927 136.187c0 .047-.612.094-1.601.141-.989.047-2.354.141-3.813.282-1.507.141-2.825.329-3.814.47-.988.141-1.6.188-1.6.141 0-.047.612-.141 1.553-.329.989-.188 2.307-.376 3.814-.564 1.506-.141 2.871-.188 3.86-.235.989.047 1.6.047 1.6.094zM56.542 131.392c0 .047-.423.141-1.082.141-.707 0-1.648-.235-2.543-.893-.847-.612-1.412-1.458-1.647-2.116-.236-.658-.236-1.081-.236-1.081.047 0 .094.423.377 1.034.282.611.8 1.41 1.6 1.974a4.75 4.75 0 0 0 2.401.894c.66.094 1.083.047 1.13.047z" fill="#455A64"/><path d="M32.25 127.396h24.528l-.942-19.791c-.14-3.902-.14-4.372-.235-7.945 0 0 3.672 4.419 6.544 7.522 1.742 1.88 4.52 2.397 6.826 1.316l15.066-10.483-2.825-7.192-13.7 8.32c-.612-.376-5.98-7.991-9.651-11.705-2.354-2.35-5.555-3.76-8.898-3.855-2.542-.094-5.602.047-8.333.33a8.637 8.637 0 0 0-7.72 7.897c-.283 3.197-.048 6.863-.048 13.116l-.612 22.47z" fill="#1B50A1"/><path d="M36.204 85.746c-2.306 1.034-11.958 13.397-12.664 21.436-.518 5.97 11.158 5.312 11.158 5.312s.8-24.539.47-24.21" fill="#1B50A1"/><path d="M33.85 87.861v.235c0 .188-.047.423-.047.752-.047.658-.094 1.552-.188 2.68-.141 2.303-.235 5.453-.33 8.932-.093 3.478-.188 6.628-.329 8.931a100.767 100.767 0 0 1-.141 2.727c-.047.282-.047.517-.047.752 0 .188-.047.235-.047.235v-.235c0-.188.047-.423.047-.752.047-.658.094-1.598.141-2.727.094-2.303.188-5.453.282-8.931.095-3.48.236-6.629.377-8.932.047-1.128.141-2.069.188-2.68.047-.282.047-.517.095-.752a.325.325 0 0 1 0-.235zM32.862 103.609s-.094.188-.33.47c-.235.282-.518.658-.894 1.034-.377.377-.706.753-.942.988-.235.235-.424.376-.424.376s.142-.188.377-.423c.235-.235.565-.611.942-.988.376-.376.659-.752.894-1.034.236-.282.377-.423.377-.423zM66.947 101.588c-.047 0 .094-.564.235-1.222.141-.659.283-1.176.33-1.176.047 0-.094.564-.236 1.223-.188.658-.33 1.175-.33 1.175zM67.954 100.425c.174.759.336 1.37.36 1.364.026-.006-.094-.626-.268-1.385-.174-.76-.336-1.37-.361-1.364-.026.005.095.625.269 1.385zM56.213 100.272l-.14-.141-.378-.376c-.33-.33-.847-.8-1.412-1.458-1.13-1.222-2.778-3.055-3.672-5.5-.47-1.222-.66-2.491-.565-3.62.047-1.128.282-2.162.66-2.914a4.476 4.476 0 0 1 1.27-1.552c.188-.14.33-.234.471-.281l.188-.095s-.235.142-.612.424c-.376.282-.847.799-1.224 1.55-.376.753-.565 1.787-.612 2.868-.047 1.129.142 2.35.565 3.573.895 2.445 2.495 4.231 3.625 5.5a49.51 49.51 0 0 0 1.413 1.458l.376.376c.047.141.047.188.047.188z" fill="#263238"/><path d="M38.545 92.355c.452.57.868.992.929.944.06-.048-.256-.55-.708-1.12-.451-.57-.867-.993-.928-.944-.061.048.255.55.707 1.12zM44.115 101.331c.718-.715 1.256-1.34 1.2-1.395-.055-.055-.681.48-1.399 1.195-.718.716-1.255 1.34-1.2 1.395.055.055.682-.48 1.4-1.195zM50.987 109.486c-.047 0-.282-.565-.659-1.223-.376-.658-.753-1.128-.706-1.175.047-.047.518.376.942 1.034.376.705.518 1.317.423 1.364zM36.298 108.404c-.047.047-.424-.799-.612-1.88-.188-1.082-.094-1.975-.047-1.975.094 0 .094.894.282 1.928.189 1.034.424 1.88.377 1.927zM44.113 112.588c-.047.047-.377-.658-.47-1.598-.095-.94.093-1.646.14-1.646.095 0 0 .753.095 1.599.094.94.282 1.598.235 1.645zM39.227 117.75c.948.592 1.75 1.019 1.791.953.041-.066-.693-.6-1.64-1.193-.949-.592-1.75-1.019-1.792-.953-.041.066.694.6 1.642 1.193zM53.153 116.866c.047.047-.847.517-1.836 1.128-1.036.658-1.79 1.222-1.836 1.175-.047-.047.659-.752 1.695-1.363 1.035-.658 1.977-.987 1.977-.94zM35.995 123.545c1.045.209 1.905.317 1.92.241.015-.077-.82-.308-1.865-.517-1.045-.21-1.905-.317-1.92-.241-.016.077.82.308 1.865.517zM46.798 124.999c-.047.047-.518-.423-.895-1.176-.376-.705-.517-1.41-.47-1.41.047 0 .33.564.706 1.269.376.752.753 1.317.659 1.317zM54.628 123.973c.367-.438.615-.834.556-.884-.06-.05-.406.265-.773.704-.367.438-.615.834-.556.884.06.05.406-.265.773-.704zM37.696 97.903c.454-.302.787-.6.744-.665-.044-.065-.447.128-.901.43-.454.304-.787.602-.744.666.044.065.447-.128.9-.43zM44.772 90.165c-.047 0-.423-.847-.706-1.928-.282-1.081-.424-2.021-.376-2.021.047 0 .282.893.612 1.974.33 1.034.565 1.928.47 1.975zM50.893 96.605c-.047.047-.565-.141-1.271-.282s-1.271-.141-1.271-.235c0-.047.612-.141 1.318 0 .706.14 1.27.47 1.224.517zM55.083 91.105c0 .047-.66.188-1.46.094-.8-.141-1.365-.423-1.365-.517.047-.047.612.14 1.412.235.8.14 1.413.14 1.413.188zM59.367 97.216c-.047 0-.094-.94.095-2.068.188-1.129.517-2.022.564-1.975.047 0-.14.893-.33 2.022-.188 1.128-.234 2.021-.329 2.021zM63.028 103.216c.706.728 1.323 1.273 1.378 1.219.056-.054-.47-.688-1.175-1.415-.705-.728-1.322-1.274-1.378-1.22-.056.055.47.688 1.175 1.416zM67.974 105.161c.423-.655.712-1.219.647-1.262-.066-.042-.462.455-.884 1.109-.423.655-.712 1.22-.647 1.262.066.042.462-.454.884-1.109zM72.631 100.116c.397.817.776 1.453.846 1.419.07-.034-.195-.725-.592-1.543-.396-.818-.775-1.453-.845-1.419-.07.034.195.725.591 1.543zM78.363 98.63c.947.17 1.725.244 1.74.168.013-.077-.744-.277-1.691-.446-.947-.17-1.726-.245-1.74-.168-.013.077.744.276 1.69.446zM28.159 104.081c-.432.916-.725 1.686-.655 1.719.07.033.478-.683.91-1.599.432-.916.725-1.685.654-1.719-.07-.033-.477.683-.91 1.599zM29.803 98.518c.59.657 1.116 1.147 1.174 1.095.058-.052-.374-.627-.965-1.284-.59-.656-1.116-1.147-1.174-1.095-.058.052.374.627.965 1.284zM30.122 110.213c.36-.299.611-.589.562-.649-.05-.06-.382.134-.742.432-.36.299-.611.59-.562.65.05.059.382-.134.742-.433zM31.569 93.684c.244-.304.392-.59.33-.64-.06-.048-.307.16-.55.463-.244.305-.392.59-.332.64.061.048.308-.16.552-.463z" fill="#FAFAFA"/><path opacity=".3" d="M51.552 94.772c1.6 4.982 2.825 10.248 4.425 15.231L55.6 99.66c-1.459-1.363-2.824-3.008-4.048-4.888zM32.626 112.494c-1.177-5.547-1.036-11.282.942-16.594l-.942 16.594z" fill="#000"/><path d="M140.615 11.778h5.519M258.462 114.233h5.518M31.527 29.03a1.026 1.026 0 1 0 0-2.053 1.026 1.026 0 0 0 0 2.053zM107.311 87.841a1.027 1.027 0 1 0 0-2.053 1.027 1.027 0 0 0 0 2.053zM213.319 19.474a1.026 1.026 0 1 0 0-2.051 1.026 1.026 0 0 0 0 2.051zM91.718 2.671v2.822M93.13 4.082h-2.824M12.404 92.908v2.886M13.816 94.319H10.93M170.325 38.843v2.822M171.737 40.254h-2.887M219.136 164.709h5.518M110.047 181.961a1.027 1.027 0 1 0 0-2.054 1.027 1.027 0 0 0 0 2.054zM291.839 172.405a1.027 1.027 0 1 0 0-2.055 1.027 1.027 0 0 0 0 2.055zM170.238 155.602v2.821M171.651 157.012h-2.824M248.846 191.773v2.822M250.258 193.184h-2.888" stroke="#A1C7FF" stroke-miterlimit="10" stroke-linecap="round"/></g><defs><clipPath id="clip0"><path fill="#fff" d="M0 0h307v202H0z"/></clipPath></defs></svg>