<svg width="324" height="205" fill="none" xmlns="http://www.w3.org/2000/svg"><g clip-path="url(#clip0)"><path d="M125.412 162.771c-2.886-9.864-11.044-17.447-21.64-17.695-6.169-.149-12.138 2.478-17.362 5.452-7.064 4.065-15.421 8.922-23.878 7.683-5.422-.793-11.84-3.817-13.133-10.062-1.343-6.642 4.03-11.152 9.75-13.829 4.925-2.279 11.84-7.732 14.029-12.985 8.755-20.719-15.77-44.361-8.805-68.003 7.262-24.733 40.742-28.897 57.606-12.094 1.592 1.586 3.134 3.32 4.477 5.154 3.433 4.56 5.472 10.756 10.248 14.176 6.169 4.411 14.228 3.024 20.894.397 12.735-5.006 16.118-8.327 28.554-13.73 8.955-3.866 19.998-7.335 30.047-3.916 7.214 2.479 15.173 6.94 19.203 13.383 7.511 11.995 4.128 24.882 15.968 41.932 5.373 7.732 13.929 9.863 20.695 15.464 17.66 14.473 11.74 44.906-7.512 55.364-15.819 8.575-35.27 6.592-52.383 4.411a105.667 105.667 0 0 1-3.93-.545" stroke="#ADBBF9" stroke-miterlimit="10" stroke-linejoin="round" stroke-dasharray="3.5 3.5"/><path d="M250.475 50.457a28.444 28.444 0 0 0 3.881-5.65c1.094-2.082 1.89-4.213 2.487-6.394l-5.87-2.082c.448-2.032.647-4.064.547-6.096l6.169-.942c-.299-4.56-1.692-9.02-4.03-12.986l-5.621 2.676c-1.095-1.734-2.388-3.32-3.93-4.708l3.681-5.006a28.555 28.555 0 0 0-5.671-3.866c-2.089-1.09-4.229-1.884-6.417-2.479l-2.09 5.849c-2.039-.446-4.079-.644-6.119-.545l-.945-6.146a29.668 29.668 0 0 0-13.033 4.015l2.686 5.6c-1.741 1.09-3.333 2.38-4.726 3.916l-5.024-3.668a28.444 28.444 0 0 0-3.881 5.65c-1.094 2.082-1.89 4.214-2.487 6.394l5.87 2.082c-.448 2.032-.647 4.064-.547 6.097l-6.169.941c.299 4.56 1.692 9.021 4.03 12.986l5.621-2.676c1.095 1.735 2.388 3.32 3.93 4.709l-3.681 5.005A28.552 28.552 0 0 0 214.807 57c2.089 1.09 4.228 1.883 6.417 2.478l2.09-5.849c2.039.446 4.079.645 6.119.545l.945 6.146a29.67 29.67 0 0 0 13.033-4.014l-2.686-5.601c1.741-1.09 3.333-2.38 4.726-3.916l5.024 3.668zm-28.853-6.344c-7.163-3.767-9.899-12.59-6.119-19.727 3.781-7.137 12.636-9.863 19.8-6.096 7.163 3.766 9.899 12.589 6.118 19.726-3.78 7.138-12.635 9.864-19.799 6.097zm1.99-3.767c-5.074-2.677-7.014-8.922-4.328-13.977 2.687-5.056 8.955-6.99 14.029-4.313 5.074 2.677 7.014 8.922 4.328 13.978-2.637 5.055-8.955 6.988-14.029 4.312zM116.855 64.583a19.164 19.164 0 0 0 2.04-3.717c.547-1.339.895-2.726 1.144-4.065l-3.731-.941c.149-1.29.149-2.528-.05-3.817l3.731-.991c-.447-2.776-1.592-5.452-3.283-7.732l-3.333 1.982c-.746-.991-1.691-1.883-2.686-2.676l1.94-3.321a19.286 19.286 0 0 0-3.731-2.032c-1.343-.545-2.736-.892-4.079-1.14l-.946 3.717c-1.293-.148-2.537-.148-3.83.05l-.995-3.718a17.958 17.958 0 0 0-7.76 3.272l1.99 3.32c-.995.744-1.891 1.686-2.687 2.677l-3.333-1.933a19.186 19.186 0 0 0-2.04 3.717c-.547 1.339-.895 2.726-1.144 4.065l3.731.941c-.149 1.29-.149 2.528.05 3.817l-3.731.991c.448 2.776 1.592 5.452 3.283 7.732l3.333-1.982c.746.991 1.692 1.883 2.687 2.676l-1.94 3.321a19.3 19.3 0 0 0 3.73 2.032c1.344.545 2.737.892 4.08 1.14l.945-3.717c1.293.148 2.537.148 3.83-.05l.995 3.718a17.964 17.964 0 0 0 7.761-3.272l-1.99-3.32c.995-.744 1.89-1.686 2.686-2.677l3.333 1.933zm-18.157-2.18c-4.627-1.884-6.865-7.138-4.975-11.748 1.89-4.61 7.164-6.84 11.79-4.956 4.627 1.883 6.865 7.137 4.975 11.747-1.891 4.61-7.164 6.84-11.79 4.956zm.995-2.38a6.417 6.417 0 0 1-3.532-8.376c1.343-3.272 5.074-4.858 8.407-3.52a6.417 6.417 0 0 1 3.532 8.377 6.535 6.535 0 0 1-8.407 3.519zM131.73 30.185a14.069 14.069 0 0 0 1.691-2.429c.498-.892.846-1.834 1.095-2.775l-2.537-.893c.199-.892.298-1.784.248-2.627l2.687-.396a12.977 12.977 0 0 0-1.741-5.6l-2.438 1.14c-.448-.744-1.045-1.438-1.691-2.033l1.592-2.18a14.224 14.224 0 0 0-2.438-1.686 12.047 12.047 0 0 0-2.786-1.09l-.895 2.527c-.896-.198-1.791-.297-2.637-.248l-.398-2.676a13.08 13.08 0 0 0-5.621 1.735l1.044 2.428c-.746.447-1.442 1.041-2.039 1.686l-2.189-1.586a14.068 14.068 0 0 0-1.691 2.428 11.925 11.925 0 0 0-1.095 2.776l2.537.892c-.199.892-.298 1.784-.249 2.627l-2.686.397a12.963 12.963 0 0 0 1.741 5.6l2.438-1.14c.448.744 1.045 1.438 1.691 2.032l-1.592 2.181c.747.645 1.543 1.19 2.438 1.686.895.495 1.841.842 2.786 1.09l.895-2.528c.896.198 1.791.297 2.637.248l.398 2.676a13.08 13.08 0 0 0 5.621-1.734l-1.144-2.429c.746-.446 1.443-1.04 2.04-1.685l2.288 1.586zm-11.641-4.312c-2.238-1.19-3.084-3.916-1.89-6.146a4.548 4.548 0 0 1 6.168-1.884c2.239 1.19 3.085 3.916 1.891 6.146-1.194 2.181-3.93 3.073-6.169 1.884z" fill="#E4E9F9"/><path d="M71.636 69.738c0-.347-.05-.694-.1-1.041-.348-3.073-2.437-2.776-3.78-2.726-1.294.099-2.935.148-3.582-1.289-.299-.644-.249-1.388-.448-2.032-.398-1.487-1.74-2.38-2.985-2.38-1.293 0-2.487.744-3.532 1.636-.547.447-1.144 1.041-1.79.843-.398-.1-.747-.496-.995-.942-1.493-2.428-1.493-5.997-3.134-8.277-1.841-2.528-5.224-2.577-7.512-.744-2.288 1.834-3.632 5.106-4.229 8.426-.199 1.09-.348 2.23-1.044 2.974-.946 1.041-2.388.694-3.682.546-1.492-.15-3.034.099-4.228 1.14-.995.892-1.592 2.428-1.492 3.866h42.533zM156.852 16.406h41.886s-1.691-1.933-3.581-2.627c-2.388-.843-3.383 1.487-4.876-1.537-.845-1.685-1.442-3.915-3.681-4.51-3.482-.892-4.378 1.983-6.019 1.19-1.443-.694-1.393-3.42-2.886-5.7-1.442-2.23-4.924-3.569-7.312-2.429-4.378 2.131-3.781 5.502-5.224 6.592-1.393 1.09-4.626-2.775-8.258 1.388-2.537 2.974-.049 7.633-.049 7.633z" fill="#fff" stroke="#ADBBF9" stroke-miterlimit="10" stroke-linejoin="round"/><path d="M198.738 3.916a1.837 1.837 0 0 0 1.841-1.834 1.837 1.837 0 0 0-1.841-1.834 1.838 1.838 0 0 0-1.841 1.834c0 1.013.825 1.834 1.841 1.834zM319.822 151.47a1.837 1.837 0 0 0 1.841-1.834 1.837 1.837 0 0 0-1.841-1.834 1.838 1.838 0 0 0-1.841 1.834c0 1.013.825 1.834 1.841 1.834zM232.068 75.586a1.837 1.837 0 0 0 1.841-1.834 1.837 1.837 0 0 0-1.841-1.834c-1.016 0-1.84.822-1.84 1.834 0 1.013.824 1.834 1.84 1.834zM4.776 97.296c1.017 0 1.84-.821 1.84-1.834a1.837 1.837 0 0 0-1.84-1.834c-1.016 0-1.84.821-1.84 1.834 0 1.013.824 1.834 1.84 1.834zM79.744 28.698c1.016 0 1.84-.821 1.84-1.834a1.837 1.837 0 0 0-1.84-1.834c-1.017 0-1.84.821-1.84 1.834 0 1.013.823 1.834 1.84 1.834zM102.081 19.776c.686 0 1.243-.554 1.243-1.239 0-.684-.557-1.239-1.243-1.239-.687 0-1.244.555-1.244 1.24 0 .684.557 1.238 1.244 1.238zM305.544 107.853c.687 0 1.244-.555 1.244-1.239s-.557-1.239-1.244-1.239c-.686 0-1.243.555-1.243 1.239s.557 1.239 1.243 1.239zM216.05 66.665c.687 0 1.244-.555 1.244-1.24 0-.684-.557-1.239-1.244-1.239a1.24 1.24 0 0 0-1.243 1.24c0 .684.556 1.239 1.243 1.239zM265.15 35.34c.687 0 1.244-.555 1.244-1.24 0-.684-.557-1.238-1.244-1.238-.687 0-1.244.554-1.244 1.239 0 .684.557 1.239 1.244 1.239zM262.513 126.539c.687 0 1.244-.555 1.244-1.239 0-.685-.557-1.239-1.244-1.239a1.24 1.24 0 1 0 0 2.478zM68.65 138.434a1.24 1.24 0 0 0 1.245-1.239c0-.684-.557-1.239-1.244-1.239-.687 0-1.244.555-1.244 1.239a1.24 1.24 0 0 0 1.244 1.239zM72.382 81.584c.687 0 1.244-.555 1.244-1.24 0-.684-.557-1.238-1.244-1.238-.687 0-1.243.554-1.243 1.239 0 .684.556 1.239 1.243 1.239z" stroke="#ADBBF9" stroke-miterlimit="10" stroke-linejoin="round"/><path d="M314.45 88.82h-1.692a.551.551 0 0 1-.547-.545V86.59c0-.298.249-.546.547-.546h1.692c.298 0 .547.248.547.546v1.685c0 .297-.199.545-.547.545zM57.21 146.117h-1.692a.551.551 0 0 1-.547-.545v-1.685c0-.298.248-.546.547-.546h1.691c.299 0 .547.248.547.546v1.685a.551.551 0 0 1-.547.545zM54.324 44.708h-1.692a.551.551 0 0 1-.547-.546v-1.685c0-.297.249-.545.547-.545h1.692c.298 0 .547.248.547.545v1.685a.551.551 0 0 1-.547.546zM269.03 25.03h-3.233a1.018 1.018 0 0 1-1.045-1.04v-3.173c0-.595.448-1.04 1.045-1.04h3.233c.597 0 1.045.445 1.045 1.04v3.222c0 .545-.448.991-1.045.991zM239.083 104.83h-1.691a.55.55 0 0 1-.547-.546v-1.685a.55.55 0 0 1 .547-.545h1.691c.299 0 .548.248.548.545v1.685a.552.552 0 0 1-.548.546z" fill="#E4E9F9"/><path d="M201.026 85.103c0-.248.05-.496.05-.744.299-2.23 2.04-1.982 3.084-1.933 1.095.05 2.438.1 2.935-.942.249-.446.199-.99.349-1.486.348-1.09 1.442-1.735 2.487-1.735 1.045 0 2.04.495 2.885 1.14 2.786 2.081 3.582-3.42 4.876-5.006 1.492-1.834 4.278-2.826 6.168-1.537 1.89 1.338 2.985 3.668 3.482 6.047.15.793.199 1.735.846 2.131 1.841 1.24 4.179-1.19 6.417.694.796.645.946 2.23.846 3.272h-34.425v.099z" fill="#fff" stroke="#ADBBF9" stroke-miterlimit="10" stroke-linejoin="round"/><path d="M63.975 198.409c-6.218-9.367-19.301-33.059-7.959-41.188 6.218-4.461 14.476-.397 18.456 9.467 3.78 9.368 5.223 20.47 6.815 31.622" fill="#fff"/><path d="M64.124 198.309c-2.985-4.56-5.671-9.319-7.91-14.325-2.388-5.402-4.626-11.4-4.477-17.347.149-5.353 3.432-10.855 9.352-11.053 7.462-.298 11.94 7.484 14.079 13.531 3.332 9.417 4.526 19.429 5.92 29.243.05.248.447.149.397-.099-1.343-9.566-2.537-19.231-5.621-28.401-2.04-6.096-5.87-13.432-12.984-14.522-5.273-.793-9.9 3.073-11.093 8.079-1.344 5.7.547 11.995 2.636 17.298 2.438 6.245 5.721 12.243 9.452 17.843.1.05.348-.099.249-.247z" fill="#ADBBF9"/><path d="M59.2 155.782l14.724 42.626" stroke="#ADBBF9" stroke-miterlimit="10" stroke-linejoin="round"/><path d="M38.952 198.408c-5.372-6.939-17.162-24.436-7.362-30.483 5.372-3.32 11.989-.297 15.421 6.989 3.283 6.939 4.527 15.117 5.87 23.395" fill="#fff"/><path d="M39.101 198.309c-2.487-3.272-4.825-6.692-6.815-10.31-2.09-3.816-4.179-8.178-4.278-12.639-.1-4.411 2.885-8.178 7.462-8.575 5.77-.495 9.8 4.659 11.84 9.368 3.034 6.989 4.079 14.671 5.322 22.156.05.247.448.148.398-.1-1.194-7.335-2.288-14.869-5.173-21.808-1.94-4.659-5.472-9.566-10.994-10.012-4.08-.347-8.11 2.329-9.054 6.344-.946 4.263.845 8.872 2.686 12.689 2.239 4.659 5.124 9.02 8.308 13.085.149.148.398-.05.298-.198z" fill="#ADBBF9"/><path d="M34.375 166.885l12.685 31.523" stroke="#ADBBF9" stroke-miterlimit="10" stroke-linejoin="round"/><path d="M101.882 198.309c-14.725-26.666-24.276-53.084-12.337-65.624 11.79-12.441 24.127 2.28 27.112 15.365 3.681 16.009 4.228 33.308 4.129 50.259" fill="#fff"/><path d="M101.882 198.309c-14.725-26.666-24.276-53.084-12.337-65.624 11.79-12.441 24.127 2.28 27.112 15.365 3.681 16.009 4.228 33.308 4.129 50.259M93.872 129.463l17.71 68.796" stroke="#ADBBF9" stroke-miterlimit="10" stroke-linejoin="round"/><path d="M79.746 198.359c-5.87-14.077-19.053-42.626-9.75-51.399 5.92-5.65 16.665 1.289 22.186 13.581 5.224 11.697 6.816 23.741 9.95 37.669" fill="#fff"/><path d="M79.894 198.358c-2.786-6.79-5.721-13.482-8.159-20.371-2.437-6.939-4.925-14.423-4.775-21.858.05-2.726.547-5.65 2.188-7.881 1.89-2.577 4.975-3.519 8.06-2.726 3.63.942 6.665 3.519 9.103 6.245 3.283 3.718 5.472 8.178 7.263 12.788 4.129 10.855 5.82 22.502 8.357 33.803.05.248.448.149.398-.099-2.437-10.756-4.03-21.809-7.76-32.217-2.786-7.831-7.263-16.753-15.372-20.223-2.636-1.14-5.671-1.387-8.158.199-2.239 1.437-3.483 3.866-4.03 6.394-.696 3.122-.448 6.443 0 9.566.597 3.965 1.642 7.88 2.836 11.697 2.686 8.475 6.268 16.654 9.7 24.832.15.099.448 0 .349-.149z" fill="#ADBBF9"/><path d="M194.013 198.31c-4.975-56.702 7.114-77.47 20.346-78.362 6.268-.446 24.625 3.172 2.438 78.362" fill="#fff"/><path d="M194.112 198.309c-1.244-18.686-2.488-38.066 2.338-56.405 2.089-7.93 6.019-18.19 14.625-21.115 3.383-1.14 7.214-.941 10.099 1.339 5.074 4.014 5.87 11.895 6.069 17.843.199 6.691-.498 13.382-1.542 19.975-1.542 9.913-3.88 19.726-6.517 29.391-.796 2.974-1.642 5.948-2.487 8.922-.05.198.248.248.298.099a278.13 278.13 0 0 0 8.159-32.861c1.343-7.286 2.387-14.671 2.487-22.106.05-4.51-.199-9.17-1.443-13.531-.746-2.578-1.89-5.105-3.781-7.088-2.437-2.478-5.82-3.42-9.252-2.875-8.308 1.289-12.984 9.764-15.571 16.951-2.388 6.741-3.532 13.878-4.229 20.966-.994 10.359-.845 20.867-.248 31.226.199 3.123.398 6.196.746 9.318.099.05.249.05.249-.049z" fill="#ADBBF9"/><path d="M216.945 120.046l-11.69 78.213" stroke="#ADBBF9" stroke-miterlimit="10" stroke-linejoin="round"/><path d="M233.113 198.309c4.03-33.704 17.71-53.133 30.047-47.879 10.099 4.312 4.875 23.097-10.845 47.83" fill="#fff"/><path d="M233.213 198.309c1.542-9.913 3.283-19.777 7.163-29.095 2.537-6.196 6.02-12.887 11.591-16.902 3.781-2.726 9.104-3.717 13.034-.594 4.527 3.667 3.283 10.904 2.04 15.761-2.886 11.053-9.005 21.016-14.825 30.73-.099.149.149.298.249.149 3.383-5.055 6.367-10.408 9.103-15.861 2.09-4.262 3.98-8.624 5.373-13.184 1.492-5.055 3.184-12.292-.547-16.802-2.985-3.619-8.407-3.866-12.387-1.884-5.671 2.875-9.452 8.922-12.138 14.424-2.289 4.659-3.98 9.615-5.323 14.621-1.642 6.047-2.885 12.342-3.482 18.587-.05.149.149.198.149.05z" fill="#ADBBF9"/><path d="M263.16 150.429l-20.147 47.83M73.228 145.225l18.058 53.183" stroke="#ADBBF9" stroke-miterlimit="10" stroke-linejoin="round"/><path d="M234.656 198.359c7.959-16.852 24.028-55.264 11.939-68.895-6.666-7.484-18.804 1.685-25.271 18.191-6.119 15.662-10.696 31.82-14.526 50.457" fill="#fff"/><path d="M234.755 198.457c4.178-8.723 7.909-17.744 10.944-26.913 3.134-9.467 5.97-19.777 5.323-29.838-.398-6.196-3.333-16.208-11.442-14.919-4.378.693-8.059 4.113-10.795 7.434-3.98 4.808-6.566 10.458-8.755 16.258-5.87 15.464-10.149 31.473-13.432 47.681-.05.248.348.396.398.099 2.836-13.829 6.368-27.558 10.994-40.941 2.139-6.245 4.328-12.589 7.81-18.19 2.637-4.262 6.069-8.575 10.646-10.855 3.532-1.784 7.412-1.536 10.148 1.537 2.537 2.924 3.582 6.84 3.98 10.607.995 9.566-1.592 19.479-4.378 28.549-3.134 10.062-7.213 19.876-11.69 29.392-.1.099.199.248.249.099z" fill="#ADBBF9"/><path d="M243.013 127.084l-21.341 71.324" stroke="#ADBBF9" stroke-miterlimit="10" stroke-linejoin="round"/><path d="M248.733 198.309c10.497-21.214 19.65-26.815 28.207-25.13 6.666 1.339 7.71 11.103-6.368 25.13" fill="#fff"/><path d="M248.783 198.358c3.234-5.799 6.219-11.648 10.547-16.753 2.686-3.122 5.87-6.146 9.8-7.633 2.736-1.041 6.318-1.437 9.103-.247 3.085 1.338 3.582 4.857 2.985 7.831-1.343 6.592-6.367 11.846-10.745 16.604-.149.149.05.347.199.198 4.477-4.114 8.954-9.615 10.646-15.563.845-2.924.945-6.592-1.642-8.674-2.239-1.784-5.87-1.735-8.556-1.14-3.93.843-7.263 3.37-9.999 6.146-2.239 2.28-4.129 4.808-5.871 7.435-2.437 3.668-4.775 7.583-6.516 11.647-.15.149 0 .248.049.149z" fill="#ADBBF9"/><path d="M276.095 173.278l-16.069 25.031" stroke="#ADBBF9" stroke-miterlimit="10" stroke-linejoin="round"/><path d="M117.95 198.21c-2.537 0-4.627-2.082-4.627-4.61V29.789c0-2.528 2.09-4.61 4.627-4.61h87.305c2.537 0 4.626 2.082 4.626 4.61V193.6c0 2.528-2.089 4.61-4.626 4.61H117.95z" fill="#849CF4"/><path d="M205.255 25.377a4.376 4.376 0 0 1 4.377 4.362V193.55c0 2.428-1.989 4.361-4.377 4.361h-87.306a4.375 4.375 0 0 1-4.377-4.361V29.789c0-2.43 1.99-4.362 4.377-4.362h87.306v-.05zm0-.495h-87.306c-2.686 0-4.875 2.18-4.875 4.857V193.55c0 2.676 2.189 4.857 4.875 4.857h87.306c2.686 0 4.875-2.181 4.875-4.857V29.789c.05-2.727-2.139-4.907-4.875-4.907z" fill="#849CF4"/><path d="M161.627 194.889a4.42 4.42 0 0 0 4.427-4.412 4.42 4.42 0 0 0-4.427-4.411c-2.446 0-4.428 1.975-4.428 4.411a4.42 4.42 0 0 0 4.428 4.412z" stroke="#4643BF" stroke-miterlimit="10"/><path d="M184.61 6.096L111.979 202.82h21.093l72.68-196.723H184.61z" fill="url(#paint0_linear)"/><path d="M212.269 6.096l-72.63 196.723h8.954l72.63-196.723h-8.954z" fill="url(#paint1_linear)"/><path d="M209.433 41.04H113.87v141.21h95.563V41.04z" fill="#fff"/><path d="M156.154 32.118h13.431a.55.55 0 0 1 .547.545.55.55 0 0 1-.547.545h-13.431a.551.551 0 0 1-.548-.545c0-.347.249-.545.548-.545zM153.169 33.159a.546.546 0 1 0 .002-1.093.546.546 0 0 0-.002 1.093z" stroke="#4643BF" stroke-miterlimit="10"/><path d="M161.627 95.759h-41.24v41.535h41.24V95.759z" fill="#D3DBF4"/><path d="M140.982 119.054c4.726 0 8.557-3.816 8.557-8.525 0-4.708-3.831-8.525-8.557-8.525-4.725 0-8.556 3.817-8.556 8.525 0 4.709 3.831 8.525 8.556 8.525z" stroke="#fff" stroke-miterlimit="10"/><path d="M140.982 119.054c3.242 0 5.871-3.816 5.871-8.525 0-4.708-2.629-8.525-5.871-8.525-3.242 0-5.87 3.817-5.87 8.525 0 4.709 2.628 8.525 5.87 8.525z" stroke="#fff" stroke-miterlimit="10"/><path d="M140.982 119.054c1.264 0 2.288-3.816 2.288-8.525 0-4.708-1.024-8.525-2.288-8.525-1.264 0-2.289 3.817-2.289 8.525 0 4.709 1.025 8.525 2.289 8.525zM132.476 110.529h17.063" stroke="#fff" stroke-miterlimit="10"/><path d="M133.371 114.346c1.642-.545 4.428-.892 7.661-.892 3.184 0 6.019.347 7.661.892M135.858 117.32a15.043 15.043 0 0 1 5.174-.893c1.89 0 3.632.298 5.124.843M133.371 106.812c1.642.545 4.428.892 7.661.892 3.184 0 6.019-.347 7.661-.892M135.858 103.838c1.493.545 3.234.892 5.174.892 1.89 0 3.632-.297 5.124-.842" stroke="#fff" stroke-miterlimit="10"/><path d="M158.095 127.629h-34.226v2.181h34.226v-2.181zM158.095 123.565h-20.446v2.181h20.446v-2.181zM135.311 123.565h-11.442v2.181h11.442v-2.181zM158.095 131.743h-34.226v2.181h34.226v-2.181z" fill="#E3EAFC"/><path d="M202.817 95.759h-41.24v41.535h41.24V95.759z" fill="#F0F1FF"/><path d="M199.335 103.144h-34.226v2.181h34.226v-2.181zM199.335 107.208h-34.226v2.181h34.226v-2.181zM175.755 111.322h-10.646v2.181h10.646v-2.181zM199.285 111.322h-20.694v2.181h20.694v-2.181zM199.335 115.387h-34.226v2.181h34.226v-2.181zM199.335 119.5h-34.226v2.181h34.226V119.5zM199.335 123.565h-34.226v2.181h34.226v-2.181zM199.335 127.629h-9.899v2.181h9.899v-2.181zM187.097 127.629h-21.988v2.181h21.988v-2.181zM199.335 131.743h-34.226v2.181h34.226v-2.181zM199.285 99.08h-9.054v2.181h9.054V99.08zM187.943 99.08h-22.834v2.181h22.834V99.08z" fill="#E4E9F9"/><path d="M161.627 137.294h-41.24v41.536h41.24v-41.536z" fill="#F0F1FF"/><path d="M158.095 169.165h-34.226v2.18h34.226v-2.18zM158.095 165.1h-34.226v2.181h34.226V165.1zM158.095 161.036h-8.805v2.181h8.805v-2.181zM146.454 161.036h-22.535v2.181h22.535v-2.181zM158.095 156.922h-34.226v2.181h34.226v-2.181zM158.095 152.858h-34.226v2.181h34.226v-2.181zM158.095 148.744h-34.226v2.181h34.226v-2.181zM139.788 144.68h-15.919v2.181h15.919v-2.181zM158.144 144.68h-15.968v2.181h15.968v-2.181zM158.095 140.615h-34.226v2.181h34.226v-2.181zM139.838 173.278h-15.969v2.181h15.969v-2.181zM158.144 173.278h-15.968v2.181h15.968v-2.181z" fill="#E4E9F9"/><path d="M202.817 137.294h-41.24v41.536h41.24v-41.536z" fill="#D3DBF4"/><path d="M190.579 165.844l-16.516-.198-1.89-11.846 19.998-.05-1.592 12.094z" fill="#C2CFEF"/><path d="M192.171 153.75l-19.998.05 9.999-8.179 9.999 8.129z" fill="#C2CFEF"/><path d="M188.828 152.598l-13.631.024.021 11.499 13.63-.024-.02-11.499z" fill="#fff"/><path d="M172.173 153.8l.05 12.936 9.999-5.997-10.049-6.939zM192.171 153.75l.05 12.986-9.999-5.997 9.949-6.989z" fill="#E3EAFC"/><path d="M192.221 166.736h-19.998l9.999-8.178 9.999 8.178z" fill="#E3EAFC"/><path d="M172.223 166.736l9.999-8.178 9.999 8.178M183.614 159.747l8.557-5.997M180.779 159.747l-8.606-5.947" stroke="#D3DBF4" stroke-miterlimit="10"/><path d="M190.182 171.692h-15.969v2.181h15.969v-2.181z" fill="#E3EAFC"/><path d="M202.867 50.655h-82.48v41.436h82.48V50.655z" fill="#D3DBF4"/><path d="M199.335 56.603h-38.853v2.874h38.853v-2.874zM199.335 61.906h-38.853v2.875h38.853v-2.875zM199.335 67.26h-38.853v2.874h38.853v-2.875zM199.335 72.563h-38.853v2.874h38.853v-2.874zM199.335 83.219h-38.853v2.875h38.853v-2.875zM199.334 77.916h-23.231v2.874h23.231v-2.874zM173.466 77.916h-12.984v2.874h12.984v-2.874zM154.513 56.702h-29.401v29.293h29.401V56.702z" fill="#E3EAFC"/><path d="M142.524 65.871l8.954 15.217h-17.909l8.955-15.217zM133.469 70.877l1.891 3.668-3.383 6.543h-3.831l5.323-10.21zM130.535 66.615c.907 0 1.642-.733 1.642-1.636 0-.903-.735-1.636-1.642-1.636-.906 0-1.641.733-1.641 1.636 0 .903.735 1.636 1.641 1.636z" fill="#fff"/><path d="M138.345 47.235h46.513c.746 0 1.343-.595 1.343-1.338 0-.744-.597-1.338-1.343-1.338h-46.513c-.746 0-1.343.594-1.343 1.338.05.743.647 1.338 1.343 1.338z" fill="#D3DBF4"/><path d="M161.627 95.759v83.021M120.387 137.294h82.48" stroke="#fff" stroke-miterlimit="10"/><path d="M22.934 198.458H300.32" stroke="#849CF4" stroke-miterlimit="10"/><path d="M284.999 184.629l.846 14.126-.448 4.461-16.914-.1c-.447 0-.796-.347-.746-.793 0-.297.199-.594.498-.694l7.561-3.469-1.691-14.721" fill="#FFCBBD"/><path d="M266.941 202.968c.199-.546.497-1.19.846-1.339l8.009-3.42c4.427 1.785 10.148.397 10.148.397l.448 5.997a.339.339 0 0 1-.348.347l-18.904-.099c-.448.05-.199-1.883-.199-1.883z" fill="#F7471E"/><path d="M274.055 198.556a10.65 10.65 0 0 1 1.144 1.884M273.06 199.151c.447.645.646.992.945 1.586M272.214 199.597c.298.446.647.992.846 1.487M286.243 203.662l-19.351-.1M286.093 200.836s-4.477.05-4.875 2.826M269.429 200.936s1.293 1.833 1.542 2.676" stroke="#B22B19" stroke-width=".75" stroke-miterlimit="10"/><path d="M271.717 130.256s-2.438 19.925-1.492 34.349c.945 14.472 2.288 31.225 2.288 31.225h14.725s-1.89-24.832-1.691-36.43c.248-12.887 4.178-29.144 4.178-29.144" fill="#0E32AE"/><path d="M284.203 195.88s-1.89-24.832-1.691-36.43c.248-12.887 4.178-29.144 4.178-29.144" stroke="#121649" stroke-width=".75" stroke-miterlimit="10"/><path d="M304.351 165.695l13.63 4.362 4.129 1.784-5.223 16.059c-.15.396-.548.644-.995.496-.299-.1-.498-.397-.547-.694l-1.045-8.228-14.178-4.61" fill="#FFCBBD"/><path d="M316.29 189.288c-.498-.347-.995-.843-.995-1.19l-.846-8.624c3.035-3.668 3.482-9.467 3.482-9.467l5.871 1.388c.199.049.298.248.248.446l-5.82 17.942c-.199.347-1.94-.446-1.94-.495z" fill="#F7471E"/><path d="M314.2 181.209a10.317 10.317 0 0 1 2.139-.496M314.449 182.349c.746-.248 1.144-.298 1.841-.397M314.599 183.29a17.016 17.016 0 0 1 1.691-.396M322.807 171.197l-5.97 18.388M320.02 170.503s-1.343 4.262 1.244 5.501M315.096 186.314s2.139-.694 3.034-.644" stroke="#B22B19" stroke-width=".75" stroke-miterlimit="10"/><path d="M295.695 130.9s1.343 5.651 1.343 8.079c0 1.785-.697 2.974-1.095 4.313a10.03 10.03 0 0 0-.298 1.685c-.1 2.627-.249 9.913 1.393 13.382 1.99 4.263 18.754 9.913 18.754 9.913l-4.228 12.738s-25.62-6.393-28.803-14.225c-4.478-10.904-3.184-35.934-3.184-35.934" fill="#0E32AE"/><path d="M285.795 170.503c-1.492-1.19-2.587-2.379-3.084-3.668-4.477-10.904-3.184-35.935-3.184-35.935M293.506 130.454s1.492 7.138 1.492 9.566c0 1.834-.746 3.073-1.094 4.362a8.182 8.182 0 0 0-.299 1.586c-.149 2.577-.447 10.012 1.393 13.432 2.537 4.709 20.048 10.954 20.048 10.954" stroke="#121649" stroke-width=".75" stroke-miterlimit="10"/><path d="M277.437 132.338s-.248 5.155.498 5.749a19.326 19.326 0 0 0 1.442 1.041M313.653 167.578l-4.676 12.788M272.313 193.352h14.725M289.477 131.297s.895 3.271 5.024 4.262M271.269 134.965s3.681-1.091 4.825-3.668" stroke="#121649" stroke-width=".75" stroke-miterlimit="10"/><path d="M280.173 91.596l-.647 4.61s-.049 1.288 2.438 2.18c3.035 1.09 4.875-1.239 4.875-1.239l-.199-4.659" fill="#FFCBBB"/><path d="M279.775 85.5s-3.184 5.352-.995 7.484c2.04 1.933 6.467.743 6.865.05.398-.695 2.935-6.643 1.542-7.485-2.437-1.437-6.019-2.33-7.412-.05z" fill="#FFCBBB"/><path d="M279.824 93.975s2.189.694 4.179-.198" stroke="#EF977F" stroke-miterlimit="10"/><path d="M279.228 82.03c.398-3.172 4.278-.793 5.82.644.448.446 3.234 1.24 3.631 1.685.448.446.796 1.041.946 1.636.099.545 0 1.14-.1 1.636-.249.99-.647 1.883-.995 2.825-.398.991-1.144 3.023-2.636 2.825-.299-.05-.597-.1-.747-.297-.199-.199-.199-.496-.149-.793.05-.447.199-.893.398-1.29-.298.1-.597.249-.895.15-.1-.05-.149-.15-.199-.199-.199-.297.05-2.33.995-3.172-1.393-.644-2.438-.694-3.881-1.289-1.144-.495-1.641-1.04-2.039-1.586-.547-.793-.249-1.833-.149-2.775z" fill="#4A1A1A"/><path d="M285.048 90.704c.348-.496.895-1.041 1.393-.546.199.199.249.496.249.793.049.942-.896 2.181-1.791 1.834-.398-.148-.547-.743-.597-1.19" fill="#FFCBBB"/><path d="M280.471 87.829s-1.393 1.338-1.393 1.834c0 .446 1.045.743 1.045.743" stroke="#F7A794" stroke-width=".5" stroke-miterlimit="10"/><path d="M278.581 90.605l2.487.941s-.597 1.487-2.089.793c-1.045-.495-.398-1.734-.398-1.734z" fill="#fff"/><path d="M279.427 87.085c-.1.1-.149.199-.199.348-.1.198.199.396.348.198.05-.149.149-.248.199-.397.05-.198-.249-.297-.348-.148z" fill="#212237"/><path d="M280.521 86.64s-.298-.695-1.044-.347" stroke="#212237" stroke-width=".5" stroke-miterlimit="10" stroke-linecap="round" stroke-linejoin="round"/><path d="M282.56 88.572c-.049.1-.149.248-.199.347-.099.248.249.446.349.199.049-.15.099-.248.149-.397.05-.198-.199-.297-.299-.149z" fill="#212237"/><path d="M282.66 87.432s.746-.099 1.294.893" stroke="#212237" stroke-width=".5" stroke-miterlimit="10" stroke-linecap="round" stroke-linejoin="round"/><path d="M269.378 71.423c-.199-2.677.149-10.26-.299-10.458-.448-.199-.647 2.379-1.044 2.131-.349-.248-.349-4.213-.846-4.263-.697-.099-.547 3.966-.547 3.966s-.448-4.461-1.095-4.362c-.448.05-.298 3.47-.398 4.808-.05-1.438-.497-4.114-.945-4.015-.448.1-.398 2.776-.398 4.56-.099-1.14-.298-3.569-.746-3.52-.448.05-.547 6.395-.597 11.748" fill="#FFCBBD"/><path d="M268.731 98.237s-2.885-6.046-4.676-13.035c-1.791-7.038-1.492-16.158-1.492-16.158l6.765 1.14s.299 12.738 8.059 25.426" fill="#FFCBBD"/><path d="M263.955 63.988c.547.843 1.294 1.834 1.244 3.52M267.984 63.69c-.646.596-1.343 2.132-.995 2.925" stroke="#F7A794" stroke-miterlimit="10"/><path d="M291.217 70.134a17.537 17.537 0 0 0 2.587-3.866c.746-1.437 1.243-2.875 1.641-4.362l-4.029-1.338c.298-1.388.398-2.776.348-4.163l4.179-.694a19.512 19.512 0 0 0-2.886-8.773l-3.83 1.883c-.746-1.14-1.642-2.23-2.736-3.172l2.438-3.47a17.61 17.61 0 0 0-3.881-2.577c-1.442-.743-2.885-1.239-4.377-1.635l-1.344 4.014a17.007 17.007 0 0 0-4.178-.347l-.697-4.163a19.685 19.685 0 0 0-8.805 2.875l1.89 3.816c-1.144.744-2.238 1.636-3.183 2.726l-3.483-2.428a17.535 17.535 0 0 0-2.586 3.866c-.747 1.437-1.244 2.874-1.642 4.361l4.029 1.339a16.842 16.842 0 0 0-.348 4.163l-4.178.694a19.498 19.498 0 0 0 2.885 8.773l3.83-1.884c.747 1.14 1.642 2.23 2.736 3.173l-2.437 3.47a17.58 17.58 0 0 0 3.88 2.576c1.443.744 2.885 1.24 4.378 1.636l1.343-4.015c1.393.298 2.786.397 4.179.347l.696 4.164a19.678 19.678 0 0 0 8.805-2.875l-1.89-3.817c1.144-.743 2.238-1.635 3.184-2.725l3.482 2.428zm-18.605-6.096c-3.781-1.933-5.274-6.493-3.333-10.26a7.637 7.637 0 0 1 10.297-3.321c3.781 1.933 5.273 6.493 3.333 10.26-1.94 3.717-6.566 5.204-10.297 3.32z" fill="#ADBBF9"/><path d="M279.576 95.56c-2.039 0-5.173-6.443-5.173-6.443l-8.109 6.047s2.587 8.03 6.964 13.135" fill="#F7471E"/><path d="M275.099 90.406l-8.258 6.196" stroke="#B22B19" stroke-width=".75" stroke-miterlimit="10"/><path d="M300.569 68.151c-.448-2.973-1.542-9.912-2.04-10.012-.497-.099-.696 1.537-.497 2.23-.299-1.238-1.194-4.014-1.742-4.014-.696.05.199 4.015.199 4.015s-1.193-4.312-1.84-4.114c-.448.149.348 3.47.448 4.758-.349-1.388-1.194-3.965-1.642-3.816-.448.148.099 2.775.398 4.56-.249-1.09-.945-3.47-1.343-3.321-.398.148.696 5.6 1.343 11.003" fill="#FFCBBD"/><path d="M299.176 95.858s1.791-6.443 2.338-13.68c.547-7.236-1.343-16.158-1.343-16.158l-6.467 2.28s1.89 12.59-3.482 26.418" fill="#FFCBBD"/><path d="M279.576 95.56s.398 1.14 2.637 1.24c2.885.149 4.477-1.24 4.477-1.24s8.606 1.14 9.302 10.459c.796 10.756.995 25.873.995 25.873h-26.763s.199-17.249.746-25.526c.547-7.831 8.606-10.805 8.606-10.805z" fill="#F7471E"/><path d="M295.942 107.209c3.234-8.377 4.378-14.77 4.378-14.77l-8.606-4.164s-2.04 5.7-5.025 7.236" fill="#F7471E"/><path d="M291.067 89.96l8.905 4.263M270.224 130.455h26.763M296.192 106.614s-1.094 2.329-1.194 3.469M272.96 100.468s-1.642 2.726-1.99 5.948M278.581 95.164s.448 3.123 3.93 3.123c4.278 0 5.124-3.123 5.124-3.123" stroke="#B22B19" stroke-width=".75" stroke-miterlimit="10"/><path d="M297.982 60.32c.05 0 .05.05 0 0 .05.1.1.149.15.248.099.198.199.446.248.694.1.248.15.496.15.694.049.198.049.347.049.347s-.099-.1-.199-.297a9.696 9.696 0 0 1-.298-.694 1.928 1.928 0 0 1-.149-.694v-.248c.049 0 .049-.05.049-.05z" fill="#EF977F"/><path d="M234.655 183.885l.448 14.672-.497 4.609-17.561-.099a.784.784 0 0 1-.796-.793c0-.347.199-.644.497-.744l7.86-3.568-1.193-15.266" fill="#FFCBBD"/><path d="M215.503 202.869c.199-.595.547-1.24.845-1.388l8.308-3.569c4.577 1.834 10.497.446 10.497.446l.447 6.245c0 .199-.149.397-.398.347l-19.65-.099c-.348.05-.099-1.933-.049-1.982z" fill="#18277A"/><path d="M222.865 198.309c.448.594.846 1.288 1.194 1.982M221.82 198.904c.498.644.697 1.04.945 1.685M220.925 199.399c.348.446.647 1.041.895 1.537M235.501 203.662l-20.098-.149M235.351 200.638s-4.676.05-5.074 2.974M218.04 200.787s1.343 1.883 1.592 2.775" stroke="#121649" stroke-width=".75" stroke-miterlimit="10"/><path d="M232.616 126.192s2.139 3.569 2.736 6.245c.995 4.263 0 8.624 0 8.624l-.05 51.3h-13.034s-2.885-59.131-1.592-66.813" fill="#0D219B"/><path d="M224.258 192.361s-2.885-59.131-1.591-66.813" stroke="#121649" stroke-width=".75" stroke-miterlimit="10"/><path d="M220.229 178.086l5.919 13.432 1.294 4.461-16.317 6.443c-.398.149-.896-.049-1.045-.446a.862.862 0 0 1 .199-.892l5.92-6.245-6.815-13.729" fill="#FFCBBD"/><path d="M209.583 202.869c-.05-.595.049-1.339.298-1.586l6.368-6.394c4.925 0 9.899-3.519 9.899-3.519l2.736 5.6c.1.199 0 .397-.199.496l-18.257 7.187c-.348.149-.845-1.784-.845-1.784z" fill="#0E32AE"/><path d="M214.707 195.88c.647.396 1.293.842 1.841 1.388M213.96 196.822c.696.446.995.743 1.492 1.189M213.313 197.565c.448.298.995.744 1.393 1.091M228.436 196.128l-18.705 7.335M227.144 193.402s-4.328 1.784-3.632 4.609M211.175 199.944s1.94 1.289 2.537 1.983" stroke="#121649" stroke-width=".75" stroke-miterlimit="10"/><path d="M210.13 134.568c-6.716 16.406-6.815 18.141-7.91 26.171-1.144 8.227 11.243 32.415 11.243 32.415l11.889-5.254s-7.909-22.155-7.362-25.922c.945-6.989 9.054-18.934 9.054-18.934s3.83-3.023 4.676-7.088c.846-4.014-.995-8.277-.995-8.277" fill="#0E32AE"/><path d="M222.367 136.501c.149-.049 5.323-1.685 5.323-1.685M233.76 133.329l1.691-.545M214.109 134.073s-8.307 17.942-9.402 26.17c-1.144 8.228 10.945 31.721 10.945 31.721M220.726 154.047c2.586-5.65 6.268-11.053 6.268-11.053s3.83-3.023 4.676-7.087" stroke="#121649" stroke-width=".75" stroke-miterlimit="10"/><path d="M208.986 93.925l3.432 5.898s-2.039 4.412-7.561 2.33l-1.393-3.123 5.522-5.105z" fill="#FFCBBD"/><path d="M199.932 89.96s-1.691 7.881 1.244 9.269c1.542.743 5.77.297 6.765-1.338.747-1.19.448-6.89-.447-7.534-3.483-2.677-7.562-.397-7.562-.397z" fill="#FFCBBD"/><path d="M207.344 87.63c-1.294-2.23-3.88-1.784-8.109.595-.547.298-1.791.446-1.791 1.09 0 .843.597 2.28 1.592 2.529.647.198.995.148 1.692-.05.895-.198 2.039.149 2.039 1.19 0 .247-.099.743.149.842.15.05.448 0 .597 0 .398 0 .597.496.548.892-.05.397.199.694.149 1.09-.1.942 1.045 1.934 1.99 2.033.845.05 3.233-.347 4.377-1.883.995-1.339.846-3.619-.796-6.99-.596-1.288-1.989-1.684-2.437-1.337z" fill="#212237"/><path d="M202.668 94.223c.249-1.24.945-1.388 1.492-1.041.747.446.597 2.23.299 2.676-.547.893-1.244 1.14-1.642.546" fill="#FFCBBD"/><path d="M203.712 99.526c.895-.743.746-2.082.746-2.082" stroke="#E88872" stroke-width=".5" stroke-miterlimit="10" stroke-linejoin="round"/><path d="M200.18 93.727c-.1.248-.149.694.05.843.049.05.149.05.199 0 .497-.298 0-1.438-.249-.843z" fill="#28364C"/><path d="M199.832 92.835c.348-.05.945 0 1.293.248" stroke="#28364C" stroke-width=".75" stroke-miterlimit="10"/><path d="M201.275 96.602l-1.294-.05s-.049 1.537.548 1.586c.696.05.746-1.536.746-1.536z" fill="#fff"/><path d="M211.622 98.485s2.985-.743 7.164.446c3.532 1.041 8.059 3.668 11.441 7.286 5.87 6.246 3.184 21.71 3.184 21.71l-7.661-.298s1.194-9.962-2.786-13.927c-4.029-4.015-9.651-4.907-9.651-4.907" fill="#ADBBF9"/><path d="M179.188 120.244c-2.388.644-9.651 1.438-9.751 1.933-.099.496 2.438.248 2.289.645-.15.396-4.08 1.04-4.08 1.536 0 .694 3.98-.149 3.98-.149s-1.641.298-1.442.892c.149.447.796.546 2.139.447-.697.148-.995.495-.846.941.149.446.846.397 1.592.298-.498.099-.896.446-.547.743.447.397 3.382.198 8.656-.694" fill="#FFCBBD"/><path d="M204.061 100.468s2.04.892 4.328 0c2.288-.892 3.234-1.983 3.234-1.983s5.123-.347 11.392 5.899c6.317 6.294 11.242 24.138 11.242 24.138l-25.918 8.673s-4.427-15.612-6.168-22.75c-1.741-7.137 1.89-13.977 1.89-13.977z" fill="#ADBBF9"/><path d="M222.666 102.748c5.174 6.047 11.591 25.773 11.591 25.773" stroke="#525BCE" stroke-width=".75" stroke-miterlimit="10"/><path d="M204.061 100.468c-3.432 1.289-6.317 4.61-8.158 7.98-2.935 5.551-4.726 9.616-4.726 9.616l-14.874 2.23.746 7.881s10.099-.298 18.108-1.487c5.721-.843 10.148-12.639 10.148-12.639" fill="#ADBBF9"/><path d="M203.066 100.914s1.642 2.181 5.572.694 4.079-3.271 4.079-3.271M203.414 118.113l1.642-3.42M178.641 119.947l.597 8.128M207.892 135.51l25.868-8.525" stroke="#525BCE" stroke-width=".75" stroke-miterlimit="10"/><path d="M106.011 113.9c.099.099.248.149.348.248 1.144.743 2.338 1.487 3.681 1.883.746.248 1.592.347 2.239.843.249.198.448.396.746.595.05.049.796.297.796.247.099.248.398.397.647.496.049 0 .049.05.099 0 .05 0 .05-.05.05-.05.099.199.448.248.547.149.1-.099-.149-.545-.149-.545s.199 0 .249-.05c.099-.099.099-.247.099-.347.1-1.189-.398-2.428-1.244-3.271" fill="#FFCBBD"/><path d="M114.269 116.378c0 .198.099.397.199.595.099.198.149.397.298.595.05.099.199.049.149-.05-.049-.248-.099-.446-.248-.644-.1-.198-.199-.397-.349-.496 0-.049-.049-.049-.049 0zM113.024 116.428c.448.495.896.941 1.294 1.487.049.049.149.049.099-.05-.199-.644-.845-1.041-1.293-1.487-.05-.099-.149 0-.1.05z" fill="#F49C8E"/><path d="M105.015 205l-8.855-89.911M139.44 205l-8.855-89.911H96.16M121.73 205l8.855-89.911" stroke="#0E32AE" stroke-miterlimit="10"/><path d="M87.356 205l8.805-89.911h34.424M137.998 192.262H88.6M136.853 181.258h-47.16M135.958 169.908h-45.17M134.864 159.152H91.833M133.819 147.901H92.927M132.724 136.749H94.022M131.431 126.192H95.066" stroke="#0E32AE" stroke-miterlimit="10"/><path d="M104.07 114.891h10.596c-.348-.595-.547-.991-.895-1.338a5.635 5.635 0 0 0-1.293-.991 11.71 11.71 0 0 0-5.323-1.289" fill="#FFCBBD"/><path d="M91.783 90.605s4.825 12.539 6.02 13.58c1.193 1.041 12.734 6.741 12.734 6.741l-3.532 7.435s-13.83-5.502-15.82-7.435c-1.989-1.933-8.307-9.368-8.904-16.901" fill="#E23917"/><path d="M82.529 172.585l-.498 13.481.398 4.263h16.168a.764.764 0 0 0 .746-.743.745.745 0 0 0-.497-.694l-7.214-3.321 1.144-14.027" fill="#FFCBBD"/><path d="M100.09 190.18c-.15-.545-.498-1.14-.796-1.288l-7.611-3.321c-4.229 1.685-9.651.347-9.651.347l-.448 5.749c0 .198.15.347.348.347H99.99c.348 0 .1-1.834.1-1.834z" fill="#F7471E"/><path d="M93.324 185.918a8.193 8.193 0 0 0-1.094 1.784M94.27 186.512c-.448.595-.647.942-.896 1.537M95.115 186.909c-.298.396-.597.942-.846 1.388M81.684 190.775h18.505M81.833 188.049s4.278.049 4.676 2.726M97.751 188.198s-1.244 1.734-1.492 2.528" stroke="#B22B19" stroke-width=".75" stroke-miterlimit="10"/><path d="M78.999 121.88s-1.542 6.889 1.79 15.216c0 0 1.642 8.724 1.742 18.686.15 10.161-1.244 23.097-1.244 27.955H94.57s1.642-13.779 1.791-27.657c.15-15.564-1.144-33.11-1.144-37.62" fill="#ADBBF9"/><path d="M92.58 183.687s1.64-14.027 1.79-28.053c.15-15.415-1.144-32.713-1.144-37.174" stroke="#525BCE" stroke-width=".75" stroke-miterlimit="10"/><path d="M105.015 161.631l-.497 13.482.398 4.262h16.167a.763.763 0 0 0 .746-.743.745.745 0 0 0-.497-.694l-7.213-3.321 1.144-14.027" fill="#FFCBBD"/><path d="M122.576 179.177c-.149-.545-.497-1.14-.796-1.289l-7.611-3.321c-4.229 1.686-9.701.397-9.701.397l-.447 5.749c0 .199.149.347.348.347h18.058c.348-.049.149-1.883.149-1.883z" fill="#F7471E"/><path d="M115.81 174.914a8.206 8.206 0 0 0-1.094 1.785M116.756 175.509c-.448.595-.647.942-.896 1.537M117.552 175.955c-.299.397-.597.942-.846 1.388M104.12 179.772h18.506M104.319 177.046s4.279.049 4.677 2.726M120.188 177.244s-1.244 1.735-1.493 2.528" stroke="#B22B19" stroke-width=".75" stroke-miterlimit="10"/><path d="M101.384 122.623s12.785 12.045 15.67 19.925c1.99 5.452-.895 30.483-.895 30.483h-12.735s1.542-22.751.746-25.08c-.945-2.776-11.89-12.193-11.89-12.193s-4.676-1.041-6.865-5.997c-1.99-4.461-1.044-9.864-1.044-9.864" fill="#ADBBF9"/><path d="M98.398 122.623s13.233 13.928 15.671 19.925c1.84 4.56-.896 30.483-.896 30.483M96.11 139.128c-.994-.892-2.736-2.478-3.283-2.924a3.946 3.946 0 0 0-1.144-.694c-1.293-.446-4.577-1.933-6.318-5.799M88.897 126.936s3.831.148 5.423 0M78.6 126.936h3.084" stroke="#525BCE" stroke-width=".75" stroke-miterlimit="10"/><path d="M124.168 92.042c1.343-.595 7.412-3.271 7.561-2.875.15.347-1.79 1.636-1.591 1.685.099.05 1.84-.396 2.686-.842.746-.397 2.039-.843 2.288-.546.398.595-3.83 2.578-3.83 2.578s.746-.347 1.144.099c.547.644-.597 1.289-.597 1.289s.647-.347.895.247c.249.595-.746 1.09-.746 1.09s.796-.396.896.348c.149.942-6.169 3.172-6.169 3.172" fill="#FFCBBD"/><path d="M93.375 85.945s-1.294.992-3.283.645c-2.04-.347-2.537-1.339-2.537-1.339s-5.373.744-8.01 17.348c-1.84 11.648-1.194 21.115-1.194 21.115h24.625s.746-25.328-.498-30.037" fill="#F7471E"/><path d="M95.315 98.138s7.313 8.03 14.078 8.03c6.816 0 19.601-7.187 19.601-7.187l-3.035-8.377-14.874 5.304s-7.81-7.286-11.442-8.624c-3.631-1.339-6.268-1.339-6.268-1.339" fill="#F7471E"/><path d="M103.175 104.284s-4.577-3.469-6.766-5.105M124.517 91.1l2.835 8.773M78.302 121.682h24.724M98.798 101.013c.249 7.038 0 22.701 0 22.701" stroke="#B22B19" stroke-width=".75" stroke-miterlimit="10"/><path d="M87.654 81.683l-.548 4.46s4.328 2.28 7.214-.148v-2.627l-6.666-1.685z" fill="#FFCBBD"/><path d="M93.523 74.644s5.075 6.345 3.234 8.724c-.945 1.239-4.08.942-5.621 0-1.095-.694-4.229-4.362-3.731-5.303 1.84-3.619 6.118-3.42 6.118-3.42z" fill="#FFCBBD"/><path d="M92.877 75.834c.1 2.577-.249 4.907-.249 4.907l-.398 8.376s-6.666.694-10.944-2.23c0 0 1.443-8.823 4.627-11.45 3.034-2.527 6.964-2.33 9.004-.693 0 0-.299.743-.647.941-.398.1-1.393.149-1.393.149z" fill="#4A1A1A"/><path d="M93.325 79.849c-.597-.793-1.095-.645-1.393-.248-.348.595.348 1.784.696 1.983.697.396 1.244.347 1.294-.199" fill="#FFCBBD"/><path d="M94.37 84.16c-.746 0-.945-.594-.945-.594" stroke="#E88872" stroke-width=".5" stroke-miterlimit="10" stroke-linejoin="round"/><path d="M94.867 77.866c.199.199.398.496.298.744-.05.05-.099.099-.149.099-.497-.05-.597-1.19-.149-.843z" fill="#28364C"/><path d="M94.817 77.024c-.497 0-.796.396-.945.743" stroke="#28364C" stroke-width=".5" stroke-miterlimit="10" stroke-linecap="round"/><path d="M95.265 81.138l1.144-.348s.447 1.388-.1 1.537c-.597.248-1.044-1.19-1.044-1.19z" fill="#fff"/><path d="M89.146 73.852c.447-.1.746-.595.746-1.041 0-.446-.299-.893-.746-1.09a1.794 1.794 0 0 0-1.343-.1c-.15.05-.349.1-.498.198-.597.447-.547 1.339-.15 1.933.15.248.399.447.697.496.299.05.896-.05 1.194-.248" fill="#4A1A1A"/><path d="M95.414 77.817c.15.05 1.443.644 1.492 1.19 0 .297-.746.644-.746.644M112.925 113.801c.796.842 1.045 1.685 1.393 2.379 0 .049.05.049.05.099 0 .149-.249.149-.398.099-.348-.149-.647-.297-.945-.545-.1-.099-.199-.198-.348-.248-.249-.149-.498-.149-.747-.198-1.044-.149-2.139-.644-2.686-1.586" fill="#FFCBBD"/><path d="M112.925 113.801s.1.099.249.297c.149.198.398.446.597.793l.299.595c.099.248.198.397.298.694v.099c0 .099-.05.149-.1.149-.099.049-.198.049-.248.049-.199 0-.299-.099-.448-.148-.249-.1-.497-.298-.696-.446-.199-.199-.398-.347-.647-.347-.249-.05-.547-.05-.796-.149a3.683 3.683 0 0 1-1.343-.595c-.348-.248-.597-.496-.697-.743a1.021 1.021 0 0 0-.149-.248c-.05-.05-.05-.099-.05-.099s.05.099.249.297c.149.198.398.397.746.644.348.199.796.397 1.294.496.248.05.497.05.796.099.149 0 .298.05.447.149.15.099.249.198.349.248a1.9 1.9 0 0 0 .646.446c.1.049.249.099.349.148h.099v-.049a9.622 9.622 0 0 1-.298-.694 5.073 5.073 0 0 1-.249-.595c-.199-.347-.348-.644-.498-.842-.099-.1-.199-.248-.199-.248z" fill="#E88872"/><path d="M28.206 184.629l-.448 14.126.448 4.461 16.913-.1c.448 0 .796-.346.747-.793a.745.745 0 0 0-.498-.693l-7.561-3.47 1.144-14.721" fill="#FFCBBD"/><path d="M46.712 202.968c-.2-.546-.498-1.19-.846-1.339l-8.01-3.42c-4.427 1.785-10.148.397-10.148.397l-.447 5.997c0 .199.149.347.348.347l18.904-.099c.447.05.199-1.883.199-1.883z" fill="#18277A"/><path d="M39.598 198.557a10.566 10.566 0 0 0-1.144 1.883M40.593 199.151c-.448.645-.647.992-.946 1.586M41.438 199.597c-.298.446-.646.992-.845 1.487M27.36 203.662l19.402-.1M27.56 200.836s4.477.05 4.875 2.826M44.225 200.936s-1.294 1.833-1.542 2.676" stroke="#5565AA" stroke-width=".75" stroke-miterlimit="10"/><path d="M29.799 134.023s9.004 16.803 11.84 27.36c2.835 10.557-.946 34.348-.946 34.348H26.714s2.786-25.823-.497-34.348c-3.284-8.525-15.123-30.978-15.123-30.978" fill="#ADBBF9"/><path d="M28.604 195.731s2.289-26.864.896-33.505c-1.393-6.642-11.094-22.106-11.094-22.106" stroke="#525BCE" stroke-width=".75" stroke-miterlimit="10"/><path d="M12.188 176.798l-8.308 11.35-2.238 3.866 13.73 9.863c.348.248.845.149 1.094-.198.2-.248.2-.595 0-.892l-4.03-7.187 9.154-11.895" fill="#FFCBBD"/><path d="M16.765 202.621c.199-.545.298-1.239.1-1.586l-4.428-7.484c-4.627-1.14-8.457-5.601-8.457-5.601L.1 192.559c-.1.149-.1.397.099.496l15.372 11.003c.248.248 1.144-1.437 1.194-1.437z" fill="#18277A"/><path d="M13.58 194.839c-.696.199-1.392.496-2.039.843M14.078 195.93a9.092 9.092 0 0 0-1.691.743M14.477 196.772c-.498.149-1.095.446-1.592.694M.696 191.865l15.77 11.301M2.537 189.635s3.632 2.676 2.288 5.155M15.919 199.498s-2.14.744-2.836 1.239" stroke="#5565AA" stroke-width=".75" stroke-miterlimit="10"/><path d="M7.362 130.405c-2.686 7.534 0 13.432 0 13.432s9.104 16.555 9.104 19.925c0 3.073-11.64 20.669-11.64 20.669l10.645 8.525s16.765-17.943 16.416-30.383c-.398-15.366-8.805-32.168-8.805-32.168" fill="#ADBBF9"/><path d="M9.352 130.901c-2.686 7.533.547 12.589.547 12.589s8.557 17.397 8.557 20.768c0 3.073-12.139 21.412-12.139 21.412M27.659 176.203c2.487-4.56 4.328-9.417 4.228-13.63-.398-15.366-8.805-32.168-8.805-32.168M8.457 136.799s4.776.297 6.616-3.519" stroke="#525BCE" stroke-width=".75" stroke-miterlimit="10"/><path d="M26.714 138.98s1.293.148 1.194-.496c-.1-.644-1.194-4.114-1.194-4.114" stroke="#525BCE" stroke-width=".75" stroke-miterlimit="10"/><path fill-rule="evenodd" clip-rule="evenodd" d="M32.733 90.456c.498 3.023.1 5.7-2.487 6.096-2.587.397-6.218-.347-6.915-4.659-.497-3.023 1.244-5.799 3.83-6.245 2.587-.347 5.124 1.784 5.572 4.808z" fill="#FFCBBB"/><path d="M30.644 90.505c-.05.298 0 .645.249.793.05.05.15 0 .199-.05.348-.396-.348-1.337-.448-.743z" fill="#28364C"/><path d="M29.799 89.811c.646-.347 1.244-.297 1.79-.099" stroke="#28364C" stroke-width=".5" stroke-miterlimit="10" stroke-linecap="round" stroke-linejoin="round"/><path d="M32.336 93.628h-1.692s-.1 1.388.746 1.537c.697.148.946-1.537.946-1.537z" fill="#fff"/><path fill-rule="evenodd" clip-rule="evenodd" d="M28.853 99.923s-2.04.347-3.93-.15c-2.238-.594-2.885-1.536-2.885-1.536l3.134-6.493 4.826 2.181-1.145 5.998z" fill="#FFCBBB"/><path d="M29.45 96.651s-2.089.05-3.183-.941" stroke="#EF977F" stroke-miterlimit="10"/><path fill-rule="evenodd" clip-rule="evenodd" d="M32.187 90.357s1.293 1.883 1.243 2.23c-.05.347-.995.496-.995.496" fill="#FFCBBB"/><path d="M25.222 94.669c-.299.099-.647.148-.896.198-.597.05-1.243 0-1.79-.297-.995-.546-1.642-1.686-1.394-2.826.05-.198.1-.347.1-.545.15-.842-.348-1.635-.497-2.528-.15-.842.1-1.685.547-2.379.447-.694 1.144-1.19 1.94-1.487.647-.248 1.293-.347 1.84-.793.25-.198.448-.446.747-.594 1.293-.794 3.134-.347 4.278.495.15.1.298.198.448.248.298.1.597-.05.845 0 1.095.198 1.592 1.834 1.592 2.825 0 .298-.1.595-.248.793-.25.347-.697.496-1.095.545-.597.05-1.194-.05-1.741.15-.398.098-.746.396-1.144.544-.597.248-1.294.199-1.84-.05.099.397.198.843.148 1.24-.1.793-.796 1.14-1.492 1.338.249.793.398 1.784.199 2.578-.15.247-.348.446-.547.545z" fill="#14122D"/><path d="M26.167 90.951s-.597-.743-1.343-.148c-.945.793.298 2.478 1.045 2.726.746.297.945-.545.945-.545" fill="#FFCBBB"/><path d="M61.488 123.962a16.789 16.789 0 0 0 4.626-6.295l-3.134-1.685c.448-1.091.697-2.231.846-3.42h3.581a17.543 17.543 0 0 0-1.144-7.683l-3.432 1.041a12.454 12.454 0 0 0-1.791-3.024l2.537-2.527a16.463 16.463 0 0 0-2.885-2.677 16.856 16.856 0 0 0-3.433-1.933l-1.691 3.123c-1.095-.446-2.239-.694-3.433-.843V94.47a17.723 17.723 0 0 0-7.71 1.14l1.044 3.42a12.49 12.49 0 0 0-3.034 1.785l-2.537-2.528a16.74 16.74 0 0 0-4.627 6.295l3.134 1.685c-.448 1.09-.696 2.23-.846 3.42h-3.581a17.536 17.536 0 0 0 1.144 7.682l3.432-1.04a12.448 12.448 0 0 0 1.791 3.023l-2.537 2.528a16.824 16.824 0 0 0 6.318 4.609l1.691-3.122c1.095.446 2.239.694 3.433.842v3.569a17.723 17.723 0 0 0 7.71-1.14l-1.044-3.42a12.514 12.514 0 0 0 3.035-1.784l2.537 2.528zm-14.526-7.683a6.353 6.353 0 0 1-1.344-8.823c2.09-2.775 6.02-3.37 8.855-1.338a6.353 6.353 0 0 1 1.343 8.823c-2.089 2.825-6.069 3.42-8.854 1.338z" fill="#ADBBF9"/><path d="M51.687 123.218c1.443.149 8.06.793 8.01 1.19-.05.396-2.289.495-2.19.693.1.298 1.792.546 2.737.595.846.05 2.238.248 2.238.645.05.694-4.626.396-4.626.396 0 .198 5.074-.595 5.174 0 .149.843-5.273 1.289-5.423 1.487 0 0 4.577-1.636 4.726-1.041.1.645-3.93 2.231-5.273 2.231 1.045-.199 4.179-1.983 4.278-1.537.1.446-2.686 1.636-3.134 1.735-3.681.595-7.462.248-7.462.248" fill="#FFCBBD"/><path d="M28.953 99.477s-1.443.693-3.582-.248c-2.338-.992-2.835-2.181-2.835-2.181S9.9 98.188 5.272 133.13l25.919 3.222s2.089-12.491 1.74-22.602c-.198-6.443-2.686-11.449-3.98-14.275z" fill="#0E32AE"/><path d="M21.342 113.503s3.98 13.284 14.775 16.159c9.6 2.577 17.063 2.527 17.063 2.527l1.044-8.971s-11.74-2.082-16.565-5.254c-3.682-2.428-4.378-10.161-5.323-12.936-1.294-3.817-3.383-5.601-3.383-5.601" fill="#0E32AE"/><path d="M21.541 97.345s.796 2.429 4.477 3.222c2.686.595 3.731-.198 3.731-.198M31.888 128.175s-9.8-4.511-10.347-17.299M52.035 122.822l-1.343 9.318" stroke="#121649" stroke-width=".75" stroke-miterlimit="10"/></g><defs><linearGradient id="paint0_linear" x1="86.049" y1="176.993" x2="231.123" y2="31.387" gradientUnits="userSpaceOnUse"><stop offset=".27" stop-color="#fff" stop-opacity=".1"/><stop offset="1" stop-color="#fff" stop-opacity=".3"/></linearGradient><linearGradient id="paint1_linear" x1="110.656" y1="173.963" x2="249.67" y2="34.439" gradientUnits="userSpaceOnUse"><stop offset=".27" stop-color="#fff" stop-opacity=".1"/><stop offset="1" stop-color="#fff" stop-opacity=".3"/></linearGradient><clipPath id="clip0"><path fill="#fff" d="M0 0h324v205H0z"/></clipPath></defs></svg>