<svg width="255" height="163" fill="none" xmlns="http://www.w3.org/2000/svg"><g clip-path="url(#clip0)"><path d="M64.5 163c35.621 0 64.499-1.277 64.499-2.852s-28.878-2.852-64.5-2.852S0 158.573 0 160.148 28.877 163 64.5 163z" fill="#DAE5EF"/><path d="M77.889 44.227s.3 5.804 3.647 5.604c0 0 1.549-.35 1.898-1.301.35-.95-2.198-1.701-2.198-1.701l-1.649-1.401" fill="#A0A7B5"/><path d="M89.08 149.392l.65 7.204c1.049.15 3.347.35 4.546.15.85-.15 1.549-.35 2.098-.6.9-.4 1.3-.751 1.3-.751l.15-6.303-7.195.3H89.08z" fill="#FFBEAE"/><path d="M89.53 149.492c2.497.6 6.794.75 6.794.75l.05 5.904c.9-.4 1.299-.751 1.299-.751l.15-6.303-7.195.3-1.099.1z" fill="#FFB1A9"/><path d="M97.623 155.396s-4.346 1.6-8.044.25c0 0-7.743 3.302-8.143 4.002-.4.751 15.937.4 16.437.3.5 0 .55-3.102-.25-4.552z" fill="#322C74"/><path d="M116.558 148.391l2.548 6.754c1.049-.1 3.347-.4 4.446-.85.8-.35 1.449-.701 1.899-1.051.749-.55 1.099-1.05 1.099-1.05l-1.649-6.104-6.944 1.901-1.399.4z" fill="#FFBEAE"/><path d="M117.008 148.391c2.598.05 6.794-.75 6.794-.75l1.699 5.653c.75-.55 1.099-1.05 1.099-1.05l-1.648-6.104-6.945 1.901-.999.35z" fill="#FFB1A9"/><path d="M126.6 152.244s-3.897 2.551-7.794 2.051c0 0-6.845 4.903-7.044 5.703-.2.801 15.587-3.152 16.087-3.352.5-.15-.15-3.152-1.249-4.402zM105.917 82.3c-.1.65-.2 1.451-.35 2.302-.2 1.4-.5 3.002-.749 4.753-.4 2.501-.9 5.303-1.349 8.105-.4 2.351-.8 4.703-1.149 6.904-.3 1.601-.55 3.152-.8 4.553-.699 4.052-1.149 6.904-1.149 6.904l-2.548 33.22c-3.947 1.151-8.693.351-8.693.351s-3.447-28.568-3.447-34.572c0-4.352.949-20.962 1.448-29.768.05-.75.1-1.45.1-2.051.15-2.151.2-3.452.2-3.452l17.337 2.601 1.149.15z" fill="#322C74"/><path d="M101.371 91.356s-3.198 16.56-4.697 24.815c-1.448 8.255-2.398 33.171-2.398 33.171" stroke="#1B1A56" stroke-width=".486" stroke-miterlimit="10" stroke-linecap="round"/><path opacity=".3" d="M103.419 97.46c-.7 4.102-1.399 8.205-1.949 11.457l-.799-14.509-.25-3.902s.949 1.6 1.299 2.901c.3.8.999 2.402 1.699 4.053z" fill="#242366"/><path d="M124.951 146.14c-3.397 2.201-8.393 2.301-8.393 2.301l-10.542-26.416c-1.349-3.352-2.298-6.904-2.748-10.506l-.949-7.155-1.898-14.509-.5-3.652 5.645-1.601 12.191-3.452.05 3.552.599 30.119 6.545 31.319z" fill="#322C74"/><path d="M111.862 83.802s-.599 18.261.999 30.068c1.599 11.807 8.693 33.42 8.693 33.42" stroke="#1B1A56" stroke-width=".486" stroke-miterlimit="10"/><path opacity=".3" d="M117.807 84.702c-.949.35-2.648 1.05-4.047 1.801-1.299.7-4.896 2.151-8.993 2.902-1.449.25-2.948.45-4.396.45-1 0-2.049-.05-2.998-.2-5.096-.75-9.043-3.552-10.292-4.603.05-.75.1-1.45.1-2.051h1.599c.15.05 8.243-.2 8.493-.2.1 0 3.447-.3 7.444-.65l1.099.15c-.1.65-.199 1.45-.349 2.301l12.19-3.452.15 3.552z" fill="#242366"/><path d="M90.928 47.33s-1.898.45-4.646.9c-.15 0-.25.05-.4.05-5.595.9-14.288 1.85-18.135-.5-.6-.3-1.55-.701-2.249-1.702-.05-.05-.1-.1-.1-.2-.25-.4-.599-1.1-.799-1.6-2.198-5.554-1.399-14.71-1-18.012.1-.7-.049-1.35-.399-1.951-.949-1.651-1.998-5.553-1.449-5.954.6-.5 1.45 1.751 1.65 2.452-.25-.85-1.35-4.603-.8-4.853.6-.3 1.998 4.403 2.048 4.653-.05-.25-1.499-6.404-.65-6.554.85-.1 1.999 5.503 2.099 6.103-.1-.55-.9-5.203-.05-5.003.9.2 1.249 3.502 1.549 4.753 0 .1.25.35.35-.1.15-.65.3-2.952.999-2.802.3.05.4 1.001.5 2.102.1 1.25.15 2.752-.2 4.102-.1.45-.3.9-.6 1.251-.5.6-.7 1.4-.55 2.151.45 3.202 3.098 11.508 3.697 13.108 1.3-.3 5.946-1.6 9.343-2.551 3.547-1 8.194-2.051 8.194-2.051l1.599 12.207z" fill="#F4A392"/><path d="M86.531 47.029s-.05.5-.2 1.2c-.15 0-.25.05-.4.05-5.595.901-14.288 1.852-18.135-.5-.6-.3-1.549-.7-2.248-1.7 0 0 4.846 3.451 15.987 1.45 0 0 1.2-1.901-.45-8.455-1.398-5.353 5.446 7.955 5.446 7.955z" fill="#F29788"/><path d="M128.499 58.886c-1.449 1.951-3.947 3.902-5.246 4.803l-.749.5-5.246-4.402 4.197-6.404 1.398-2.152c.8 1.001 1.949 2.552 2.998 4.003l.05.05c1.399 1.901 2.598 3.602 2.598 3.602z" fill="#F4A392"/><path d="M119.157 81.35s-.45.3-1.249.7c-3.198 1.852-12.241 6.454-19.934 5.654-9.593-.95-12.29-4.453-12.29-4.453l.948-33.72-5.096.3c.3-.15.5-.35.7-.7.65-1.102.8-3.103.55-4.904-.8-5.853-3.198-6.754-3.198-6.754s6.994-2.101 9.592-2.602c3.697-.7 20.984 3.002 23.082 4.203.15.1.3.25.45.4l2.398 18.562c.35 3.352 1.199 8.255 2.048 12.657a279.429 279.429 0 0 0 1.999 10.657z" fill="#C7CDDB"/><path d="M117.057 70.743c-2.248-7.104-3.897-14.308-3.996-14.608l1.948 1.95c.4 3.303 1.249 8.206 2.048 12.658z" fill="#BAC1D1"/><path d="M124.352 51.032c-2.648-2.952-9.892-9.806-11.741-11.508l2.398 18.562 2.399 1.8c6.944-2.8 6.944-8.855 6.944-8.855z" fill="#C7CDDB"/><path d="M94.476 20.212s-.55.55-.65 1.952c-.15 1.4 1.05 2.401 1.05 2.401l1.448-2.952" fill="#FFCF9F"/><path d="M105.217 38.374c.949 1.85-.949 3.902-2.698 4.352-1.848.5-6.395.95-8.343-.85l-.4-.4c-.85-1.201-.8-2.602-.3-3.703.4-.9 1.4-1.55 2.398-1.8l.05-.551c-1.099-.4-2.148-1.1-2.847-2.352-.75-1.3-.75-2.551-.55-3.602.1-.4.2-.75.35-1.1.2-.45.4-.901.55-1.351.3-.7.549-1.351.699-2.102 1.449-5.403 6.495-7.054 9.992-4.602 2.298 1.55 3.097 6.053.849 10.156l-.449.75c-.55 1.1-1.499 3.202-1.1 4.853.2.5.5.95.95 1.301 0 0 .05 0 .05.05.399.3.599.65.799.95z" fill="#F4A392"/><path d="M94.376 17.16s-1 3.903 1.448 5.704c1.45 1.05 6.545 1.1 7.095 1.901.55.8-.799 3.753-.5 4.003.3.2 1.449-2.452 2.349-1.551.699.7-1.05 6.053-1.05 6.053s1.249-.8 2.798-3.652c1.499-2.801 4.347-7.755.4-8.955-1.799-4.953-11.041-2.752-12.54-3.502z" fill="#FFCF9F"/><path d="M95.874 35.372s2.598.4 4.197-.45c0 0-1.998 2.1-4.297 2.251l.1-1.801z" fill="#F29788"/><path d="M93.776 29.968s1.649 1.201 3.647 1.552c0 0-.7 2-2.648 1.2-1.998-.8-.999-2.752-.999-2.752zM99.241 26.658c-.287-.1-.687.308-.894.909-.206.6-.141 1.168.146 1.267.287.099.687-.308.894-.91.206-.6.141-1.168-.146-1.266z" fill="#fff"/><path d="M99.019 27.1c-.209-.072-.502.23-.655.674-.152.444-.107.863.102.935.209.072.502-.23.654-.674.153-.444.108-.863-.101-.935z" fill="#A54B42"/><path d="M99.572 25.366c.449.1 1.149.5 1.349 1.15.199.65-1.75-.7-1.849-.9-.1-.25.15-.35.5-.25z" fill="#FFCF9F"/><path d="M95.568 25.041c-.287-.099-.687.308-.893.91-.207.6-.142 1.167.145 1.266.287.1.687-.308.894-.909.206-.6.141-1.168-.146-1.267z" fill="#fff"/><path d="M95.275 25.51c-.21-.073-.502.229-.655.673-.152.444-.107.863.102.934.208.072.501-.23.654-.673.153-.444.107-.863-.101-.935z" fill="#A54B42"/><path d="M95.174 23.715c.45 0 1.25.15 1.599.75.35.55-1.898-.25-1.998-.4-.1-.15.05-.35.4-.35z" fill="#FFCF9F"/><path d="M99.019 31.747c.623.224 1.332-.165 1.583-.867.251-.703-.052-1.453-.675-1.677-.624-.223-1.332.166-1.583.868-.251.703.051 1.453.675 1.676zM94.225 28.718c-.25.7-.949 1.05-1.598.85-.05 0-.15-.05-.2-.1.1-.4.2-.75.35-1.1.2-.45.4-.9.549-1.351.05 0 .1 0 .15.05.7.2 1 .95.75 1.65z" fill="#F79484"/><path d="M95.475 28.418s-.4.3-.5.6c-.05.3.3.7.7.85 0 0-.1-.05-.2-.15-.3-.3-.35-.75-.1-1.1.05-.1.05-.15.1-.2z" fill="#E58373"/><path d="M104.468 27.017s2.098-.1 1.649 2.101c-.4 2.001-1.999 2.652-2.948 1.851-.949-.8.35-3.952 1.299-3.952z" fill="#F4A392"/><path d="M104.318 28.418c-.15.3.15.75-.05 1s-.45.15-.55.4c-.099.25.3.45.9.1.449-.25.549-.85.499-1.25-.05-.5-.599-.7-.799-.25z" fill="#E58373"/><path d="M130.048 66.791c-.849 2.051-3.048 4.553-5.296 6.704-2.248 2.201-4.546 4.103-5.595 4.903-.95.75-.75 1.501-1.05 2.302-.549 1.3-1.548 2.401-2.098 2.3-.55-.1-.6-.5-.6-.5s-.499.1-.749-.15-.2-.4-.2-.4-.399 0-.649-.25c-.35-.3-.2-.7-.2-.7-.05 0-.65 0-.849-.45-.2-.45.249-1.051.299-1.101-.349.2-.999.25-1.049-.1-.05-.35 1.249-1.952 2.148-2.152.6-.1 1-.3 1.499-.7.2-.15.45-.45.6-.7.2-.25.3-.45.3-.45.799-1.502 1.898-3.553 2.947-5.504 1.599-3.002 3.098-5.654 3.098-5.654l.35-.9 2.997-8.055.05.05c.5.65 5.846 6.954 4.047 11.507z" fill="#F4A392"/><path d="M113.96 78.999c-.399.25-1.049.55-1.049.55l.05-.1s.3-.15.849-.55c.3-.2.75-.7.85-.55.1.1-.35.4-.7.65zM123.253 63.69l.35.35s-2.798 3.651-4.247 5.803c1.599-3.002 3.097-5.654 3.097-5.654l-5.096-4.302c4.347-1.751 5.946-4.753 6.595-6.754-.1.4-1.349 5.053-4.246 7.154l3.097 3.002.45.4zM102.37 42.826c-1.999.55-6.296.8-8.244-1 0 0 2.548 1.35 6.445.8 3.897-.55 4.646-2.802 4.596-4.302 1.049 2-1.049 4.052-2.797 4.502z" fill="#F29788"/><path d="M86.682 48.58l-.05.95-5.096.3c.3-.15.5-.35.7-.7.849-.1 3.347-.3 4.446-.55z" fill="#BAC1D1"/><path d="M101.72 50.731h6.095c.35 0 .65.25.65.6.05 1.151.15 3.653.05 4.853-.2 1.602-2.049 3.453-3.348 3.803-1.299.35-3.447-2.902-3.847-4.053-.299-.9-.149-3.652-.099-4.752 0-.25.249-.45.499-.45z" fill="#AAB2C1"/><path d="M37.37 149.392l-.998 7.204c-1.05.15-3.348.35-4.547.15-.85-.15-1.549-.35-2.098-.6-.9-.4-1.3-.751-1.3-.751l.25-6.303 7.195.3h1.499z" fill="#FFBEAE"/><path d="M36.97 149.492c-2.497.6-6.794.75-6.794.75l-.4 5.904c-.899-.4-1.299-.751-1.299-.751l.25-6.303 7.195.3 1.049.1z" fill="#FFB1A9"/><path d="M42.267 81.1s1.099 2.001-3.098 3.202c-4.197 1.2-4.746-5.904-4.746-5.904h3.997l3.247 1.401.6 1.3z" fill="#4185C9"/><path d="M15.838 149.892l-1.4 5.904c-1.448.2-3.546.65-5.045.45-.95-.1-1.699-.4-2.198-.65-.45-.201-.7-.401-.7-.401l.55-6.153 6.295.6 2.498.25z" fill="#FFBEAE"/><path d="M14.938 149.992c-2.747.4-7.094.05-7.094.05l-.65 5.554c-.45-.201-.699-.401-.699-.401l.55-6.153 6.295.6 1.598.35z" fill="#FFB1A9"/><path d="M6.495 155.195s4.346 1.601 8.044.25c0 0 7.743 3.302 8.143 4.003.4.75-15.937.4-16.437.3-.5 0-.55-3.052.25-4.553z" fill="#173751"/><path d="M28.128 81.6s-.1 1.25-.35 3.302c-.35 3.452-.95 9.106-1.599 15.06a303.4 303.4 0 0 1-.85 7.054c-.15 1.351-.349 2.701-.499 4.002-.45 3.602-.95 6.804-1.349 8.956-1.798 9.405-7.694 29.918-7.694 29.918-4.646.6-8.793-.851-8.793-.851s.75-12.607 2.898-29.167c-.2-11.207-1.15-28.568-1.549-35.372-.05-1.05-.1-1.851-.15-2.352 0-.35-.05-.55-.05-.55h19.985z" fill="#7E96BA"/><path d="M22.683 91.856s-1.05 18.762-2.748 27.717c-1.699 8.906-6.045 29.869-6.045 29.869" stroke="#657996" stroke-width=".486" stroke-miterlimit="10" stroke-linecap="round" stroke-linejoin="round"/><path opacity=".2" d="M26.18 99.961c-.4 3.753-.9 7.605-1.35 11.057-1.798-7.505-4.496-20.663-4.596-21.113l5.946 10.056z" fill="#6883AA"/><path d="M41.867 116.722c-.7 15.659-4.497 32.72-4.497 32.72-4.047.95-8.693-.351-8.693-.351s.2-24.565-.2-30.468c-.8-3.202-1.948-7.355-3.148-11.557-2.198-7.755-4.446-15.51-4.896-16.56-.6-1.451-1.049-2.952-1.399-4.303-.45-1.751-.7-3.402-.849-4.553 0-.2-.05-.35-.05-.55-.1-.9-.1-1.401-.1-1.401l21.883-5.153c.1.9.25 2.201.35 3.902.1 1.2.2 2.552.25 4.003.649 10.456 1.248 27.266 1.349 34.271z" fill="#7E96BA"/><path opacity=".2" d="M40.518 82.45c-2.548.15-7.594 1.451-12.74 2.452-3.048.6-6.145 1.1-8.743 1.25-.35 0-.7.05-1.05.05-5.445.1-8.443-1.05-9.642-1.7-.05-1.05-.1-1.851-.15-2.352l.8-.55 1.449-.95 7.694.45 1.798.1 20.334-2.702c.1 1.1.15 2.452.25 3.953z" fill="#6883AA"/><path d="M39.869 81.15s.35 9.155-3.597 10.706M35.173 80.6s2.398 23.514 2.848 35.221c.4 11.707-2.498 33.22-2.498 33.22" stroke="#657996" stroke-width=".486" stroke-miterlimit="10" stroke-linecap="round" stroke-linejoin="round"/><path d="M70.744 43.376c-.1.55-.2 1.051-.3 1.501-1.448 4.953-13.09 3.803-19.984 2.652-2.948-.5-5.046-.95-5.046-.95l1.749-12.408s3.497 1.05 6.944 2.251c3.298 1.1 7.544 2.352 8.793 2.652.2-1.701.7-8.856.4-12.108a2.73 2.73 0 0 0-1.05-1.95c-.349-.251-.649-.651-.898-1.101-.65-1.251-.95-2.702-1.15-3.953-.15-1.1-.3-2.001 0-2.151.65-.3 1.35 1.9 1.6 2.501.199.4.399.1.399 0 0-1.3-.4-4.603.4-5.003.749-.35 1.049 4.303 1.099 4.853 0-.6-.25-6.354.6-6.404.898-.1.898 6.254.898 6.504 0-.25.25-5.153.9-5.003.6.15.4 4.203.35 4.953.05-.6.35-3.202 1.049-2.852.6.3.5 4.303-.05 6.154-.2.65-.2 1.351.05 2.002 1.199 3.252 4.097 11.957 3.247 17.86z" fill="#FFBEAE"/><path d="M70.744 43.376c-.05.5-.2 1.001-.3 1.501-1.449 4.953-13.09 3.803-19.984 2.652.35-2.151 1.749-6.854 1.948-7.505.2-.75 1.949-3.452 1.949-3.452l3.297.9s1.1 3.603-.7 9.156c0 0 5.696.901 9.144.4 3.147-.45 4.396-2.6 4.646-3.652z" fill="#FFB1A9"/><path d="M15.838 54.383l-5.346 17.311s-.5-.8-1.1-2.001c-1.198-2.302-2.947-5.954-2.897-7.905.1-2.201 2.598-6.154 3.947-8.105.5-.7.8-1.15.8-1.15l.2.1 4.396 1.75z" fill="#FFBEAE"/><path d="M15.838 54.383l-5.346 17.31s-.5-.8-1.1-2c1.2-6.504 3.248-13.459 3.248-13.459-1-.7-2.248-2.551-2.248-2.551l.999-1.05 4.447 1.75z" fill="#FFB1A9"/><path d="M21.533 39.374l-1.299 5.904s-1.449 12.307-4.447 11.357c-.15-.05-.35-.1-.5-.2-.849-.3-1.698-.751-2.397-1.151a25.927 25.927 0 0 1-2.848-1.901c2.548-3.653 11.241-13.659 11.491-14.009z" fill="#5599E8"/><path d="M15.288 56.484c-.85-.3-1.699-.75-2.398-1.15.949-1.801 3.847-7.205 6.395-10.357 2.198-2.801-1.699 6.404-3.997 11.508z" fill="#498FC9"/><path d="M48.113 34.12c-1.2-.4-2.399-.6-3.648-.65-4.296-.2-14.588-.15-21.233 4.403C14.64 43.727 7.095 83.251 7.095 83.251s6.095 3.002 15.737 1.2c9.643-1.8 17.037-5.102 19.585-2.851 0 0-.4-5.353.3-11.357.949-8.355 2.947-19.012 3.297-22.164 0 0 4.796 1.151 8.493 1.151 0 0 4.097-6.004 3.098-11.707-3.597-1.451-7.394-2.752-9.492-3.402z" fill="#5599E8"/><path d="M43.866 25.616c-.05.25-.25.4-.55.45-.15 1.45-.5 2.752-.949 3.652-.2.45-.5.8-.75 1.05-1.548 1.252-3.247 1.402-4.696 1.101-2.298-.45-4.097-1.95-4.097-1.95-2.797-1.952-4.896-9.056-2.348-12.959 2.548-3.902 7.894-3.452 10.942-.25 1.449 1.551 2.048 4.403 2.048 7.205.15.5.45 1.3.4 1.7z" fill="#FFBEAE"/><path d="M42.367 29.768c-.2.45-.5.8-.75 1.051-1.549 1.25-3.247 1.4-4.696 1.1l.8-.9c-.05 0 2.547.55 4.646-1.25z" fill="#FFB1A9"/><path d="M30.276 25.966s1.499 5.203-1.1 9.105c1.25.7 3.848.65 6.096.05 1.998-.55 3.697-1.65 3.697-1.65s-1.149-2.352-.5-4.453" fill="#FFBEAE"/><path d="M28.478 155.395s4.346 1.601 8.044.25c0 0 7.744 3.302 8.143 4.003.4.75-15.937.4-16.437.3-.55 0-.55-3.102.25-4.553z" fill="#173751"/><path d="M43.416 12.908c-2.448-1.801-10.242-1.501-11.841 2.501h-.1c-1.199-.9-2.848-.5-2.848-.5.6.1 1.1.3 1.5.55-1.1.2-2.499.8-2.799 2.752-.35 2.502 1.849 6.804 2.848 9.356.15.4.45.65.85.75.799.25 1.898.35 3.846-.3.4-.15.7-.55.7-1-.05-2.752-.05-6.104 1.599-5.154.5.25.899 1.601 1.598 1.651 1.05.05.95-1.95 1.15-3.202.599-3.602 1.998-.95 3.597-2.301 1.548-1.35 1.848-3.702-.1-5.103z" fill="#20466B"/><path d="M31.425 15.81s-.7-1.251 0-3.452c0 0 .15 1.9.9 2.851" fill="#20466B"/><path d="M37.271 21.963s-1.149-1.45-2.448.05c-.7.851-.4 3.052.5 3.453.899.4 1.748 0 2.148-.65" fill="#FFBEAE"/><path d="M41.267 27.41c.742-.06 1.279-.933 1.198-1.952-.08-1.02-.748-1.798-1.49-1.74-.743.06-1.28.934-1.2 1.953.081 1.019.749 1.797 1.492 1.739z" fill="#FFA3A5"/><path d="M45.664 33.72s-3.847-.35-5.695 3.353c-1.799 3.702.35 9.255 5.545 10.856M41.217 45.028s-7.244 18.26-6.395 34.52" stroke="#4086CC" stroke-width=".486" stroke-miterlimit="10" stroke-linecap="round" stroke-linejoin="round"/><path d="M43.016 27.467s-.55 1.35-2.048.3c0 0 1.199.45 2.048-.3z" fill="#06131E"/><path d="M42.325 22.904c.274-.03.447-.521.384-1.098-.062-.577-.334-1.02-.609-.991-.274.03-.446.521-.384 1.098.062.577.335 1.02.61.991z" fill="#fff"/><path d="M42.4 22.858c.22-.024.359-.4.312-.839-.048-.44-.264-.776-.484-.753-.219.024-.359.4-.311.84.047.439.263.776.483.752zM41.568 19.562c-.35.15-.95.7-.95 1.3-.05.601 1.45-1 1.45-1.2 0-.2-.25-.25-.5-.1z" fill="#20466B"/><path d="M36.521 23.064c.05.3-.3.65-.15.9s.35.25.4.45c.05.201-.35.351-.85-.1-.349-.35-.299-.85-.199-1.25.15-.4.7-.5.8 0z" fill="#FF9692"/><path d="M194.147 163c33.608 0 60.852-1.277 60.852-2.852s-27.244-2.852-60.852-2.852-60.852 1.277-60.852 2.852S160.539 163 194.147 163z" fill="#DAE5EF"/><path d="M148.633 56.584s-2.498 7.105-2.898 8.606c-.399 1.45 4.897 8.305 4.897 8.305l2.098-6.704s1.599-2.702 1.549-2.902c-.05-.2-2.298-5.203-2.298-5.203" fill="#FFBEAE"/><path d="M173.863 39.074s1.998 2.251 1.199 2.901c-.749.6-2.548-.7-2.548-.7l-.15-.95.5-1.101" fill="#A35868"/><path d="M171.365 106.115c-1.249.25-2.598.5-3.946.65-1.249.15-2.449.25-3.648.35a87.256 87.256 0 0 1-7.744.151l-7.893-17.861-.9-4.453 5.446-1.15 9.043-1.902 5.246-1.1.45 2.4.699 4.003 2.898 16.31c.15.801.25 1.701.349 2.602z" fill="#7E96BA"/><path d="M167.418 106.765c-1.249.15-2.448.25-3.647.35l-1.749-10.706 1.749-8.155 3.098-2.001.549 20.512z" fill="#6A80A0"/><path d="M170.516 116.121l-6.795 26.116-1.598 6.754c-.8 0-3.398-.4-4.247-.7-.599-.2-.15-1.401-.5-1.601-.599-.4-.499-1.051-.499-1.051l.3-3.952c0-.15.299-8.856.549-16.31.2-5.654.35-10.607.35-10.607l.05-2.601-.25-.601-1.898-4.302c.799 0 1.748.05 2.847 0 2.448 0 5.496-.15 8.544-.501 1.349-.15 2.697-.35 3.947-.65.299 3.352.049 6.754-.8 10.006z" fill="#FFBEAE"/><path d="M168.517 65.54s-.949 5.854-1.099 8.305c-.1 1.3-.3 5.003-.3 5.003-8.893-.05-15.488-2.351-17.686-3.202-.499-.2-.799-.35-.799-.35l2.548-8.655 14.888-.95 2.448-.151z" fill="#FFD3CA"/><path d="M167.618 69.342s-6.695 3.553-15.838-.6l-2.348 6.904c-.499-.2-.799-.35-.799-.35l2.548-8.655 14.888-.95.4.25 1.149 3.401z" fill="#FFC9C0"/><path d="M186.604 37.973s-1.499 3.602 0 5.404c1.498 1.8 4.396 1.25 4.396 1.15 0-.1.05-2.051.1-2.051l-1.049-2.852" fill="#20466B"/><path d="M180.208 10.106c-.899-1.6-1.949-5.453-1.449-5.854.6-.5 1.399 1.752 1.649 2.402-.25-.85-1.349-4.503-.8-4.753.6-.3 1.949 4.303 1.999 4.553-.05-.25-1.499-6.304-.6-6.454.85-.1 1.949 5.403 2.049 6.004-.1-.55-.9-5.104-.05-4.903.899.2 1.199 3.452 1.499 4.702 0 .1.249.35.349-.1.15-.65.3-2.901.999-2.751.3.05.4 1 .45 2.051.1 1.2.15 2.702-.2 4.052-.1.45-.299.901-.599 1.251-.5.6-.65 1.351-.55 2.102.45 3.151 3.048 11.306 3.647 12.907.75 1.051 12.84 15.61 12.84 15.61l-10.491 6.204s-1.1-1.551-2.499-3.903c-.05-.1-.149-.25-.199-.35-1.799-2.952-5.396-9.105-6.645-13.058-2.149-5.453-1.399-14.459-.999-17.71.1-.751-.05-1.452-.4-2.002z" fill="#F4A392"/><path d="M183.306 11.607c.799-1.451 1.699-4.853 1.299-5.203-.55-.45-1.249 1.55-1.449 2.151.25-.75 1.199-4.002.699-4.203-.499-.25-1.748 3.853-1.798 4.053.05-.2 1.299-5.603.549-5.704-.749-.1-1.698 4.803-1.798 5.304.1-.5.799-4.503.05-4.353-.8.15-1.099 3.052-1.349 4.153 0 .1-.25.3-.3-.1-.15-.55-.25-2.602-.849-2.452-.25.05-.35.85-.4 1.801-.1 1.1-.1 2.402.2 3.552.1.4.25.8.55 1.101.449.5.599 1.2.499 1.901-.4 2.802-2.698 10.006-3.197 11.407-.65.95-10.292 14.259-10.292 14.259l7.294 4.553 7.994-15.11c1.898-4.802 2.398-12.507 2.048-15.46-.15-.55 0-1.15.25-1.65z" fill="#FFD3CA"/><path d="M247.706 137.284s-.4 1.251-.9 1.951c-.649 1.001-2.348 2.552-2.997 2.652l-5.696-3.852-4.946-1.601-16.587-12.508c1.949-1.751 5.646-5.303 8.743-9.606l13.44 13.809 8.943 9.155z" fill="#FFBEAE"/><path d="M247.706 137.284s-.4 1.251-.9 1.951c-.649 1.001-3.697 3.452-4.396 3.602l-9.293-6.403c1.399-1.501 5.296-6.354 5.646-8.306l8.943 9.156z" fill="#F6A866"/><path d="M247.306 137.084s-1.599 4.052-4.846 5.754c0 0-2.598 7.404-2.298 8.155.25.75 10.242-10.807 10.492-11.207.249-.401-1.849-2.352-3.348-2.702zM209.235 109.817c.25-1.401.5-2.902.75-4.503.349-2.151.749-4.452 1.149-6.804.449-2.752.899-5.453 1.299-7.955.299-1.7.549-3.302.749-4.703.15-.85.25-1.6.35-2.25l-1.099-.151-17.037-2.552s-.1 1.301-.2 3.403c-.05.6-.1 1.3-.1 2.05-.499 8.606-1.449 24.966-1.449 29.269 0 1.751-.399 5.453 0 9.806 2.698.25 8.294.5 13.74 0l.699-8.856s.5-2.751 1.149-6.754z" fill="#322C74"/><path d="M209.386 97.61s-2.199 11.257-3.148 16.31c-.15.75-.25 1.501-.3 2.251-.1 1.801-.299 5.404-.249 8.005" stroke="#1B1A56" stroke-width=".486" stroke-miterlimit="10"/><path d="M207.437 125.427l-1.299 18.961-.8 11.758s-1.698.95-3.247 1.05c-1.199.05-2.348-.4-2.898-.85 0 0-2.398-4.953-3.097-11.507-.7-6.454-1.999-14.309-2.498-19.412 2.748.25 8.343.55 13.839 0z" fill="#FFBEAE"/><path d="M206.138 144.438l-.8 11.758s-1.698.95-3.247 1.05c-1.199.05-4.097-.85-4.646-1.25 0 0-.7-5.504-1.349-11.107 1.648.15 6.195.2 10.042-.451z" fill="#F6A866"/><path opacity=".3" d="M211.134 98.56c-.649 4.003-1.349 8.055-1.898 11.257l-.75-14.258-.25-3.853s.95 1.551 1.299 2.852c.2.8.9 2.401 1.599 4.002z" fill="#242366"/><path d="M225.323 113.52l-.05-27.517-.05-3.502-11.991 3.402-5.545 1.55.449 3.603 1.849 14.258s1.349 7.255 2.798 13.159c.549 2.351 2.048 4.402 4.096 5.703l1.249.801c2.948-1.001 8.244-5.254 9.493-8.306l-2.298-3.151z" fill="#322C74"/><path d="M219.977 84.001s.499 19.412 1.149 25.816c.649 6.404 3.797 9.306 3.797 9.306" stroke="#1B1A56" stroke-width=".486" stroke-miterlimit="10"/><path opacity=".3" d="M225.273 86.003c-.949.35-2.598 1-3.947 1.75-1.249.701-4.846 2.102-8.843 2.853-1.399.25-2.898.45-4.297.45-.999 0-1.998-.05-2.947-.15-5.046-.75-8.843-3.503-10.093-4.503.05-.75.1-1.401.1-2.051h1.549c.15.05 8.094-.2 8.344-.2.1 0 3.397-.3 7.344-.65l1.099.15c-.1.65-.2 1.4-.35 2.25l11.991-3.401.05 3.502z" fill="#242366"/><path d="M234.066 62.188c-1.899 1.451-4.846 2.352-6.245 2.852-.5.2-.849.25-.849.25l-3.698-5.603 5.746-4.904-.949-4.452c.2.45 3.397 4.853 4.396 6.904 1.149 2.452 1.599 4.953 1.599 4.953z" fill="#F4A392"/><path d="M186.604 43.376c.799.6 2.797.25 3.647-.25 4.046-2.501 4.246-8.605 3.847-11.307l1.548 1.601c5.196 5.253 22.383 6.654 24.181 7.755.15.1.3.25.45.4l2.348 18.211c.35 3.252 1.199 8.105 1.999 12.458a731.15 731.15 0 0 0 2.048 10.406s-.45.3-1.199.701c-3.148 1.801-11.991 6.354-19.635 5.553-9.442-.95-12.09-4.402-12.09-4.402l.849-29.118-7.993-12.008z" fill="#5599E8"/><path d="M224.523 72.294c-2.198-6.954-3.847-14.058-3.897-14.408l1.898 1.9c.4 3.303 1.2 8.156 1.999 12.508z" fill="#498FC9"/><path d="M231.718 54.984c-2.048-3.302-9.742-12.758-11.691-13.609l1.499 18.812 1.999 2.151c7.144-1.5 8.193-7.354 8.193-7.354z" fill="#5599E8"/><path d="M212.683 32.72c-.15.25-.3.5-.4.75-.4.751-.949 2.002-1.099 3.203 0 0-.2 1.5-.05 3.352-.55.05-1.249.05-1.998.05-2.598-.1-5.446-.75-5.446-.75l.05-1.502v-.3c-1.099-.35-2.099-1.05-2.798-2.301-.749-1.251-.749-2.502-.5-3.553.1-.4.2-.75.35-1.05.2-.45.4-.9.55-1.351.249-.65.499-1.35.699-2.051 1.449-5.304 6.395-6.905 9.842-4.503 2.199 1.55 2.998 6.004.8 10.006z" fill="#F4A392"/><path d="M214.731 29.818s-.75 2.102-1.699 3.552c-.949 1.451-1.499 3.002-1.848 2.952-.35-.05.399-2.251.999-3.252.599-1 1.249-2.201 1.049-2.651-.2-.45-1.049-1.051-1.499-.7-.45.4-1.099 1.45-1.399 1.35-.3-.1.25-2.201.1-2.651-.15-.45-.599-.15-1.049-.45-.45-.301-.7-1.502.1-1.852.799-.35 2.948.25 2.948.25s1.698 1.301 1.748 1.501c.05.25.55 1.951.55 1.951z" fill="#873A20"/><path d="M203.69 37.523s2.548.4 4.146-.45c0 0-1.998 2.051-4.196 2.251l.05-1.801z" fill="#F29788"/><path d="M201.641 32.22s1.599 1.2 3.598 1.5c0 0-.65 1.952-2.598 1.151-1.949-.75-1-2.651-1-2.651z" fill="#fff"/><path d="M207.337 27.667c.4.1 1.149.5 1.299 1.1.2.601-1.698-.7-1.798-.9-.1-.2.15-.3.499-.2z" fill="#873A20"/><path d="M202.99 26.066c.45 0 1.199.15 1.549.7.35.55-1.848-.25-1.948-.4-.15-.15.1-.3.399-.3z" fill="#20466B"/><path d="M206.79 33.944c.623.224 1.325-.144 1.566-.82.241-.677-.068-1.406-.692-1.63-.623-.223-1.325.145-1.566.821-.242.677.068 1.406.692 1.63zM202.091 30.969c-.249.7-.949 1.05-1.548.85-.05 0-.1-.05-.2-.1.1-.4.2-.75.35-1.1.199-.45.399-.9.549-1.351.05 0 .1 0 .15.05.649.25.949.95.699 1.65z" fill="#F79484"/><path d="M203.34 30.719s-.4.3-.449.6c-.05.3.299.7.649.85 0 0-.1-.05-.2-.15a.84.84 0 0 1-.1-1.1c0-.1.05-.15.1-.2z" fill="#E58373"/><path d="M212.133 29.368c.55-.25 2.098-.2 1.649 2.001-.4 1.952-1.949 2.602-2.898 1.801-.899-.75.2-3.302 1.249-3.802z" fill="#F4A392"/><path d="M212.034 30.719c-.15.3.15.75-.05 1s-.45.15-.55.4c-.1.251.3.451.9.1.449-.25.499-.85.499-1.25-.05-.55-.599-.75-.799-.25z" fill="#E58373"/><path d="M164.92 39.624l-1.698 1.351s.849.85 1.499.4c.699-.4.199-1.75.199-1.75z" fill="#fff"/><path d="M164.721 28.567s.15 2.402 1.149 4.203c.999 1.801 2.448 5.153 1.798 6.704-.649 1.601-4.146 3.302-8.893.25-2.698-1.7-3.447-8.805-2.248-11.157 1.199-2.351 7.544-3.052 8.194 0z" fill="#FFD3CA"/><path d="M165.62 32.37s1.449 1.65 1.898 2.15c.45.501-.949 1.302-.949 1.302l-1.149-1.301" fill="#FFD3CA"/><path d="M164.281 37.221c.562-.231.787-.978.504-1.668-.284-.69-.969-1.061-1.53-.83-.562.231-.787.978-.503 1.668.283.69.968 1.062 1.529.83z" fill="#FFA3A5"/><path d="M165.021 32.62s-.5-.6-1.249-.2c-.65.35-.55 1.15-.45 1.25.05.1-.05-.6.6-.95.449-.25.799.1.899.2.25.1.35-.15.2-.3zM164.52 31.42s-.649-.201-1.249.25c-.549.4-.899 1.3-.899 1.3s.6-.85 1.349-1.25c.45-.3.799-.3.799-.3z" fill="#20466B"/><path d="M205.239 155.695s-4.197 1.551-7.744.25c0 0-7.444 3.152-7.794 3.853-.35.7 15.288.35 15.788.3.449-.05.499-3.002-.25-4.403z" fill="#322C74"/><path d="M224.524 65.64c-1.849-1.15-3.997-3.552-5.846-6.053-1.848-2.502-3.347-5.004-4.046-6.154-.6-1-1.399-.9-2.099-1.351-1.199-.75-2.098-1.851-1.948-2.352.15-.55.549-.5.549-.5s-.05-.5.25-.75.45-.15.45-.15.05-.4.299-.6c.35-.301.75-.1.75-.1 0-.05.1-.651.549-.801.45-.15 1 .4 1.05.45-.1-.4-.1-1 .249-1.05.35 0 1.749 1.5 1.799 2.4 0 .601.15 1.051.5 1.602.15.2.399.5.599.7.2.2.4.35.4.35 1.349.951 3.197 2.302 4.946 3.603 2.698 2 5.096 3.802 5.096 3.802l1.948 1.15 2.449-2.55s3.147 6.853 1.249 8.855c-2.199 2.3-5.146 2.05-9.193-.5z" fill="#F4A392"/><path d="M214.831 48.33c-.2-.45-.399-1.101-.399-1.101l.1.1s.099.3.449.9c.2.3.6.801.45.901-.25.05-.4-.4-.6-.8z" fill="#F29788"/><path d="M214.731 29.818s-6.495-4.653-11.691-5.453c0 0 2.448-5.654 7.994-3.552 6.395 2.401 3.697 9.005 3.697 9.005z" fill="#20466B"/><path d="M211.733 27.917s-4.346-.05-7.943-.95c-3.548-.901-5.096-3.453-.6-2.952 4.796.55 8.543 3.902 8.543 3.902z" fill="#5599E8"/><path d="M205.988 29.468s.5-.6 1.249-.2c.65.35.55 1.15.45 1.25-.05.1.05-.6-.599-.95-.45-.25-.8.1-.9.2-.25.1-.349-.15-.2-.3zM202.341 27.667s.5-.6 1.249-.2c.649.35.55 1.15.45 1.25-.05.1.05-.6-.6-.95-.45-.25-.799.1-.899.2-.25.15-.35-.1-.2-.3z" fill="#873A20"/><path d="M205.489 40.075s-.25 5.903 0 13.107" stroke="#4086CC" stroke-width=".486" stroke-miterlimit="10" stroke-linecap="round" stroke-linejoin="round"/><path d="M206.487 42.326a.35.35 0 1 0 0-.7.35.35 0 0 0 0 .7zM206.487 46.478a.35.35 0 1 0 0-.7.35.35 0 0 0 0 .7zM206.487 50.731a.35.35 0 1 0 0-.7.35.35 0 0 0 0 .7z" fill="#4086CC"/><path d="M168.917 34.671s4.396 6.954 6.145 7.255c0 0-5.546 8.305-8.993 11.206-3.597 3.002-11.041-8.255-7.044-9.856 4.546-1.75 9.892-8.605 9.892-8.605z" fill="#CA7988"/><path d="M168.218 69.142s-8.993 3.102-17.536-2.151l5.445-26.366 13.889 2.901-1.099 2.702s1.199 4.553 2.199 7.755c.999 3.252-1.899 8.055-2.898 15.16z" fill="#CA7988"/><path d="M161.673 38.974c-.4-.45-.8-1.351-1-1.901-.499-1.301-.899-2.902-.15-4.053.75-1.15 2.249-1.45 3.248-2.301.899-.75 1.349-1.901 1.299-3.052-.05-.5-.15-.95-.4-1.351-.399-.85-1.249-1.35-2.148-1.5-4.996-.901-9.693 1-12.141 3.501-1.848 1.901-2.398 5.404-1.598 7.955.15.5.399 1 .449 1.501.35 1.901-.899 3.652-2.198 5.053-1.299 1.401-2.848 2.702-3.397 4.503-.55 1.851.1 4.002 1.598 5.203.4.3.85.6 1.249.9.8.751 1.2 1.852 1.1 2.953-.4 6.253 7.594 3.252 9.592 1.8 6.095-4.452 9.792-13.558 4.497-19.211z" fill="#20466B"/><path d="M150.582 104.164l2.148 9.756-18.835 14.359v.05l-3.447 2.151s-.1.4 0 1.101c.05.4.15.95.399 1.551.35.85 1.299 2.201 1.799 2.801l4.796-2.301 24.231-11.457c1.949-.951 3.298-2.852 3.448-5.003l.999-11.958c-7.295.651-12.79-.35-15.538-1.05z" fill="#FFD3CA"/><path d="M167.119 78.848l-.999 26.417c-7.295.65-12.741-.401-15.488-1.051l-2.648-12.108-.1-.45-.7-3.252-.649-2.852c-.6-2.701-.2-5.053.4-6.804.699-2.151 1.748-3.402 1.748-3.402 6.795 2.802 18.436 3.502 18.436 3.502z" fill="#7E96BA"/><path d="M133.795 142.287c-.65.701-6.196-9.956-6.345-10.306-.15-.35 1.798-1.501 2.997-1.551 0 0 .6 3.352 2.848 5.203 0 0 .799 6.304.5 6.654zM164.171 155.195c.749.45-1.998-6.454-1.998-6.454-3.348-.8-5.246-3.802-5.246-3.802-1.149.45-2.299 2.251-2.049 2.551 0 0 6.645 6.104 9.293 7.705z" fill="#322C74"/><path d="M160.174 79.599s.3 14.809 0 25.365M163.221 79.849s.4 6.604-2.997 8.605" stroke="#6A80A0" stroke-width=".508" stroke-miterlimit="10" stroke-linecap="round"/><path d="M152.081 80.95s-.15 7.304-1.399 8.905c-.7.85-1.849 1.7-2.748 2.251l-.1-.45-.699-3.252-.65-2.852c-.599-2.701-.2-5.053.4-6.804.749.65 2.248 1.601 5.196 2.201z" fill="#8DA5C6"/></g><defs><clipPath id="clip0"><path fill="#fff" d="M0 0h255v163H0z"/></clipPath></defs></svg>