<svg width="513" height="513" fill="none" xmlns="http://www.w3.org/2000/svg"><g clip-path="url(#clip0)" fill="#1E81CE"><path d="M362.684 192.034H149.35c-5.888 0-10.667 4.779-10.667 10.667v170.667c0 25.771 18.347 47.296 42.667 52.267v54.4c0 17.643 14.357 32 32 32s32-14.357 32-32v-53.333h21.333v53.333c0 17.643 14.357 32 32 32s32-14.357 32-32v-54.4c24.32-4.949 42.667-26.496 42.667-52.267V202.701a10.657 10.657 0 0 0-10.666-10.667zM311.846 56.845l17.984-41.963c2.325-5.42-.192-11.67-5.611-13.995-5.355-2.347-11.691.17-13.995 5.61L292.24 48.483c-11.413-3.712-23.573-5.781-36.203-5.781-12.629 0-24.789 2.069-36.203 5.78L201.809 6.499c-2.304-5.44-8.64-7.98-13.995-5.611-5.419 2.325-7.915 8.597-5.589 13.995l17.984 41.963c-36.629 19.883-61.525 58.688-61.525 103.189 0 5.888 4.779 10.667 10.667 10.667h213.333c5.888 0 10.667-4.779 10.667-10.667-.001-44.501-24.897-83.306-61.505-103.19zm-98.496 71.189c-5.888 0-10.667-4.779-10.667-10.667s4.779-10.667 10.667-10.667 10.667 4.779 10.667 10.667-4.779 10.667-10.667 10.667zm85.334 0c-5.888 0-10.667-4.779-10.667-10.667s4.779-10.667 10.667-10.667 10.667 4.779 10.667 10.667-4.779 10.667-10.667 10.667zM426.684 192.034c-17.643 0-32 14.357-32 32v106.667c0 17.643 14.357 32 32 32s32-14.357 32-32V224.034c0-17.642-14.357-32-32-32zM85.35 192.034c-17.643 0-32 14.357-32 32v106.667c0 17.643 14.357 32 32 32s32-14.357 32-32V224.034c0-17.642-14.357-32-32-32z"/></g><defs><clipPath id="clip0"><path fill="#fff" d="M0 0h512.034v512.034H0z"/></clipPath></defs></svg>