<svg width="926" height="252" fill="none" xmlns="http://www.w3.org/2000/svg"><path fill-rule="evenodd" clip-rule="evenodd" d="M272.375 186.345V72.178h14.65l69.63 91.878V72.178h13.927v114.167h-14.65l-69.631-92.783v92.783h-13.926zm211.605-4.53c-9.223 3.443-19.171 5.255-29.66 5.255-41.236 0-61.854-19.752-61.854-59.439 0-37.512 19.894-56.359 59.683-56.359 11.394 0 22.065 1.631 31.831 4.712v12.685c-9.766-3.805-19.894-5.618-30.203-5.618-31.108 0-46.662 14.86-46.662 44.217 0 31.714 15.373 47.48 45.938 47.48 4.884 0 10.309-.725 16.278-1.994v-38.237h14.649v47.298zm23.512-39.505V72.178h14.65v70.132c0 21.927 10.851 32.981 32.735 32.981 21.703 0 32.736-11.054 32.736-32.981V72.178h14.649v70.132c0 29.901-15.734 44.942-47.385 44.942-31.65 0-47.385-15.041-47.385-44.942zm135.645-70.132v102.207h59.683v11.96h-74.333V72.178h14.65zm80.844 114.167h-15.373l56.609-129.208 56.609 129.208h-16.278l-14.649-35.881H753.28l3.979-11.96h28.757l-21.342-51.647-40.693 99.488zm113.58 0V72.178h48.651c21.703 0 32.554 9.061 32.554 27.364 0 14.86-10.67 25.914-31.831 32.982l39.066 53.821h-19.352l-36.172-51.284v-9.605c21.703-3.443 32.735-11.779 32.735-25.189 0-10.51-5.968-15.766-18.085-15.766h-32.555v101.844h-15.011z" fill="#B52E31"/><path fill-rule="evenodd" clip-rule="evenodd" d="M0 41.734L116.654.054 236.383 41.01l-19.352 154.579-100.377 55.634-98.749-54.909L0 41.734z" fill="#E23237"/><path fill-rule="evenodd" clip-rule="evenodd" d="M236.383 41.009L116.654.054v251.168l100.377-55.634 19.352-154.58z" fill="#B52E31"/><path fill-rule="evenodd" clip-rule="evenodd" d="M116.834 29.41L44.129 191.42l27.129-.544 14.65-36.606h64.928l15.916 36.968 25.862.544-75.78-162.371zm.181 52.01l24.597 51.466H95.493l21.522-51.466z" fill="#fff"/></svg>