<svg width="288" height="355" fill="none" xmlns="http://www.w3.org/2000/svg"><path d="M286.33 245.942a7.381 7.381 0 0 0-5.207-3.304c-28.086-3.668-47.88-29.41-44.212-57.496a51.288 51.288 0 0 1 35.584-42.318 7.375 7.375 0 0 0 3.967-10.989A86.066 86.066 0 0 0 214.38 88.5a121.49 121.49 0 0 0-38.631 8.274 93.236 93.236 0 0 1-27.745 6.475 93.243 93.243 0 0 1-27.745-6.475 121.485 121.485 0 0 0-38.63-8.274C54.091 88.5.504 127.543.504 199.125c0 68.027 49.619 154.876 88.5 154.876a94.134 94.134 0 0 0 42.776-9.854 40.502 40.502 0 0 1 16.225-4.897 40.507 40.507 0 0 1 16.225 4.897 94.134 94.134 0 0 0 42.776 9.854c30.827 0 65.623-52.924 80.195-101.967a7.384 7.384 0 0 0-.871-6.092zM140.628 88.5c44.784-.049 81.077-36.34 81.126-81.125A7.375 7.375 0 0 0 214.379 0c-44.784.05-81.077 36.341-81.125 81.125a7.374 7.374 0 0 0 7.374 7.375z" fill="#1E81CE"/></svg>