<svg width="60" height="60" fill="none" xmlns="http://www.w3.org/2000/svg"><g clip-path="url(#clip0)"><path d="M58.525 56.066v-7.87h-7.87l-2.95 2.952h7.869v7.868l2.95-2.95zM58.525.984h-7.87l-2.95 2.95h7.869v7.87l2.95-2.952V.984zM46.722 36.394V18.689h-13.77V5.902H5.41v47.213h27.541v-9.836h-10.82V25.574h17.705v17.705l6.886-6.886zm-32.46-5.902a3.935 3.935 0 1 1 0-7.87 3.935 3.935 0 0 1 0 7.87zm-.983-21.64a3.935 3.935 0 1 1 0 7.87 3.935 3.935 0 0 1 0-7.87zm-.984 38.361a3.935 3.935 0 1 1 0-7.87 3.935 3.935 0 0 1 0 7.87z" fill="#78B9EB"/><path d="M32.95 33.443a1.973 1.973 0 0 0-1.966-1.967h-3.935a1.982 1.982 0 0 0-1.967 1.967 1.974 1.974 0 0 0 1.967 1.967h1.968a1.973 1.973 0 0 0 1.967 1.967h3.934a1.982 1.982 0 0 0 1.967-1.967 1.973 1.973 0 0 0-1.967-1.967h-1.967z" fill="#78B9EB"/><path d="M27.05 36.394h1.164a2.951 2.951 0 0 0 2.77 1.967h3.934a2.951 2.951 0 0 0 0-5.902h-1.164a2.951 2.951 0 0 0-2.77-1.967h-3.935a2.951 2.951 0 0 0 0 5.902zm8.852-.984c0 .543-.44.984-.984.984h-3.934a2.951 2.951 0 0 0 2.77-1.968h1.164c.544 0 .984.44.984.984zm-8.853-2.951h3.935a2.951 2.951 0 0 0-2.77 1.967H27.05a.984.984 0 0 1 0-1.967zM17.213 55.082h3.934v1.967h-3.934v-1.967z" fill="#1A6FB0"/><path d="M51.64 25.574c.543 0 .983-.44.983-.984V12.787h2.951a.98.98 0 0 0 .697-.29l2.95-2.95a.984.984 0 0 0 .288-.695V.984h-.01a.98.98 0 0 0-.065-.377.984.984 0 0 0-.909-.607h-7.869a.984.984 0 0 0-.695.288L47.01 3.24a.979.979 0 0 0-.288.695v7.87c0 .543.44.983.983.983h2.951v10.82h-2.95v-4.918a.984.984 0 0 0-.984-.984h-8.853V3.935A2.95 2.95 0 0 0 34.92.983H3.442a2.951 2.951 0 0 0-2.95 2.95V57.05A2.95 2.95 0 0 0 3.442 60h31.475a2.95 2.95 0 0 0 2.951-2.95V44.261h1.967a.98.98 0 0 0 .697-.289l6.885-6.885a.983.983 0 0 0 .287-.695v-2.95h4.918v13.77h-1.967a.984.984 0 0 0-.695.288l-2.951 2.951a.979.979 0 0 0-.288.696v7.868c0 .544.44.984.983.984h7.87a.98.98 0 0 0 .696-.29l2.95-2.95a.984.984 0 0 0 .288-.694v-7.87h-.01a.958.958 0 0 0-.974-.983h-3.934V32.46a.984.984 0 0 0-.984-.984h-5.902v-5.901h3.935zm4.918-16.145V4.342l.983-.984v5.087l-.983.984zm-5.495-7.462h5.087l-.983.984H50.08l.983-.984zM48.69 4.918h5.901v5.902H48.69V4.918zm5.901 53.115H48.69V52.13h5.901v5.902zm1.968-1.391v-5.087l.983-.984v5.087l-.983.984zm-1.391-6.478H50.08l.983-.984h5.087l-.983.984zM39.429 24.59H24.95c1.046-1.019 2.494-2.567 4.52-4.918h14.878L39.43 24.59zM20.604 44.36l-3.455-1.726a4.918 4.918 0 1 0-.184 2.107l2.216 1.113v3.326c0 .544.44.984.983.984h6.886c.543 0 .983-.44.983-.984v-4.918h3.935v7.87H6.394V6.884h25.574v10.82h-2.951a.983.983 0 0 0-.747.344c-.738.86-1.533 1.76-2.305 2.607h-2.85v-5.902a.984.984 0 0 0-.617-.914l-4.37-1.748a4.926 4.926 0 1 0-.148 2.061l3.168 1.267v6.22c0 .543.44.983.983.983h1.99a14.57 14.57 0 0 1-2.17 1.984.8.8 0 0 0-.114.043.825.825 0 0 0-.138.051.983.983 0 0 0-.181.121 1.156 1.156 0 0 0-.105.089 2.822 2.822 0 0 0-.196.295.986.986 0 0 0-.07.368v7.869h-5.9v-2.066a4.917 4.917 0 1 0-1.968 0v3.05c0 .542.44.983.984.983h6.885v7.869c0 .543.44.983.983.983h3.935v3.935h-4.918v-2.951a.984.984 0 0 0-.544-.88v-.005zm-5.358-1.081a2.951 2.951 0 1 1-5.902 0 2.951 2.951 0 0 1 5.902 0zm.984-30.492a2.95 2.95 0 1 1-5.902 0 2.95 2.95 0 0 1 5.902 0zm-1.967 16.721a2.95 2.95 0 1 1 0-5.902 2.95 2.95 0 0 1 0 5.902zM35.902 57.05c0 .543-.44.984-.984.984H3.443a.984.984 0 0 1-.984-.984V3.934c0-.543.44-.983.984-.983h31.475c.544 0 .984.44.984.983v13.77h-1.967V5.903a.984.984 0 0 0-.984-.984H5.411a.984.984 0 0 0-.984.984v47.213c0 .543.44.983.983.983h27.541c.543 0 .984-.44.984-.983v-8.853h1.967V57.05zm2.95-14.754H23.116V26.557h15.738v15.738zm6.886-6.309l-4.918 4.918V25.981l4.918-4.918v14.923z" fill="#1A6FB0"/></g><defs><clipPath id="clip0"><path fill="#fff" d="M0 0h60v60H0z"/></clipPath></defs></svg>