<svg width="64" height="64" fill="none" xmlns="http://www.w3.org/2000/svg"><path fill-rule="evenodd" clip-rule="evenodd" d="M48 36.297l-11.269 5.646a2.286 2.286 0 0 1-2.285 0 48.458 48.458 0 0 1-12.343-12.366 2.286 2.286 0 0 1 0-2.286L27.703 16l-8-16H0v2.286C0 36.37 27.63 64 61.714 64H64V44.297l-16-8zm11.429 23.131C29.629 58.258 5.74 34.37 4.57 4.571H16.87L22.583 16l-4.572 9.143A6.857 6.857 0 0 0 18.446 32 52.708 52.708 0 0 0 32 45.714a6.857 6.857 0 0 0 6.857.434L48 41.577l11.429 5.714v12.137z" fill="#fff"/></svg>