<svg width="243" height="243" fill="none" xmlns="http://www.w3.org/2000/svg"><path d="M196.7 209.4h-29.6c.7-8.3 1.3-16.5 2-24.9h-14.8c-.7 8.2-1.4 16.4-2.1 24.8H90.7c-.7-8.2-1.4-16.4-2.2-24.8H73.7c.7 8.3 1.4 16.4 2 24.8H46.1c-1.2-7.9-2.5-15.8-3.7-23.7L32.2 119c-.9-5.7-1.8-11.4-2.6-17-.1-.8.3-1.9.7-2.6C43.7 78 57 56.8 70.2 35.5c.8-1.3 1.7-1.7 3.2-1.7h96c1.7 0 2.6.6 3.5 2l39.3 63c.7 1.2 1 2.9.8 4.3-4.8 31.6-9.7 63.2-14.5 94.8-.6 3.7-1.2 7.5-1.8 11.5zm-25-41.8c.2-1 .4-1.9.5-2.7 2.6-20.8 5.2-41.6 7.8-62.5.1-1 0-2.1-.5-3-5-10.2-10.1-20.4-15.3-30.6-.4-.8-1.8-1.6-2.8-1.6-7.7-.1-15.3-.1-23-.1-.6 0-1.2.1-2 .1.6 4.2 1.1 8.2 1.6 12.3h-33.1c.6-4.1 1.1-8.2 1.7-12.4-8.9 0-17.4 0-25.9.1-.7 0-1.7 1.1-2.1 1.9-5 9.9-10 19.9-14.9 29.9-.6 1.2-.7 2.7-.6 4 1.8 14.8 3.6 29.6 5.5 44.3.8 6.7 1.7 13.5 2.6 20.3h100.5z" fill="#1E81CE"/><path d="M144 129.6c.8-4.2 1.6-8.5 2.6-12.8.2-.9 1.3-1.5 1.9-2.3.7.8 1.8 1.4 2.2 2.3 2.1 5.6 2.3 11.4 1.8 17.2-.3 2.8-.9 5.7-1.6 8.4-.3 1-1.4 1.8-2.2 2.7-.8-.9-2.1-1.7-2.3-2.7-1-4.1-1.6-8.3-2.4-12.8zM100.4 131c-.8 4.4-1.4 8.6-2.3 12.7-.2 1.1-1.5 1.9-2.3 2.9-.8-.9-1.9-1.7-2.2-2.7-2.6-8.6-2.7-17.2.1-25.7.3-.9 1.4-1.6 2.1-2.3.7.8 1.9 1.5 2.1 2.4 1 4.2 1.7 8.5 2.5 12.7z" fill="#1E81CE"/></svg>