<svg width="74" height="74" fill="none" xmlns="http://www.w3.org/2000/svg"><path d="M18.5 50.875h4.625V55.5H18.5v4.625h-4.625V55.5H9.25v-4.625h4.625V46.25H18.5v4.625zM28.906 42.781h16.188v4.625H28.906v-4.625zM52.031 55.5a2.313 2.313 0 1 0 0-4.625 2.313 2.313 0 0 0 0 4.625zM57.813 61.281a2.312 2.312 0 1 0 0-4.625 2.312 2.312 0 0 0 0 4.625zM58.969 49.719a2.313 2.313 0 1 0 0-4.625 2.313 2.313 0 0 0 0 4.625zM64.75 55.5a2.312 2.312 0 1 0 0-4.625 2.312 2.312 0 0 0 0 4.625z" fill="#57A4FF"/><path d="M23.125 50.875V55.5H18.5v4.625h-4.625V55.5H9.25v-4.625h4.625V46.25H18.5v4.625h4.625zM52.031 55.5a2.313 2.313 0 1 0 0-4.625 2.313 2.313 0 0 0 0 4.625zM58.969 49.719a2.313 2.313 0 1 0 0-4.625 2.313 2.313 0 0 0 0 4.625zM57.813 61.281a2.312 2.312 0 1 0 0-4.625 2.312 2.312 0 0 0 0 4.625zM64.75 55.5a2.312 2.312 0 1 0 0-4.625 2.312 2.312 0 0 0 0 4.625zM28.906 42.781h16.188v4.625H28.906v-4.625zM33.531 33.531h6.938v4.625H33.53v-4.625z" fill="#57A4FF"/><path d="M68.506 42.16a16.121 16.121 0 0 0-10.284-5.085 1.136 1.136 0 0 0-.41-.075H41.624v-3.469a1.156 1.156 0 0 0-1.156-1.156h-2.312v-1.156a1.158 1.158 0 0 1 1.156-1.157h5.781a3.469 3.469 0 0 0 0-6.937h-18.5a1.158 1.158 0 0 1-1.156-1.156v-1.157a1.158 1.158 0 0 1 1.156-1.156h32.375a3.473 3.473 0 0 0 3.469-3.468V15.03a3.474 3.474 0 0 0-3.469-3.469H39.312a1.158 1.158 0 0 1-1.156-1.156V9.25a1.156 1.156 0 1 0-2.313 0v1.156a3.474 3.474 0 0 0 3.469 3.469h19.656a1.158 1.158 0 0 1 1.156 1.156v1.156a1.158 1.158 0 0 1-1.156 1.157H26.593a3.473 3.473 0 0 0-3.469 3.468v1.157a3.474 3.474 0 0 0 3.47 3.468h18.5a1.156 1.156 0 1 1 0 2.313h-5.782a3.473 3.473 0 0 0-3.469 3.469v1.156h-2.312a1.156 1.156 0 0 0-1.157 1.156V37H16.187c-.14 0-.28.025-.41.075a16.187 16.187 0 1 0 16.196 23.05h10.053a16.19 16.19 0 1 0 26.48-17.965zm-33.82-7.472h4.626V37h-4.625v-2.313zm21.97 32.374a13.846 13.846 0 0 1-12.812-8.538 1.156 1.156 0 0 0-1.066-.712H31.22a1.155 1.155 0 0 0-1.067.712 13.878 13.878 0 0 1-24.05 2.802 13.877 13.877 0 0 1 10.171-21.973c.077-.006.154-.02.228-.04h40.992c.075.02.152.034.229.04a13.875 13.875 0 0 1-1.068 27.71z" fill="#1A6FB0"/><path d="M23.125 49.719h-3.469V46.25a1.156 1.156 0 0 0-1.156-1.156h-4.625a1.156 1.156 0 0 0-1.156 1.156v3.469H9.25a1.156 1.156 0 0 0-1.156 1.156V55.5a1.156 1.156 0 0 0 1.156 1.156h3.469v3.469a1.156 1.156 0 0 0 1.156 1.156H18.5a1.156 1.156 0 0 0 1.156-1.156v-3.469h3.469a1.156 1.156 0 0 0 1.156-1.156v-4.625a1.156 1.156 0 0 0-1.156-1.156zm-1.156 4.625H18.5a1.156 1.156 0 0 0-1.156 1.156v3.469H15.03V55.5a1.156 1.156 0 0 0-1.156-1.156h-3.469V52.03h3.469a1.156 1.156 0 0 0 1.156-1.156v-3.469h2.313v3.469a1.156 1.156 0 0 0 1.156 1.156h3.469v2.313zM55.5 53.188a3.468 3.468 0 1 0-6.936 0 3.468 3.468 0 0 0 6.936 0zm-3.469 1.156a1.157 1.157 0 1 1 0-2.313 1.157 1.157 0 0 1 0 2.313zM58.969 50.875a3.469 3.469 0 1 0 0-6.937 3.469 3.469 0 0 0 0 6.937zm0-4.625a1.156 1.156 0 1 1 0 2.312 1.156 1.156 0 0 1 0-2.312zM57.813 55.5a3.468 3.468 0 1 0 0 6.936 3.468 3.468 0 0 0 0-6.936zm0 4.625a1.156 1.156 0 1 1 0-2.312 1.156 1.156 0 0 1 0 2.312zM64.75 49.719a3.469 3.469 0 1 0 0 6.937 3.469 3.469 0 0 0 0-6.937zm0 4.625a1.157 1.157 0 1 1 0-2.314 1.157 1.157 0 0 1 0 2.314zM33.531 52.031h-4.625a1.156 1.156 0 0 0 0 2.313h4.625a1.156 1.156 0 0 0 0-2.313zM45.094 52.031h-4.625a1.156 1.156 0 0 0 0 2.313h4.625a1.156 1.156 0 0 0 0-2.313zM45.094 41.625H28.906a1.156 1.156 0 0 0-1.156 1.156v4.625a1.156 1.156 0 0 0 1.156 1.157h16.188a1.156 1.156 0 0 0 1.156-1.157v-4.625a1.156 1.156 0 0 0-1.156-1.156zm-1.157 4.625H30.063v-2.313h13.875v2.313zM37 6.938a1.156 1.156 0 0 0 1.156-1.157V4.625a1.156 1.156 0 1 0-2.312 0v1.156A1.156 1.156 0 0 0 37 6.938z" fill="#1A6FB0"/></svg>