<svg width="669" height="425" fill="none" xmlns="http://www.w3.org/2000/svg"><path d="M464.412 52.169c.601-2.56.902-5.271.902-7.982 0-2.711-.301-5.422-.902-7.982l-7.223 1.054c-.602-2.41-1.505-4.669-2.709-6.627l5.869-4.367c-2.859-4.669-6.771-8.434-11.286-11.295l-4.363 5.873a27.887 27.887 0 0 0-6.621-2.71l1.053-7.23a34.995 34.995 0 0 0-7.975-.903c-2.708 0-5.417.301-7.975.904l1.053 7.229c-2.407.602-4.664 1.506-6.62 2.71l-4.364-5.873c-4.665 2.861-8.426 6.777-11.285 11.295l5.868 4.367a27.927 27.927 0 0 0-2.709 6.627l-7.222-1.054a35.081 35.081 0 0 0-.903 7.982c0 2.71.301 5.421.903 7.982l7.222-1.054c.602 2.41 1.505 4.668 2.709 6.626l-5.868 4.367c2.859 4.67 6.771 8.434 11.285 11.296l4.364-5.874a27.867 27.867 0 0 0 6.62 2.711l-1.053 7.229c2.558.602 5.267.904 7.975.904 2.709 0 5.417-.302 7.975-.904l-1.053-7.229c2.407-.603 4.665-1.506 6.621-2.71l4.363 5.873c4.665-2.862 8.427-6.778 11.286-11.296l-5.869-4.367a27.927 27.927 0 0 0 2.709-6.627l7.223 1.055zm-33.556 8.735a16.511 16.511 0 0 1-16.552-16.567 16.511 16.511 0 0 1 16.552-16.566c9.179 0 16.552 7.38 16.552 16.566.151 9.036-7.373 16.567-16.552 16.567z" fill="#A1C7FF" fill-opacity=".4"/><path d="M430.856 55.03c5.984 0 10.834-4.855 10.834-10.843 0-5.989-4.85-10.844-10.834-10.844-5.983 0-10.834 4.855-10.834 10.844 0 5.988 4.851 10.843 10.834 10.843z" fill="#A1C7FF" fill-opacity=".4"/><path d="M167.024 109.488c.602-2.259.753-4.518.753-6.928 0-2.409-.301-4.668-.753-6.928l-6.32.904c-.601-2.108-1.354-4.066-2.407-5.873l5.116-3.765c-2.408-4.067-5.868-7.38-9.931-9.94l-3.762 5.12c-1.806-1.054-3.762-1.807-5.868-2.41l.902-6.325c-2.257-.602-4.514-.753-6.921-.753-2.408 0-4.665.302-6.922.753l.903 6.326c-2.107.602-4.063 1.355-5.869 2.41l-3.761-5.272c-4.063 2.41-7.374 5.874-9.932 9.94l5.116 3.765c-1.053 1.807-1.805 3.765-2.407 5.873l-6.32-.903c-.602 2.259-.752 4.518-.752 6.928 0 2.409.301 4.668.752 6.927l6.32-.903c.602 2.108 1.354 4.066 2.407 5.873l-5.116 3.765c2.408 4.067 5.869 7.38 9.932 9.94l3.761-5.12c1.806 1.054 3.762 1.807 5.869 2.409l-.903 6.326c2.257.602 4.514.753 6.922.753 2.407 0 4.664-.302 6.921-.753l-.902-6.326c2.106-.602 4.062-1.355 5.868-2.409l3.762 5.12c4.063-2.41 7.373-5.873 9.931-9.94l-5.116-3.765c1.053-1.807 1.806-3.765 2.407-5.873l6.32 1.054zm-29.191 7.379c-7.975 0-14.446-6.475-14.446-14.457 0-7.982 6.471-14.458 14.446-14.458s14.445 6.476 14.445 14.458-6.47 14.457-14.445 14.457z" fill="#A1C7FF" fill-opacity=".6"/><path d="M137.832 111.898c5.236 0 9.48-4.248 9.48-9.488 0-5.24-4.244-9.488-9.48-9.488-5.235 0-9.479 4.248-9.479 9.488 0 5.24 4.244 9.488 9.479 9.488z" fill="#A1C7FF" fill-opacity=".6"/><path d="M338.562 22.139h12.941M602.491 130.422h12.941M325.923 17.47h7.824M317.562 138.139h12.941M304.923 133.47h7.824M267.562 318.139h12.941M254.923 313.47h7.824M614.378 124.699h7.674M82.76 62.65a2.409 2.409 0 0 0 2.407-2.409 2.409 2.409 0 1 0-2.408 2.41zM260.467 200.753a2.409 2.409 0 0 0 0-4.819 2.408 2.408 0 0 0-2.407 2.409 2.408 2.408 0 0 0 2.407 2.41zM509.048 40.21a2.409 2.409 0 1 0-.001-4.817 2.409 2.409 0 0 0 .001 4.818zM223.902.753V7.38M227.213 4.066h-6.621M37.919 212.651v6.777M41.23 215.964h-6.772M408.231 85.693v6.626M411.542 89.006h-6.771M503.781 264.759v6.627M507.091 268.072h-6.62" stroke="#A1C7FF" stroke-miterlimit="10" stroke-linecap="round"/><path d="M309.973 67.018c6.897 0 12.489-5.596 12.489-12.5s-5.592-12.5-12.489-12.5c-6.898 0-12.49 5.596-12.49 12.5s5.592 12.5 12.49 12.5z" stroke="#A1C7FF" stroke-miterlimit="10" stroke-linecap="round" stroke-linejoin="round"/><path d="M312.681 60.693c-9.931 4.217-21.367 6.626-23.022 2.56-1.354-3.163 4.665-7.831 7.975-10.09v1.807c-5.417 3.614-5.417 5.572-4.815 6.928 1.053 2.259 8.126 2.259 19.411-2.56 11.285-4.82 16.251-10.091 15.198-12.35-.602-1.205-1.956-2.71-8.276-1.205l-1.355-1.205c6.621-1.506 11.737-1.355 12.791 1.054 1.504 4.067-7.975 10.844-17.907 15.06zM506.641 95.331c9.806 0 17.755-7.956 17.755-17.77 0-9.816-7.949-17.772-17.755-17.772-9.807 0-17.756 7.957-17.756 17.771 0 9.815 7.949 17.771 17.756 17.771z" stroke="#A1C7FF" stroke-miterlimit="10" stroke-linecap="round" stroke-linejoin="round"/><path d="M503.932 86.747c-14.747-4.368-29.342-12.199-27.687-18.223 1.354-4.669 12.339-4.367 17.906-3.614l-1.655 1.958c-9.179-1.055-10.985 1.204-11.586 3.162-1.054 3.464 6.921 9.94 23.624 14.91 16.702 4.97 26.934 3.765 27.837.301.602-1.958.301-4.82-7.975-8.886l-.451-2.41c8.577 4.218 13.994 9.338 13.091 12.802-1.806 5.723-18.358 4.367-33.104 0zM587.594 89.759l.151-7.53 5.868 4.82 7.223-2.11-2.709 7.08 4.214 6.174-7.524-.452-4.665 6.024-1.805-7.38-7.073-2.56 6.32-4.066zM22.27 111.596l6.62-6.476 1.054 9.037 8.125 4.216-8.276 3.916-1.505 9.036-6.169-6.626-9.028 1.355 4.364-7.982-4.063-8.283 8.878 1.807z" stroke="#A1C7FF" stroke-miterlimit="10" stroke-linecap="round" stroke-linejoin="round"/><path d="M636.769 24H551v138.855h108.942V49l-23.173-25z" fill="#fff" stroke="#DEEAF9" stroke-miterlimit="10"/><path d="M636.769 30.024h-79.75v126.958h97.054V48.699" stroke="#DEEAF9" stroke-miterlimit="10"/><path d="M636.77 24v24.85l23.172.15" stroke="#DEEAF9" stroke-miterlimit="10"/><path d="M615.552 111.199c.602 11.295-10.082 18.072-10.082 18.072s-10.081-6.626-10.081-18.072c.15-5.121 19.862-5.121 20.163 0z" stroke="#B7D1FF" stroke-miterlimit="10"/><path d="M605.621 124.301c-2.257-1.958-6.471-6.476-6.621-12.801.602-.452 2.859-1.205 6.47-1.205 3.762 0 6.019.753 6.621 1.356.301 6.174-4.213 10.692-6.47 12.65zM620.818 96.139s3.01-2.862 6.471-.302c4.664 3.615-1.656 31.928-1.656 31.476 0-.301-6.62-17.319-6.62-17.319" stroke="#B7D1FF" stroke-miterlimit="10"/><path d="M619.163 69.03c-4.363-10.09-13.542-14.458-13.542-14.458-1.655.603-9.029 4.368-13.543 14.458-5.417 12.199.602 43.524.602 43.524h25.731c0-.15 6.019-31.476.752-43.524z" fill="#fff" stroke="#B7D1FF" stroke-miterlimit="10"/><path d="M590.273 96.139s-3.01-2.862-6.47-.302c-4.665 3.615 1.655 31.928 1.655 31.476 0-.301 6.621-17.319 6.621-17.319M594.787 64.362h21.518M591.777 107.584h27.537M605.922 83.488a7.226 7.226 0 0 0 7.223-7.229 7.226 7.226 0 0 0-7.223-7.229 7.226 7.226 0 0 0-7.223 7.229 7.226 7.226 0 0 0 7.223 7.229z" stroke="#B7D1FF" stroke-miterlimit="10"/><path d="M605.621 94.783c-6.47.904-2.106 29.518-.451 38.705.15.602.903.602 1.053 0 1.505-9.187 5.869-37.801-.602-38.705z" fill="#fff" stroke="#B7D1FF" stroke-miterlimit="10" stroke-linecap="round" stroke-linejoin="round"/><path d="M602.161 60.596h-23.323V53.97M611.34 75.958h17.906V64.813h7.524M626.387 100.958h16.552v25.602M600.806 86.5h-22.42v10.241M588.769 138.759v-29.217" stroke="#B3D2FF" stroke-width=".5" stroke-miterlimit="10"/><path d="M566.649 43.127h9.179M566.649 45.536h15.198M566.649 47.795h15.198M566.649 50.205h15.198M634.512 70.837h4.664M634.512 73.096h15.047M634.512 75.506h15.047M634.512 77.765h15.047M628.042 130.476h7.825M628.042 132.735h15.198M628.042 135.145h15.198M628.042 137.404h15.198M563.339 98.247h4.665M563.339 100.657h15.198M563.339 102.916h15.198M563.339 105.325h15.198M566.197 137.102h9.179M566.197 139.361h15.198M566.197 141.771h15.198M566.197 144.03h15.198" stroke="#B3D2FF" stroke-width=".5" stroke-miterlimit="10" stroke-linejoin="round"/><path d="M520.032 424.247V425" stroke="#4A63FE" stroke-miterlimit="10"/><path d="M212.752 60.898c-.602-2.26-.752-4.519-.752-6.928 0-2.41.301-4.669.752-6.928l6.32.904c.602-2.109 1.354-4.066 2.407-5.874l-5.116-3.765c2.408-4.066 5.869-7.38 9.932-9.94l3.761 5.121c1.806-1.054 3.762-1.807 5.869-2.41l-.903-6.325c2.257-.602 4.514-.753 6.922-.753 2.407 0 4.664.301 6.921.753l-.902 6.325c2.106.603 4.062 1.356 5.868 2.41l3.762-5.271c4.063 2.41 7.373 5.873 9.931 9.94l-5.116 3.765c1.053 1.807 1.806 3.765 2.407 5.873l6.32-.903c.602 2.259.753 4.518.753 6.927 0 2.41-.301 4.669-.753 6.928l-6.32-.904c-.601 2.109-1.354 4.067-2.407 5.874l5.116 3.765c-2.408 4.066-5.868 7.38-9.931 9.94l-3.762-5.12c-1.806 1.053-3.762 1.806-5.868 2.409l.902 6.325c-2.257.603-4.514.753-6.921.753-2.408 0-4.665-.301-6.922-.753l.903-6.325c-2.107-.603-4.063-1.356-5.869-2.41l-3.761 5.12c-4.063-2.409-7.374-5.873-9.932-9.94l5.116-3.764c-1.053-1.807-1.805-3.765-2.407-5.874l-6.32 1.055zm29.192 7.38c7.975 0 14.445-6.477 14.445-14.459 0-7.982-6.47-14.458-14.445-14.458-7.975 0-14.446 6.476-14.446 14.458s6.471 14.458 14.446 14.458z" fill="#A1C7FF" fill-opacity=".6"/><path d="M241.944 63.307c-5.235 0-9.48-4.248-9.48-9.488 0-5.24 4.245-9.488 9.48-9.488 5.236 0 9.48 4.248 9.48 9.488 0 5.24-4.244 9.488-9.48 9.488z" fill="#A1C7FF" fill-opacity=".6"/><path d="M513.179 189.476L519.8 183l1.053 9.036 8.125 4.217-8.276 3.916-1.504 9.036-6.17-6.627-9.028 1.356 4.364-7.982-4.063-8.283 8.878 1.807z" stroke="#A1C7FF" stroke-miterlimit="10" stroke-linecap="round" stroke-linejoin="round"/></svg>