<svg width="623" height="425" fill="none" xmlns="http://www.w3.org/2000/svg"><path d="M251.139 263.404c3.912-.151 15.197-2.109 15.498-1.506.301.602-3.611 1.506-3.16 1.957.452.452 6.621-.301 6.772.452.301 1.054-6.019 1.506-6.019 1.506s6.922-.15 6.922.753c0 .753-5.267 1.054-7.374 1.506 2.257-.15 5.869 0 5.869.753s-3.612 1.055-6.32 1.506c1.806-.15 4.966-.15 4.966.603s-8.728 2.108-17.004 3.162" fill="#F2B18F"/><path d="M195.765 228.916s3.16 39.156 20.012 48.192c10.534 5.573 38.22 1.356 38.22 1.356l.301-17.47s-20.464-1.054-29.342-6.325c-5.266-3.163-11.586-24.549-11.586-24.549" fill="#4A63FE"/><path d="M464.412 52.169c.601-2.56.902-5.271.902-7.982 0-2.711-.301-5.422-.902-7.982l-7.223 1.054c-.602-2.41-1.505-4.669-2.709-6.627l5.869-4.367c-2.859-4.669-6.771-8.434-11.286-11.295l-4.363 5.873a27.887 27.887 0 0 0-6.621-2.71l1.053-7.23a34.995 34.995 0 0 0-7.975-.903c-2.708 0-5.417.301-7.975.904l1.053 7.229c-2.407.602-4.664 1.506-6.62 2.71l-4.364-5.873c-4.665 2.861-8.426 6.777-11.285 11.295l5.868 4.367a27.927 27.927 0 0 0-2.709 6.627l-7.222-1.054a35.081 35.081 0 0 0-.903 7.982c0 2.71.301 5.421.903 7.982l7.222-1.054c.602 2.41 1.505 4.668 2.709 6.626l-5.868 4.367c2.859 4.67 6.771 8.434 11.285 11.296l4.364-5.874a27.867 27.867 0 0 0 6.62 2.711l-1.053 7.229c2.558.602 5.267.904 7.975.904 2.709 0 5.417-.302 7.975-.904l-1.053-7.229c2.407-.603 4.665-1.506 6.621-2.71l4.363 5.873c4.665-2.862 8.427-6.778 11.286-11.296l-5.869-4.367a27.927 27.927 0 0 0 2.709-6.627l7.223 1.055zm-33.556 8.735a16.511 16.511 0 0 1-16.552-16.567 16.511 16.511 0 0 1 16.552-16.566c9.179 0 16.552 7.38 16.552 16.566.151 9.036-7.373 16.567-16.552 16.567z" fill="#A1C7FF" fill-opacity=".4"/><path d="M430.856 55.03c5.984 0 10.834-4.855 10.834-10.843 0-5.989-4.85-10.844-10.834-10.844-5.983 0-10.834 4.855-10.834 10.844 0 5.988 4.851 10.843 10.834 10.843z" fill="#A1C7FF" fill-opacity=".4"/><path d="M167.024 109.488c.602-2.259.753-4.518.753-6.928 0-2.409-.301-4.668-.753-6.928l-6.32.904c-.601-2.108-1.354-4.066-2.407-5.873l5.116-3.765c-2.408-4.067-5.868-7.38-9.931-9.94l-3.762 5.12c-1.806-1.054-3.762-1.807-5.868-2.41l.902-6.325c-2.257-.602-4.514-.753-6.921-.753-2.408 0-4.665.302-6.922.753l.903 6.326c-2.107.602-4.063 1.355-5.869 2.41l-3.761-5.272c-4.063 2.41-7.374 5.874-9.932 9.94l5.116 3.765c-1.053 1.807-1.805 3.765-2.407 5.873l-6.32-.903c-.602 2.259-.752 4.518-.752 6.928 0 2.409.301 4.668.752 6.927l6.32-.903c.602 2.108 1.354 4.066 2.407 5.873l-5.116 3.765c2.408 4.067 5.869 7.38 9.932 9.94l3.761-5.12c1.806 1.054 3.762 1.807 5.869 2.409l-.903 6.326c2.257.602 4.514.753 6.922.753 2.407 0 4.664-.302 6.921-.753l-.902-6.326c2.106-.602 4.062-1.355 5.868-2.409l3.762 5.12c4.063-2.41 7.373-5.873 9.931-9.94l-5.116-3.765c1.053-1.807 1.806-3.765 2.407-5.873l6.32 1.054zm-29.191 7.379c-7.975 0-14.446-6.475-14.446-14.457 0-7.982 6.471-14.458 14.446-14.458s14.445 6.476 14.445 14.458-6.47 14.457-14.445 14.457z" fill="#A1C7FF" fill-opacity=".6"/><path d="M137.832 111.898c5.236 0 9.48-4.248 9.48-9.488 0-5.24-4.244-9.488-9.48-9.488-5.235 0-9.479 4.248-9.479 9.488 0 5.24 4.244 9.488 9.479 9.488z" fill="#A1C7FF" fill-opacity=".6"/><path d="M387.466 144.578c-3.16-2.409-10.984-10.692-11.737-10.391-.752.301 1.956 3.313 1.354 3.464-.601.15-5.116-4.067-5.717-3.615-.903.753 3.912 4.819 3.912 4.819s-5.568-4.216-6.17-3.463c-.451.602 3.612 4.066 5.116 5.572-1.655-1.506-4.815-3.464-5.116-2.862-.451.603 2.258 3.012 4.364 4.97-1.354-1.054-3.912-3.012-4.364-2.409-.451.602 5.869 6.927 11.888 12.5" fill="#EA9B78"/><path d="M432.608 147.892s-20.164 7.53-28.289 4.969c-7.975-2.409-18.358-12.65-18.358-12.65l-11.285 14.307s19.561 19.127 33.555 18.223c14.144-.904 42.885-9.789 42.885-9.789" fill="#4A63FE"/><path d="M380.394 153.916l7.523-11.747" stroke="#DB5E00" stroke-width=".5" stroke-miterlimit="10"/><path d="M338.562 22.139h12.941M602.491 130.422h12.941M325.923 17.47h7.824M614.378 124.699h7.674M82.76 62.65a2.409 2.409 0 0 0 2.407-2.409 2.409 2.409 0 1 0-2.408 2.41zM260.467 200.753a2.409 2.409 0 0 0 0-4.819 2.408 2.408 0 0 0-2.407 2.409 2.408 2.408 0 0 0 2.407 2.41zM509.048 40.21a2.409 2.409 0 1 0-.001-4.817 2.409 2.409 0 0 0 .001 4.818zM223.902.753V7.38M227.213 4.066h-6.621M37.919 212.651v6.777M41.23 215.964h-6.772M408.231 85.693v6.626M411.542 89.006h-6.771M503.781 264.759v6.627M507.091 268.072h-6.62" stroke="#A1C7FF" stroke-miterlimit="10" stroke-linecap="round"/><path d="M309.973 67.018c6.897 0 12.489-5.596 12.489-12.5s-5.592-12.5-12.489-12.5c-6.898 0-12.49 5.596-12.49 12.5s5.592 12.5 12.49 12.5z" stroke="#A1C7FF" stroke-miterlimit="10" stroke-linecap="round" stroke-linejoin="round"/><path d="M312.681 60.693c-9.931 4.217-21.367 6.626-23.022 2.56-1.354-3.163 4.665-7.831 7.975-10.09v1.807c-5.417 3.614-5.417 5.572-4.815 6.928 1.053 2.259 8.126 2.259 19.411-2.56 11.285-4.82 16.251-10.091 15.198-12.35-.602-1.205-1.956-2.71-8.276-1.205l-1.355-1.205c6.621-1.506 11.737-1.355 12.791 1.054 1.504 4.067-7.975 10.844-17.907 15.06zM506.641 95.331c9.806 0 17.755-7.956 17.755-17.77 0-9.816-7.949-17.772-17.755-17.772-9.807 0-17.756 7.957-17.756 17.771 0 9.815 7.949 17.771 17.756 17.771z" stroke="#A1C7FF" stroke-miterlimit="10" stroke-linecap="round" stroke-linejoin="round"/><path d="M503.932 86.747c-14.747-4.368-29.342-12.199-27.687-18.223 1.354-4.669 12.339-4.367 17.906-3.614l-1.655 1.958c-9.179-1.055-10.985 1.204-11.586 3.162-1.054 3.464 6.921 9.94 23.624 14.91 16.702 4.97 26.934 3.765 27.837.301.602-1.958.301-4.82-7.975-8.886l-.451-2.41c8.577 4.218 13.994 9.338 13.091 12.802-1.806 5.723-18.358 4.367-33.104 0zM587.594 89.759l.151-7.53 5.868 4.82 7.223-2.11-2.709 7.08 4.214 6.174-7.524-.452-4.665 6.024-1.805-7.38-7.073-2.56 6.32-4.066zM22.27 111.596l6.62-6.476 1.054 9.037 8.125 4.216-8.276 3.916-1.505 9.036-6.169-6.626-9.028 1.355 4.364-7.982-4.063-8.283 8.878 1.807z" stroke="#A1C7FF" stroke-miterlimit="10" stroke-linecap="round" stroke-linejoin="round"/><path d="M236.392 30.723h-85.769v138.855h108.942V55.723l-23.173-25z" fill="#fff" stroke="#DEEAF9" stroke-miterlimit="10"/><path d="M236.392 36.747h-79.75v126.958h97.054V55.422" stroke="#DEEAF9" stroke-miterlimit="10"/><path d="M236.393 30.723v24.85l23.172.15" stroke="#DEEAF9" stroke-miterlimit="10"/><path d="M215.175 117.922c.602 11.295-10.082 18.072-10.082 18.072s-10.081-6.627-10.081-18.072c.15-5.121 19.862-5.121 20.163 0z" stroke="#B7D1FF" stroke-miterlimit="10"/><path d="M205.244 131.024c-2.257-1.958-6.47-6.476-6.621-12.801.602-.452 2.859-1.205 6.47-1.205 3.762 0 6.019.753 6.621 1.355.301 6.175-4.213 10.693-6.47 12.651zM220.441 102.861s3.01-2.861 6.471-.301c4.664 3.615-1.655 31.928-1.655 31.476 0-.301-6.621-17.319-6.621-17.319" stroke="#B7D1FF" stroke-miterlimit="10"/><path d="M218.786 75.753c-4.363-10.09-13.542-14.458-13.542-14.458-1.655.603-9.029 4.368-13.543 14.458-5.417 12.199.602 43.524.602 43.524h25.731c0-.151 6.019-31.476.752-43.524z" fill="#fff" stroke="#B7D1FF" stroke-miterlimit="10"/><path d="M189.896 102.861s-3.009-2.861-6.47-.301c-4.665 3.615 1.655 31.928 1.655 31.476 0-.301 6.621-17.319 6.621-17.319M194.41 71.084h21.518M191.4 114.307h27.537M205.545 90.21a7.226 7.226 0 0 0 7.223-7.228 7.226 7.226 0 0 0-7.223-7.229 7.226 7.226 0 0 0-7.223 7.229 7.226 7.226 0 0 0 7.223 7.229z" stroke="#B7D1FF" stroke-miterlimit="10"/><path d="M205.244 101.506c-6.47.904-2.106 29.518-.451 38.705.15.602.903.602 1.053 0 1.505-9.187 5.869-37.801-.602-38.705z" fill="#fff" stroke="#B7D1FF" stroke-miterlimit="10" stroke-linecap="round" stroke-linejoin="round"/><path d="M201.784 67.32h-23.323v-6.627M210.963 82.68h17.906V71.537h7.524M226.01 107.681h16.552v25.602M200.429 93.223h-22.42v10.241M188.392 145.482v-29.217" stroke="#B3D2FF" stroke-width=".5" stroke-miterlimit="10"/><path d="M166.272 49.85h9.179M166.272 52.259h15.198M166.272 54.518h15.198M166.272 56.928h15.198M234.135 77.56h4.664M234.135 79.82h15.047M234.135 82.229h15.047M234.135 84.488h15.047M227.665 137.199h7.825M227.665 139.458h15.198M227.665 141.867h15.198M227.665 144.126h15.198M162.962 104.97h4.665M162.962 107.38h15.198M162.962 109.639h15.198M162.962 112.048h15.198M165.82 143.825h9.179M165.82 146.084h15.198M165.82 148.494h15.198M165.82 150.753h15.198" stroke="#B3D2FF" stroke-width=".5" stroke-miterlimit="10" stroke-linejoin="round"/><path d="M102.623 376.506H69.67v1.506h32.953v-1.506z" fill="#103BB2"/><path d="M74.334 364.307l-2.859.603s-1.053 3.765-1.504 6.325c-.452 2.56-.301 5.12-.301 5.12h32.953s-.903-2.861-8.727-7.53c-3.16-1.807-4.665-3.915-4.665-3.915l-14.897-.603z" fill="#22252D"/><path d="M71.023 352.41l.602 12.5s1.355 1.656 6.922 1.656c5.568 0 10.684-1.506 10.684-1.506l1.053-16.867" fill="#F2B18F"/><path d="M134.975 376.506h-32.954v1.506h32.954v-1.506z" fill="#103BB2"/><path d="M106.686 364.307l-2.859.603s-1.053 3.765-1.505 6.325c-.451 2.56-.301 5.12-.301 5.12h32.954s-.903-2.861-8.728-7.53c-3.16-1.807-4.664-3.915-4.664-3.915l-14.897-.603z" fill="#22252D"/><path d="M103.375 352.41l.602 12.5s1.354 1.656 6.922 1.656c5.567 0 10.683-1.506 10.683-1.506l1.053-16.867" fill="#F2B18F"/><path d="M74.936 203.765s-4.514 14.91-4.966 31.175c-.451 16.265-.903 121.385-.903 121.385l27.537.452s15.348-140.813 10.382-157.078" fill="#232868"/><path d="M124.141 210.542c6.319 74.097 2.708 145.331 2.708 145.331l-24.828.753s-4.063-103.162-9.931-118.072c-5.868-14.909-.451-36.144-.451-36.144" fill="#232868"/><path d="M104.73 129.819l.601 8.585s-2.106 4.518-7.072 3.915c-5.266-.602-6.17-3.464-6.17-3.464l2.559-16.114" fill="#F2B18F"/><path d="M106.235 111.898c3.16 3.614 7.523 16.566 1.655 19.578-6.17 3.163-13.543.753-15.499-7.681-2.106-8.735 5.417-21.084 13.844-11.897z" fill="#F2B18F"/><path d="M105.331 132.982s-4.514.753-7.072-1.958" stroke="#E2845A" stroke-width=".5" stroke-miterlimit="10"/><path d="M92.992 123.042c.15.151.301.151.15 0h-.15c.15-.15 0-.15 0 0z" fill="#FF855A"/><path d="M94.046 123.494c-.15-.301-.753-.904-1.656-.904-1.655 0-1.805 2.109-1.203 3.615.451.903 1.053 1.506 1.805 2.108 1.204.753 2.257.452 2.408-.903" fill="#F2B18F"/><path d="M95.701 124.849c1.505 0 .753-4.066.753-4.066s1.805.301 3.16-1.054c1.354-1.356-.302-2.56-.302-2.56s3.01 1.957 5.417 1.054c1.957-.904 1.656-2.711 1.656-2.711s2.106 1.657 3.16.452c1.805-2.109 1.053-4.368-1.054-6.325-2.257-1.958-4.213-1.055-4.213-1.055s-3.16-3.464-6.771-2.711c-3.31.754-6.772 2.561-6.922 6.928 0 0-2.859-.753-3.912 3.012-.903 3.464.752 4.669.752 4.669s-1.204 2.711-.15 4.97c1.203 2.409 3.912 3.012 3.912 3.012s-1.053 2.409 1.505 2.56c2.558.151 2.708-1.807 1.655-2.41-2.408-1.355-4.063-3.463-2.257-5.722 1.504-2.259 3.611 1.957 3.611 1.957z" fill="#212237"/><path fill-rule="evenodd" clip-rule="evenodd" d="M152.88 212.801l5.567-7.982c6.019 1.958 20.465 9.187 20.013 10.392-.451 1.355-6.922-1.356-8.426-1.958 1.053.301 1.053 3.464-.903 3.313.451 0 .451 1.054.301 1.356-.301.903-1.053 1.205-1.806 1.355.301.301.301.753 0 1.205-1.505 2.108-5.868 1.054-6.169.301-.301-.753 3.461-1.205 3.461-1.205s-3.01-1.205-3.461-1.506l-2.709-1.355c-2.106-1.205-3.912-2.56-5.868-3.916z" fill="#F2B18F"/><path d="M165.671 208.886c2.407.903 5.567 2.56 4.664 3.463-.902.904-3.611-.301-5.718-.15-2.106.903-5.116.452-5.868-.452" stroke="#E2845A" stroke-width=".5" stroke-miterlimit="10"/><path d="M104.88 138.404s7.975-1.506 19.26 9.789c11.286 11.295 7.674 31.174 18.057 40.211 10.383 9.036 21.668 16.716 21.668 16.716l-10.834 15.814s-28.439-13.103-35.21-27.561c-6.772-14.457-9.932-29.367-9.932-29.367" fill="#4A63FE"/><path d="M91.939 137.048s.602 3.464 6.62 3.916c5.418.452 6.321-2.41 6.321-2.41s12.639 4.066 17.906 21.085c5.266 17.018 4.364 56.626 4.364 56.626s-43.938 4.368-57.18-3.464c0 0-.15-42.62 5.868-58.434 5.869-15.963 16.101-17.319 16.101-17.319z" fill="#4A63FE"/><path d="M91.939 137.048s-34.91-2.861-38.07 40.06c-3.16 42.772 33.405 53.163 33.405 53.163l12.038-20.181S69.519 200 77.192 178.464c4.515-12.651 6.772-16.717 6.772-16.717" fill="#4A63FE"/><path d="M95.099 214.157s-20.013-13.103-19.863-26.958c.15-13.856 6.17-24.398 6.17-24.398M127.601 204.669s-1.204-34.639-2.859-44.579" stroke="#6E94FF" stroke-width=".5" stroke-miterlimit="10"/><path d="M97.657 230.271l3.311-17.018" stroke="#CCE1FF" stroke-width="2" stroke-miterlimit="10"/><path d="M101.87 214.759a3.612 3.612 0 0 0 3.611-3.614 3.612 3.612 0 1 0-7.222 0 3.613 3.613 0 0 0 3.611 3.614z" fill="#CCE1FF"/><path d="M89.682 225.151s4.213 3.765 8.276 4.066c2.106.15 2.257-.452 3.16-.452 1.655 0 2.106-.753 2.257-1.657 0-.602 1.053-.903 1.354-1.506.451-1.054-.602-1.506-.301-1.957 1.505-2.41-2.257-3.012-2.257-3.012s1.956.15 2.558-.904c.602-1.054-10.232-3.916-10.232-3.916" fill="#F2B18F"/><path d="M27.687 377.259l-.15-103.313 48-46.386h61.092l.451 149.699H27.687z" fill="#E9F1FF"/><path d="M135.877 228.313l.451 148.042H28.439l-.15-102.108 47.7-45.934h59.888zm1.504-1.506H75.236l-48.602 46.838.15 104.367h110.898l-.301-151.205z" fill="#89B5F4"/><path d="M122.335 224.247h-8.276v3.012h8.276v-3.012zM141.895 224.247h-8.276v3.012h8.276v-3.012zM161.607 224.247h-8.276v3.012h8.276v-3.012zM181.319 224.247h-8.276v3.012h8.276v-3.012zM201.031 224.247h-8.276v3.012h8.276v-3.012z" fill="#CCE1FF"/><path d="M212.316 227.56H104.277v149.548h108.039V227.56z" fill="#fff"/><path d="M211.565 228.313v148.042H105.03V228.313h106.535zm1.504-1.506H103.525v151.054h109.544V226.807z" fill="#89B5F4"/><path d="M204.342 237.048h-90.434v130.874h90.434V237.048z" fill="#E9F1FF"/><path d="M153.482 250.301h-31.449v51.054h40.026v-41.867l-8.577-9.187z" stroke="#fff" stroke-miterlimit="10"/><path d="M153.481 250.301v9.187h8.577M130.008 270.181h25.279M130.008 275.904h25.279M130.008 281.476h25.279M130.008 287.048h25.279M130.008 292.771h25.279M156.793 312.048h-24.828v40.211h31.599v-32.982l-6.771-7.229z" stroke="#fff" stroke-miterlimit="10"/><path d="M156.793 312.048v7.229h6.771M138.285 327.711h19.863M138.285 332.229h19.863M138.285 336.596h19.863M138.285 340.964h19.863M138.285 345.482h19.863" stroke="#fff" stroke-miterlimit="10"/><path d="M554.791 133.886l-.602 7.831s1.957 4.066 6.621 3.614c4.966-.451 5.267-3.162 5.267-3.162l-1.806-15.061" fill="#F2B18F"/><path d="M552.986 117.319c-3.01 3.314-6.922 15.211-1.505 18.073 5.567 3.012 12.339.753 14.295-7.079 2.106-7.982-4.966-19.427-12.79-10.994z" fill="#F2B18F"/><path d="M554.49 136.596s4.514 1.205 7.975-2.259" stroke="#E2845A" stroke-width=".5" stroke-miterlimit="10"/><path d="M565.174 127.56c-.15.15 0 .15 0 0 0 0 .15 0 0 0 .15 0 0-.15 0 0z" fill="#FF855A"/><path d="M564.271 129.367c-.451-1.355-1.956-2.409-2.708-3.614-1.204-1.657-1.505-3.765-1.806-5.873-3.611.602-7.825 2.861-10.834-1.205.903-3.765 5.266-7.53 10.382-4.82 3.762-1.506 8.276.753 10.233 4.217 1.805 3.163 1.805 7.53.301 10.844-.903 2.108-3.762 5.873-5.267 4.518-.903-.753 0-2.711-.15-3.765-.151-.151-.151-.302-.151-.302z" fill="#212237"/><path d="M563.368 128.313c.15-.301.602-.903 1.505-.903 1.504 0 1.655 1.957 1.053 3.313-.451.904-.903 1.355-1.655 1.807-1.054.603-2.107.452-2.257-.753" fill="#F2B18F"/><path d="M566.678 115.361h-.301c-.601-.753-.451-1.807 0-2.409 1.505-2.109 4.966-1.054 6.32.602 1.204 1.506 1.505 3.916.301 5.573-.903 1.355-2.859 1.656-4.062.753" fill="#212237"/><path d="M531.77 250.301l9.931 115.211-9.781 6.928s27.837.15 28.74-.753c.903-.904-1.505-7.079-1.505-7.079l3.01-114.156-30.395-.151z" fill="#F2B18F"/><path d="M556.146 371.837l3.912-4.217-.752-2.108-6.019 6.476-3.01.151-10.984-4.82-11.436 7.832c-1.354.903-.602 3.012 1.053 2.861l15.8-.753 4.815-3.765h1.354l.151 3.464 10.232-.452-.301-4.819-4.815.15z" fill="#162F7F"/><path d="M562.917 251.958l20.013 113.554-9.781 6.928s27.838.15 28.74-.753c.903-.904-1.504-7.079-1.504-7.079l-6.621-113.403-30.847.753z" fill="#F2B18F"/><path d="M597.375 371.837l3.913-4.217-.753-2.108-6.019 6.476-3.009.151-10.985-4.82-11.436 7.832c-1.354.903-.601 3.012 1.054 2.861l15.799-.753 4.815-3.765h1.355l.15 3.464 10.232-.452-.301-4.819-4.815.15z" fill="#162F7F"/><path d="M575.858 200c15.799 11.145 23.624 63.855 23.624 63.855s-33.254 10.392-68.766 3.615c0 0-1.655-48.946 7.674-69.729" fill="#232868"/><path d="M574.353 199.096c13.542 18.524 19.711 66.265 19.711 66.265" stroke="#3D489B" stroke-width=".5" stroke-miterlimit="10"/><path d="M526.352 198.343c9.48-1.204 19.411-19.578 19.411-19.578l-2.709-24.398-17.454 39.458" fill="#F2B18F"/><path d="M551.782 141.566c-13.241 3.464-16.552 18.675-16.552 18.675l13.242 5.723 5.116-21.235" fill="#FB2"/><path d="M571.945 160.994c-1.204 4.066-5.568 8.584-5.568 8.584l18.208 8.283s6.47-18.524.15-26.506c-6.32-8.132-18.809-9.488-18.809-9.488s-3.009 2.561-7.524 2.26c-3.761-.151-4.213-2.862-4.213-2.862s-9.63-.301-14.445 4.97c-8.126 9.036-5.417 54.367-5.417 54.367s13.693 2.259 23.925 2.711c10.232.452 22.571-1.054 22.571-1.054s3.912-31.325-2.257-41.717" fill="#4A63FE"/><path d="M543.205 149.247s-1.053-2.259-3.912-1.355c-2.859.753-3.913 3.915-4.966 6.024-1.053 2.108-2.257 5.12-2.257 5.12s-9.48 14.91-11.737 25.452c-1.956 9.187.602 15.06 6.47 13.855 9.781-1.957 10.985-36.144 12.64-38.704 1.505-2.561 1.354-.904 2.709-3.464 1.053-2.259 1.053-4.368 1.053-6.928z" fill="#F2B18F"/><path d="M543.355 150.602a1.204 1.204 0 1 0 0-2.408 1.204 1.204 0 0 0 0 2.408z" fill="#6DA3F7"/><path d="M561.111 190.512h-31.599l-1.806-39.759h31.449l1.956 39.759z" fill="#202263"/><path d="M550.427 150.301h-13.693v1.958h13.693v-1.958z" fill="#6DA3F7"/><path d="M565.926 169.126c1.655-4.668 3.762-10.09 3.762-10.09" stroke="#2656DD" stroke-width=".5" stroke-miterlimit="10"/><path d="M550.277 167.169c-1.956-2.711-6.32-11.747-7.072-11.747-.752.15.752 3.313.301 3.162-.602 0-3.16-4.819-3.912-4.518-.903.301 2.106 5.121 2.106 5.121s-3.461-4.97-4.213-4.518c-.451.451 1.956 4.367 2.708 5.873-1.053-1.656-3.159-4.066-3.611-3.765-.451.452 1.204 3.163 2.257 5.271-.903-1.205-2.558-3.464-3.009-3.162-.452.301 3.009 7.228 6.621 13.554" fill="#F2B18F"/><path d="M566.678 169.729c-1.655 3.916-5.417 13.554-5.417 13.554-2.859-3.765-8.426-12.349-12.037-17.47-1.656 1.958-5.267 3.765-7.073 6.024 4.063 10.241 12.791 34.488 23.474 32.832 8.427-1.356 18.508-27.259 18.508-27.259l-17.455-7.681z" fill="#F2B18F"/><path d="M561.262 183.434s3.611 3.915 5.868 6.927" stroke="#E2845A" stroke-width=".5" stroke-miterlimit="10"/><path d="M67.111 338.253c2.408-5.723 6.771-10.542 12.79-13.554 13.091-6.175 28.74-.753 34.91 12.349 6.169 13.103.752 28.765-12.339 34.94-6.019 2.861-12.64 3.313-18.508 1.506h-.15c-.753-.151-1.355-.452-2.107-.753l-10.533-3.614c-1.956-.603-4.063-.452-5.869.301l-1.504.753-6.922-14.458 1.505-.753c1.805-.904 3.31-2.41 3.912-4.368l3.762-10.241c.451-.451.602-1.204 1.053-2.108z" fill="#FFE269"/><path d="M60.34 366.416s12.489-6.326 19.561-8.585c6.922-2.259 17.756-3.012 17.004 4.368-.452 5.723-15.198 6.174-20.465-6.777" stroke="#FFFFEB" stroke-miterlimit="10"/><path d="M57.933 361.295s12.79-5.873 18.96-9.789c6.168-3.916 13.391-11.898 7.222-16.114-4.815-3.163-14.295 7.831-7.524 20.18" stroke="#FFFFEB" stroke-miterlimit="10"/><path d="M93.444 326.958s-4.966-.904-9.33.753c-4.364 1.656-7.072 4.668-7.072 4.668" stroke="#fff" stroke-width="2" stroke-miterlimit="10" stroke-linecap="round" stroke-linejoin="round"/><path d="M96.904 328.916a1.355 1.355 0 1 0-.002-2.71 1.355 1.355 0 0 0 .002 2.71z" fill="#fff"/><path opacity=".35" d="M70.722 332.229a28.708 28.708 0 0 0-1.053 26.657c4.213 8.885 12.339 14.457 21.367 15.813-2.407 0-4.665-.301-6.922-1.054h-.15c-.752-.151-1.354-.452-2.107-.753l-10.533-3.615c-1.956-.602-4.063-.452-5.868.301l-1.505.753-6.922-14.458 1.505-.753c1.806-.903 3.31-2.409 3.912-4.367l3.762-10.241c.301-.753.602-1.657.903-2.41.903-1.957 2.107-4.066 3.611-5.873z" fill="#FF9739"/><path d="M47.248 368.675l.602 1.355c1.956 4.066 6.771 5.723 10.683 3.765l6.32-3.012-7.523-15.813-6.32 3.012c-4.063 1.807-5.718 6.626-3.762 10.693z" fill="#27354B"/><path d="M52.365 356.626s0 .151 0 0l10.533 15.964c.3.452 1.053.603 1.504.302.452-.302.602-1.055.301-1.506L54.17 355.572c-.3-.452-1.053-.602-1.505-.301-.45.301-.601.904-.3 1.355zM48.753 358.283c0 .151.15.151 0 0l10.533 15.964c.301.452 1.054.602 1.505.301.452-.301.602-1.054.301-1.506L50.56 357.229c-.3-.452-1.053-.603-1.505-.301-.3.301-.451.903-.3 1.355zM45.292 360.09l10.533 15.964c.301.452 1.054.603 1.505.301.452-.301.602-1.054.301-1.506l-10.533-15.813c-.301-.452-1.053-.602-1.505-.301-.451.301-.602.753-.3 1.355z" fill="#475678"/><path d="M479.104 343.223c-6.47-1.506-12.339-5.271-16.552-11.145-8.878-12.65-5.868-30.12 6.771-39.006 12.64-8.885 30.095-5.873 38.973 6.777 4.063 5.874 5.718 12.651 4.965 19.277v.151c-.15.753-.15 1.657-.451 2.41l-1.956 11.747c-.301 2.108.15 4.367 1.354 6.024l1.053 1.506-13.994 9.789-1.053-1.506a7.68 7.68 0 0 0-5.266-3.313l-11.436-2.109c-.602-.301-1.355-.452-2.408-.602z" fill="#FFE269"/><path d="M462.553 317.319s0 5.422 2.407 9.789c2.408 4.368 6.17 6.627 6.17 6.627" stroke="#fff" stroke-width="2" stroke-miterlimit="10" stroke-linecap="round" stroke-linejoin="round"/><path d="M462.553 314.91a1.355 1.355 0 1 0-.003-2.71 1.355 1.355 0 0 0 .003 2.71z" fill="#fff"/><path opacity=".35" d="M472.032 340.512c9.029 3.464 19.712 2.41 28.289-3.614 8.577-6.025 13.091-15.663 12.941-25.452.451 2.56.451 4.97.15 7.53v.15c-.15.754-.15 1.657-.451 2.41l-1.956 11.747c-.301 2.109.15 4.368 1.354 6.024l1.053 1.506-13.994 9.789-1.053-1.506a7.68 7.68 0 0 0-5.267-3.313l-11.436-2.108-2.708-.452a32.952 32.952 0 0 1-6.922-2.711z" fill="#FF9739"/><path d="M509.951 345.331s-8.878-12.048-12.489-19.126c-3.612-6.928-6.32-18.223 1.655-18.825 6.169-.452 9.179 14.909-3.611 22.74" stroke="#FFFFEB" stroke-miterlimit="10"/><path d="M504.985 348.795s-8.426-12.5-13.693-18.223c-5.266-5.723-15.047-12.048-18.207-4.819-2.558 5.572 10.834 13.705 22.721 4.367" stroke="#FFFFEB" stroke-miterlimit="10"/><path d="M514.615 358.735l1.204-.904c3.912-2.711 4.815-8.132 2.107-11.897l-4.364-6.175-15.348 10.843 4.364 6.175c2.859 3.765 8.276 4.669 12.037 1.958z" fill="#27354B"/><path d="M501.223 355.422l14.897-14.006a1.184 1.184 0 0 0 0-1.657 1.18 1.18 0 0 0-1.655 0l-14.747 13.855a1.184 1.184 0 0 0 0 1.657c.301.452.903.452 1.505.151zM503.63 358.886l14.897-14.006a1.182 1.182 0 0 0 0-1.657 1.18 1.18 0 0 0-1.655 0l-14.746 13.855a1.182 1.182 0 0 0 0 1.657c.301.452.903.452 1.504.151zM506.039 362.349c0-.15 0-.15 0 0l14.896-14.006a1.18 1.18 0 0 0 0-1.656 1.18 1.18 0 0 0-1.655 0l-14.746 13.855a1.182 1.182 0 0 0 0 1.657c.301.301.903.452 1.505.15z" fill="#475678"/><path d="M520.032 335.843h-59.436v42.169h59.436v-42.169z" fill="#A2CBFC"/><path d="M551.933 335.843h-32.502v42.169h32.502v-42.169z" fill="#84B3F7"/><path d="M506.791 356.175h-59.286l12.79-20.332h59.136l-12.64 20.332z" fill="#CCE1FF"/><path d="M526.804 356.175h32.652l-7.373-20.332H519.28l7.524 20.332z" fill="#CCE1FF"/><path d="M404.921 340.211c-2.709-5.572-7.373-10.392-13.543-12.952-13.392-5.572-28.89.602-34.458 14.157-5.567 13.403.602 28.915 14.145 34.488 6.169 2.56 12.79 2.71 18.658.602h.151c.752-.301 1.354-.452 2.106-.904l10.383-4.066c1.956-.753 4.063-.753 5.868 0l1.655.603 6.17-14.759-1.655-.603c-1.806-.753-3.311-2.259-4.214-4.217l-4.213-10.09c-.301-.603-.752-1.356-1.053-2.259z" fill="#FFE269"/><path d="M376.03 330.12s5.568-1.506 10.834 0c5.267 1.506 8.427 4.669 8.427 4.669" stroke="#FEEF99" stroke-width="2" stroke-miterlimit="10" stroke-linecap="round" stroke-linejoin="round"/><path d="M372.118 332.681a1.506 1.506 0 1 0-.002-3.012 1.506 1.506 0 0 0 .002 3.012z" fill="#FEEF99"/><path d="M413.047 368.072s-12.941-5.723-20.013-7.68c-7.072-1.958-17.906-2.109-17.003 5.271.752 5.723 15.498 5.421 20.163-7.832" stroke="#FFFFEB" stroke-miterlimit="10"/><path d="M415.303 362.801s-13.091-5.271-19.561-8.885c-6.32-3.765-13.994-11.446-8.126-15.814 4.665-3.463 14.747 7.229 8.577 20.031" stroke="#FFFFEB" stroke-miterlimit="10"/><path opacity=".35" d="M401.009 334.337c4.966 7.681 6.169 17.621 2.408 26.657-3.762 9.036-11.737 15.211-20.766 17.018a26.872 26.872 0 0 0 6.922-1.355h.151c.752-.302 1.354-.452 2.106-.904l10.383-4.066c1.956-.753 4.063-.753 5.868 0l1.655.602 6.17-14.759-1.656-.602c-1.805-.753-3.31-2.259-4.213-4.217l-4.213-10.091-.903-2.259c-1.053-2.259-2.407-4.216-3.912-6.024z" fill="#FF9739"/><path d="M425.987 370.481c-1.956 4.518-7.072 6.626-11.586 4.669l-5.869-2.41 6.771-16.265 5.869 2.41c4.665 1.957 6.771 7.078 4.815 11.596z" fill="#27354B"/><path d="M420.57 357.982s0 .15 0 0l-9.781 16.566c-.301.452-.902.603-1.504.301-.452-.301-.602-.903-.301-1.506l9.78-16.415c.301-.452.903-.603 1.505-.302.301.302.602.904.301 1.356zM424.181 359.488s0 .151 0 0l-9.78 16.566c-.301.452-.903.603-1.505.301-.451-.301-.602-.903-.301-1.506l9.781-16.415c.301-.452.903-.603 1.504-.301.452.301.602.903.301 1.355zM427.04 362.199c0 .15 0 .15 0 0l-8.878 14.909c-.301.452-.902.603-1.504.302-.452-.302-.602-.904-.301-1.506l8.878-14.759c.301-.452.902-.603 1.504-.302.452.302.602.904.301 1.356z" fill="#475678"/><path d="M520.032 424.247V425" stroke="#4A63FE" stroke-miterlimit="10"/><path d="M611 376.506H0v1.506h611v-1.506z" fill="#A1C7FF"/><path d="M299.139 298.193l-11.135 78.313M355.566 298.193l11.135 78.313" stroke="#202263" stroke-width="1.5" stroke-miterlimit="10"/><path d="M340.218 298.193v74.849c0 8.584 7.072 15.663 15.649 15.663h136.478c8.577 0 15.649-7.079 15.649-15.663v-37.199c0-1.656 1.355-3.162 3.16-3.162h1.054c1.655 0 3.16 1.355 3.16 3.162" stroke="#4C86FC" stroke-miterlimit="10"/><path d="M379.943 231.777s-13.844 45.633-.452 50.753c10.834 4.217 20.615 31.777 23.926 42.018.301.904 1.655.753 1.805-.15 1.655-10.543 5.417-39.91 1.956-57.079-4.514-21.385-27.235-35.542-27.235-35.542zM274.913 231.777s13.843 45.633.451 50.753c-10.834 4.217-20.614 31.777-23.925 42.018-.301.904-1.655.753-1.805-.15-1.656-10.543-5.417-39.91-1.957-57.079 4.515-21.385 27.236-35.542 27.236-35.542z" fill="#202263"/><path d="M373.773 152.108h-92.691c-11.586 51.205-9.781 143.223-9.781 143.223h112.253c0 .151 1.805-92.018-9.781-143.223z" fill="#FEC230"/><path d="M327.427 218.524c11.469 0 20.765-9.305 20.765-20.783 0-11.478-9.296-20.783-20.765-20.783-11.468 0-20.765 9.305-20.765 20.783 0 11.478 9.297 20.783 20.765 20.783z" fill="#4A63FE"/><g opacity=".44" fill="#fff"><path opacity=".44" d="M346.639 180.203l-3.678-3.338-34.87 38.491 3.679 3.338 34.869-38.491zM350.893 184.6l-2.341-2.124-34.87 38.49 2.341 2.124 34.87-38.49zM340.546 175.219l-2.341-2.124-34.875 38.49 2.341 2.125 34.875-38.491z"/></g><path d="M327.427 169.578c-15.498 0-28.138 12.651-28.138 28.163s12.64 28.163 28.138 28.163c15.499 0 28.139-12.651 28.139-28.163s-12.64-28.163-28.139-28.163zm0 49.097c-11.435 0-20.765-9.338-20.765-20.783 0-11.446 9.33-20.784 20.765-20.784 11.436 0 20.766 9.338 20.766 20.784 0 11.445-9.33 20.783-20.766 20.783zM280.029 157.078h94.798c-.151-.753-.301-1.355-.452-2.108h-93.894c-.151.753-.301 1.355-.452 2.108zM271.151 289.458v6.024h112.253v-6.024H271.151z" fill="#202263"/><path d="M381.447 295.482H273.258v5.572h108.189v-5.572z" fill="#89B5F4"/><path d="M352.707 82.53l9.48-22.289" stroke="#202263" stroke-width="2" stroke-miterlimit="10" stroke-linecap="round" stroke-linejoin="round"/><path d="M373.773 150.904c1.053-6.024 1.806-11.597 1.956-16.416 1.354-29.669-9.48-51.506-14.897-60.542-1.805-3.012-5.116-4.368-8.426-3.765-10.383 1.957-31.9 8.584-53.568 31.626a125.54 125.54 0 0 0-10.383 12.952l85.318 36.145z" fill="#4A63FE"/><path d="M288.305 114.608l85.468 36.145c.301-1.355.451-2.861.752-4.217l-83.512-35.391c-1.053 1.204-1.805 2.409-2.708 3.463z" fill="#202263"/><path d="M317.497 301.054v66.717a9.444 9.444 0 0 1-9.48 9.488h-17.003a12.464 12.464 0 0 1-12.49-12.5V262.952" stroke="#4C86FC" stroke-miterlimit="10"/><path d="M327.428 243.976c-18.057 2.41-5.868 75.301-1.354 98.795.301 1.506 2.558 1.506 2.859 0 4.213-23.343 16.401-96.385-1.505-98.795z" fill="#202263"/><path d="M376.331 265.211H356.77M376.331 269.88H356.77M376.331 274.398H356.77M298.688 166.265h-11.135M298.688 169.428h-11.135M298.688 172.59h-11.135" stroke="#FFE269" stroke-miterlimit="10"/><path fill-rule="evenodd" clip-rule="evenodd" d="M227.664 210.994c-1.655 5.723-4.665 10.09-9.48 8.735-4.815-1.506-10.533-5.723-8.276-14.006 1.655-5.723 7.072-9.187 11.888-7.681 4.965 1.356 7.523 7.229 5.868 12.952z" fill="#F2B18F"/><path fill-rule="evenodd" clip-rule="evenodd" d="M213.068 224.247s-3.762-1.054-6.771-3.614c-3.461-3.013-3.461-4.519-3.461-4.519l10.533-9.337 6.621 7.831-6.922 9.639z" fill="#F2B18F"/><path d="M216.83 219.126s-3.762-1.656-4.815-4.367" stroke="#E2845A" stroke-width=".5" stroke-miterlimit="10"/><path fill-rule="evenodd" clip-rule="evenodd" d="M226.761 210.392s.752 4.367.301 4.969c-.452.603-2.107 0-2.107 0" fill="#F2B18F"/><path d="M210.961 212.048c-8.577-.753-4.965-14.156-.602-17.319 2.859-2.109 7.524-3.615 12.64-1.506 4.364 1.807 6.922 4.819 7.674 8.584.151.603.151 1.807-.15 2.41-.151.753-.753 2.108-1.956 2.108-.903 0-1.505-2.108-1.355-2.711-.451 1.205-1.203 3.013-2.407 2.41-1.204-.602-2.257-3.012-2.558-4.217 0 1.054-.753 2.41-1.655 2.109-.903-.302-1.957-1.205-2.558-2.862.3 3.313.15 6.326-4.063 5.572.15.302-.753 5.723-3.01 5.422z" fill="#4A63FE"/><path d="M227.814 193.373c-6.771 3.464-10.834 21.838-6.621 28.013 1.806 1.355 4.364 1.506 4.364 1.506l7.524-27.561s-4.063-2.56-5.267-1.958z" fill="#103BB2"/><path d="M221.344 208.133l-7.223-2.561" stroke="#103BB2" stroke-miterlimit="10"/><path d="M215.777 206.325s-.452-1.807-2.258-1.355c-2.257.602-1.504 4.518-.451 5.723 1.053 1.054 2.107-.151 2.107-.151" fill="#F2B18F"/><path d="M230.222 205.572l-5.567-1.656-1.053 4.518 5.417 1.506 1.203-4.368z" fill="#7B91FF"/><path d="M140.174 377.137l1.188-32.959-1.503-.054-1.189 32.959 1.504.054z" fill="#103BB2"/><path d="M153.331 349.247l-.601-2.861s-3.612-1.205-6.32-1.657c-2.709-.452-5.116-.452-5.116-.452l-1.204 32.831s2.859-.753 7.824-8.433c1.957-3.012 4.063-4.518 4.063-4.518l1.354-14.91z" fill="#22252D"/><path d="M165.218 346.235l-12.489.151s-1.656 1.355-1.957 6.927c-.15 5.573 1.204 10.844 1.204 10.844l16.853 1.656" fill="#F2B18F"/><path d="M213.519 303.313s23.926 37.35 17.907 53.163c-5.718 15.06-73.431 13.705-73.431 13.705v-26.356l40.477-4.97s-21.066-20.03-23.173-38.704" fill="#0D3899"/><path d="M206.298 322.741s10.533 15.964 9.329 21.084c-1.204 5.121-57.481 9.639-57.481 9.639M162.66 343.223l.151 27.108" stroke="#1956AF" stroke-width=".5" stroke-miterlimit="10"/><path d="M277.02 376.506h-32.954v1.506h32.954v-1.506z" fill="#103BB2"/><path d="M248.731 364.307l-2.859.603s-1.054 3.765-1.505 6.325c-.451 2.56-.301 5.12-.301 5.12h32.954s-.903-2.861-8.728-7.53c-3.16-1.807-4.665-3.915-4.665-3.915l-14.896-.603z" fill="#22252D"/><path d="M245.27 352.41l.601 12.5s1.355 1.656 6.922 1.656c5.568 0 10.684-1.506 10.684-1.506l1.053-16.867" fill="#F2B18F"/><path d="M169.431 287.5s-6.47 28.464 9.932 35.994c19.862 9.036 59.888-9.789 60.188-8.584 2.709 9.488 3.461 45.331 3.461 45.331l27.386-2.108s-.15-57.681-10.232-64.91c-12.94-9.187-63.048-3.464-63.048-3.464" fill="#103BB2"/><path d="M178.912 284.789s-7.073 24.398 5.116 32.681c10.232 6.928 52.665-12.801 59.135-8.735 4.815 3.012 6.471 50.602 6.471 50.602M243.313 355.874l26.935-2.109M192.454 287.199c-1.505 5.271-15.649 9.337-15.649 9.337" stroke="#4873D3" stroke-width=".5" stroke-miterlimit="10"/><path d="M277.17 262.952l-.15-18.223 15.047-8.434.752 1.807-12.79 9.037.451 15.813h-3.31z" fill="#103BB2"/><path d="M269.345 260.09c.602.302 1.354.302 1.956.302 3.762 0 7.523-.452 11.135-1.506.451-.151 1.053-.302 1.354-.603.452-.301.602-.903.301-1.355-.301-.452-.752-.603-1.354-.753.752 0 1.204-.753 1.204-1.356-.151-.602-.903-1.205-1.505-1.054a1.96 1.96 0 0 0 .752-1.958c-.15-.753-.903-1.205-1.655-1.205 0-.602.15-1.355-.301-1.807-.15-.15-1.204-1.054-1.354-.903-.151.301-.301.602-.301 1.054 0 .15 0 .301-.151.452 0 .15-.15.15-.301.301a2.901 2.901 0 0 1-1.504.452c-.151 0-.151 0-.301-.151-.151 0-.151-.151-.151-.151-.15-.301-.301-.602-.301-.903v-.904l-6.771 2.259" fill="#F2B18F"/><path d="M197.72 246.536s12.64 25.151 32.502 25.904c19.863.753 44.841-6.627 44.841-6.627l-4.514-17.319s-27.837 4.819-36.264 3.163c-7.674-1.657-11.737-14.458-14.295-18.976-2.257-4.067-6.922-8.886-6.922-8.886s-1.956-.15-5.717-2.711c-3.762-2.56-4.364-5.12-4.364-5.12s-33.405 6.024-36.866 73.494c0 0 20.163 2.861 52.665-1.205 0 0 1.957-32.078-3.16-45.331" fill="#84B3F7"/><path d="M219.087 269.277s-13.693-8.584-18.057-17.922" stroke="#BA4A13" stroke-width=".5" stroke-miterlimit="10"/><path d="M486.993 351.382l19.848-26.329-1.201-.907-19.848 26.329 1.201.907z" fill="#103BB2"/><path d="M493.249 320.633l2.257-1.808s3.612 1.356 5.869 2.561c2.257 1.204 4.364 2.861 4.364 2.861l-19.863 26.355s-1.805-2.409-.752-11.445c.451-3.615-.301-6.024-.301-6.024l8.426-12.5z" fill="#22252D"/><path d="M485.876 310.693l9.631 7.982s.451 2.108-2.859 6.626c-3.311 4.518-7.674 7.681-7.674 7.681l-14.145-9.337" fill="#F2B18F"/><path d="M431.712 377.943l32.953-.026-.001-1.506-32.954.026.002 1.506z" fill="#103BB2"/><path d="M459.995 364.307l2.859.603s1.053 3.765 1.505 6.325c.451 2.56.301 5.12.301 5.12h-32.954s.903-2.861 8.727-7.53c3.16-1.807 4.665-3.915 4.665-3.915l14.897-.603z" fill="#22252D"/><path d="M463.155 352.41l-.602 12.5s-1.354 1.656-6.922 1.656c-5.567 0-10.683-1.506-10.683-1.506l-1.053-16.867" fill="#F2B18F"/><path d="M436.22 214.608s-15.198 45.031-15.198 68.525c0 23.493 53.268 53.765 53.268 53.765l17.605-21.838s-32.352-24.247-39.273-38.705c-6.922-14.457 25.129-67.62 25.129-67.62" fill="#103A99"/><path d="M443.895 256.626s5.717 16.416 2.407 24.247c-2.708 6.476 40.327 40.512 40.327 40.512" stroke="#245ABA" stroke-width=".5" stroke-miterlimit="10"/><path d="M480.459 206.476s6.621 12.65 1.806 36.747c-4.815 24.096-15.198 116.114-15.198 116.114l-31.449-1.204s2.257-126.055 13.091-151.356" fill="#103BB2"/><path d="M464.509 212.801s3.461 11.747 2.709 23.494c-.753 11.747-9.931 106.024-12.64 122.44M452.772 220.482c1.505 10.843 14.145 7.379 14.145 7.379" stroke="#4473C6" stroke-width=".5" stroke-miterlimit="10"/><path d="M444.346 220.633c-7.072 53.012-7.524 88.855-7.524 88.855M439.982 222.44c-1.956 14.006 2.408 11.897 2.408 11.897M487.08 311.295l-16.552 23.344" stroke="#245ABA" stroke-width=".5" stroke-miterlimit="10"/><path d="M436.22 352.711l31.148 1.506M483.318 217.771l-8.577 2.711" stroke="#4473C6" stroke-width=".5" stroke-miterlimit="10"/><path d="M433.06 129.97l.752 11.144s3.009.452 7.824.302c4.816-.151 6.922-3.163 6.922-3.163l-4.815-13.102" fill="#F2B18F"/><path d="M435.016 110.843c-8.728 7.53-8.728 15.964-6.019 18.826 2.708 3.012 11.436 1.506 17.304-2.711 5.868-4.217 1.505-11.295-1.505-14.759-2.859-3.313-9.78-1.356-9.78-1.356z" fill="#F2B18F"/><path d="M433.21 131.325s4.514-.451 6.169-2.108" stroke="#E2845A" stroke-width=".5" stroke-miterlimit="10"/><path d="M428.997 106.627s-3.461 3.162.903 6.626c4.364 3.464 6.922 2.259 9.329 3.464 2.408 1.205-.752 4.669.151 5.422.903.753.903-1.055 2.708-.753 1.806.15 1.054 4.367-2.708 4.819-3.762.452-1.505 2.409 0 2.861 2.257.904 10.232-1.355 11.737-8.584 1.053-5.271-1.505-7.078-1.505-7.078s.301-6.476-7.072-7.079c-2.257-.15-4.815-.15-9.029.753-2.106.452-4.514-.451-4.514-.451z" fill="#212237"/><path d="M430.201 117.018s-2.859 1.205-3.16 2.41c-.301 1.205 1.504 2.409 1.504 2.409M380.695 149.398c-3.159-2.41-10.984-10.693-11.736-10.392-.753.301 1.956 3.313 1.354 3.464-.602.15-5.116-4.066-5.718-3.615-.903.753 3.912 4.82 3.912 4.82s-5.567-4.217-6.169-3.464c-.451.602 3.611 4.066 5.116 5.572-1.655-1.506-4.815-3.464-5.116-2.861-.451.602 2.257 3.012 4.364 4.97-1.355-1.055-3.913-3.013-4.364-2.41-.451.602 5.868 6.928 11.887 12.5" fill="#F2B18F"/><path d="M447.806 139.157s-5.868-.302-12.64 1.054c-3.461.602-10.533 5.271-14.897 11.596-4.514 6.777-11.285 14.157-13.993 13.103-3.762-1.356-27.085-19.428-27.085-19.428L366.4 159.187s31.901 31.174 41.531 31.174c6.621 0 15.047-7.68 15.047-7.68 1.053 18.223 5.567 41.717 5.567 41.717 28.44-1.055 58.685-10.241 58.685-10.241-13.392-67.621-39.424-77.41-39.424-77.41s-2.257 3.163-7.674 3.313c-6.32.151-19.712 7.832-18.809 32.832" fill="#84B3F7"/><path d="M422.979 182.681l16.251-12.35M369.26 162.048l12.94-14.307M427.793 220.633s31.298-3.163 58.534-10.693" stroke="#DB5E00" stroke-width=".5" stroke-miterlimit="10"/></svg>