<svg width="1353" height="473" fill="none" xmlns="http://www.w3.org/2000/svg"><path d="M601.648 175.195h9.757v184.626h-9.757V175.195zm148.396-4.532c-55.39 0-97.181 41.806-97.181 96.846 0 55.386 41.791 96.841 97.181 96.841 55.395 0 97.196-41.455 97.196-96.843-.005-55.038-41.804-96.844-97.196-96.844zm0 184.629c-49.812 0-87.433-37.621-87.433-87.783 0-50.167 37.619-87.782 87.433-87.782 49.814 0 87.448 37.615 87.448 87.782-.005 50.162-37.629 87.783-87.448 87.783zm281.476-166.163c-20.91-17.071-45.984-18.466-58.874-18.466-29.258 0-61.663 13.59-73.147 40.065h-.709v-35.533h-9.756v184.626h9.756V253.57c0-46.33 28.574-73.846 74.9-73.846 27.87 0 42.83 9.056 52.25 17.414 13.93 12.541 22.64 33.091 22.64 65.134v97.546h9.76v-97.544c0-33.086-8.71-57.822-26.82-73.145zm80.81-13.934h9.76v184.626h-9.76V175.195zm148.4 180.097c-47.03 0-87.44-35.536-87.44-87.783 0-25.082 10.45-49.467 25.43-63.059 19.16-17.065 36.23-24.723 62.36-24.723 36.22 0 68.27 20.199 80.81 55.38h10.81c-14.64-43.542-54.35-64.444-91.97-64.444-56.09 0-97.2 42.499-97.2 97.195 0 57.479 43.54 96.492 97.2 96.492 43.89 0 78.73-25.08 91.61-62.706h-10.79c-9.06 27.524-39.02 53.648-80.82 53.648zM606.532 128.495c5.816 0 10.531-4.715 10.531-10.53 0-5.816-4.715-10.53-10.531-10.53-5.815 0-10.53 4.714-10.53 10.53 0 5.815 4.715 10.53 10.53 10.53zM1117.21 128.495c5.81 0 10.53-4.715 10.53-10.53 0-5.816-4.72-10.53-10.53-10.53-5.82 0-10.53 4.714-10.53 10.53 0 5.815 4.71 10.53 10.53 10.53zM236.17 332.207c53.192 0 96.314-43.12 96.314-96.312s-43.122-96.312-96.314-96.312c-53.193 0-96.315 43.12-96.315 96.312s43.122 96.312 96.315 96.312z" fill="#4E8EF7"/><path d="M432.724 72.467c0-18.294-14.835-33.118-33.124-33.118a32.947 32.947 0 0 0-21.677 8.118C338.426 17.68 289.328 0 236.166 0 106.091 0 .27 105.823.27 235.898c0 130.069 105.824 235.894 235.899 235.894s235.896-105.825 235.896-235.894c0-53.161-17.678-102.264-47.462-141.758a32.937 32.937 0 0 0 8.121-21.673zm-196.558 391.39C110.467 463.857 8.2 361.591 8.2 235.892c0-125.694 102.267-227.96 227.969-227.96 51.106 0 98.335 16.91 136.401 45.424a32.942 32.942 0 0 0-6.094 19.108c0 18.291 14.83 33.115 33.119 33.115 7.124 0 13.701-2.267 19.105-6.093 28.515 38.062 45.425 85.291 45.425 136.404.005 125.701-102.257 227.964-227.959 227.964v.003z" fill="#4E8EF7"/></svg>