<svg width="926" height="206" fill="none" xmlns="http://www.w3.org/2000/svg"><path d="M256.615 8.405h42.709v84.886l78.76-84.886h51.583l-79.037 82.39 82.643 111.795h-51.306l-60.179-82.666-22.464 23.3v59.365h-42.709V8.405z" fill="#000400"/><path d="M410.576 129.075v-.552c0-42.721 34.39-77.398 80.703-77.398 46.037 0 80.149 34.122 80.149 76.843v.555c0 42.721-34.389 77.395-80.703 77.395-46.036 0-80.149-34.121-80.149-76.843zm119.252 0v-.552c0-21.917-15.807-41.057-39.103-41.057-24.128 0-38.549 18.584-38.549 40.502v.555c0 21.915 15.808 41.055 39.103 41.055 24.129 0 38.549-18.586 38.549-40.503z" fill="#000400"/><path d="M583.063 160.424V89.962h-17.749v-36.06h17.749V15.893h42.155V53.9h34.944v36.062h-34.944v63.528c0 9.707 4.159 14.425 13.589 14.425a42.84 42.84 0 0 0 20.799-5.274v33.845c-8.875 5.271-19.135 8.6-33.278 8.6-25.791 0-43.265-10.264-43.265-44.662zM672.261.082h42.155V202.59h-42.155V.082zm57.392 0h44.371v37.45h-44.371V.082zm1.111 53.818h42.153v148.689h-42.154l.001-148.689zm58.188 0h42.155v21.082c9.707-12.484 22.187-23.857 43.539-23.857 31.895 0 50.475 21.083 50.475 55.205v96.259h-42.154v-82.944c0-19.973-9.43-30.237-25.515-30.237-16.087 0-26.345 10.264-26.345 30.237v82.944h-42.156l.001-148.689z" fill="#000400"/><path d="M97.45 8.307L0 110.816v91.639l97.308-97.507 96.786-96.64H97.45z" fill="url(#paint0_linear)"/><path d="M0 202.455l97.308-97.507 96.786 97.507H0z" fill="url(#paint1_linear)"/><path d="M0 8.307h97.45L0 110.816V8.307z" fill="url(#paint2_linear)"/><defs><linearGradient id="paint0_linear" x1="-32.678" y1="186.806" x2="147.987" y2="6.191" gradientUnits="userSpaceOnUse"><stop offset=".108" stop-color="#C757BC"/><stop offset=".173" stop-color="#CD5CA9"/><stop offset=".492" stop-color="#E8744F"/><stop offset=".716" stop-color="#F88316"/><stop offset=".823" stop-color="#FF8900"/></linearGradient><linearGradient id="paint1_linear" x1="61.945" y1="237.483" x2="150.004" y2="149.447" gradientUnits="userSpaceOnUse"><stop offset=".296" stop-color="#00AFFF"/><stop offset=".694" stop-color="#5282FF"/><stop offset="1" stop-color="#945DFF"/></linearGradient><linearGradient id="paint2_linear" x1="-165.567" y1="4625.71" x2="4443.27" y2="244.343" gradientUnits="userSpaceOnUse"><stop offset=".296" stop-color="#00AFFF"/><stop offset=".694" stop-color="#5282FF"/><stop offset="1" stop-color="#945DFF"/></linearGradient></defs></svg>