<svg width="190" height="41" fill="none" xmlns="http://www.w3.org/2000/svg"><g clip-path="url(#clip0)"><path fill-rule="evenodd" clip-rule="evenodd" d="M38.13 12.453c-5.654 0-9.696 4.143-9.696 9.847 0 6.108 4.179 9.929 9.832 9.929 3.005 0 6.255-1.211 8.14-3.552l-1.72-1.534c-1.34 1.696-4.098 2.637-6.42 2.637-3.769 0-6.828-2.367-7.183-6.323H47.58c.738-7.56-3.796-11.004-9.45-11.004zm-7.047 8.771c.492-4.143 3.305-6.457 7.102-6.457 3.796 0 6.91 2.287 6.992 6.457H31.083zM52.71 15.95l-.138-3.147h-2.43v19.103h2.567v-10.87c0-3.471 2.622-6 5.872-6.027 1.23 0 2.295.35 3.25.995l1.203-2.152c-1.393-.969-2.568-1.345-4.289-1.345-2.267 0-4.807.888-6.036 3.444zM79.416 16.596c-1.42-2.69-4.534-4.062-7.457-4.062-5.38 0-9.696 3.793-9.696 9.82 0 6.054 4.288 9.928 9.669 9.928 2.84 0 5.872-1.345 7.51-4.17v3.794h2.377V12.803h-2.43v3.793h.027zM72.04 29.834c-3.988 0-7.21-2.986-7.21-7.507 0-4.493 3.222-7.453 7.21-7.453 9.806.027 9.806 14.96 0 14.96zM94.46 29.78c-3.96 0-7.293-2.637-7.293-7.426 0-4.681 3.305-7.426 7.32-7.426 1.83 0 3.578.646 5.026 2.045l1.693-1.668c-1.994-1.937-4.233-2.825-6.746-2.825-5.517 0-9.86 3.632-9.86 9.847 0 6.27 4.452 9.902 9.86 9.902 2.567 0 5.053-.915 7.074-2.906l-1.775-1.749c-1.475 1.453-3.387 2.206-5.3 2.206z" fill="#194191"/><path d="M107.198 12.722h-2.567v19.157h2.567V12.722z" fill="#194191"/><path fill-rule="evenodd" clip-rule="evenodd" d="M104.111 6.83c0 2.421 3.633 2.421 3.633 0 .027-2.449-3.633-2.449-3.633 0zM119.696 29.628c-2.567 0-3.223-1.588-3.223-3.982V14.883h6.119v-2.206h-6.146V7l-2.567.27v5.407H110v2.206h3.879v10.79c0 3.982 1.638 6.376 5.708 6.323 1.229 0 2.431-.35 3.633-.915l-.82-2.153c-.874.404-1.83.7-2.704.7zM140.16 12.803l-4.425 10.547-2.158 5.489-2.103-5.49-4.015-10.546h-2.896l7.594 18.86L128.169 41h2.813L143 12.803h-2.84z" fill="#194191"/><path fill-rule="evenodd" clip-rule="evenodd" d="M12.16 19.018c-.3-1.076-1.256-1.722-2.267-1.776-.546-.027-1.01-.35-1.283-.834l-.137-.242c-.219-.35-.3-.78-.191-1.184.109-.403.027-.834-.246-1.184a1.41 1.41 0 0 0-1.448-.511c-.928.215-1.338 1.21-.928 1.991.164.35.491.592.82.7.381.107.71.35.9.672l.192.35c.273.457.3 1.05.054 1.534a2.418 2.418 0 0 0-.054 2.125c.6 1.319 2.24 1.83 3.523 1.076a2.42 2.42 0 0 0 1.065-2.717zm-2.376 1.318a.671.671 0 0 1-.683-.672c0-.377.3-.673.683-.673.382 0 .683.296.683.673 0 .376-.3.672-.683.672z" fill="#009CFF"/><path fill-rule="evenodd" clip-rule="evenodd" d="M31.363 5.484a1.771 1.771 0 0 0-.82-.215 1.67 1.67 0 0 0-1.42.834L16.558 27.708 14.1 23.485a1.68 1.68 0 0 0-1.447-.834 1.656 1.656 0 0 0-1.448 2.476l3.633 6.215c.3.511.847.834 1.42.834h.519a1.67 1.67 0 0 0 1.42-.834l13.74-23.597c.463-.78.218-1.802-.575-2.26z" fill="#194191"/><path d="M3.612 9.897c.392 0 .71-.313.71-.7 0-.386-.318-.7-.71-.7a.705.705 0 0 0-.71.7c0 .387.317.7.71.7zM5.06 12.883A1.18 1.18 0 0 0 6.233 11.7a1.18 1.18 0 0 0-1.175-1.184A1.18 1.18 0 0 0 3.885 11.7a1.18 1.18 0 0 0 1.174 1.183zM2.437 7.61a.434.434 0 0 0 .437-.43.434.434 0 0 0-.437-.431.434.434 0 0 0-.437.43c0 .238.196.43.437.43z" fill="#194191"/></g><path fill="#10A2FF" d="M146 2h44v24h-44z"/><path d="M158.275 5.178c2.149 0 3.224 1.144 3.224 3.432v9.958c0 2.288-1.075 3.432-3.224 3.432h-6.682V5.178h6.682zm-.416 13.806V8.168a.499.499 0 0 0-.156-.364.42.42 0 0 0-.338-.156h-2.132v11.856h2.132a.42.42 0 0 0 .338-.156.499.499 0 0 0 .156-.364zm9.473 0h4.03V22h-7.67V5.178h7.67v2.964h-4.03v3.952h3.77v2.86h-3.77v4.03zm12.401-13.806h3.51L179.759 22h-4.186l-3.484-16.822h3.536l2.054 12.272 2.054-12.272z" fill="#fff"/><path d="M143 2h4v5l-4-5z" fill="#10A2FF"/><path fill="#fff" d="M181 22h5v1h-5z"/><defs><clipPath id="clip0"><path fill="#fff" d="M0 5h152v36H0z"/></clipPath></defs></svg>