<svg width="1440" height="735" fill="none" xmlns="http://www.w3.org/2000/svg"><g opacity=".6"><path d="M-40.084 489.54s420.575-310 707.418-98 767.496 34 767.496 34 365.93-636.375-40.87-352.696C987.152 356.524 719.89-61.092 363.047 163.54 6.205 388.172-168 95.54-168 95.54l127.916 394z" fill="url(#paint0_linear)"/><g opacity=".1"><path d="M199.749 667.498c0-8.587-6.94-15.538-15.489-15.538-8.55 0-15.49 6.951-15.49 15.538s6.94 15.539 15.49 15.539c8.549 0 15.489-6.952 15.489-15.539z" stroke="#ADBBF9" stroke-width="4"/><path d="M1144.19 447.47c0-8.587-6.94-15.538-15.49-15.538s-15.49 6.951-15.49 15.538 6.94 15.539 15.49 15.539 15.49-6.952 15.49-15.539zM891.387 482.1c0-8.587-6.941-15.539-15.49-15.539-8.55 0-15.49 6.952-15.49 15.539s6.94 15.538 15.49 15.538c8.549 0 15.49-6.951 15.49-15.538z" stroke="#A1C7FF" stroke-width="4"/><path stroke="#A1C7FF" stroke-width="3" d="M938.61 732.963h24.029v-24.105H938.61zM745.429 431.621h24.029v-24.105h-24.029zM163.5 528.082h24.029v-24.105H163.5z"/><path transform="matrix(.92622 .37697 .37517 -.92695 1164.02 703.725)" stroke="#FFE269" stroke-width="3" d="M1.952-.825h24.04v24.094H1.952z"/><path d="M1223.03 504.789h9.88v6.474h-9.88v10.385h-6.63v-10.385h-9.85v-6.474h9.85v-10.36h6.63v10.36zM467.793 428.257h9.877v6.475h-9.877v10.385h-6.627v-10.385h-9.852v-6.475h9.852v-10.359h6.627v10.359z" fill="#B6C8EF"/></g><g opacity=".5"><path d="M949.339 250.198c0-3.857-3.116-6.975-6.949-6.975-3.833 0-6.95 3.118-6.95 6.975 0 3.857 3.117 6.974 6.95 6.974s6.949-3.117 6.949-6.974z" stroke="#ADBBF9" stroke-width="4"/><path d="M1432.61 137.61c0-3.857-3.12-6.974-6.95-6.974s-6.95 3.117-6.95 6.974 3.12 6.975 6.95 6.975 6.95-3.118 6.95-6.975zM1303.25 162.494c0-3.857-3.12-6.975-6.95-6.975s-6.95 3.118-6.95 6.975c0 3.857 3.12 6.974 6.95 6.974s6.95-3.117 6.95-6.974z" stroke="#A1C7FF" stroke-width="4"/><path d="M1129.14 168.144c0-5.885-4.75-10.646-10.61-10.646-5.85 0-10.61 4.761-10.61 10.646 0 5.885 4.76 10.645 10.61 10.645 5.86 0 10.61-4.76 10.61-10.645z" stroke="#FFE269" stroke-width="4"/><path stroke="#A1C7FF" stroke-width="3" d="M1329.12 282.963h10.831v-10.87h-10.831zM1230.27 128.768h10.831v-10.87h-10.831zM932.5 178.127h10.831v-10.87H932.5z"/><path d="M1089.08 109.444h9.88v6.474h-9.88v10.385h-6.62v-10.385h-9.85v-6.474h9.85v-10.36h6.62v10.36z" fill="#B6C8EF"/></g><path d="M195.88 110.919c.693-.208 1.213-.554 1.56-1.04.347-.554.485-1.178.416-1.872a2.023 2.023 0 0 0-.728-1.352c-.416-.416-.936-.624-1.56-.624l-.936.104c-5.269 1.11-9.325 2.6-12.168 4.472-2.843 1.872-4.819 4.091-5.928 6.656-1.04 2.566-1.56 5.686-1.56 9.36l.104 8.84c0 4.438-.936 8.043-2.808 10.816-1.872 2.843-4.853 4.299-8.944 4.368h-.52c-.763 0-1.421.243-1.976.728-.555.555-.832 1.214-.832 1.976 0 .694.277 1.283.832 1.768.555.555 1.213.832 1.976.832h.624c4.16.07 7.141 1.456 8.944 4.16 1.803 2.774 2.704 6.414 2.704 10.92l-.104 8.84c0 4.23.763 7.662 2.288 10.296 1.595 2.635 3.779 4.68 6.552 6.136 2.773 1.526 6.344 2.843 10.712 3.952.555.139.936.208 1.144.208.763 0 1.317-.242 1.664-.728.416-.485.624-1.04.624-1.664 0-.554-.208-1.074-.624-1.56-.347-.416-.832-.728-1.456-.936-4.229-1.317-7.384-2.669-9.464-4.056-2.08-1.317-3.501-2.946-4.264-4.888-.763-1.872-1.144-4.437-1.144-7.696l.104-8.528c0-4.298-.867-8.008-2.6-11.128-1.664-3.05-3.987-5.026-6.968-5.928 3.051-1.04 5.408-3.085 7.072-6.136 1.664-3.05 2.496-6.725 2.496-11.024l-.104-8.632c0-3.258.347-5.824 1.04-7.696.763-1.941 2.184-3.605 4.264-4.992 2.149-1.386 5.339-2.704 9.568-3.952z" fill="#EDEEF7"/></g><defs><linearGradient id="paint0_linear" x1="709" y1="495.463" x2="709" y2="0" gradientUnits="userSpaceOnUse"><stop stop-color="#C6DBFE"/><stop offset="1" stop-color="#C6DBFE" stop-opacity=".34"/></linearGradient></defs></svg>