<svg width="700" height="273" fill="none" xmlns="http://www.w3.org/2000/svg"><path d="M349.89 272.831c144.638 0 261.89-61.075 261.89-136.416C611.78 61.075 494.528 0 349.89 0 205.252 0 88 61.075 88 136.415c0 75.341 117.252 136.416 261.89 136.416z" fill="#8993BE"/><path fill-rule="evenodd" clip-rule="evenodd" d="M161.545 217.188l28.701-145.391h66.367c28.699 1.795 43.05 16.154 43.05 41.285 0 43.078-34.08 68.207-64.576 66.412h-32.284l-7.176 37.694h-34.082zm48.431-64.617l8.97-53.85h23.318c12.557 0 21.524 5.385 21.524 16.154-1.792 30.516-16.143 35.901-32.286 37.696h-21.526zm83.019 26.923l28.7-145.389h34.082l-7.175 37.692h32.286c28.701 1.795 39.463 16.154 35.877 34.105l-12.557 73.592h-35.874l12.556-66.412c1.792-8.976 1.792-14.36-10.762-14.36h-26.907l-16.143 80.772h-34.083zm108.916 37.694L430.61 71.797h66.369c28.701 1.795 43.052 16.154 43.052 41.285 0 43.078-34.082 68.207-64.576 66.412h-32.288l-7.176 37.694h-34.08zm48.429-64.617l8.97-53.85h23.32c12.557 0 21.524 5.385 21.524 16.154-1.792 30.516-16.143 35.901-32.286 37.696H450.34z" fill="#232531"/></svg>