<svg width="927" height="269" fill="none" xmlns="http://www.w3.org/2000/svg"><path d="M349.523 114.533c0-28.41-8.107-42.995-24.321-43.793-6.453-.304-12.75.722-18.878 3.1-4.891 1.748-8.183 3.481-9.914 5.231v67.811c10.371 6.504 19.58 9.528 27.612 9.052 16.992-1.126 25.501-14.911 25.501-41.401zm20 1.179c0 14.433-3.388 26.413-10.201 35.94-7.593 10.783-18.117 16.335-31.571 16.639-10.142.322-20.592-2.852-31.343-9.509v61.633l-17.394-6.2v-136.8c2.854-3.498 6.528-6.503 10.98-9.053 10.353-6.028 22.931-9.126 37.738-9.278l.246.245c13.532-.17 23.958 5.383 31.285 16.64 6.833 10.326 10.26 23.562 10.26 39.743zm106.302 40.448c0 19.36-1.941 32.765-5.822 40.219-3.901 7.453-11.324 13.405-22.285 17.838-8.887 3.498-18.499 5.4-28.811 5.724l-2.876-10.953c10.486-1.424 17.87-2.852 22.152-4.278 8.43-2.853 14.215-7.225 17.394-13.083 2.55-4.772 3.805-13.881 3.805-27.362v-4.527c-11.894 5.403-24.358 8.083-37.392 8.083-8.566 0-16.119-2.68-22.629-8.083-7.307-5.876-10.96-13.328-10.96-22.361V65.036l17.393-5.952v72.811c0 7.776 2.511 13.767 7.535 17.97 5.023 4.202 11.533 6.219 19.506 6.065 7.974-.171 16.517-3.252 25.594-9.28V61.706h17.394v94.454h.002zm67.898 11.181a69.309 69.309 0 0 1-5.728.246c-9.838 0-17.509-2.337-22.987-7.035-5.463-4.696-8.202-11.179-8.202-19.453V72.641h-11.914V61.708h11.914V32.67l17.374-6.18v35.218h19.543V72.64H524.18v67.982c0 6.524 1.749 11.144 5.25 13.846 3.007 2.224 7.784 3.498 14.292 3.822v9.05h.001zm105.315-1.426h-17.394V98.826c0-6.826-1.597-12.702-4.776-17.607-3.672-5.554-8.772-8.33-15.32-8.33-7.974 0-17.945 4.202-29.915 12.606v80.42h-17.392V5.554L581.633.077v73.04c11.113-8.083 23.255-12.133 36.444-12.133 9.211 0 16.669 3.1 22.38 9.28 5.728 6.179 8.583 13.881 8.583 23.086v72.565h-.002zm92.448-54.119c0-10.915-2.074-19.929-6.205-27.06-4.91-8.689-12.54-13.274-22.855-13.748-19.069 1.103-28.585 14.755-28.585 40.923 0 11.998 1.98 22.02 5.976 30.064 5.1 10.25 12.751 15.309 22.953 15.137 19.143-.154 28.716-15.252 28.716-45.316zm19.049.113c0 15.537-3.977 28.468-11.913 38.793-8.737 11.563-20.799 17.361-36.196 17.361-15.262 0-27.156-5.8-35.738-17.361-7.785-10.325-11.668-23.256-11.668-38.793 0-14.603 4.205-26.888 12.618-36.89 8.888-10.611 20.571-15.935 35.017-15.935 14.441 0 26.203 5.324 35.262 15.935 8.413 10.002 12.618 22.287 12.618 36.89zm99.717 54.006h-17.394V95.024c0-7.777-2.339-13.844-7.021-18.218-4.682-4.355-10.925-6.465-18.708-6.296-8.256.152-16.119 2.852-23.577 8.083v87.322h-17.394v-89.47c10.01-7.28 19.222-12.037 27.633-14.261 7.934-2.072 14.937-3.1 20.97-3.1 4.128 0 8.013.398 11.666 1.197 6.831 1.579 12.39 4.507 16.669 8.805 4.778 4.755 7.156 10.457 7.156 17.133v79.696z" fill="#646464"/><path d="M107.223 6.195c-8.95.041-17.495.804-25.014 2.135-22.152 3.911-26.174 12.095-26.174 27.192v19.937h52.348v6.644H36.388c-15.213 0-28.536 9.139-32.703 26.521-4.806 19.925-5.02 32.359 0 53.164 3.722 15.486 12.609 26.521 27.822 26.521h18V144.41c0-17.266 14.949-32.495 32.702-32.495h52.287c14.555 0 26.174-11.975 26.174-26.582V35.52c0-14.176-11.968-24.826-26.174-27.192-8.995-1.495-18.323-2.176-27.273-2.133zm-28.31 16.033c5.408 0 9.823 4.485 9.823 9.999 0 5.494-4.417 9.938-9.823 9.938-5.426 0-9.822-4.443-9.822-9.938 0-5.514 4.396-9.999 9.822-9.999z" fill="url(#paint0_linear)"/><path d="M167.199 62.102v23.227c0 18.01-15.28 33.166-32.703 33.166H82.209c-14.323 0-26.174 12.248-26.174 26.582v49.809c0 14.178 12.335 22.516 26.174 26.582 16.57 4.87 32.461 5.749 52.287 0 13.179-3.812 26.174-11.487 26.174-26.582v-19.934h-52.287v-6.645h78.461c15.215 0 20.883-10.605 26.174-26.521 5.466-16.384 5.234-32.144 0-53.163-3.761-15.134-10.942-26.521-26.174-26.521h-19.645zm-29.409 126.14c5.426 0 9.822 4.442 9.822 9.938 0 5.513-4.396 9.998-9.822 9.998-5.408 0-9.823-4.485-9.823-9.998 0-5.494 4.417-9.938 9.823-9.938z" fill="url(#paint1_linear)"/><path d="M894.124 46.211h3.05V27.1h7.222V24.82h-17.498V27.1h7.224V46.21h.002zm12.978 0h2.604V28.756l5.654 17.453h2.9l5.894-17.394V46.21h2.843V24.823h-3.761l-6.441 18.325-5.49-18.325h-4.203v21.388" fill="#646464"/><path opacity=".444" d="M179.129 255.331c0 7.507-31.408 13.592-70.153 13.592-38.744 0-70.152-6.085-70.152-13.592 0-7.508 31.408-13.595 70.152-13.595 38.745 0 70.153 6.087 70.153 13.595z" fill="url(#paint2_radial)"/><defs><linearGradient id="paint0_linear" x1="-5.163" y1="12.421" x2="115.475" y2="115.284" gradientUnits="userSpaceOnUse"><stop stop-color="#5A9FD4"/><stop offset="1" stop-color="#306998"/></linearGradient><linearGradient id="paint1_linear" x1="160.846" y1="179.265" x2="117.579" y2="118.596" gradientUnits="userSpaceOnUse"><stop stop-color="#FFD43B"/><stop offset="1" stop-color="#FFE873"/></linearGradient><radialGradient id="paint2_radial" cx="0" cy="0" r="1" gradientUnits="userSpaceOnUse" gradientTransform="matrix(0 -13.5902 59.7928 0 108.953 255.018)"><stop stop-color="#B8B8B8" stop-opacity=".498"/><stop offset="1" stop-color="#7F7F7F" stop-opacity="0"/></radialGradient></defs></svg>