<svg width="158" height="148" fill="none" xmlns="http://www.w3.org/2000/svg"><path d="M73.23 148H48v-24.925C48 108.26 56.41 99.902 73.23 98v12.462c-8.158.301-12.338 4.505-12.54 12.613h12.54V148zm37.77 0H85.77v-24.925C85.77 108.26 94.18 99.902 111 98v12.462c-8.158.301-12.338 4.505-12.54 12.613H111V148z" fill="#1D51A2"/><path opacity=".06" d="M63.276 126H0V63.19C0 25.855 21.092 4.792 63.276 0v31.405c-20.46.757-30.944 11.352-31.449 31.784h31.449V126zM158 126H94.724V63.19C94.724 25.855 115.816 4.792 158 0v31.405c-20.46.757-30.943 11.352-31.448 31.784H158V126z" fill="#1D51A2"/></svg>