<svg width="1050" height="326" fill="none" xmlns="http://www.w3.org/2000/svg"><path d="M326.296 90.373a453.382 453.382 0 0 0-.145-9.826c-.198-7.135-.613-14.335-1.883-21.39a72.144 72.144 0 0 0-6.71-20.345 68.374 68.374 0 0 0-29.907-29.907 72.246 72.246 0 0 0-20.346-6.7C260.234.935 253.03.513 245.893.322a446.36 446.36 0 0 0-9.837-.151c-3.892-.02-7.783-.02-11.681-.02H102.378c-3.898 0-7.783 0-11.674.02-3.28.026-6.558.066-9.837.151A245.06 245.06 0 0 0 75.5.52c-5.366.256-10.746.73-16.046 1.685a74.493 74.493 0 0 0-15.42 4.436 68.612 68.612 0 0 0-22.25 14.848 68.338 68.338 0 0 0-12.59 17.317C5.877 45.32 3.777 51.982 2.493 59.15 1.22 66.212.8 73.412.609 80.54c-.092 3.291-.132 6.562-.152 9.833-.02 3.897-.02 7.786-.02 11.676v121.946c0 3.897 0 7.786.02 11.676.027 3.278.066 6.556.152 9.827.197 7.141.612 14.341 1.883 21.39a72.175 72.175 0 0 0 6.703 20.357 68.339 68.339 0 0 0 29.92 29.908c6.512 3.31 13.175 5.41 20.346 6.7 7.058 1.27 14.268 1.691 21.406 1.882 3.279.086 6.558.125 9.837.145 3.885.026 7.776.02 11.674.02h121.997c3.885 0 7.783.006 11.674-.02 3.279-.02 6.552-.059 9.831-.145 7.144-.197 14.354-.612 21.412-1.882a72.235 72.235 0 0 0 20.346-6.7 68.355 68.355 0 0 0 29.913-29.908c3.319-6.515 5.419-13.183 6.71-20.344 1.271-7.055 1.692-14.256 1.883-21.397.086-3.271.125-6.549.145-9.826.026-3.89.02-7.78.02-11.676V102.049c0-3.89 0-7.78-.02-11.676h.007z" fill="#F05138"/><path d="M258.659 201.223l-.019-.02c.355-1.231.724-2.449 1.047-3.706 13.524-53.864-19.49-117.55-75.346-151.076 24.481 33.172 35.299 73.346 25.679 108.479a90.352 90.352 0 0 1-3.022 9.07 74.665 74.665 0 0 0-4.886-2.889S146.539 126.79 86.318 66.126c-1.58-1.593 32.112 48.139 70.355 88.524-18.015-10.103-68.228-46.625-100.012-75.703 3.905 6.516 8.554 12.782 13.657 18.818C96.86 131.41 131.48 172.928 172.95 204.81c-29.137 17.823-70.309 19.205-111.304.019a168.134 168.134 0 0 1-28.498-16.994 170.648 170.648 0 0 0 76.604 65.653c38.796 16.665 77.367 15.533 106.095.276l-.019.033c.131-.085.296-.171.434-.263a81.091 81.091 0 0 0 3.49-1.955c13.807-7.161 41.074-14.427 55.704 14.032 3.589 6.97 11.207-29.946-16.79-64.382l-.007-.006z" fill="#fff"/><path d="M449.991 211.549c2.548 22.595 24.112 37.411 54.058 37.411 28.451 0 48.968-14.809 48.968-35.318 0-17.659-12.431-28.439-41.034-35.62l-27.701-7.042c-39.829-9.873-57.798-27.841-57.798-57.472 0-36.522 31.895-61.815 77.269-61.815 44.017 0 75.313 25.445 76.366 62.118h-29.202c-2.245-22.457-20.517-36.226-47.915-36.226-27.108 0-45.973 13.92-45.973 34.271 0 15.862 11.681 25.3 40.429 32.632l23.065 5.99c44.623 10.925 62.888 28.288 62.888 59.571 0 39.819-31.598 64.81-81.91 64.81-46.717 0-78.612-24.846-81.009-63.316h29.499v.006zm318.898 59.716h-29.347L705.25 151.827h-.593L670.51 271.265h-29.34l-43.424-156.414h28.445l30.248 125.579h.6l34.14-125.579h27.556l34.437 125.579h.599l30.249-125.579h28.148l-43.279 156.414zm62.223-198.471c0-9.425 7.796-17.06 17.225-17.06 9.587 0 17.37 7.635 17.37 17.06 0 9.431-7.783 17.21-17.37 17.21a17.322 17.322 0 0 1-12.147-5.069 17.309 17.309 0 0 1-5.072-12.141h-.006zm3.002 42.057h28.597v156.414h-28.597V114.851zm215.366 23.055v-23.055h-30.24V77.434h-28.462v37.417h-54.664v-13.769c.145-13.92 5.531-19.758 18.417-19.758 4.188 0 8.382.454 11.826 1.053V59.913a99.869 99.869 0 0 0-15.118-1.198c-30.552 0-43.431 12.73-43.431 41.913v14.216h-21.861V137.9h21.861v133.359h28.451V137.906h54.526v92.342c0 30.236 11.525 41.906 41.475 41.906 6.44 0 13.78-.448 17.07-1.192V247.61c-3.58.443-7.18.693-10.78.751-13.33 0-19.31-6.286-19.31-20.358v-90.097h30.24z" fill="#000"/></svg>