<svg width="1440" height="450" fill="none" xmlns="http://www.w3.org/2000/svg"><path d="M686.861 82.614a13.086 13.086 0 0 1-13.138 13.144h-94.469a13.086 13.086 0 0 1-13.138-13.144 13.086 13.086 0 0 1 13.138-13.143h94.469a13.086 13.086 0 0 1 13.138 13.143zM842.432 117.663a7.478 7.478 0 0 1-7.508 7.511h-69.235a7.477 7.477 0 0 1-7.507-7.511 7.477 7.477 0 0 1 7.507-7.51h69.235a7.478 7.478 0 0 1 7.508 7.51zM411.171 11.892c0 6.05-5.005 11.056-11.053 11.056h-73.614c-6.048 0-11.053-5.006-11.053-11.056 0-6.05 5.005-11.058 11.053-11.058h73.614c6.048 0 11.053 4.799 11.053 11.058zM229.741 153.546c0 4.799-3.962 8.763-8.759 8.763h-93.217c-4.796 0-8.759-3.964-8.759-8.763 0-4.798 3.963-8.762 8.759-8.762h93.217c4.797.209 8.759 3.964 8.759 8.762zM1365.03 153.546c0 4.799-3.96 8.763-8.76 8.763h-93.21c-4.8 0-8.76-3.964-8.76-8.763 0-4.798 3.96-8.762 8.76-8.762h93.21c4.8.209 8.76 3.964 8.76 8.762zM425.143 162.309c28.793 0 52.135-23.351 52.135-52.156s-23.342-52.156-52.135-52.156c-28.794 0-52.135 23.351-52.135 52.156s23.341 52.156 52.135 52.156z" fill="#fff" stroke="#9BC9FF" stroke-width=".727" stroke-miterlimit="10" stroke-linecap="round" stroke-linejoin="round"/><path d="M550.475 110.153a13.086 13.086 0 0 1-13.138 13.143h-94.469a13.086 13.086 0 0 1-13.138-13.143c0-7.302 5.84-13.143 13.138-13.143h94.469c7.299.208 13.138 6.05 13.138 13.143z" fill="#fff" stroke="#9BC9FF" stroke-width=".727" stroke-miterlimit="10" stroke-linecap="round" stroke-linejoin="round"/><path d="M496.88 130.807a7.478 7.478 0 0 1-7.507 7.51h-69.236a7.478 7.478 0 0 1-7.507-7.51 7.478 7.478 0 0 1 7.507-7.511h69.236a7.478 7.478 0 0 1 7.507 7.511zM1107.49 90.125c0-7.302 5.83-13.143 13.13-13.143h94.47c7.3 0 13.14 5.841 13.14 13.143 0 7.302-5.84 13.143-13.14 13.143h-94.47c-7.3 0-13.13-6.05-13.13-13.143z" fill="#fff" stroke="#9BC9FF" stroke-width=".727" stroke-miterlimit="10" stroke-linecap="round" stroke-linejoin="round"/><path d="M1160.87 69.471a7.48 7.48 0 0 1 7.51-7.51h69.23a7.48 7.48 0 0 1 7.51 7.51 7.48 7.48 0 0 1-7.51 7.51h-69.23a7.48 7.48 0 0 1-7.51-7.51zM1026.99 154.59c0 4.381-3.55 7.927-7.92 7.927h-26.906a7.922 7.922 0 0 1-7.925-7.927 7.923 7.923 0 0 1 7.925-7.928h26.906c4.37 0 7.92 3.547 7.92 7.928zM577.168 405.98s-76.326-17.941-226.683-17.941c-153.694 0-228.977 25.034-228.977 25.034v3.964s75.283-25.243 228.977-25.243c150.357 0 226.683 17.941 226.683 17.941v-3.755z" fill="#fff" stroke="#9BC9FF" stroke-width=".727" stroke-miterlimit="10" stroke-linecap="round" stroke-linejoin="round"/><path d="M291.26 448.748h-29.405l5.631-106.815h18.143l5.631 106.815z" fill="#fff" stroke="#9BC9FF" stroke-width=".727" stroke-miterlimit="10" stroke-linecap="round" stroke-linejoin="round"/><path d="M293.345 442.489H259.77v6.259h33.575v-6.259z" fill="#fff" stroke="#9BC9FF" stroke-width=".727" stroke-miterlimit="10" stroke-linecap="round" stroke-linejoin="round"/><path d="M291.26 439.36h-29.405v3.129h29.405v-3.129zM290.425 334.214h-27.527v5.215h27.527v-5.215zM288.966 339.43h-24.191v2.503h24.191v-2.503zM291.26 413.908h-29.405v3.13h29.405v-3.13zM291.26 383.866h-29.405v3.13h29.405v-3.13z" fill="#fff" stroke="#9BC9FF" stroke-width=".727" stroke-miterlimit="10" stroke-linecap="round" stroke-linejoin="round"/><path d="M281.876 348.191c0 1.044-.835 1.669-1.669 1.669h-3.754c-1.042 0-1.668-.834-1.668-1.669 0-1.043.834-1.669 1.668-1.669h3.754c.834 0 1.669.626 1.669 1.669zM283.961 373.644c0 1.043-.834 1.669-1.668 1.669h-3.754c-1.043 0-1.668-.835-1.668-1.669 0-1.044.834-1.669 1.668-1.669h3.754c.834 0 1.668.834 1.668 1.669zM286.463 370.306c0 1.043-.834 1.669-1.668 1.669h-3.754c-1.042 0-1.668-.835-1.668-1.669 0-1.043.834-1.669 1.668-1.669h3.754c.834-.209 1.668.626 1.668 1.669zM277.079 403.06c0 1.043-.834 1.669-1.668 1.669h-3.754c-1.043 0-1.668-.835-1.668-1.669 0-1.044.834-1.669 1.668-1.669h3.754c.834-.209 1.668.625 1.668 1.669zM274.785 423.713c0 1.043-.834 1.669-1.669 1.669h-3.753c-1.043 0-1.669-.835-1.669-1.669 0-1.043.834-1.669 1.669-1.669h3.753c1.043-.209 1.669.626 1.669 1.669zM285.003 433.727c0 1.043-.834 1.669-1.668 1.669h-3.754c-1.042 0-1.668-.834-1.668-1.669 0-1.043.834-1.669 1.668-1.669h3.754c.834 0 1.668.835 1.668 1.669zM279.581 399.513c0 1.043-.834 1.669-1.668 1.669h-3.754c-1.043 0-1.668-.835-1.668-1.669 0-1.043.834-1.669 1.668-1.669h3.754c.834 0 1.668.626 1.668 1.669z" stroke="#9BC9FF" stroke-width=".727" stroke-miterlimit="10" stroke-linecap="round" stroke-linejoin="round"/><path d="M396.78 448.748h29.613l-5.839-106.815h-17.935l-5.839 106.815z" fill="#fff" stroke="#9BC9FF" stroke-width=".727" stroke-miterlimit="10" stroke-linecap="round" stroke-linejoin="round"/><path d="M428.27 442.489h-33.575v6.259h33.575v-6.259z" fill="#fff" stroke="#9BC9FF" stroke-width=".727" stroke-miterlimit="10" stroke-linecap="round" stroke-linejoin="round"/><path d="M426.184 439.36H396.78v3.129h29.404v-3.129zM425.143 334.214h-27.528v5.215h27.528v-5.215zM423.474 339.43h-24.191v2.503h24.191v-2.503zM426.184 413.908H396.78v3.13h29.404v-3.13zM426.184 383.866H396.78v3.13h29.404v-3.13z" fill="#fff" stroke="#9BC9FF" stroke-width=".727" stroke-miterlimit="10" stroke-linecap="round" stroke-linejoin="round"/><path d="M406.165 348.191c0 1.044.834 1.669 1.668 1.669h3.754c1.043 0 1.668-.834 1.668-1.669 0-1.043-.834-1.669-1.668-1.669h-3.754c-.834 0-1.668.626-1.668 1.669zM404.08 373.644c0 1.043.834 1.669 1.668 1.669h3.754c1.043 0 1.668-.835 1.668-1.669 0-1.044-.834-1.669-1.668-1.669h-3.754c-.834 0-1.668.834-1.668 1.669zM401.577 370.306c0 1.043.834 1.669 1.668 1.669h3.754c1.043 0 1.669-.835 1.669-1.669 0-1.043-.835-1.669-1.669-1.669h-3.754c-.834-.209-1.668.626-1.668 1.669zM410.961 403.06c0 1.043.834 1.669 1.668 1.669h3.754c1.043 0 1.668-.835 1.668-1.669 0-1.044-.834-1.669-1.668-1.669h-3.754c-.834-.209-1.668.625-1.668 1.669zM413.256 423.713c0 1.043.834 1.669 1.668 1.669h3.754c1.043 0 1.668-.835 1.668-1.669 0-1.043-.834-1.669-1.668-1.669h-3.754c-.834-.209-1.668.626-1.668 1.669zM403.037 433.727c0 1.043.834 1.669 1.668 1.669h3.754c1.043 0 1.668-.834 1.668-1.669 0-1.043-.834-1.669-1.668-1.669h-3.754c-.834 0-1.668.835-1.668 1.669zM408.668 399.513c0 1.043.834 1.669 1.668 1.669h3.754c1.043 0 1.668-.835 1.668-1.669 0-1.043-.834-1.669-1.668-1.669h-3.754c-1.042 0-1.668.626-1.668 1.669zM285.629 341.933s26.902 36.301 55.055 36.301c28.361 0 62.353-36.301 62.353-36.301M422.641 341.933s46.504 52.573 74.865 52.573M267.695 341.933s-44.836 52.573-74.866 56.328" stroke="#9BC9FF" stroke-width=".727" stroke-miterlimit="10" stroke-linecap="round" stroke-linejoin="round"/><path d="M468.311 350.695c0-15.855 12.929-28.79 28.778-28.79 15.849 0 28.779 12.935 28.779 28.79h-57.557zM548.598 384.91H445.371v64.256h103.227V384.91z" fill="#fff" stroke="#9BC9FF" stroke-width=".727" stroke-miterlimit="10" stroke-linecap="round" stroke-linejoin="round"/><path d="M445.371 391.585h103.227M445.371 414.117h103.227M445.371 425.173h103.227" stroke="#9BC9FF" stroke-width=".727" stroke-miterlimit="10" stroke-linecap="round" stroke-linejoin="round"/><path d="M462.471 417.037h-3.962v5.216h3.962v-5.216zM477.069 417.037h-3.963v5.216h3.963v-5.216zM491.666 417.037h-3.962v5.216h3.962v-5.216zM506.265 417.037h-3.962v5.216h3.962v-5.216zM520.863 417.037H516.9v5.216h3.963v-5.216zM535.46 417.037h-3.962v5.216h3.962v-5.216zM540.674 394.506h-5.214v5.424h5.214v-5.424zM540.674 403.686h-5.214v5.424h5.214v-5.424zM458.508 394.506h-5.213v5.424h5.213v-5.424zM458.508 403.686h-5.213v5.424h5.213v-5.424z" fill="#9BC9FF"/><path d="M471.647 391.585h-5.213v22.74h5.213v-22.74zM485.62 391.585h-5.214v22.74h5.214v-22.74zM499.591 391.585h-5.213v22.74h5.213v-22.74zM513.563 391.585h-5.213v22.74h5.213v-22.74zM527.328 391.585h-5.214v22.74h5.214v-22.74zM455.798 437.691c0-4.59 1.46-8.136 3.336-8.136 1.877 0 3.337 3.755 3.337 8.136v6.885h-6.673v-6.885zM471.021 437.691c0-4.59 1.46-8.136 3.337-8.136 1.877 0 3.337 3.755 3.337 8.136v6.885h-6.674v-6.885zM486.036 437.691c0-4.59 1.46-8.136 3.337-8.136 1.877 0 3.336 3.755 3.336 8.136v6.885h-6.673v-6.885zM501.26 437.691c0-4.59 1.46-8.136 3.336-8.136 1.877 0 3.337 3.755 3.337 8.136v6.885h-6.673v-6.885zM516.482 437.691c0-4.59 1.46-8.136 3.337-8.136 1.877 0 3.337 3.755 3.337 8.136v6.885h-6.674v-6.885 0zM531.498 437.691c0-4.59 1.46-8.136 3.337-8.136 1.876 0 3.336 3.755 3.336 8.136v6.885h-6.673v-6.885 0z" stroke="#9BC9FF" stroke-width=".727" stroke-miterlimit="10" stroke-linecap="round" stroke-linejoin="round"/><path d="M527.327 368.637h-60.893v16.272h60.893v-16.272zM531.498 364.047h-69.026v4.59h69.026v-4.59zM525.45 352.573h-56.931v11.265h56.931v-11.265zM527.952 348.817h-61.727v3.756h61.727v-3.756zM501.26 304.798l-4.588-13.978-3.962 13.978v17.316h8.55v-17.316zM376.552 338.803s9.593-3.337 10.219-2.92c.625.417-.626 1.877-.626 1.877s6.674-.417 5.839 1.043c-.625 1.461-16.057 2.504-16.057 2.504l.625-2.504z" fill="#fff" stroke="#9BC9FF" stroke-width=".727" stroke-miterlimit="10" stroke-linecap="round" stroke-linejoin="round"/><path d="M382.184 337.552l-6.465 11.683h-11.052l-11.053 3.547-17.517 28.581v-44.228l46.087.417zM359.454 415.16h-27.736v33.589h27.736V415.16z" fill="#fff" stroke="#9BC9FF" stroke-width=".727" stroke-miterlimit="10" stroke-linecap="round" stroke-linejoin="round"/><path d="M369.88 448.749h-10.427V415.16l6.673 2.504 3.754 31.085zM321.291 448.749h10.427V415.16l-6.882 2.504-3.545 31.085z" fill="#fff" stroke="#9BC9FF" stroke-width=".727" stroke-miterlimit="10" stroke-linecap="round" stroke-linejoin="round"/><path d="M362.997 416.412l-3.545-1.252h-27.736l-4.796 1.252v-4.799h36.077v4.799z" fill="#fff" stroke="#9BC9FF" stroke-width=".727" stroke-miterlimit="10" stroke-linecap="round" stroke-linejoin="round"/><path d="M331.926 411.613v3.547M358.618 411.613v3.547" stroke="#9BC9FF" stroke-width=".727" stroke-miterlimit="10" stroke-linecap="round" stroke-linejoin="round"/><path d="M355.074 371.14h-19.603l-3.545 40.473h26.693l-3.545-40.473z" fill="#fff" stroke="#9BC9FF" stroke-width=".727" stroke-miterlimit="10" stroke-linecap="round" stroke-linejoin="round"/><path d="M336.097 411.613V371.14M340.685 411.613V371.14M345.063 411.613V371.14M349.443 411.613V371.14M353.822 411.613V371.14" stroke="#9BC9FF" stroke-width=".727" stroke-miterlimit="10" stroke-linecap="round" stroke-linejoin="round"/><path d="M312.114 338.803s-9.592-3.337-10.218-2.92c-.626.417.626 1.877.626 1.877s-6.674-.417-5.839 1.043c.625 1.461 16.057 2.504 16.057 2.504l-.626-2.504z" fill="#fff" stroke="#9BC9FF" stroke-width=".727" stroke-miterlimit="10" stroke-linecap="round" stroke-linejoin="round"/><path d="M308.361 337.552l6.465 11.683h10.844l11.052 3.547 15.432 28.581h6.465v-44.228l-50.258.417z" fill="#fff" stroke="#9BC9FF" stroke-width=".727" stroke-miterlimit="10" stroke-linecap="round" stroke-linejoin="round"/><path d="M356.951 336.3h-23.982v40.055l23.982 9.597V336.3z" fill="#fff" stroke="#9BC9FF" stroke-width=".727" stroke-miterlimit="10" stroke-linecap="round" stroke-linejoin="round"/><path d="M358.202 337.343c0 5.007-9.593 9.18-21.271 9.18-11.887 0-21.271-4.173-21.271-9.18h42.542z" fill="#fff" stroke="#9BC9FF" stroke-width=".727" stroke-miterlimit="10" stroke-linecap="round" stroke-linejoin="round"/><path d="M358.619 379.276l-8.133-3.338V336.3h8.133v42.976z" fill="#fff" stroke="#9BC9FF" stroke-width=".727" stroke-miterlimit="10" stroke-linecap="round" stroke-linejoin="round"/><path d="M352.154 376.564v7.302l6.465-4.59-6.465-2.712z" fill="#fff" stroke="#9BC9FF" stroke-width=".727" stroke-miterlimit="10" stroke-linecap="round" stroke-linejoin="round"/><path d="M353.406 383.032l4.797 4.798v-8.554l-4.797 3.756zM331.509 344.228l-1.668 21.697h7.924V345.48l-6.256-1.252z" fill="#fff" stroke="#9BC9FF" stroke-width=".727" stroke-miterlimit="10" stroke-linecap="round" stroke-linejoin="round"/><path d="M335.68 345.062l-2.711 18.359 4.796.835V345.48l-2.085-.418zM348.818 328.79h-8.342l-.208 7.51h8.758l-.208-7.51z" fill="#fff" stroke="#9BC9FF" stroke-width=".727" stroke-miterlimit="10" stroke-linecap="round" stroke-linejoin="round"/><path d="M363.623 336.3c0 5.007-9.593 9.179-21.271 9.179-11.887 0-21.271-4.172-21.271-9.179h42.542z" fill="#fff" stroke="#9BC9FF" stroke-width=".727" stroke-miterlimit="10" stroke-linecap="round" stroke-linejoin="round"/><path d="M353.822 336.3c0 3.129-5.213 5.633-11.678 5.633-6.465 0-11.678-2.504-11.678-5.633h23.356zM348.818 328.79c0 2.086-1.669 3.546-3.546 3.546h-1.042c-2.086 0-3.545-1.669-3.545-3.546v-4.173c0-2.086 1.668-3.546 3.545-3.546h1.042c2.086 0 3.546 1.669 3.546 3.546v4.173zM648.072 381.572c17.935 3.964 41.083 8.136 55.472 13.56l7.716 53.825h-96.554l33.366-67.385z" fill="#fff" stroke="#9BC9FF" stroke-width=".727" stroke-miterlimit="10" stroke-linecap="round" stroke-linejoin="round"/><path d="M632.849 402.643c25.859 1.877 53.594 4.589 73.197 10.222l5.005 36.092H609.909l22.94-46.314z" fill="#fff" stroke="#9BC9FF" stroke-width=".727" stroke-miterlimit="10" stroke-linecap="round" stroke-linejoin="round"/><path d="M615.748 426.217c34.827.208 68.402 1.46 93.009 6.259l2.294 16.272H604.487l11.261-22.531z" fill="#fff" stroke="#9BC9FF" stroke-width=".727" stroke-miterlimit="10" stroke-linecap="round" stroke-linejoin="round"/><path d="M654.954 430.807l-55.889-.626v-39.013h42.126v10.64l13.763 28.999z" fill="#fff" stroke="#9BC9FF" stroke-width=".727" stroke-miterlimit="10" stroke-linecap="round" stroke-linejoin="round"/><path d="M667.675 448.957h-49.841v-22.114h41.291l8.55 22.114zM658.916 416.621h-21.062v10.013h21.062v-10.013z" fill="#fff" stroke="#9BC9FF" stroke-width=".727" stroke-miterlimit="10" stroke-linecap="round" stroke-linejoin="round"/><path d="M637.854 421.627h21.271M642.65 448.957v-11.683c0-3.547 2.92-6.467 6.465-6.467s6.465 2.92 6.465 6.467v11.683h-12.93zM626.384 414.325v-6.467c0-3.547 2.919-6.467 6.465-6.467 3.545 0 6.464 2.92 6.464 6.467v6.467h-12.929zM609.91 414.325v-6.467c0-3.547 2.92-6.467 6.465-6.467s6.465 2.92 6.465 6.467v6.467h-12.93z" stroke="#9BC9FF" stroke-width=".727" stroke-miterlimit="10" stroke-linecap="round" stroke-linejoin="round"/><path d="M622.839 448.957l-41.917-105.98c-12.512 7.093-23.982 14.603-34.201 22.322l-17.517 83.658h93.635z" fill="#fff" stroke="#9BC9FF" stroke-width=".727" stroke-miterlimit="10" stroke-linecap="round" stroke-linejoin="round"/><path d="M591.974 363.63c-17.934 5.007-34.409 11.266-48.798 18.15l-14.181 67.177h96.554l-33.575-85.327z" fill="#fff" stroke="#9BC9FF" stroke-width=".727" stroke-miterlimit="10" stroke-linecap="round" stroke-linejoin="round"/><path d="M606.99 390.334c-25.859 2.295-49.216 7.51-68.819 14.604l-9.384 44.019h101.142l-22.939-58.623z" fill="#fff" stroke="#9BC9FF" stroke-width=".727" stroke-miterlimit="10" stroke-linecap="round" stroke-linejoin="round"/><path d="M624.09 420.167c-34.826.209-66.733 3.964-91.341 10.223l-3.962 18.358h106.564l-11.261-28.581z" fill="#fff" stroke="#9BC9FF" stroke-width=".727" stroke-miterlimit="10" stroke-linecap="round" stroke-linejoin="round"/><path d="M578.42 344.229l8.342 20.862M588.639 365.091l10.427 26.078M604.069 391.168l11.679 29.208M620.962 420.376l11.47 28.373" stroke="#9BC9FF" stroke-width=".727" stroke-miterlimit="10" stroke-linecap="round" stroke-linejoin="round"/><path d="M714.179 445.619c-1.877-.209-3.336-1.878-3.128-3.964.209-1.878 1.877-3.338 3.962-3.129 1.877.208 3.337 1.877 3.128 3.964-.208 1.877-1.668 3.129-3.545 3.129h-.417zm23.982-5.007c-.625-1.878.417-3.755 2.294-4.381 1.877-.626 3.754.417 4.38 2.295.625 1.877-.418 3.755-2.294 4.381-.417.208-.626.208-1.043.208-1.46 0-2.92-1.043-3.337-2.503zm-50.883-3.964c-1.669-1.043-2.294-3.129-1.252-4.798 1.043-1.669 3.128-2.295 4.797-1.252 1.668 1.043 2.294 3.129 1.251 4.798-.626 1.044-1.877 1.669-2.92 1.669-.834 0-1.459-.208-1.876-.417zm74.865-8.136c-1.251-1.461-1.251-3.755.209-5.007 1.46-1.252 3.545-1.252 5.005.209 1.251 1.46 1.251 3.755-.209 5.006-.625.626-1.459.835-2.294.835-1.042.209-1.876-.209-2.711-1.043zm-95.719-11.266c-1.043-1.669-.835-3.755.834-4.798 1.668-1.043 3.753-.835 4.796.834 1.043 1.669.834 3.756-.834 4.799-.626.417-1.251.626-2.085.626-1.043 0-2.086-.418-2.711-1.461zm113.028-9.596c-1.668-.835-2.502-2.921-1.668-4.59.834-1.669 2.919-2.504 4.588-1.669 1.668.834 2.502 2.921 1.668 4.59-.625 1.251-1.877 2.086-3.128 2.086-.626-.209-1.043-.209-1.46-.417zm-124.29-16.482c-.417-1.877.835-3.755 2.711-4.172 1.877-.417 3.754.834 4.171 2.712.417 1.878-.834 3.755-2.711 4.172h-.625c-1.669 0-3.129-1.043-3.546-2.712zm127.835-13.143c0-1.878 1.669-3.547 3.546-3.547 1.876 0 3.545 1.669 3.545 3.547 0 1.878-1.46 3.547-3.545 3.547-2.086 0-3.546-1.669-3.546-3.547zM658.29 366.759c-1.876-.417-3.128-2.294-2.71-4.172.417-1.878 2.293-3.129 4.17-2.712 1.877.417 3.128 2.295 2.711 4.172-.417 1.669-1.877 2.712-3.336 2.712-.417.209-.626.209-.835 0zm120.12-11.891c-.626-1.878.208-3.755 1.876-4.59 1.877-.626 3.754.209 4.588 1.878.834 1.877-.208 3.755-1.877 4.589-.417.209-.834.209-1.251.209-1.46.209-2.711-.626-3.336-2.086zM668.3 341.725c-1.459-1.252-1.876-3.338-.625-4.799 1.251-1.46 3.336-1.877 4.796-.626 1.46 1.252 1.877 3.338.626 4.799-.626.834-1.668 1.46-2.711 1.46-.626 0-1.46-.209-2.086-.834zm95.72-7.928c-1.459-1.252-1.46-3.547-.208-5.007 1.251-1.46 3.545-1.46 5.005-.209 1.459 1.252 1.459 3.547.208 5.007-.625.626-1.668 1.043-2.502 1.043-.834.209-1.877 0-2.503-.834zm-76.117-10.64c-.834-1.669-.208-3.755 1.46-4.798 1.668-.835 3.754-.209 4.796 1.46.835 1.669.209 3.755-1.459 4.799-.626.208-1.043.417-1.669.417-1.251-.209-2.502-.835-3.128-1.878zm54.429-2.712c-1.877-.626-2.711-2.712-2.085-4.381.625-1.878 2.711-2.712 4.379-2.086 1.877.626 2.711 2.712 2.085 4.381-.417 1.46-1.876 2.295-3.336 2.295-.209 0-.626 0-1.043-.209zm-28.987-6.467c-.209-1.878 1.251-3.547 3.128-3.755 1.877-.209 3.545 1.251 3.754 3.129.208 1.877-1.251 3.546-3.128 3.755h-.209c-1.877 0-3.545-1.252-3.545-3.129z" fill="#fff" stroke="#9BC9FF" stroke-width=".727" stroke-miterlimit="10" stroke-linecap="round" stroke-linejoin="round"/><path d="M721.895 327.33v101.39M732.113 328.373l-20.228 99.304M741.706 331.293l-39.623 93.464M750.673 336.3l-57.557 83.45M758.389 342.768L685.4 413.282M764.645 350.904l-85.501 54.242M769.233 359.875l-94.677 36.3M771.944 369.68l-100.099 16.69M772.57 379.903l-101.35-3.756M771.319 389.917l-98.639-23.783M767.773 399.513l-91.757-42.976M762.56 408.275l-81.331-60.501M755.678 415.786l-67.567-75.521M747.545 421.836l-51.301-87.622M738.161 426.008l-32.532-95.966M728.36 428.303l-12.929-100.556" stroke="#9BC9FF" stroke-width=".727" stroke-miterlimit="10" stroke-linecap="round" stroke-linejoin="round"/><path d="M721.894 383.658a5.632 5.632 0 0 0 5.631-5.633 5.632 5.632 0 0 0-11.261 0 5.632 5.632 0 0 0 5.63 5.633z" fill="#fff"/><path d="M726.483 327.538l.834-9.388c-3.962-.417-7.925-.208-12.095.209l1.042 9.179a41.894 41.894 0 0 1 10.219 0z" stroke="#9BC9FF" stroke-width=".727" stroke-miterlimit="10" stroke-linecap="round" stroke-linejoin="round"/><path d="M716.265 327.538l-1.043-9.179c-2.502.209-5.005.834-7.507 1.252l2.294 8.97c1.877-.417 4.171-.834 6.256-1.043zM710.008 328.79l-2.294-8.971c-3.962 1.043-7.716 2.295-11.261 3.964l3.962 8.345c2.92-1.46 6.048-2.503 9.593-3.338zM678.102 352.364l-8.133-4.798c-2.086 3.547-3.754 7.093-5.005 11.057l8.759 2.921c1.251-3.13 2.711-6.259 4.379-9.18zM736.493 329.416l2.711-8.971c-3.753-1.043-7.716-1.878-11.886-2.295l-.835 9.388c3.337.209 6.674.834 10.01 1.878zM700.208 332.128l-3.963-8.345c-3.753 1.669-7.09 3.755-10.427 6.259l5.631 7.51c2.919-2.295 5.839-3.964 8.759-5.424z" stroke="#9BC9FF" stroke-width=".727" stroke-miterlimit="10" stroke-linecap="round" stroke-linejoin="round"/><path d="M691.656 337.343l-5.63-7.51c-3.337 2.503-6.256 5.216-8.967 8.136l6.881 6.259c2.294-2.503 5.005-4.798 7.716-6.885zM770.694 364.256l8.967-2.504a52.566 52.566 0 0 0-4.379-11.265l-8.342 4.381a36.808 36.808 0 0 1 3.754 9.388zM745.877 333.171l4.38-8.136c-3.545-1.878-7.299-3.547-11.053-4.59l-2.711 8.971a88.018 88.018 0 0 1 9.384 3.755zM673.931 361.752l-8.759-2.92c-1.251 3.755-2.294 7.719-2.711 11.682l9.176 1.252c.417-3.546 1.042-6.884 2.294-10.014zM772.154 384.492l9.176 1.252c.417-3.964.626-7.928.209-12.1l-9.385.626c.626 3.338.417 6.884 0 10.222z" stroke="#9BC9FF" stroke-width=".727" stroke-miterlimit="10" stroke-linecap="round" stroke-linejoin="round"/><path d="M772.362 372.392c0 .626.209 1.252.209 1.878l9.384-.626c0-.834-.209-1.46-.209-2.295a71.041 71.041 0 0 0-1.876-9.597l-8.968 2.504c.626 2.503 1.043 5.216 1.46 8.136zM754.219 339.012l5.839-7.093c-3.128-2.503-6.464-4.798-10.01-6.676l-4.379 8.137c3.128 1.46 6.048 3.337 8.55 5.632zM766.94 354.659l8.342-4.381c-1.877-3.547-4.171-6.884-6.674-10.014l-7.298 5.842a43.245 43.245 0 0 1 5.63 8.553z" stroke="#9BC9FF" stroke-width=".727" stroke-miterlimit="10" stroke-linecap="round" stroke-linejoin="round"/><path d="M761.518 346.105l7.299-5.841a55.285 55.285 0 0 0-8.55-8.554l-5.839 7.094c2.502 2.294 4.796 4.798 7.09 7.301zM684.15 344.228l-6.882-6.259c-2.711 2.921-5.005 6.259-7.09 9.806l8.133 4.798c1.46-3.129 3.545-5.842 5.839-8.345zM733.99 427.26l2.294 8.971c3.962-1.043 7.716-2.295 11.261-3.964l-3.962-8.345c-3.128 1.461-6.256 2.504-9.593 3.338zM743.584 423.922l3.962 8.345c3.754-1.669 7.091-3.755 10.427-6.259l-5.63-7.51c-2.711 2.295-5.631 3.964-8.759 5.424zM727.526 428.512l1.043 9.179c2.503-.208 5.005-.834 7.508-1.251l-2.294-8.971c-1.877.417-3.963.834-6.257 1.043z" stroke="#9BC9FF" stroke-width=".727" stroke-miterlimit="10" stroke-linecap="round" stroke-linejoin="round"/><path d="M752.134 418.706l5.63 7.511c3.128-2.504 6.257-5.216 8.968-8.137l-6.882-6.258c-2.294 2.503-4.797 4.798-7.716 6.884zM772.153 384.493c-.417 3.338-1.251 6.676-2.294 10.014l8.759 2.92c1.251-3.755 2.294-7.719 2.711-11.683l-9.176-1.251zM727.526 428.512c-3.545.417-6.882.417-10.218.208l-.834 9.388c3.962.418 7.924.209 12.095-.208l-1.043-9.388z" stroke="#9BC9FF" stroke-width=".727" stroke-miterlimit="10" stroke-linecap="round" stroke-linejoin="round"/><path d="M759.642 411.822l6.881 6.259c2.711-2.921 5.005-6.259 7.091-9.806l-8.133-4.798c-1.46 3.129-3.545 5.842-5.839 8.345z" stroke="#9BC9FF" stroke-width=".727" stroke-miterlimit="10" stroke-linecap="round" stroke-linejoin="round"/><path d="M765.688 403.686l8.134 4.798c2.085-3.547 3.753-7.093 5.005-11.057l-8.759-2.921c-1.251 3.13-2.711 6.259-4.38 9.18zM671.637 371.557l-9.176-1.251c-.417 3.963-.625 7.927-.208 12.1l9.384-.626c-.626-3.338-.417-6.885 0-10.223zM673.096 391.794l-8.967 2.504a52.627 52.627 0 0 0 4.379 11.266l8.342-4.382c-1.46-2.92-2.711-6.05-3.754-9.388zM676.851 401.391l-8.341 4.381c1.877 3.546 4.171 6.884 6.673 10.014l7.299-5.842c-2.294-2.712-3.962-5.633-5.631-8.553z" stroke="#9BC9FF" stroke-width=".727" stroke-miterlimit="10" stroke-linecap="round" stroke-linejoin="round"/><path d="M671.429 383.658c0-.626-.209-1.252-.209-1.878l-9.384.626c0 .835.208 1.46.208 2.295a71.197 71.197 0 0 0 1.877 9.597l8.967-2.504c-.625-2.503-1.042-5.215-1.459-8.136zM707.506 426.634l-2.711 8.971c3.754 1.043 7.716 1.878 11.887 2.295l.834-9.388c-3.545-.209-6.882-.835-10.01-1.878zM697.914 422.67l-4.38 8.137c3.545 1.877 7.299 3.546 11.053 4.589l2.711-8.97c-3.128-.835-6.256-2.087-9.384-3.756zM682.482 409.944l-7.299 5.842a55.235 55.235 0 0 0 8.55 8.553l5.839-7.093c-2.711-2.295-5.005-4.798-7.09-7.302z" stroke="#9BC9FF" stroke-width=".727" stroke-miterlimit="10" stroke-linecap="round" stroke-linejoin="round"/><path d="M689.572 417.037l-5.84 7.093c3.129 2.504 6.465 4.799 10.01 6.676l4.38-8.136c-3.128-1.46-6.048-3.338-8.55-5.633z" stroke="#9BC9FF" stroke-width=".727" stroke-miterlimit="10" stroke-linecap="round" stroke-linejoin="round"/><path d="M725.232 445.619h-4.17v-7.511h2.502l1.668 7.511zM736.493 445.619h-4.171v-8.345l2.503-.626 1.668 8.971zM751.508 445.619h-34.409v3.546h34.409v-3.546zM836.801 419.75h-60.685l-1.252 29.416h63.188l-1.251-29.416zM836.801 419.75h-60.686l13.138-34.005h34.41l13.138 34.005z" fill="#fff" stroke="#9BC9FF" stroke-width=".727" stroke-miterlimit="10" stroke-linecap="round" stroke-linejoin="round"/><path d="M811.776 435.814h-10.427v13.352h10.427v-13.352z" fill="#9BC9FF"/><path d="M790.296 385.744l-1.251-18.984a17.27 17.27 0 0 1 17.309-17.316 17.27 17.27 0 0 1 17.309 17.316l-1.252 18.984h-32.115z" fill="#fff" stroke="#9BC9FF" stroke-width=".727" stroke-miterlimit="10" stroke-linecap="round" stroke-linejoin="round"/><path d="M806.354 363.839l-24.816-65.09" stroke="#9BC9FF" stroke-width=".727" stroke-miterlimit="10" stroke-linecap="round" stroke-linejoin="round"/><path d="M801.142 349.652c1.042 2.921 4.379 4.381 7.299 3.338l2.502-1.043c2.92-1.043 4.379-4.381 3.337-7.302l-16.684-43.602c-1.042-2.921-4.379-4.381-7.298-3.338l-7.925 2.921 18.769 49.026z" fill="#fff" stroke="#9BC9FF" stroke-width=".727" stroke-miterlimit="10" stroke-linecap="round" stroke-linejoin="round"/><path d="M806.354 363.838l65.064-24.826" stroke="#9BC9FF" stroke-width=".727" stroke-miterlimit="10" stroke-linecap="round" stroke-linejoin="round"/><path d="M820.535 358.414c-2.92 1.043-4.379 4.381-3.337 7.302l1.043 2.503c1.043 2.921 4.379 4.381 7.299 3.338l43.585-16.69c2.919-1.043 4.379-4.381 3.336-7.302l-2.919-7.927-49.007 18.776z" fill="#fff" stroke="#9BC9FF" stroke-width=".727" stroke-miterlimit="10" stroke-linecap="round" stroke-linejoin="round"/><path d="M806.354 363.839l25.024 65.09" stroke="#9BC9FF" stroke-width=".727" stroke-miterlimit="10" stroke-linecap="round" stroke-linejoin="round"/><path d="M811.776 377.817c-1.043-2.921-4.38-4.381-7.299-3.338l-2.503 1.043c-2.919 1.043-4.379 4.381-3.336 7.302l16.683 43.602c1.043 2.921 4.379 4.381 7.299 3.338l7.924-2.921-18.768-49.026z" fill="#fff" stroke="#9BC9FF" stroke-width=".727" stroke-miterlimit="10" stroke-linecap="round" stroke-linejoin="round"/><path d="M806.354 363.838l-64.856 24.827" stroke="#9BC9FF" stroke-width=".727" stroke-miterlimit="10" stroke-linecap="round" stroke-linejoin="round"/><path d="M792.382 369.054c2.919-1.043 4.379-4.381 3.336-7.302l-1.043-2.503c-1.042-2.921-4.379-4.381-7.298-3.338l-43.585 16.69c-2.92 1.043-4.38 4.381-3.337 7.301l2.92 7.928 49.007-18.776zM807.276 366.218a2.504 2.504 0 0 0-1.785-4.678 2.503 2.503 0 1 0 1.785 4.678zM515.024 448.957l11.262-28.165h32.949l8.759 28.165s-10.636-17.733-26.485-17.733c-16.058 0-26.485 17.733-26.485 17.733z" fill="#fff" stroke="#9BC9FF" stroke-width=".727" stroke-miterlimit="10" stroke-linecap="round" stroke-linejoin="round"/><path d="M565.908 410.779h-48.799v10.222h48.799v-10.222z" fill="#fff" stroke="#9BC9FF" stroke-width=".727" stroke-miterlimit="10" stroke-linecap="round" stroke-linejoin="round"/><path d="M564.24 420.792h-45.462v2.087h45.462v-2.087z" fill="#9BC9FF"/><path d="M560.485 410.778h-37.746l7.299-17.941h23.148l7.299 17.941z" fill="#fff" stroke="#9BC9FF" stroke-width=".727" stroke-miterlimit="10" stroke-linecap="round" stroke-linejoin="round"/><path d="M548.807 410.779h-14.389l2.92-14.813h8.55l2.919 14.813z" stroke="#9BC9FF" stroke-width=".727" stroke-miterlimit="10" stroke-linecap="round" stroke-linejoin="round"/><path d="M530.873 422.462h-11.678l-15.432 26.495h11.469l15.641-26.495zM552.353 422.462h11.678l15.432 26.495h-11.47l-15.64-26.495z" fill="#fff" stroke="#9BC9FF" stroke-width=".727" stroke-miterlimit="10" stroke-linecap="round" stroke-linejoin="round"/><path d="M552.353 388.039h-21.48v4.59h21.48v-4.59z" fill="#9BC9FF" stroke="#9BC9FF" stroke-width=".727" stroke-miterlimit="10"/><path d="M553.187 388.039h-23.148l-.626-5.633h24.399l-.625 5.633zM539.215 382.197h-8.55s4.171-29.624 5.214-39.429c.834-9.806 2.085-39.43 2.085-39.43h3.754l-2.503 78.859z" fill="#fff" stroke="#9BC9FF" stroke-width=".727" stroke-miterlimit="10" stroke-linecap="round" stroke-linejoin="round"/><path d="M544.012 382.197h8.55s-4.17-29.624-5.213-39.429c-.834-9.806-2.085-39.43-2.085-39.43h-3.754l2.502 78.859z" fill="#fff" stroke="#9BC9FF" stroke-width=".727" stroke-miterlimit="10" stroke-linecap="round" stroke-linejoin="round"/><path d="M536.504 333.379h10.218" stroke="#9BC9FF" stroke-width=".727" stroke-miterlimit="10" stroke-linecap="round" stroke-linejoin="round"/><path d="M546.305 299.583a3.739 3.739 0 0 1-3.754 3.755h-1.876a3.739 3.739 0 0 1-3.754-3.755v-6.676a3.739 3.739 0 0 1 3.754-3.755h1.876a3.739 3.739 0 0 1 3.754 3.755v6.676z" fill="#fff" stroke="#9BC9FF" stroke-width=".727" stroke-miterlimit="10" stroke-linecap="round" stroke-linejoin="round"/><path d="M542.551 279.138h-2.085v10.222h2.085v-10.222z" fill="#fff" stroke="#9BC9FF" stroke-width=".727" stroke-miterlimit="10" stroke-linecap="round" stroke-linejoin="round"/><path d="M541.508 279.138v-2.295" stroke="#9BC9FF" stroke-width=".727" stroke-miterlimit="10" stroke-linecap="round" stroke-linejoin="round"/><path d="M541.508 277.677a1.25 1.25 0 1 0 0-2.502 1.25 1.25 0 0 0 0 2.502z" fill="#9BC9FF"/><path d="M535.878 296.245h11.47M535.878 303.338h11.47" stroke="#9BC9FF" stroke-width=".727" stroke-miterlimit="10" stroke-linecap="round" stroke-linejoin="round"/><path d="M1415.71 290.612h-24.4l-13.97 158.553h52.34l-13.97-158.553z" fill="#fff" stroke="#9BC9FF" stroke-width=".727" stroke-miterlimit="10" stroke-linecap="round" stroke-linejoin="round"/><path d="M1419.25 287.9c0 1.878-1.67 3.546-3.54 3.546h-24.4c-1.88 0-3.55-1.668-3.55-3.546M1420.29 298.749c0 1.877-1.66 3.546-3.54 3.546H1390.26c-1.87 0-3.54-1.669-3.54-3.546M1421.55 312.726c0 1.878-1.67 3.547-3.55 3.547h-29.2c-1.87 0-3.54-1.669-3.54-3.547M1423.63 326.704c0 1.878-1.67 3.547-3.54 3.547h-33.16c-1.88 0-3.55-1.669-3.55-3.547M1425.72 343.394c0 1.877-1.67 3.546-3.55 3.546h-37.33c-1.87 0-3.54-1.669-3.54-3.546M1427.59 361.335c0 1.878-1.66 3.547-3.54 3.547h-41.29c-1.88 0-3.55-1.669-3.55-3.547M1429.68 379.485c0 1.878-1.67 3.547-3.55 3.547h-45.25c-1.88 0-3.54-1.669-3.54-3.547M1432.81 400.765c0 1.878-1.67 3.547-3.55 3.547h-51.51c-1.87 0-3.54-1.669-3.54-3.547M1439.9 425.591c0 1.878-1.67 3.547-3.55 3.547H1370.87c-1.88 0-3.54-1.669-3.54-3.547" stroke="#9BC9FF" stroke-width=".727" stroke-miterlimit="10" stroke-linecap="round" stroke-linejoin="round"/><path d="M1406.53 409.735h-5.84v12.726h5.84v-12.726zM1405.91 388.456h-4.8v10.64h4.8v-10.64zM1405.7 369.889h-4.38v7.927h4.38v-7.927zM1405.28 352.364h-3.54v6.676h3.54v-6.676zM1405.07 335.466h-3.13v5.841h3.13v-5.841zM1404.86 320.027h-2.71v5.216h2.71v-5.216zM1404.86 306.884h-2.92v4.381h2.92v-4.381zM1404.65 293.324h-2.29v4.381h2.29v-4.381z" fill="#9BC9FF"/><path d="M1391.52 291.446c0-6.676 5.42-11.891 11.88-11.891 6.68 0 11.89 5.424 11.89 11.891h-23.77z" stroke="#9BC9FF" stroke-width=".727" stroke-miterlimit="10" stroke-linecap="round" stroke-linejoin="round"/><path d="M1407.16 279.972l-3.55-.417-3.75.417V266.62h7.3v13.352zM1403.61 266.62v-19.819M1409.45 437.065h-11.89v12.101h11.89v-12.101zM1176.72 365.09h-10.43v19.82h10.43v-19.82zM1176.72 419.333h-10.43v22.948h10.43v-22.948zM1176.72 394.714h-10.43v14.813h10.43v-14.813z" stroke="#9BC9FF" stroke-width=".727" stroke-miterlimit="10" stroke-linecap="round" stroke-linejoin="round"/><path d="M1180.47 389.708c0 2.712-2.29 5.007-5 5.007h-8.76c-2.71 0-5-2.295-5-5.007 0-2.712 2.29-5.007 5-5.007h8.76c2.92 0 5 2.295 5 5.007zM1180.47 414.325c0 2.712-2.29 5.007-5 5.007h-8.76c-2.71 0-5-2.295-5-5.007 0-2.712 2.29-5.007 5-5.007h8.76c2.92.208 5 2.295 5 5.007zM1171.3 330.25l-5.01 34.84h10.43l-5.42-34.84zM1342.51 365.09h-10.43v19.82h10.43v-19.82zM1342.51 419.333h-10.43v22.948h10.43v-22.948zM1342.51 394.714h-10.43v14.813h10.43v-14.813z" stroke="#9BC9FF" stroke-width=".727" stroke-miterlimit="10" stroke-linecap="round" stroke-linejoin="round"/><path d="M1346.47 389.708c0 2.712-2.29 5.007-5 5.007h-8.76c-2.71 0-5.01-2.295-5.01-5.007 0-2.712 2.3-5.007 5.01-5.007h8.76c2.71 0 5 2.295 5 5.007zM1346.47 414.325c0 2.712-2.29 5.007-5 5.007h-8.76c-2.71 0-5.01-2.295-5.01-5.007 0-2.712 2.3-5.007 5.01-5.007h8.76c2.71.208 5 2.295 5 5.007zM1337.09 330.25l-5.01 34.84h10.43l-5.42-34.84zM1319.78 348.609h-10.43v18.567h10.43v-18.567zM1319.78 399.513h-10.43v21.488h10.43v-21.488zM1319.78 376.355h-10.43v13.978h10.43v-13.978z" stroke="#9BC9FF" stroke-width=".727" stroke-miterlimit="10" stroke-linecap="round" stroke-linejoin="round"/><path d="M1323.74 371.766c0 2.503-2.29 4.59-5 4.59h-8.76c-2.71 0-5.01-2.087-5.01-4.59 0-2.504 2.3-4.59 5.01-4.59h8.76c2.71 0 5 2.086 5 4.59zM1323.74 394.923c0 2.504-2.29 4.59-5 4.59h-8.76c-2.71 0-5.01-2.086-5.01-4.59 0-2.503 2.3-4.59 5.01-4.59h8.76c2.71 0 5 2.087 5 4.59zM1314.36 315.855l-5.01 32.754h10.43l-5.42-32.754zM1199.87 348.609h-10.43v18.567h10.43v-18.567zM1199.87 399.513h-10.43v21.488h10.43v-21.488zM1199.87 376.355h-10.43v13.978h10.43v-13.978z" stroke="#9BC9FF" stroke-width=".727" stroke-miterlimit="10" stroke-linecap="round" stroke-linejoin="round"/><path d="M1203.62 371.766c0 2.503-2.29 4.59-5 4.59h-8.76c-2.71 0-5.01-2.087-5.01-4.59 0-2.504 2.3-4.59 5.01-4.59h8.76c2.92 0 5 2.086 5 4.59zM1203.62 394.923c0 2.504-2.29 4.59-5 4.59h-8.76c-2.71 0-5.01-2.086-5.01-4.59 0-2.503 2.3-4.59 5.01-4.59h8.76c2.92 0 5 2.087 5 4.59zM1194.45 315.855l-5.01 32.754h10.43l-5.42-32.754zM1342.72 442.281h-176.43v7.093h176.43v-7.093zM1190.07 433.936c0-3.547 2.92-6.468 6.46-6.468 3.55 0 6.47 2.921 6.47 6.468M1203 433.936c0-3.547 2.92-6.468 6.46-6.468 3.55 0 6.47 2.921 6.47 6.468M1215.93 433.936c0-3.547 2.92-6.468 6.46-6.468 3.55 0 6.47 2.921 6.47 6.468" stroke="#9BC9FF" stroke-width=".727" stroke-miterlimit="10" stroke-linecap="round" stroke-linejoin="round"/><path d="M1228.65 433.936c0-3.547 2.92-6.468 6.46-6.468 3.55 0 6.47 2.921 6.47 6.468" stroke="#9BC9FF" stroke-width=".727" stroke-miterlimit="10" stroke-linecap="round" stroke-linejoin="round"/><path d="M1241.58 433.936c0-3.547 2.92-6.468 6.46-6.468 3.55 0 6.47 2.921 6.47 6.468" stroke="#9BC9FF" stroke-width=".727" stroke-miterlimit="10" stroke-linecap="round" stroke-linejoin="round"/><path d="M1254.3 433.936c0-3.547 2.92-6.468 6.46-6.468 3.55 0 6.47 2.921 6.47 6.468M1267.23 433.936c0-3.547 2.92-6.468 6.46-6.468 3.55 0 6.47 2.921 6.47 6.468M1280.16 433.936c0-3.547 2.92-6.468 6.46-6.468 3.55 0 6.47 2.921 6.47 6.468" stroke="#9BC9FF" stroke-width=".727" stroke-miterlimit="10" stroke-linecap="round" stroke-linejoin="round"/><path d="M1292.88 433.936c0-3.547 2.92-6.468 6.46-6.468 3.55 0 6.47 2.921 6.47 6.468" stroke="#9BC9FF" stroke-width=".727" stroke-miterlimit="10" stroke-linecap="round" stroke-linejoin="round"/><path d="M1305.81 433.936c0-3.547 2.92-6.468 6.46-6.468 3.55 0 6.47 2.921 6.47 6.468M1183.81 440.612c0-3.547 2.92-6.467 6.47-6.467 3.54 0 6.46 2.92 6.46 6.467" stroke="#9BC9FF" stroke-width=".727" stroke-miterlimit="10" stroke-linecap="round" stroke-linejoin="round"/><path d="M1196.53 440.612c0-3.547 2.92-6.467 6.47-6.467 3.54 0 6.46 2.92 6.46 6.467M1209.46 440.612c0-3.547 2.92-6.467 6.47-6.467 3.54 0 6.46 2.92 6.46 6.467" stroke="#9BC9FF" stroke-width=".727" stroke-miterlimit="10" stroke-linecap="round" stroke-linejoin="round"/><path d="M1222.18 440.612c0-3.547 2.92-6.467 6.47-6.467 3.54 0 6.46 2.92 6.46 6.467" stroke="#9BC9FF" stroke-width=".727" stroke-miterlimit="10" stroke-linecap="round" stroke-linejoin="round"/><path d="M1235.11 440.612c0-3.547 2.92-6.467 6.47-6.467 3.54 0 6.46 2.92 6.46 6.467M1248.04 440.612c0-3.547 2.92-6.467 6.47-6.467 3.54 0 6.46 2.92 6.46 6.467" stroke="#9BC9FF" stroke-width=".727" stroke-miterlimit="10" stroke-linecap="round" stroke-linejoin="round"/><path d="M1260.76 440.612c0-3.547 2.92-6.467 6.47-6.467 3.54 0 6.46 2.92 6.46 6.467M1273.69 440.612c0-3.547 2.92-6.467 6.47-6.467 3.54 0 6.46 2.92 6.46 6.467" stroke="#9BC9FF" stroke-width=".727" stroke-miterlimit="10" stroke-linecap="round" stroke-linejoin="round"/><path d="M1286.41 440.612c0-3.547 2.92-6.467 6.47-6.467 3.54 0 6.46 2.92 6.46 6.467" stroke="#9BC9FF" stroke-width=".727" stroke-miterlimit="10" stroke-linecap="round" stroke-linejoin="round"/><path d="M1299.34 440.612c0-3.547 2.92-6.467 6.47-6.467 3.54 0 6.46 2.92 6.46 6.467M1312.27 440.612c0-3.547 2.92-6.467 6.47-6.467 3.54 0 6.46 2.92 6.46 6.467" stroke="#9BC9FF" stroke-width=".727" stroke-miterlimit="10" stroke-linecap="round" stroke-linejoin="round"/><path d="M1189.44 434.561v-13.56h131.38v13.56M1218.85 405.563h-13.56v15.438h13.56v-15.438z" stroke="#9BC9FF" stroke-width=".727" stroke-miterlimit="10" stroke-linecap="round" stroke-linejoin="round"/><path d="M1230.94 394.506h-12.09v26.704h12.09v-26.704zM1303.1 405.563h-13.56v15.438h13.56v-15.438zM1289.33 394.506h-12.09v26.704h12.09v-26.704z" stroke="#9BC9FF" stroke-width=".727" stroke-miterlimit="10" stroke-linecap="round" stroke-linejoin="round"/><path d="M1277.45 383.24h-46.51v22.323h46.51V383.24zM1277.45 405.563h-46.51v15.438h46.51v-15.438zM1230.94 383.24c0-8.97 10.43-16.272 23.15-16.272 12.72 0 23.15 7.302 23.15 16.272h-46.3z" stroke="#9BC9FF" stroke-width=".727" stroke-miterlimit="10" stroke-linecap="round" stroke-linejoin="round"/><path d="M1238.87 405.563c0-4.59 6.88-8.136 15.22-8.136 8.55 0 15.22 3.755 15.22 8.136h-30.44zM1277.65 394.297c0-3.129 2.72-5.633 5.84-5.633 3.34 0 5.84 2.504 5.84 5.633h-11.68zM1289.54 396.8c7.3 0 13.35 3.964 13.35 8.762h-13.35V396.8zM1230.32 394.297c0-3.129-2.71-5.633-5.84-5.633-3.34 0-5.84 2.504-5.84 5.633h11.68zM1218.43 396.8c-7.3 0-13.35 3.964-13.35 8.762h13.35V396.8zM1254.09 367.176v-19.819" stroke="#9BC9FF" stroke-width=".727" stroke-miterlimit="10" stroke-linecap="round" stroke-linejoin="round"/><path d="M1258.05 364.464h-7.92v2.921h7.92v-2.921z" fill="#9BC9FF"/><path d="M1230.94 394.506h46.71" stroke="#9BC9FF" stroke-width=".727" stroke-miterlimit="10" stroke-linecap="round" stroke-linejoin="round"/><path d="M1327.7 400.348h-10.21v48.817h10.21v-48.817z" fill="#fff" stroke="#9BC9FF" stroke-width=".727" stroke-miterlimit="10" stroke-linecap="round" stroke-linejoin="round"/><path d="M1331.67 415.577c0 .626-.63 1.252-1.25 1.252h-15.65c-.62 0-1.25-.626-1.25-1.252 0-.625.63-1.251 1.25-1.251h15.65c.62 0 1.25.626 1.25 1.251z" fill="#9BC9FF"/><path d="M1383.38 400.348h-10.21v48.817h10.21v-48.817z" fill="#fff" stroke="#9BC9FF" stroke-width=".727" stroke-miterlimit="10" stroke-linecap="round" stroke-linejoin="round"/><path d="M1387.35 415.577c0 .626-.63 1.252-1.25 1.252h-15.64c-.63 0-1.26-.626-1.26-1.252 0-.625.63-1.251 1.26-1.251h15.64c.62 0 1.25.626 1.25 1.251z" fill="#9BC9FF"/><path d="M1391.31 396.592a3.74 3.74 0 0 1-3.75 3.755h-74.24a3.741 3.741 0 0 1-3.76-3.755 3.741 3.741 0 0 1 3.76-3.755h74.03c2.29 0 3.96 1.669 3.96 3.755z" fill="#fff" stroke="#9BC9FF" stroke-width=".727" stroke-miterlimit="10" stroke-linecap="round" stroke-linejoin="round"/><path d="M1327.7 384.701v8.136h-10.21v-10.014" fill="#fff"/><path d="M1327.7 384.701v8.136h-10.21v-10.014" stroke="#9BC9FF" stroke-width=".727" stroke-miterlimit="10" stroke-linecap="round" stroke-linejoin="round"/><path d="M1355.44 384.701h-10.22v8.136h10.22v-8.136z" fill="#fff" stroke="#9BC9FF" stroke-width=".727" stroke-miterlimit="10" stroke-linecap="round" stroke-linejoin="round"/><path d="M1383.38 382.823v10.014h-10.21v-8.136" fill="#fff"/><path d="M1383.38 382.823v10.014h-10.21v-8.136" stroke="#9BC9FF" stroke-width=".727" stroke-miterlimit="10" stroke-linecap="round" stroke-linejoin="round"/><path d="M1296.21 373.852s24.2 5.216 54.23 5.216c30.02 0 54.22-5.216 54.22-5.216v-8.762s-24.2 5.216-54.22 5.216c-30.03 0-54.23-5.216-54.23-5.216v8.762z" fill="#fff" stroke="#9BC9FF" stroke-width=".727" stroke-miterlimit="10" stroke-linecap="round" stroke-linejoin="round"/><path d="M1392.98 375.939v5.841c-10.01 1.461-25.24 3.13-42.55 3.13-17.3 0-32.53-1.669-42.54-3.13v-5.841s18.56 3.338 42.54 3.338c23.99-.209 42.55-3.338 42.55-3.338zM1432.81 250.973s90.3 59.666 62.14 198.401h-62.14V250.973z" fill="#fff" stroke="#9BC9FF" stroke-width=".727" stroke-miterlimit="10" stroke-linecap="round" stroke-linejoin="round"/><path d="M1432.81 220.097v229.068M1432.81 305.215h58.6l-8.55 8.971M1439.06 314.186h37.33M1439.06 323.991h41.5M1439.06 333.797h45.47M1439.06 343.602h49.64M1432.81 353.616H1496M1439.06 363.421h51.51M1439.06 373.227h53.6M1439.06 383.032h53.6M1439.06 393.046h53.6M1432.81 402.851h67.36M1439.06 412.656h53.6M1439.06 422.462h51.51M1439.06 432.476h49.64M1439.06 442.281h47.55M1142.31 213.63v27.747M1146.27 241.376h-7.71v4.59h7.71v-4.59zM1150.24 245.966h-15.44v4.59h15.44v-4.59zM1154.82 250.556h-24.81v4.589h24.81v-4.589z" stroke="#9BC9FF" stroke-width=".727" stroke-miterlimit="10" stroke-linecap="round" stroke-linejoin="round"/><path d="M1157.74 254.937h-30.44v4.59h30.44v-4.59zM1162.33 259.527h-39.83v4.59h39.83v-4.59zM1150.24 273.087h-15.44v4.59h15.44v-4.59zM1154.62 268.498h-24.82v4.589h24.82v-4.589z" stroke="#9BC9FF" stroke-width=".727" stroke-miterlimit="10" stroke-linecap="round" stroke-linejoin="round"/><path d="M1157.74 264.116h-30.44v4.59h30.44v-4.59zM1139.18 277.677h-3.12l1.46 23.575h1.66v-23.575zM1145.86 277.677h2.92l-1.25 23.575h-1.67v-23.575z" stroke="#9BC9FF" stroke-width=".727" stroke-miterlimit="10" stroke-linecap="round" stroke-linejoin="round"/><path d="M1149.61 301.043h-14.6v5.007h14.6v-5.007zM1148.36 306.05h-11.89v4.172h11.89v-4.172z" stroke="#9BC9FF" stroke-width=".727" stroke-miterlimit="10" stroke-linecap="round" stroke-linejoin="round"/><path d="M1138.97 345.271h-5.83l3.33-35.049h2.5v35.049z" fill="#fff" stroke="#9BC9FF" stroke-width=".727" stroke-miterlimit="10" stroke-linecap="round" stroke-linejoin="round"/><path d="M1136.26 345.271l1.46-35.049" stroke="#9BC9FF" stroke-width=".727" stroke-miterlimit="10" stroke-linecap="round" stroke-linejoin="round"/><path d="M1145.86 345.271h5.63l-3.13-35.049h-2.5v35.049z" fill="#fff" stroke="#9BC9FF" stroke-width=".727" stroke-miterlimit="10" stroke-linecap="round" stroke-linejoin="round"/><path d="M1148.57 345.271l-1.46-35.049" stroke="#9BC9FF" stroke-width=".727" stroke-miterlimit="10" stroke-linecap="round" stroke-linejoin="round"/><path d="M1154.62 345.271h-24.4v4.798h24.4v-4.798zM1153.16 350.069h-21.48v4.799h21.48v-4.799zM1138.98 447.914H1125l6.68-93.046h7.3v93.046z" fill="#fff" stroke="#9BC9FF" stroke-width=".727" stroke-miterlimit="10" stroke-linecap="round" stroke-linejoin="round"/><path d="M1133.76 354.868l-4.38 93.046M1133.76 447.914l3.13-93.046" stroke="#9BC9FF" stroke-width=".727" stroke-miterlimit="10" stroke-linecap="round" stroke-linejoin="round"/><path d="M1145.86 447.914h13.76l-6.46-93.046h-7.3v93.046z" fill="#fff" stroke="#9BC9FF" stroke-width=".727" stroke-miterlimit="10" stroke-linecap="round" stroke-linejoin="round"/><path d="M1151.07 354.868l4.38 93.046M1151.07 447.914l-3.13-93.046" stroke="#9BC9FF" stroke-width=".727" stroke-miterlimit="10" stroke-linecap="round" stroke-linejoin="round"/><path d="M1180.89 426.843H993.414v22.322h187.476v-22.322z" fill="#fff" stroke="#9BC9FF" stroke-width=".727" stroke-miterlimit="10" stroke-linecap="round" stroke-linejoin="round"/><path d="M1116.87 412.03c0-29.415-28.15-53.198-62.98-53.198-2.92 0-5.84.208-8.76.625l9.39 67.594h60.06c1.46-4.798 2.29-9.805 2.29-15.021z" fill="#fff" stroke="#9BC9FF" stroke-width=".727" stroke-miterlimit="10" stroke-linecap="round" stroke-linejoin="round"/><path d="M1107.9 447.705c0 .835-.62 1.461-1.46 1.461-.83 0-1.46-.626-1.46-1.461v-13.143c0-.835.63-1.46 1.46-1.46.84 0 1.46.625 1.46 1.46v13.143zM1114.16 447.705c0 .835-.63 1.461-1.46 1.461-.84 0-1.46-.626-1.46-1.461v-13.143c0-.835.62-1.46 1.46-1.46.83 0 1.46.625 1.46 1.46v13.143zM1120.41 447.705c0 .835-.62 1.461-1.46 1.461-.83 0-1.45-.626-1.45-1.461v-13.143c0-.835.62-1.46 1.45-1.46.84 0 1.46.625 1.46 1.46v13.143z" fill="#9BC9FF"/><path d="M1144.81 388.456c-11.67 0-21.89 5.216-28.98 13.143.83 3.338 1.25 6.885 1.25 10.431 0 5.216-.84 10.223-2.5 14.813h18.97l30.87-33.171a39.353 39.353 0 0 0-19.61-5.216zM1024.49 375.73c-1.67 0-3.13 0-4.8.209l6.88 50.904h27.53l-6.05-44.437c-6.67-4.173-14.81-6.676-23.56-6.676z" fill="#fff" stroke="#9BC9FF" stroke-width=".727" stroke-miterlimit="10" stroke-linecap="round" stroke-linejoin="round"/><path d="M1018.65 386.996c-6.26 0-12.31 1.669-17.31 4.381l14.8 35.466h10.85l-5.42-39.639c-1.05-.208-2.09-.208-2.92-.208zM845.142 360.5h-6.047v88.664h6.047V360.5z" fill="#fff" stroke="#9BC9FF" stroke-width=".727" stroke-miterlimit="10" stroke-linecap="round" stroke-linejoin="round"/><path d="M839.095 370.305h5.839M839.095 380.945h5.839M839.095 422.461h5.839M839.095 433.101h5.839" stroke="#9BC9FF" stroke-width=".727" stroke-miterlimit="10" stroke-linecap="round" stroke-linejoin="round"/><path d="M842.014 328.372l-2.919 32.128h5.839l-2.92-32.128zM887.893 360.5h-6.047v88.664h6.047V360.5z" fill="#fff" stroke="#9BC9FF" stroke-width=".727" stroke-miterlimit="10" stroke-linecap="round" stroke-linejoin="round"/><path d="M881.846 370.305h5.839M881.846 380.945h5.839M881.846 422.461h5.839M881.846 433.101h5.839" stroke="#9BC9FF" stroke-width=".727" stroke-miterlimit="10" stroke-linecap="round" stroke-linejoin="round"/><path d="M884.765 328.372l-2.919 32.128h5.839l-2.92-32.128zM881.846 370.305h-36.703v78.86h36.703v-78.86z" fill="#fff" stroke="#9BC9FF" stroke-width=".727" stroke-miterlimit="10" stroke-linecap="round" stroke-linejoin="round"/><path d="M845.143 430.18h36.703M845.143 390.958h36.703M855.152 380.736c0 1.878-1.459 3.338-3.336 3.338h-.209c-1.877 0-3.336-1.46-3.336-3.338v-2.295c0-1.877 1.459-3.337 3.336-3.337h.209c1.877 0 3.336 1.46 3.336 3.337v2.295zM866.83 380.736c0 1.878-1.46 3.338-3.337 3.338h-.208c-1.877 0-3.337-1.46-3.337-3.338v-2.295c0-1.877 1.46-3.337 3.337-3.337h.208c1.877 0 3.337 1.46 3.337 3.337v2.295zM878.717 380.736c0 1.878-1.46 3.338-3.337 3.338h-.208c-1.877 0-3.337-1.46-3.337-3.338v-2.295c0-1.877 1.46-3.337 3.337-3.337h.208c1.877 0 3.337 1.46 3.337 3.337v2.295zM863.494 407.232a3.755 3.755 0 0 0 0-7.511 3.755 3.755 0 1 0 0 7.511zM862.659 422.67c0 1.669-1.251 2.921-2.919 2.921-1.668 0-2.92-1.252-2.92-2.921v-9.179c0-1.669 1.252-2.921 2.92-2.921s2.919 1.252 2.919 2.921v9.179zM870.375 422.67c0 1.669-1.251 2.921-2.919 2.921-1.669 0-2.92-1.252-2.92-2.921v-9.179c0-1.669 1.251-2.921 2.92-2.921 1.668 0 2.919 1.252 2.919 2.921v9.179zM854.527 449.165c0-5.007 3.963-13.769 8.968-13.769 5.004 0 8.967 8.762 8.967 13.769h-17.935z" stroke="#9BC9FF" stroke-width=".727" stroke-miterlimit="10" stroke-linecap="round" stroke-linejoin="round"/><path d="M863.494 290.819l-18.351 79.486h36.703l-18.352-79.486z" fill="#fff" stroke="#9BC9FF" stroke-width=".727" stroke-miterlimit="10" stroke-linecap="round" stroke-linejoin="round"/><path d="M863.494 290.82v-18.359" stroke="#9BC9FF" stroke-width=".727" stroke-miterlimit="10" stroke-linecap="round" stroke-linejoin="round"/><path d="M899.78 389.29h-12.095v-33.588l6.047-6.259v-12.517h6.048v52.364z" fill="#fff" stroke="#9BC9FF" stroke-width=".727" stroke-miterlimit="10" stroke-linecap="round" stroke-linejoin="round"/><path d="M887.685 368.428h12.095" stroke="#9BC9FF" stroke-width=".727" stroke-miterlimit="10" stroke-linecap="round" stroke-linejoin="round"/><path d="M896.652 304.798l-2.92 32.128h6.048l-3.128-32.128zM932.729 389.29h12.095v-33.588l-6.048-6.259v-12.517h-6.047v52.364z" fill="#fff" stroke="#9BC9FF" stroke-width=".727" stroke-miterlimit="10" stroke-linecap="round" stroke-linejoin="round"/><path d="M944.824 368.428h-12.095" stroke="#9BC9FF" stroke-width=".727" stroke-miterlimit="10" stroke-linecap="round" stroke-linejoin="round"/><path d="M935.648 304.798l3.128 32.128h-6.047l2.919-32.128zM932.729 389.29l-16.475-15.646-16.475 15.646v-43.185h32.95v43.185zM916.254 267.037l-16.475 79.068h32.95l-16.475-79.068z" fill="#fff" stroke="#9BC9FF" stroke-width=".727" stroke-miterlimit="10" stroke-linecap="round" stroke-linejoin="round"/><path d="M916.255 267.037v-18.359" stroke="#9BC9FF" stroke-width=".727" stroke-miterlimit="10" stroke-linecap="round" stroke-linejoin="round"/><path d="M912.083 395.757c0 .418-.417.835-.834.835s-.834-.417-.834-.835v-9.596c0-.418.417-.835.834-.835s.834.417.834.835v9.596zM916.879 395.757c0 .418-.417.835-.834.835s-.834-.417-.834-.835v-9.596c0-.418.417-.835.834-.835s.834.417.834.835v9.596zM921.676 395.757c0 .418-.417.835-.834.835s-.834-.417-.834-.835v-9.596c0-.418.417-.835.834-.835s.834.417.834.835v9.596z" fill="#9BC9FF"/><path d="M892.689 422.253c0-3.13 2.503-8.554 5.631-8.554s5.631 5.424 5.631 8.554v23.783h-11.053v-23.783h-.209zM928.559 422.253c0-3.13 2.502-8.554 5.63-8.554s5.631 5.424 5.631 8.554v23.783h-11.053v-23.783h-.208zM908.747 414.534c0-4.173 3.337-11.266 7.508-11.266 4.17 0 7.507 7.302 7.507 11.266v31.919h-15.015v-31.919zM906.453 363.003c-1.668 0-3.128 2.921-3.128 4.59v13.143h5.422l.626-.626v-12.308c0-1.878-1.251-4.799-2.92-4.799zM929.185 367.593c0-1.669-1.46-4.59-3.128-4.59-1.669 0-3.128 2.921-3.128 4.59v12.309l.625.626h5.422v-12.935h.209zM916.255 357.162c-2.294 0-4.171 3.964-4.171 6.259v14.186l4.171-3.755 4.171 3.964v-14.187c0-2.503-1.877-6.467-4.171-6.467zM916.255 320.862c-2.294 0-4.171 3.964-4.171 6.259v14.186h8.133v-14.186c.209-2.295-1.668-6.259-3.962-6.259zM887.894 396.592h56.514M887.894 449.165h56.514" stroke="#9BC9FF" stroke-width=".727" stroke-miterlimit="10" stroke-linecap="round" stroke-linejoin="round"/><path d="M950.872 360.5h-6.048v88.664h6.048V360.5z" fill="#fff" stroke="#9BC9FF" stroke-width=".727" stroke-miterlimit="10" stroke-linecap="round" stroke-linejoin="round"/><path d="M944.824 370.305h5.839M944.824 380.945h5.839M944.824 422.461h5.839M944.824 433.101h5.839" stroke="#9BC9FF" stroke-width=".727" stroke-miterlimit="10" stroke-linecap="round" stroke-linejoin="round"/><path d="M947.744 328.372l-2.92 32.128h5.839l-2.919-32.128zM993.623 360.5h-6.048v88.664h6.048V360.5z" fill="#fff" stroke="#9BC9FF" stroke-width=".727" stroke-miterlimit="10" stroke-linecap="round" stroke-linejoin="round"/><path d="M987.575 370.305h5.839M987.575 380.945h5.839M987.575 422.461h5.839M987.575 433.101h5.839" stroke="#9BC9FF" stroke-width=".727" stroke-miterlimit="10" stroke-linecap="round" stroke-linejoin="round"/><path d="M990.495 328.372l-2.92 32.128h5.839l-2.919-32.128zM987.366 370.305h-36.703v78.86h36.703v-78.86z" fill="#fff" stroke="#9BC9FF" stroke-width=".727" stroke-miterlimit="10" stroke-linecap="round" stroke-linejoin="round"/><path d="M950.663 430.18h36.912M950.663 390.958h36.912M960.673 380.736c0 1.878-1.46 3.338-3.337 3.338h-.208c-1.877 0-3.337-1.46-3.337-3.338v-2.295c0-1.877 1.46-3.337 3.337-3.337h.208c1.877 0 3.337 1.46 3.337 3.337v2.295zM972.351 380.736c0 1.878-1.46 3.338-3.337 3.338h-.209c-1.877 0-3.336-1.46-3.336-3.338v-2.295c0-1.877 1.459-3.337 3.336-3.337h.209c1.877 0 3.337 1.46 3.337 3.337v2.295zM984.237 380.736c0 1.878-1.459 3.338-3.336 3.338h-.209c-1.877 0-3.337-1.46-3.337-3.338v-2.295c0-1.877 1.46-3.337 3.337-3.337h.209c1.877 0 3.336 1.46 3.336 3.337v2.295zM969.014 407.232a3.755 3.755 0 0 0 3.754-3.756 3.754 3.754 0 1 0-7.507 0 3.755 3.755 0 0 0 3.753 3.756zM968.18 422.67c0 1.669-1.251 2.921-2.92 2.921-1.668 0-2.919-1.252-2.919-2.921v-9.179c0-1.669 1.251-2.921 2.919-2.921 1.669 0 2.92 1.252 2.92 2.921v9.179zM975.896 422.67c0 1.669-1.251 2.921-2.92 2.921-1.668 0-2.919-1.252-2.919-2.921v-9.179c0-1.669 1.251-2.921 2.919-2.921 1.669 0 2.92 1.252 2.92 2.921v9.179zM960.048 449.165c0-5.007 3.962-13.769 8.967-13.769 5.005 0 8.967 8.762 8.967 13.769h-17.934z" stroke="#9BC9FF" stroke-width=".727" stroke-miterlimit="10" stroke-linecap="round" stroke-linejoin="round"/><path d="M969.015 290.819l-18.352 79.486h36.912l-18.56-79.486z" fill="#fff" stroke="#9BC9FF" stroke-width=".727" stroke-miterlimit="10" stroke-linecap="round" stroke-linejoin="round"/><path d="M969.015 290.82v-18.359" stroke="#9BC9FF" stroke-width=".727" stroke-miterlimit="10" stroke-linecap="round" stroke-linejoin="round"/><path d="M175.521 361.335l-76.326 87.831h153.486l-77.16-87.831z" fill="#fff" stroke="#9BC9FF" stroke-width=".727" stroke-miterlimit="10" stroke-linecap="round" stroke-linejoin="round"/><path d="M231.827 371.558l-67.359 77.608h135.76l-68.401-77.608z" fill="#fff" stroke="#9BC9FF" stroke-width=".727" stroke-miterlimit="10" stroke-linecap="round" stroke-linejoin="round"/><path d="M249.552 412.031c0 1.043-.834 1.669-1.668 1.669h-3.754c-1.042 0-1.668-.835-1.668-1.669 0-1.043.834-1.669 1.668-1.669h3.754c.834 0 1.668.834 1.668 1.669zM206.593 418.916c0 1.043-.834 1.669-1.668 1.669h-3.754c-1.042 0-1.668-.835-1.668-1.669 0-1.044.834-1.669 1.668-1.669h3.754c.834-.209 1.668.625 1.668 1.669zM224.527 444.576c0 1.043-.834 1.669-1.668 1.669h-3.754c-1.042 0-1.668-.835-1.668-1.669 0-1.043.834-1.669 1.668-1.669h3.754c.834-.209 1.668.626 1.668 1.669zM294.806 444.576c0 1.043-.834 1.669-1.669 1.669h-3.753c-1.043 0-1.669-.835-1.669-1.669 0-1.043.834-1.669 1.669-1.669h3.753c.835-.209 1.669.626 1.669 1.669zM208.887 415.369c0 1.043-.834 1.669-1.669 1.669h-3.753c-1.043 0-1.669-.835-1.669-1.669 0-1.043.835-1.669 1.669-1.669h3.753c1.043-.209 1.669.626 1.669 1.669z" stroke="#9BC9FF" stroke-width=".727" stroke-miterlimit="10" stroke-linecap="round" stroke-linejoin="round"/><path d="M99.612 322.323l-109.9 126.843h221.261L99.613 322.323z" fill="#fff" stroke="#9BC9FF" stroke-width=".727" stroke-miterlimit="10" stroke-linecap="round" stroke-linejoin="round"/><path d="M98.361 342.977c0 1.043-.834 1.669-1.668 1.669h-3.754c-1.042 0-1.668-.835-1.668-1.669 0-1.044.834-1.669 1.668-1.669h3.754c.834 0 1.668.834 1.668 1.669zM32.046 422.045c0 1.043-.834 1.669-1.668 1.669h-3.754c-1.043 0-1.668-.835-1.668-1.669 0-1.043.834-1.669 1.668-1.669h3.754c.834-.209 1.668.626 1.668 1.669zM34.34 418.499c0 1.043-.835 1.669-1.669 1.669h-3.754c-1.042 0-1.668-.835-1.668-1.669 0-1.044.834-1.669 1.668-1.669h3.754c1.043 0 1.668.625 1.668 1.669zM152.582 404.729c0 1.043-.835 1.669-1.669 1.669h-3.753c-1.043 0-1.669-.834-1.669-1.669 0-1.043.834-1.669 1.669-1.669h3.753c.834 0 1.669.835 1.669 1.669zM91.272 349.861c0 1.043-.835 1.669-1.669 1.669H85.85c-1.043 0-1.669-.835-1.669-1.669 0-1.043.834-1.669 1.669-1.669h3.753c1.043 0 1.669.834 1.669 1.669zM109.206 363.213c0 1.043-.835 1.669-1.669 1.669h-3.753c-1.043 0-1.669-.835-1.669-1.669 0-1.043.834-1.669 1.669-1.669h3.753c.834-.209 1.669.626 1.669 1.669zM131.103 387.414c0 1.043-.835 1.669-1.669 1.669h-3.753c-1.043 0-1.669-.835-1.669-1.669 0-1.044.834-1.669 1.669-1.669h3.753c.834-.209 1.669.625 1.669 1.669zM131.52 380.111c0 1.043-.835 1.669-1.669 1.669h-3.753c-1.043 0-1.669-.834-1.669-1.669 0-1.043.834-1.669 1.669-1.669h3.753c.834 0 1.669.626 1.669 1.669zM133.813 383.867c0 1.043-.834 1.669-1.668 1.669h-3.754c-1.043 0-1.668-.835-1.668-1.669 0-1.043.834-1.669 1.668-1.669h3.754c.834-.209 1.668.626 1.668 1.669zM155.084 401.182c0 1.043-.834 1.669-1.668 1.669h-3.754c-1.042 0-1.668-.834-1.668-1.669 0-1.043.834-1.669 1.668-1.669h3.754c.834 0 1.668.835 1.668 1.669zM108.162 401.808v10.431H93.565v-10.431H69.374v47.357h62.979v-47.357h-24.191z" stroke="#9BC9FF" stroke-width=".727" stroke-miterlimit="10" stroke-linecap="round" stroke-linejoin="round"/><path d="M117.547 421.21H84.18v27.955h33.367V421.21z" fill="#9BC9FF"/><path d="M73.753 449.165v-25.243a3.738 3.738 0 0 1 3.754-3.755 3.738 3.738 0 0 1 3.754 3.755v25.243h-7.508zM120.675 449.165v-25.243a3.738 3.738 0 0 1 3.754-3.755 3.738 3.738 0 0 1 3.753 3.755v25.243h-7.507zM95.025 395.966H66.871v5.842h28.153v-5.842zM133.605 395.966h-28.153v5.842h28.153v-5.842z" stroke="#9BC9FF" stroke-width=".727" stroke-miterlimit="10" stroke-linecap="round" stroke-linejoin="round"/><path d="M321.707 398.261c2.711 2.713 2.711 6.885 0 9.597l-18.768 18.776c-2.711 2.712-6.882 2.712-9.593 0l-18.769-18.776c-2.711-2.712-2.711-6.884 0-9.597l18.769-18.776h9.593l18.768 18.776z" fill="#fff" stroke="#9BC9FF" stroke-width=".727" stroke-miterlimit="10" stroke-linecap="round" stroke-linejoin="round"/><path d="M274.577 436.44v-2.712c0-10.223 8.341-18.568 18.56-18.568h11.052c10.219 0 18.56 8.345 18.56 18.568v15.438h-47.964V436.44h-.208z" fill="#fff" stroke="#9BC9FF" stroke-width=".727" stroke-miterlimit="10" stroke-linecap="round" stroke-linejoin="round"/><path d="M272.909 449.166v-10.014c0-1.669 1.459-3.13 3.128-3.13 1.668 0 3.128 1.461 3.128 3.13v10.014h-6.256zM279.373 449.166v-10.014c0-1.669 1.46-3.13 3.128-3.13 1.668 0 3.128 1.461 3.128 3.13v10.014h-6.256zM285.838 449.166v-10.014c0-1.669 1.46-3.13 3.128-3.13 1.669 0 3.129 1.461 3.129 3.13v10.014h-6.257zM292.303 449.166v-10.014c0-1.669 1.46-3.13 3.128-3.13 1.668 0 3.128 1.461 3.128 3.13v10.014h-6.256zM298.559 449.166v-10.014c0-1.669 1.46-3.13 3.128-3.13 1.668 0 3.128 1.461 3.128 3.13v10.014h-6.256zM305.024 449.166v-10.014c0-1.669 1.46-3.13 3.129-3.13 1.668 0 3.128 1.461 3.128 3.13v10.014h-6.257zM311.488 449.166v-10.014c0-1.669 1.46-3.13 3.128-3.13 1.669 0 3.128 1.461 3.128 3.13v10.014h-6.256zM317.745 449.166v-10.014c0-1.669 1.46-3.13 3.128-3.13 1.669 0 3.128 1.461 3.128 3.13v10.014h-6.256zM304.398 407.44H292.72v9.806h11.678v-9.806z" fill="#fff" stroke="#9BC9FF" stroke-width=".727" stroke-miterlimit="10" stroke-linecap="round" stroke-linejoin="round"/><path d="M309.821 389.708v10.639a11.217 11.217 0 0 1-11.262 11.266 11.217 11.217 0 0 1-11.261-11.266v-10.639h22.523zM287.506 389.708c0-2.921 2.086-5.216 4.797-5.216h12.512c2.711 0 4.797 2.295 4.797 5.216h-22.106z" fill="#fff" stroke="#9BC9FF" stroke-width=".727" stroke-miterlimit="10" stroke-linecap="round" stroke-linejoin="round"/><path d="M-12.165 449.165H1499.12" stroke="#9BC9FF" stroke-width=".727" stroke-miterlimit="10" stroke-linecap="round" stroke-linejoin="round"/></svg>