<svg width="1163" height="423" fill="none" xmlns="http://www.w3.org/2000/svg"><g clip-path="url(#clip0)"><path d="M649.498 128.104h-40.587v93.801c0 24.142-9.931 43.321-39.058 43.321-28.841.287-37.149-19.466-37.149-44.562v-92.56h-40.682V230.97c0 29.676 10.505 72.139 66.371 72.426 30.655.286 45.839-14.6 53.001-27.864v22.615h38.104V128.104zm16.139 170.043h40.587v-93.8c0-23.856 9.931-43.036 38.772-43.322 28.554 0 36.862 19.466 36.862 44.944v92.178h40.586V195.663c0-30.058-10.504-72.426-65.989-72.807-30.368-.287-45.552 14.504-53.001 27.863.287-8.016.287-15.172.287-22.615h-38.104v170.043zm172.374 0h40.586V128.104h-40.586v170.043zm0-192.945h40.586v-36.26h-40.586v36.26zm83.083 192.945h40.586V159.403h29.127l-12.033-31.299H961.68V68.942h-40.586v59.162h-28.172v31.299h28.172v138.744zm108.966 59.449h43.35l89.58-229.492h-43.36l-40.87 113.076-41.54-113.076h-43.357l64.177 163.555-27.98 65.937zM269.417 211.599l74.106-127.867L379.335 211.6l-35.812 127.867-74.106-127.867zm-36.099 20.707l74.107 127.866-129.113-33.016-93.302-94.85h148.308zM307.425 62.93l-74.107 127.867H85.01l93.302-94.85L307.425 62.93zm105.811 105.156L367.97.046l-168.744 45.04-25.021 43.894-50.709-.381-123.574 123 123.574 123 50.709-.382 25.021 43.895 168.744 45.039 45.266-168.039-25.689-43.513 25.689-43.513" fill="#000"/></g><defs><clipPath id="clip0"><path fill="#fff" d="M0 0h1163v423H0z"/></clipPath></defs></svg>