<svg width="68" height="68" fill="none" xmlns="http://www.w3.org/2000/svg"><path d="M52.062 19.125H15.937A8.493 8.493 0 0 0 7.716 25.5h52.568a8.493 8.493 0 0 0-8.222-6.375zM15.938 51h9.116a8.57 8.57 0 0 0 4.717-1.424l1.87-1.254a4.237 4.237 0 0 1 4.718 0l1.87 1.254A8.57 8.57 0 0 0 42.946 51h9.117a8.5 8.5 0 0 0 8.5-8.5H7.437a8.5 8.5 0 0 0 8.5 8.5zM63.75 27.625h-3.188v12.75h3.188a1.062 1.062 0 0 0 1.063-1.063V28.688a1.062 1.062 0 0 0-1.063-1.063zM5.313 27.625a2.125 2.125 0 0 0-2.125 2.125v8.5a2.125 2.125 0 0 0 2.124 2.125h2.125v-12.75H5.313z" fill="#9BC9FF"/><path d="M45.87 7.62a1.062 1.062 0 0 1-.714-1.849l.287-.26a15.272 15.272 0 0 1 19.582-.03l.319.29a1.063 1.063 0 0 1-1.43 1.57l-.285-.26a13.13 13.13 0 0 0-16.788.031l-.25.23c-.197.18-.455.279-.72.277zM63.75 26.563h-2.188a9.386 9.386 0 0 0-.273-1.41c-.008-.025-.01-.051-.019-.076a9.573 9.573 0 0 0-9.208-7.015H15.938a9.573 9.573 0 0 0-9.208 7.013c-.01.024-.01.051-.02.075a9.396 9.396 0 0 0-.272 1.413H5.313a3.187 3.187 0 0 0-3.188 3.187v8.5a3.188 3.188 0 0 0 3.188 3.188h1.062V42.5a9.574 9.574 0 0 0 9.563 9.563h9.116a9.628 9.628 0 0 0 5.312-1.604l1.871-1.255a3.156 3.156 0 0 1 3.533 0l1.874 1.265a9.617 9.617 0 0 0 5.302 1.593h9.117a9.574 9.574 0 0 0 9.562-9.562v-1.063h2.125a2.125 2.125 0 0 0 2.125-2.124V28.687a2.125 2.125 0 0 0-2.125-2.125zM8.5 41.438s.035-14.527.085-14.876h50.83c.05.349.085 14.875.085 14.875h-51zm7.438-21.25h36.124a7.438 7.438 0 0 1 6.71 4.25H9.228a7.437 7.437 0 0 1 6.71-4.25zM5.312 39.313A1.062 1.062 0 0 1 4.25 38.25v-8.5a1.063 1.063 0 0 1 1.063-1.063h1.062v10.625H5.312zm46.75 10.624h-9.116a7.49 7.49 0 0 1-4.125-1.243l-1.87-1.253a5.272 5.272 0 0 0-5.9 0l-1.864 1.248a7.495 7.495 0 0 1-4.133 1.248h-9.116a7.438 7.438 0 0 1-7.353-6.374h50.83a7.438 7.438 0 0 1-7.352 6.374zm9.563-10.624V28.687h2.125v10.625h-2.125zM22.615 16.84A21.78 21.78 0 0 1 34 13.813c4-.056 7.94.99 11.384 3.027a1.064 1.064 0 0 0 1.125-1.807 23.929 23.929 0 0 0-12.51-3.345 23.929 23.929 0 0 0-12.508 3.347 1.064 1.064 0 0 0 1.124 1.807v-.002zM45.387 53.285A21.76 21.76 0 0 1 34 56.313a21.76 21.76 0 0 1-11.387-3.028 1.064 1.064 0 0 0-1.124 1.807 23.906 23.906 0 0 0 12.51 3.346 23.908 23.908 0 0 0 12.512-3.348 1.064 1.064 0 0 0-1.124-1.807v.002z" fill="#1E81CE"/><path d="M40.375 28.688H34a1.062 1.062 0 0 0-.995.69l-2.192 5.846-2.192-5.844a1.06 1.06 0 0 0-1.72-.405 1.062 1.062 0 0 0-.271 1.149l3.187 8.5a1.063 1.063 0 0 0 1.991 0l2.929-7.812h4.576v2.125h-3.188a1.062 1.062 0 0 0-.85 1.7l3.188 4.25a1.064 1.064 0 0 0 1.879-.9 1.06 1.06 0 0 0-.18-.375l-1.912-2.55h2.125A1.062 1.062 0 0 0 41.438 34v-4.25a1.062 1.062 0 0 0-1.063-1.063zM50.918 12.006a1.063 1.063 0 0 0 1.36 1.632 4.645 4.645 0 0 1 5.95 0 1.062 1.062 0 1 0 1.36-1.632 6.765 6.765 0 0 0-8.67 0zM62.688 57.375h-2.126V55.25a1.062 1.062 0 1 0-2.124 0v2.125h-2.126a1.062 1.062 0 1 0 0 2.125h2.126v2.125a1.062 1.062 0 1 0 2.124 0V59.5h2.126a1.062 1.062 0 1 0 0-2.125zM3.188 13.813h2.124v2.124a1.063 1.063 0 0 0 2.125 0v-2.124h2.125a1.062 1.062 0 1 0 0-2.126H7.438V9.563a1.062 1.062 0 0 0-2.125 0v2.124H3.188a1.062 1.062 0 1 0 0 2.126zM56.313 28.688h-3.188a1.062 1.062 0 1 0 0 2.125h2.125v2.125a1.062 1.062 0 1 0 2.125 0V29.75a1.062 1.062 0 0 0-1.063-1.063z" fill="#1E81CE"/><path d="M48.875 10.625c.248 0 .49-.087.68-.246a8.864 8.864 0 0 1 11.386 0 1.063 1.063 0 0 0 1.434-1.567 11.026 11.026 0 0 0-14.25 0 1.063 1.063 0 0 0 .75 1.813z" fill="#1E81CE"/></svg>