<svg height="512" viewBox="0 0 64 64" width="512" xmlns="http://www.w3.org/2000/svg"><g data-name="Source code"><path d="M49 11H9a2.006 2.006 0 0 0-2 2v4h44v-4a2.006 2.006 0 0 0-2-2z" fill="#9bc9ff"/><circle cx="50" cy="50" fill="#9bc9ff" r="11"/><g fill="#1e81ce"><path d="M10 13h2v2h-2zM14 13h2v2h-2zM18 13h2v2h-2zM17 41h6v2h-6zM25 41h2v2h-2zM46 54a1 1 0 0 1-.707-.293l-3-3a1 1 0 0 1 0-1.414l3-3a1 1 0 0 1 1.414 1.414L44.414 50l2.293 2.293A1 1 0 0 1 46 54zM54 54a1 1 0 0 1-.707-1.707L55.586 50l-2.293-2.293a1 1 0 0 1 1.414-1.414l3 3a1 1 0 0 1 0 1.414l-3 3A1 1 0 0 1 54 54zM49 56a.948.948 0 0 1-.2-.02 1 1 0 0 1-.78-1.18l2-10a1 1 0 1 1 1.96.392l-2 10A1 1 0 0 1 49 56zM12 23v24a1 1 0 0 0 2 0V23a1 1 0 0 0-2 0zM20.832 21.445a1 1 0 0 0-1.387-.277l-3 2a1 1 0 0 0 0 1.664l3 2a1 1 0 1 0 1.11-1.664L18.8 24l1.752-1.168a1 1 0 0 0 .28-1.387zM27.168 26.555a1 1 0 0 0 1.387.277l3-2a1 1 0 0 0 0-1.664l-3-2a1 1 0 0 0-1.11 1.664L29.2 24l-1.752 1.168a1 1 0 0 0-.28 1.387zM25.316 20.051a1 1 0 0 0-1.265.633l-2 6a1 1 0 0 0 1.9.632l2-6a1 1 0 0 0-.635-1.265zM17 29h6v2h-6zM25 29h2v2h-2zM21 33h12v2H21zM39 31h9v2h-9zM21 37h2v2h-2zM25 37h12v2H25zM39 35h4v2h-4zM35 31h2v2h-2z"/><path d="M50 38a12 12 0 1 0 12 12 12.013 12.013 0 0 0-12-12zm0 22a10 10 0 1 1 10-10 10.011 10.011 0 0 1-10 10z"/><path d="M36 50H9a1 1 0 0 1-1-1V18h42v18a1 1 0 0 0 2 0V13a3 3 0 0 0-3-3H9a3 3 0 0 0-3 3v36a3 3 0 0 0 3 3h27a1 1 0 0 0 0-2zM9 12h40a1 1 0 0 1 1 1v3H8v-3a1 1 0 0 1 1-1zM6 62H2v-8h4v2H4v4h2zM20 62h-4v-2h2v-4h-2v-2h4zM6 57h2v2H6zM10 57h2v2h-2zM14 57h2v2h-2zM60 2h2v6h-2zM57 8h-1a2 2 0 0 1-2-2V4a2 2 0 0 1 2-2h1a2 2 0 0 1 2 2v2a2 2 0 0 1-2 2zm-1-4v2h1V4zM47 8h-1a2 2 0 0 1-2-2V4a2 2 0 0 1 2-2h1a2 2 0 0 1 2 2v2a2 2 0 0 1-2 2zm-1-4v2h1V4zM50 2h2v6h-2z"/></g></g></svg>