<svg width="1440" height="735" fill="none" xmlns="http://www.w3.org/2000/svg"><path d="M-6.083 244.923s420.574 310 707.417 98.001c286.843-212 767.496-34.001 767.496-34.001s365.93 636.375-40.87 352.696C1021.15 377.94 753.89 795.555 397.047 570.923c-356.842-224.632-531.047 68-531.047 68l127.917-394z" fill="url(#paint0_linear)"/><g opacity=".1"><path d="M233.749 66.965c0 8.587-6.94 15.538-15.489 15.538-8.55 0-15.49-6.951-15.49-15.538s6.94-15.539 15.49-15.539c8.549 0 15.489 6.952 15.489 15.539z" stroke="#ADBBF9" stroke-width="4"/><path d="M1178.19 286.993c0 8.587-6.94 15.539-15.49 15.539s-15.49-6.952-15.49-15.539 6.94-15.538 15.49-15.538 15.49 6.951 15.49 15.538zM925.387 252.364c0 8.587-6.941 15.538-15.49 15.538-8.55 0-15.49-6.951-15.49-15.538s6.94-15.539 15.49-15.539c8.549 0 15.49 6.952 15.49 15.539z" stroke="#A1C7FF" stroke-width="4"/><path stroke="#A1C7FF" stroke-width="3" d="M972.61 1.5h24.029v24.105H972.61zM779.429 302.843h24.029v24.105h-24.029zM197.5 206.381h24.029v24.105H197.5z"/><path transform="rotate(-22.146 673.328 -3044.58) skewX(-.111)" stroke="#FFE269" stroke-width="3" d="M1.952.825h24.04v24.094H1.952z"/><path d="M1257.03 229.675h9.88V223.2h-9.88v-10.385h-6.63V223.2h-9.85v6.475h9.85v10.359h6.63v-10.359zM501.793 306.206h9.877v-6.474h-9.877v-10.385h-6.627v10.385h-9.852v6.474h9.852v10.36h6.627v-10.36z" fill="#B6C8EF"/></g><g opacity=".5"><path d="M983.339 484.266c0 3.857-3.116 6.974-6.949 6.974-3.833 0-6.95-3.117-6.95-6.974s3.117-6.975 6.95-6.975 6.949 3.118 6.949 6.975z" stroke="#ADBBF9" stroke-width="4"/><path d="M1337.25 571.97c0 3.857-3.12 6.974-6.95 6.974s-6.95-3.117-6.95-6.974 3.12-6.975 6.95-6.975 6.95 3.118 6.95 6.975z" stroke="#A1C7FF" stroke-width="4"/><path d="M1163.14 566.32c0 5.884-4.75 10.645-10.61 10.645-5.85 0-10.61-4.761-10.61-10.645 0-5.885 4.76-10.646 10.61-10.646 5.86 0 10.61 4.761 10.61 10.646z" stroke="#FFE269" stroke-width="4"/><path stroke="#A1C7FF" stroke-width="3" d="M1363.12 451.5h10.831v10.87h-10.831zM1264.27 605.696h10.831v10.87h-10.831zM966.5 556.337h10.831v10.87H966.5z"/><path d="M1123.08 625.02h9.88v-6.475h-9.88V608.16h-6.62v10.385h-9.85v6.475h9.85v10.359h6.62V625.02z" fill="#B6C8EF"/></g><path d="M229.88 623.544c.693.208 1.213.555 1.56 1.04.347.555.485 1.179.416 1.872a2.02 2.02 0 0 1-.728 1.352c-.416.416-.936.624-1.56.624l-.936-.104c-5.269-1.109-9.325-2.6-12.168-4.472-2.843-1.872-4.819-4.091-5.928-6.656-1.04-2.565-1.56-5.685-1.56-9.36l.104-8.84c0-4.437-.936-8.043-2.808-10.816-1.872-2.843-4.853-4.299-8.944-4.368h-.52c-.763 0-1.421-.243-1.976-.728-.555-.555-.832-1.213-.832-1.976 0-.693.277-1.283.832-1.768.555-.555 1.213-.832 1.976-.832h.624c4.16-.069 7.141-1.456 8.944-4.16 1.803-2.773 2.704-6.413 2.704-10.92l-.104-8.84c0-4.229.763-7.661 2.288-10.296 1.595-2.635 3.779-4.68 6.552-6.136 2.773-1.525 6.344-2.843 10.712-3.952.555-.139.936-.208 1.144-.208.763 0 1.317.243 1.664.728.416.485.624 1.04.624 1.664 0 .555-.208 1.075-.624 1.56-.347.416-.832.728-1.456.936-4.229 1.317-7.384 2.669-9.464 4.056-2.08 1.317-3.501 2.947-4.264 4.888-.763 1.872-1.144 4.437-1.144 7.696l.104 8.528c0 4.299-.867 8.008-2.6 11.128-1.664 3.051-3.987 5.027-6.968 5.928 3.051 1.04 5.408 3.085 7.072 6.136 1.664 3.051 2.496 6.725 2.496 11.024l-.104 8.632c0 3.259.347 5.824 1.04 7.696.763 1.941 2.184 3.605 4.264 4.992 2.149 1.387 5.339 2.704 9.568 3.952z" fill="#EDEEF7"/><defs><linearGradient id="paint0_linear" x1="743" y1="239" x2="743" y2="734.463" gradientUnits="userSpaceOnUse"><stop stop-color="#C6DBFE"/><stop offset="1" stop-color="#C6DBFE" stop-opacity=".34"/></linearGradient></defs></svg>